<svg width="129" height="129" viewBox="0 0 129 129" fill="none" xmlns="http://www.w3.org/2000/svg">
<path d="M38.1135 64.5C38.1135 61.2617 35.4881 58.6364 32.2498 58.6364H8.79528C5.55699 58.6364 2.93164 61.2617 2.93164 64.5C2.93164 67.7383 5.55699 70.3636 8.79528 70.3636H32.2498C35.4881 70.3636 38.1135 67.7383 38.1135 64.5Z" fill="white" fill-opacity="0.7"/>
<path d="M120.204 58.6364H108.477C105.239 58.6364 102.613 61.2617 102.613 64.5C102.613 67.7383 105.239 70.3636 108.477 70.3636H120.204C123.442 70.3636 126.068 67.7383 126.068 64.5C126.068 61.2617 123.442 58.6364 120.204 58.6364Z" fill="white" fill-opacity="0.7"/>
<path d="M67.432 35.1818C70.6703 35.1818 73.2956 32.5565 73.2956 29.3182V5.86364C73.2956 2.62535 70.6703 0 67.432 0C64.1937 0 61.5684 2.62535 61.5684 5.86364V29.3182C61.5684 32.5565 64.1937 35.1818 67.432 35.1818Z" fill="white" fill-opacity="0.7"/>
<path d="M67.432 93.8182C64.1937 93.8182 61.5684 96.4435 61.5684 99.6818V123.136C61.5684 126.375 64.1937 129 67.432 129C70.6703 129 73.2956 126.375 73.2956 123.136V99.6818C73.2956 96.4435 70.6703 93.8182 67.432 93.8182Z" fill="white" fill-opacity="0.7"/>
<path d="M30.1153 18.8915C27.8261 16.6015 24.1133 16.6019 21.8229 18.8915C19.533 21.1814 19.533 24.8939 21.8229 27.1838L38.408 43.7693C39.553 44.9143 41.0537 45.487 42.554 45.487C44.0543 45.487 45.5554 44.9143 46.7 43.7697C48.9899 41.4798 48.9899 37.7673 46.7 35.4773L30.1153 18.8915Z" fill="white" fill-opacity="0.7"/>
<path d="M96.455 85.2315C94.1654 82.9419 90.4526 82.9419 88.1626 85.2315C85.8727 87.5214 85.8731 91.2339 88.1626 93.5238L104.748 110.109C105.893 111.254 107.394 111.826 108.894 111.826C110.395 111.826 111.896 111.253 113.04 110.109C115.33 107.819 115.33 104.106 113.04 101.816L96.455 85.2315Z" fill="white" fill-opacity="0.7"/>
<path d="M38.4076 85.2315L21.8229 101.816C19.533 104.106 19.533 107.819 21.8229 110.109C22.9679 111.254 24.4686 111.826 25.9693 111.826C27.47 111.826 28.9707 111.254 30.1153 110.109L46.7 93.5238C48.9899 91.2339 48.9899 87.5214 46.7 85.2315C44.41 82.9415 40.6972 82.9415 38.4076 85.2315Z" fill="white" fill-opacity="0.7"/>
</svg>
