<svg width="1101" height="105" viewBox="0 0 1101 105" fill="none" xmlns="http://www.w3.org/2000/svg">
<path d="M1100.66 5.30472H0.283691V104.368H1100.66V5.30472Z" fill="#B17124"/>
<path d="M1100.66 0.364929H0.283691V99.4278H1100.66V0.364929Z" fill="#E6AC51"/>
<g opacity="0.7">
<path opacity="0.7" d="M1100.67 82.7482V99.4277H679.045C672.737 98.4427 666.629 97.0701 660.828 95.3335C658.988 94.7629 657.21 94.1268 655.507 93.4288C655.028 93.2419 654.581 93.0461 654.134 92.8503L697.601 94.7372L708.769 95.2178L717.345 95.5916C725.078 96.0437 732.86 96.1538 740.622 95.9209C744.108 95.7607 747.563 95.467 751.018 95.1199C757.728 94.4434 764.376 93.5712 771.163 93.1351C788.594 92.0136 806.039 93.7759 823.516 94.9775C827.094 95.2089 830.688 95.4314 834.313 95.6005C850.142 96.2791 866.048 96.0346 881.791 94.8707C896.062 93.8294 910.197 92.2416 924.102 90.1178C930.935 89.0942 937.784 87.9461 944.91 87.7502C953.147 87.5277 961.261 88.5691 969.436 89.0408C1006.46 91.2215 1042.69 81.9204 1080.03 81.9204C1086.94 81.9423 1093.83 82.2187 1100.67 82.7482V82.7482Z" fill="#E5A049"/>
<path opacity="0.7" d="M352.714 48.1785C307.309 47.3185 262.25 43.296 218.517 36.1984C196.911 32.5813 175.735 28.1603 155.12 22.9634V22.9634C141.237 19.5545 127.586 15.9497 113.812 12.3628C108.66 11.0278 103.523 9.69268 98.3866 8.3576L94.8697 7.46755C85.6764 5.08814 76.4523 2.7206 67.1973 0.364929H114.429C123.36 3.09739 133.355 5.08221 143.165 7.01362L342.24 46.1047L352.714 48.1785Z" fill="#E5A049"/>
<path opacity="0.7" d="M979.139 0.364929C977.596 1.05027 976.054 1.70891 974.511 2.34085C962.726 6.94242 947.456 9.93299 930.997 12.2827L929.917 12.434C928.005 12.71 926.061 12.9592 924.118 13.2084C917.207 14.0984 910.235 14.8817 903.14 15.6115C900.379 15.9141 897.648 16.1901 894.918 16.5016L839.481 22.1979C820.338 24.156 801.15 26.123 781.498 27.2801C761.245 28.4639 740.653 28.7665 720.107 28.9534C638.184 29.6477 556.108 28.2325 474.757 24.7435C415.54 22.1979 352.004 17.623 310.095 3.18639C307.534 2.30227 305.061 1.38256 302.675 0.427233L979.139 0.364929Z" fill="#E5A049"/>
<path opacity="0.7" d="M910.328 0.364927C900.256 2.62915 889.915 4.47333 879.385 5.88325C859.333 8.28639 836.889 9.35445 816.143 11.0367C779.77 14.0094 748.735 14.4456 712.101 13.8848C697.37 13.6534 683.025 15.4424 668.34 15.9497C637.274 17.0178 606.532 13.4754 574.88 14.5346C563.049 14.9262 551.295 15.6293 539.403 15.7895C521.34 16.0298 503.354 15.0063 485.508 14.0094C470.158 13.2704 454.883 12.0821 439.742 10.4492C425.487 8.66379 411.475 6.28407 397.817 3.3288C395.673 2.87487 386.633 1.611 379.229 0.338226H407.303C415.955 1.74835 424.463 3.43917 432.785 5.40262C437.711 6.73511 442.887 7.7356 448.21 8.3843C452.476 8.71125 456.771 8.89846 461.075 8.94503C473.846 9.33665 486.156 10.7251 498.727 11.6152C524.286 13.3953 550.617 13.0838 576.685 12.7456L628.945 12.0602L706.07 11.0634L769.729 10.2356C790.799 9.95969 812.132 9.67487 832.385 7.61885C840.853 6.7288 849.044 5.59843 857.62 4.94869C871.056 3.87173 885.571 3.90734 897.556 1.5398C899.283 1.20158 900.949 0.809952 902.553 0.391627L910.328 0.364927Z" fill="#D49243"/>
<path opacity="0.7" d="M988.934 0.364929C973.336 4.88548 957.115 8.65145 940.437 11.6241V11.6241C933.666 12.8702 926.755 14.0094 919.737 15.0864C908.94 16.733 897.911 18.1838 886.758 19.4566C842.951 24.4853 797.185 27.0042 751.62 29.5052C721.325 31.1785 690.707 32.8518 660.088 32.1754C643.784 31.8016 627.695 30.7513 611.407 30.1728C589.981 29.3984 568.402 29.4429 546.853 29.4429C522.296 29.4429 497.385 29.3539 472.813 28.633H472.721C464.221 28.3927 455.753 28.0723 447.377 27.645C420.245 26.3011 393.806 23.9424 369.034 19.8126C363.827 19.0311 358.773 17.9456 353.948 16.5728C349.845 15.3 346.575 13.7157 342.364 12.4963C328.111 8.3487 303.261 8.04608 297.631 1.86912C301.866 2.14266 306.065 2.57375 310.203 3.15969C323.283 4.9398 335.13 8.00158 347.315 10.5649C418.101 25.4466 505.499 25.5267 588.053 25.1707L678.721 24.7435C698.188 24.6634 717.639 24.5744 737.059 24.1738C786.079 23.1503 834.56 20.0885 882.887 17.0534C889.658 16.6173 896.461 16.1634 903.155 15.6293C910.226 15.0738 917.231 14.2712 924.133 13.2262C925.676 12.9948 927.095 12.7456 928.545 12.4874C945.342 9.39896 959.071 4.27226 974.187 0.364929H988.934Z" fill="#D49243"/>
<path opacity="0.7" d="M1053.35 0.364929C1052.16 0.667822 1051.01 1.02187 1049.91 1.42409C1047.24 2.40315 1045.11 3.60472 1041.8 4.29006C1034.59 5.79425 1025.49 4.29006 1017.12 4.37906C1003.54 4.52147 993.762 8.75812 982.656 11.4995C973.576 13.612 964.054 15.0274 954.335 15.7094C944.263 16.4304 933.249 15.5403 923.825 17.3382C919.551 18.2861 915.483 19.5166 911.701 21.0052C883.581 30.6623 842.288 33.466 803.448 35.7623C754.952 38.6105 705.407 41.2628 656.787 38.6728C638.704 37.7249 620.507 37.7428 602.429 38.7262C584.891 39.812 570.176 43.9241 551.758 43.666C538.735 43.5062 525.79 42.4545 513.196 40.533C504.434 39.1801 496.228 37.4 487.266 36.1806C441.793 30.0037 386.078 39.1801 343.444 30.8403C332.692 28.8021 323.252 25.6335 311.128 24.9215C302.259 24.3874 292.988 25.233 284.227 24.512C272.859 23.622 264.668 20.2487 255.968 17.5162C241.747 13.066 224.625 9.90629 207.688 6.83561C195.271 4.55708 182.592 2.26074 169.558 0.39163H185.615C189.815 0.859008 193.97 1.45319 198.063 2.17173C204.68 3.38221 208.598 5.0555 215.031 6.39948C227.926 9.06964 244.338 8.4466 257.017 11.4728C266.689 13.7869 272.057 17.8723 281.867 20.1241C295.534 23.2749 313.581 22.0644 329.685 23.177C346.066 24.3073 360.457 27.9121 376.916 28.9089C385.358 29.2992 393.837 29.3468 402.29 29.0513C417.422 28.7131 432.384 27.734 447.3 27.6361C455.781 27.5446 464.261 27.8751 472.643 28.6241H472.736L473.507 28.7042C498.866 31.2052 521.68 36.5278 548.442 37.2754C573.538 37.9785 598.002 34.5251 623.084 33.7152C647.532 32.9675 671.95 34.7655 696.445 35.2372C739.727 36.1272 782.701 32.8162 825.028 29.5764C852.191 27.4848 880.558 25.322 904.59 20.1775C911.608 18.6644 915.387 16.7508 919.675 15.0864C922.784 13.855 926.247 12.951 929.902 12.4162V12.4162L930.997 12.2827C934.082 11.9028 937.222 11.6912 940.376 11.6508V11.6508C940.7 11.6508 941.054 11.6508 941.409 11.6508C953.641 11.4817 966.629 12.2026 977.565 10.2801C989.674 8.13509 997.387 3.00839 1010.84 2.38535C1015.23 2.18064 1019.71 2.50996 1024.15 2.38535C1029.77 2.21212 1035.31 1.54273 1040.58 0.400532L1053.35 0.364929Z" fill="#D49243"/>
<path opacity="0.7" d="M1100.67 38.7796V43.9419L1068 48.8372C1039.51 53.1094 1010.93 57.3995 981.237 60.5325C913.49 67.6529 841.856 68.6586 771.148 69.5754L656.216 71.0262C579.323 72.023 501.072 72.9665 426.785 65.9618C388.084 62.3037 349.012 56.4738 309.416 58.6633C299.02 59.2419 288.793 60.3722 278.273 60.3633C269.338 60.1995 260.443 59.604 251.68 58.5832L160.272 49.6649C152.577 48.7954 144.782 48.254 136.949 48.045C130.286 47.956 123.622 48.3298 116.897 48.2942C107.113 48.1083 97.3704 47.4774 87.7589 46.4073L0.283691 37.9874V34.4272C17.4671 36.1183 34.6917 37.7501 51.9574 39.3225C62.8783 40.3194 75.0024 40.9157 85.5068 42.3576C94.2682 43.5592 100.392 45.5262 110.788 45.1969C116.835 45.001 122.388 44.0042 128.142 43.3366C133.895 42.6691 140.62 42.3754 145.741 43.5236C150.477 44.5738 152.976 46.6654 158.081 47.4487C162.154 48.0895 166.858 47.7335 171.285 47.867C178.998 48.0984 185.754 49.7895 193.374 50.1366C202.012 50.5372 209.323 49.7539 217.637 51.0267C233.278 53.323 247.5 56.1 264.776 56.7052C285.554 57.444 306.424 55.8953 327.124 55.5304C331.812 55.3915 336.511 55.4719 341.176 55.7707C346.457 56.2813 351.665 57.0192 356.755 57.978C379.353 61.6895 403.509 60.8084 426.8 63.1848C434.513 63.977 439.788 65.7304 447.007 66.8518C459.162 68.7209 468.787 67.1277 481.158 66.3623C491.337 65.7175 501.637 66.2685 511.437 67.9822C514.152 68.4717 516.744 69.0681 519.613 69.4419C525.644 70.2162 532.292 69.9581 538.662 69.6911C564.746 68.6052 588.84 69.1749 614.97 68.8633C629.392 68.6942 647.717 69.2728 660.505 66.7005C663.975 65.9974 667.338 65.0806 671.302 64.9204C678.135 64.7246 683.55 66.8785 690.09 67.5906C701.473 68.8455 712.44 65.6414 723.485 64.0304C740.838 61.5471 760.505 63.1403 778.83 64.3864C795.273 65.5078 811.546 65.2764 828.19 65.6592C843.723 65.9885 855.199 64.066 870.655 63.2738C878.46 62.8644 886.404 63.1937 894.27 63.2115C908.901 63.2672 923.477 62.1773 937.599 59.9717C943.862 58.9749 949.939 57.7466 956.665 57.2304C962.835 56.7675 969.174 56.9188 975.421 56.6429C981.886 56.2704 988.302 55.652 994.625 54.7916C1007.38 53.2073 1022.27 52.1215 1032.86 49.211C1044.06 46.1581 1050.87 43.1319 1066.88 43.39C1071.37 43.6135 1075.89 43.6641 1080.4 43.5414C1088.33 43.1675 1094.5 40.8712 1100.67 38.7796Z" fill="#D49243"/>
<path opacity="0.7" d="M1100.67 18.2105V21.8241C1095.81 22.6162 1091.22 23.2838 1087.92 23.8801C1087.85 23.875 1087.79 23.875 1087.73 23.8801C1072.31 26.6511 1056.54 29.1581 1040.44 31.401C1028.38 33.0832 1015.97 34.6408 1005.42 37.2843C993.839 40.1859 984.013 43.6215 969.945 45.0811C957.513 46.3717 945.265 43.6393 933.774 44.8408C926.462 45.5974 923.501 48.401 917.069 49.5403C909.88 50.8665 902.723 50.4304 894.749 50.2524C876.239 49.8073 857.328 48.5434 839.219 50.4393C832.879 51.1068 827.048 52.2194 820.955 53.1895C795.319 57.1147 767.246 54.6403 742.165 57.889C726.416 59.9272 716.652 62.9801 698.573 60.9775C691.941 60.2565 685.786 58.9749 678.907 58.6455C672.976 58.4988 667.034 58.6597 661.152 59.1262C638.478 60.3811 616.559 59.9628 594.285 59.1262C573.137 58.3607 553.224 63.1759 531.953 61.7162C507.165 60.0251 481.929 61.5827 457.095 58.7078C443.536 57.1414 430.873 54.667 417.206 53.2785C401.935 51.7387 385.862 51.6141 370.021 51.2136C285.831 49.0597 203.508 38.4681 135.345 21.0141C124.548 18.2461 114.059 15.3 103.6 12.3628C88.9466 8.25078 76.2981 4.35235 62.3848 0.302612H67.7835C73.4908 1.7712 78.9975 3.35549 86.2935 4.00523C97.7851 5.02879 106.038 8.45549 112.979 11.8555C113.256 11.9979 113.519 12.1225 113.812 12.256C125.272 17.5963 137.998 19.9283 155.12 22.8565L157.511 23.266C168.108 25.0461 181.034 26.5948 190.15 29.167C199.559 31.8372 204.202 34.623 217.761 34.988C221.509 35.0859 225.319 34.9879 229.006 35.2283C237.428 35.7979 243.906 38.0675 251.356 39.5628C262.416 41.7791 266.596 42.0283 278.612 41.6633C285.261 41.4764 290.135 43.6927 295.95 44.8408C306.3 46.8612 319.088 45.3571 331.011 45.4906C334.781 45.5433 338.542 45.7305 342.271 46.0513C353.285 46.9414 364.082 48.4633 375.281 48.1607C381.667 47.9827 387.945 47.2084 394.331 47.4042C399.729 47.7 405.065 48.2961 410.265 49.1843C422.08 50.8665 434.683 50.9199 446.282 52.6733C456.648 54.2398 466.828 57.622 478.968 56.8654C485.801 56.4471 492.48 54.667 499.02 55.477C501.272 55.7618 503.17 56.367 505.406 56.6429C507.571 56.8842 509.772 57.0034 511.977 56.9989C530.487 57.2927 548.889 56.8832 566.967 57.9958C568.757 59.3398 568.433 56.99 572.119 56.2157C588.331 52.8869 608.646 54.6047 627.387 55.1476C639.943 55.5126 657.312 57.2571 668.942 55.5215C675.359 54.5602 681.961 53.3052 688.856 53.6701C694.825 53.9906 699.653 55.4503 705.206 56.3403C722.667 59.0639 738.54 54.7738 755.816 54.4089C773.554 54.0262 790.075 54.8806 807.582 52.8958C822.853 51.1157 836.288 47.2529 852.314 46.4429C868.341 45.633 886.095 48.9351 901.443 46.9592C911.408 45.6775 917.5 41.9037 927.527 40.7288C938.941 39.3581 949.739 42.0283 960.814 41.334C970.069 40.7555 979.787 37.667 988.317 36.0916C1012.09 31.7466 1036.3 28.248 1060.81 25.6157C1070.07 24.6277 1079.32 23.7288 1087.53 21.9665C1092.06 20.8913 1096.45 19.6362 1100.67 18.2105V18.2105Z" fill="#D49243"/>
<path opacity="0.7" d="M1100.67 61.4937V64.867C1094.76 65.3744 1088.89 65.8728 1083.12 66.4157C1068.82 67.7775 1054.35 69.1393 1039.56 69.2105C1035.67 69.1326 1031.78 69.2487 1027.93 69.5576C1023.66 70.0115 1020.08 71.0351 1015.88 71.578C1010.14 72.3257 1003.83 72.0942 997.726 72.0319C964.531 71.7382 933.157 76.9094 900.549 79.0812C854.428 82.1696 806.579 79.1969 760.181 81.5021C716.683 83.6738 672.953 90.4026 630.41 86.5754C617.515 85.4005 605.437 83.3 592.635 82.0005C573.168 80.0157 553.208 81.9204 533.233 81.6445C510.281 81.3419 487.328 81.0155 464.376 80.6655C417.525 79.9534 370.7 79.1672 323.9 78.3068C302.213 77.9063 280.479 77.4969 259.115 76.1618C220.923 73.7853 184.181 68.5162 145.495 67.644C124.162 67.1545 102.521 68.0267 81.5736 66.5403C68.7091 65.6503 56.4771 63.8702 43.7823 62.7042C29.6222 61.4047 14.3514 60.7906 0.407227 59.3131V54.6136C42.6872 60.1319 86.1548 65.1429 131.072 64.9026C152.158 64.7869 173.507 63.5141 194.161 64.9827C208.953 66.0419 222.681 68.4539 237.227 69.8602C250.711 71.0111 264.296 71.7242 277.918 71.9963C305.683 72.8211 333.505 73.5569 361.383 74.2037C397.154 75.0136 433.048 75.6634 468.864 75.0937C500.331 74.5775 531.968 73.1178 563.188 74.5864C596.337 76.144 627.973 80.9681 661.276 81.7602C702.615 82.7304 742.905 77.4791 784.09 75.877C816.205 74.6398 848.674 75.6278 880.99 75.2272C924.488 75.2272 968.557 71.5691 1010.81 68.356C1033.14 66.6471 1055.43 64.8759 1077.89 63.3806C1083.54 63.0157 1092.05 62.0723 1100.67 61.4937Z" fill="#D49243"/>
<path opacity="0.7" d="M679.894 95.289L660.828 95.3335L603.571 95.467L532.091 95.6361L408.259 95.9209C388.994 95.9654 369.697 96.001 350.431 95.9209C310.007 95.7133 269.609 94.8944 229.237 93.4644C213.08 92.8569 197.015 91.6049 181.157 89.7173C165.732 87.9372 150.446 92.0314 134.79 90.7141C127.077 90.0555 119.457 88.5335 111.652 88.7293C101.441 88.9874 92.0007 92.1204 81.7894 91.8801C67.4133 91.5508 56.0605 84.6885 41.6844 84.6796C36.1468 84.6796 30.8869 85.6942 25.5807 86.5131C17.312 87.7932 8.83315 88.5689 0.283691 88.8272V85.5963C8.85999 86.2461 17.8528 86.8424 24.3775 85.8455C30.3316 84.9555 35.5761 82.9351 41.7461 82.5435C53.5771 81.7958 63.6187 87.1539 75.4806 87.7592C87.3424 88.3644 98.5255 84.0654 110.526 84.2791C116.696 84.3948 122.465 85.7031 128.481 86.3796C152.235 89.0497 174.987 82.4099 198.48 86.3796C222.712 90.456 247.377 89.2366 272.288 90.6162C298.233 92.0581 324.394 91.2393 350.632 89.8775C358.576 89.4681 367.183 89.0497 374.047 91.0969C375.389 88.3822 381.374 86.7801 387.004 86.6466C392.634 86.5131 398.11 87.4921 403.509 88.2843C424.157 91.2614 445.69 91.5654 466.566 89.1743C471.903 88.5602 477.286 87.7681 482.731 87.9461C486.998 88.2013 491.206 88.7144 495.287 89.477C524.289 93.8797 554.292 95.6809 584.243 94.8173C609.031 94.0518 631.629 92.512 655.507 93.4555C662.622 93.724 669.704 94.2322 676.716 94.9775L679.894 95.289Z" fill="#D49243"/>
<path opacity="0.7" d="M679.894 95.289H694.81C693.896 95.4418 692.969 95.5666 692.033 95.6628C687.979 95.9339 683.875 95.8075 679.894 95.289V95.289Z" fill="#D49243"/>
<path opacity="0.7" d="M1100.67 80.345V86.3974C1075.15 85.05 1049.42 85.8687 1024.3 88.8272C1011.96 90.278 999.885 92.2539 987.283 92.3874C970.501 92.5209 953.826 89.3346 937.214 90.5183C928.776 91.1058 920.832 92.8058 912.534 93.7492C902.492 94.8974 892.08 94.9241 881.684 94.9419H881.36C862.068 94.9419 842.766 94.9775 823.454 95.0487C799.278 95.0843 775.112 95.1318 750.957 95.1911L711.608 95.2801H708.708H694.748C695.704 95.1199 696.614 94.9508 697.54 94.7639C699.237 94.4257 700.918 94.0518 702.677 93.767C715.927 91.6131 730.441 94.3723 744.324 93.1974C750.494 92.6634 756.263 91.355 762.217 90.4115C786.604 86.5665 810.281 90.2513 834.591 89.7885C851.559 89.477 869.806 87.5812 886.743 88.0618C902.415 88.5157 914.662 90.2869 930.149 86.7356C935.44 85.5251 940.545 83.8963 946.345 83.6204C955.4 83.1843 963.683 86.0859 972.676 86.7623C977.93 87.026 983.222 86.9064 988.425 86.4063L1011.21 84.7597C1032.03 83.2733 1052.85 82.8728 1073.52 81.5644C1080.14 81.1372 1090.31 80.4785 1100.67 80.345Z" fill="#D49243"/>
</g>
<path d="M1100.66 0.364929H0.283691V2.28744H1100.66V0.364929Z" fill="#FDC465"/>
<g clip-path="url(#clip0_543_59)">
<g style="mix-blend-mode:multiply" opacity="0.25">
<path d="M51.3299 48.26C51.3299 56.19 44.8999 64.79 36.9699 64.79C29.0399 64.79 22.6099 56.19 22.6099 48.26C22.6099 44.4515 24.1228 40.799 26.8158 38.1059C29.5088 35.4129 33.1614 33.9 36.9699 33.9C40.7784 33.9 44.4309 35.4129 47.1239 38.1059C49.8169 40.799 51.3299 44.4515 51.3299 48.26Z" fill="#212121"/>
</g>
<path d="M42.4685 61.5246C49.7956 58.4896 53.2751 50.0895 50.2401 42.7624C47.2051 35.4352 38.805 31.9558 31.4778 34.9908C24.1507 38.0258 20.6713 46.4259 23.7063 53.753C26.7413 61.0801 35.1414 64.5596 42.4685 61.5246Z" fill="#EEEEEE"/>
<path d="M26.5601 48.26C26.5601 54 31.2201 61.11 37.0001 61.11C42.7801 61.11 47.3901 54 47.3901 48.26H26.5601Z" fill="#757576"/>
<path d="M36.9698 58.68C42.7246 58.68 47.3898 54.0148 47.3898 48.26C47.3898 42.5052 42.7246 37.84 36.9698 37.84C31.215 37.84 26.5498 42.5052 26.5498 48.26C26.5498 54.0148 31.215 58.68 36.9698 58.68Z" fill="#E0E0E0"/>
<path d="M44.3902 41C45.2723 42.3387 45.7755 43.8913 45.8465 45.4929C45.9174 47.0946 45.5534 48.6856 44.7932 50.0971C44.0329 51.5085 42.9046 52.6879 41.5282 53.5099C40.1517 54.3319 38.5784 54.7659 36.9752 54.7659C35.372 54.7659 33.7986 54.3319 32.4222 53.5099C31.0457 52.6879 29.9175 51.5085 29.1572 50.0971C28.3969 48.6856 28.0329 47.0946 28.1039 45.4929C28.1748 43.8913 28.6781 42.3387 29.5602 41C28.1162 42.4625 27.1371 44.3194 26.7458 46.337C26.3545 48.3546 26.5686 50.4429 27.3611 52.3391C28.1537 54.2354 29.4893 55.8549 31.2 56.994C32.9107 58.133 34.92 58.7408 36.9752 58.7408C39.0304 58.7408 41.0397 58.133 42.7504 56.994C44.461 55.8549 45.7967 54.2354 46.5892 52.3391C47.3818 50.4429 47.5959 48.3546 47.2046 46.337C46.8133 44.3194 45.8341 42.4625 44.3902 41Z" fill="#BDBDBD"/>
<path d="M42 41.38C42 42.51 39.77 43.43 37 43.43C34.23 43.43 32 42.51 32 41.38C32 40.25 34.22 39.38 37 39.38C39.78 39.38 42 40.24 42 41.38Z" fill="#FAFBFB"/>
<path d="M36.9998 35.45C40.6634 35.4569 44.1859 36.8638 46.8461 39.3828C49.5063 41.9017 51.1032 45.3422 51.3098 49C51.3098 48.74 51.3098 48.48 51.3098 48.22C51.3098 44.4115 49.7969 40.759 47.1039 38.0659C44.4109 35.3729 40.7584 33.86 36.9498 33.86C33.1413 33.86 29.4888 35.3729 26.7958 38.0659C24.1028 40.759 22.5898 44.4115 22.5898 48.22C22.5898 48.48 22.5898 48.74 22.5898 49C22.7974 45.3249 24.4083 41.8699 27.0899 39.3484C29.7715 36.8268 33.319 35.4313 36.9998 35.45Z" fill="#FAFBFB"/>
</g>
<g clip-path="url(#clip1_543_59)">
<g style="mix-blend-mode:multiply" opacity="0.25">
<path d="M1067.33 48.26C1067.33 56.19 1060.9 64.79 1052.97 64.79C1045.04 64.79 1038.61 56.19 1038.61 48.26C1038.61 44.4515 1040.12 40.799 1042.82 38.1059C1045.51 35.4129 1049.16 33.9 1052.97 33.9C1056.78 33.9 1060.43 35.4129 1063.12 38.1059C1065.82 40.799 1067.33 44.4515 1067.33 48.26Z" fill="#212121"/>
</g>
<path d="M1058.47 61.5246C1065.8 58.4896 1069.28 50.0895 1066.24 42.7624C1063.21 35.4352 1054.8 31.9558 1047.48 34.9908C1040.15 38.0258 1036.67 46.4259 1039.71 53.753C1042.74 61.0801 1051.14 64.5596 1058.47 61.5246Z" fill="#EEEEEE"/>
<path d="M1042.56 48.26C1042.56 54 1047.22 61.11 1053 61.11C1058.78 61.11 1063.39 54 1063.39 48.26H1042.56Z" fill="#757576"/>
<path d="M1052.97 58.68C1058.72 58.68 1063.39 54.0148 1063.39 48.26C1063.39 42.5052 1058.72 37.84 1052.97 37.84C1047.21 37.84 1042.55 42.5052 1042.55 48.26C1042.55 54.0148 1047.21 58.68 1052.97 58.68Z" fill="#E0E0E0"/>
<path d="M1060.39 41C1061.27 42.3387 1061.78 43.8913 1061.85 45.4929C1061.92 47.0946 1061.55 48.6856 1060.79 50.0971C1060.03 51.5085 1058.9 52.6879 1057.53 53.5099C1056.15 54.3319 1054.58 54.7659 1052.97 54.7659C1051.37 54.7659 1049.8 54.3319 1048.42 53.5099C1047.05 52.6879 1045.92 51.5085 1045.16 50.0971C1044.4 48.6856 1044.03 47.0946 1044.1 45.4929C1044.17 43.8913 1044.68 42.3387 1045.56 41C1044.12 42.4625 1043.14 44.3194 1042.75 46.337C1042.35 48.3546 1042.57 50.4429 1043.36 52.3391C1044.15 54.2354 1045.49 55.8549 1047.2 56.994C1048.91 58.133 1050.92 58.7408 1052.97 58.7408C1055.03 58.7408 1057.04 58.133 1058.75 56.994C1060.46 55.8549 1061.8 54.2354 1062.59 52.3391C1063.38 50.4429 1063.6 48.3546 1063.2 46.337C1062.81 44.3194 1061.83 42.4625 1060.39 41Z" fill="#BDBDBD"/>
<path d="M1058 41.38C1058 42.51 1055.77 43.43 1053 43.43C1050.23 43.43 1048 42.51 1048 41.38C1048 40.25 1050.22 39.38 1053 39.38C1055.78 39.38 1058 40.24 1058 41.38Z" fill="#FAFBFB"/>
<path d="M1053 35.45C1056.66 35.4569 1060.19 36.8638 1062.85 39.3828C1065.51 41.9017 1067.1 45.3422 1067.31 49C1067.31 48.74 1067.31 48.48 1067.31 48.22C1067.31 44.4115 1065.8 40.759 1063.1 38.0659C1060.41 35.3729 1056.76 33.86 1052.95 33.86C1049.14 33.86 1045.49 35.3729 1042.8 38.0659C1040.1 40.759 1038.59 44.4115 1038.59 48.22C1038.59 48.48 1038.59 48.74 1038.59 49C1038.8 45.3249 1040.41 41.8699 1043.09 39.3484C1045.77 36.8268 1049.32 35.4313 1053 35.45Z" fill="#FAFBFB"/>
</g>
<defs>
<clipPath id="clip0_543_59">
<rect width="49.54" height="40.79" fill="white" transform="translate(12 24)"/>
</clipPath>
<clipPath id="clip1_543_59">
<rect width="49.54" height="40.79" fill="white" transform="translate(1028 24)"/>
</clipPath>
</defs>
</svg>
