<svg width="300" height="300" viewBox="0 0 300 300" fill="none" xmlns="http://www.w3.org/2000/svg">
<path opacity="0.15" d="M193.376 235.268C212.584 235.268 228.156 234.306 228.156 233.118C228.156 231.931 212.584 230.968 193.376 230.968C174.168 230.968 158.597 231.931 158.597 233.118C158.597 234.306 174.168 235.268 193.376 235.268Z" fill="#020202"/>
<path d="M194.58 131.366H192.478V217.623H194.58V131.366Z" fill="#999999"/>
<path d="M174.567 233.646C174.368 233.646 174.17 233.563 174.03 233.401C173.775 233.105 173.808 232.659 174.104 232.404L192.808 216.281C193.104 216.026 193.551 216.06 193.805 216.355C194.06 216.65 194.027 217.096 193.731 217.352L175.027 233.475C174.895 233.59 174.73 233.646 174.567 233.646Z" fill="#999999"/>
<path d="M212.185 233.646C212.022 233.646 211.857 233.59 211.723 233.475L193.019 217.352C192.723 217.096 192.69 216.65 192.945 216.355C193.201 216.059 193.647 216.026 193.942 216.281L212.646 232.404C212.942 232.659 212.975 233.105 212.72 233.401C212.581 233.563 212.384 233.646 212.185 233.646Z" fill="#999999"/>
<path d="M231.801 134.052H154.949V186.057H231.801V134.052Z" fill="#F7F7F7"/>
<path d="M233.682 134.053H153.069V136.469H233.682V134.053Z" fill="#436043"/>
<path d="M233.683 182.699H153.069V186.192H233.683V182.699Z" fill="#436043"/>
<path d="M188.86 141.442H157.466V142.328H188.86V141.442Z" fill="#DBD8D5"/>
<path d="M188.86 144.989H157.466V145.875H188.86V144.989Z" fill="#DBD8D5"/>
<path d="M188.86 148.534H157.466V149.42H188.86V148.534Z" fill="#DBD8D5"/>
<path d="M188.86 152.081H157.466V152.967H188.86V152.081Z" fill="#DBD8D5"/>
<path d="M209.548 159.312H206.103V174.629H209.548V159.312Z" fill="#40916C"/>
<path d="M201.891 163.396H198.445V174.627H201.891V163.396Z" fill="#95D2BD"/>
<path d="M217.209 163.396H213.762V174.627H217.209V163.396Z" fill="#95D2BD"/>
<path d="M194.233 166.459H190.786V174.627H194.233V166.459Z" fill="#C96701"/>
<path d="M171.619 168.739C171.619 171.174 169.643 173.15 167.208 173.15C167.14 173.15 167.074 173.143 167.006 173.14V175.787C167.072 175.789 167.14 175.793 167.208 175.793C171.104 175.793 174.261 172.635 174.261 168.739C174.261 168.58 174.253 168.424 174.243 168.268H171.593C171.609 168.424 171.619 168.58 171.619 168.739Z" fill="#C96701"/>
<path d="M173.437 167.732C173.447 167.888 173.454 168.043 173.454 168.202C173.454 168.043 173.447 167.888 173.437 167.732Z" fill="#95D2BD"/>
<path d="M166.199 172.603C163.858 172.496 161.989 170.57 161.989 168.202C161.989 165.765 163.964 163.791 166.4 163.791C168.677 163.791 170.551 165.517 170.785 167.732H173.435C173.193 164.055 170.137 161.148 166.398 161.148C162.503 161.148 159.344 164.306 159.344 168.202C159.344 172.098 162.503 175.256 166.398 175.256C166.331 175.256 166.264 175.254 166.196 175.251V172.603H166.199Z" fill="#95D2BD"/>
<path d="M178.436 163.163C177.79 161.924 178.269 160.396 179.508 159.75C179.543 159.731 179.579 159.718 179.614 159.7L178.911 158.354C178.876 158.372 178.842 158.387 178.807 158.405C176.826 159.439 176.06 161.884 177.095 163.863C177.136 163.944 177.181 164.022 177.229 164.097L178.576 163.393C178.524 163.321 178.478 163.244 178.436 163.163Z" fill="#C96701"/>
<path d="M177.778 164.158C177.732 164.081 177.687 164.003 177.646 163.924C177.687 164.005 177.732 164.081 177.778 164.158Z" fill="#95D2BD"/>
<path d="M180.165 159.76C181.384 159.191 182.846 159.675 183.473 160.879C184.12 162.117 183.641 163.647 182.403 164.293C181.244 164.898 179.834 164.518 179.126 163.453L177.778 164.158C178.878 165.963 181.204 166.629 183.104 165.637C185.085 164.602 185.851 162.158 184.817 160.178C183.782 158.197 181.338 157.431 179.358 158.465C179.393 158.448 179.428 158.432 179.462 158.415L180.165 159.76Z" fill="#95D2BD"/>
<path d="M229.933 145.725L224.438 146.546L225.664 148.084L214.566 155.839L203.586 148.377L187.773 161.925L188.619 162.912L203.677 150.007L214.576 157.416L226.473 149.102L227.897 150.892L229.933 145.725Z" fill="#477184"/>
<path d="M224.866 159.312H221.419V174.629H224.866V159.312Z" fill="#40916C"/>
<path d="M128.828 126.318C128.828 126.318 127.831 124.355 125.716 125.008C123.602 125.66 123.325 126.947 122.312 127.589C121.302 128.235 120.175 128.508 119.591 130.625C119.005 132.739 118.582 133.371 118.106 134.147C115.954 137.688 116.764 140.869 118.357 142.995C120.337 145.64 118.846 145.021 119.472 147.398C119.746 148.437 122.974 150.209 121.957 151.547C121.957 151.547 125.138 149.935 125.972 148.929C127.057 147.609 128.828 126.318 128.828 126.318Z" fill="#693514"/>
<path d="M128.717 126.318C128.717 126.318 129.712 124.355 131.828 125.008C133.941 125.66 134.218 126.947 135.231 127.589C136.24 128.235 137.368 128.508 137.956 130.625C138.54 132.739 138.964 133.371 139.437 134.147C141.59 137.688 140.779 140.869 139.188 142.995C137.208 145.64 138.699 145.021 138.071 147.398C137.8 148.437 134.571 150.209 135.588 151.547C135.588 151.547 132.405 149.935 131.574 148.929C130.487 147.609 128.717 126.318 128.717 126.318Z" fill="#4F250A"/>
<path d="M124.388 144.021C124.388 144.021 125.242 150.746 122.068 151.26C118.856 151.782 113.77 150.468 111.004 155.319C107.913 160.734 103.492 170.166 102.973 178.727C102.927 179.513 102.262 181.263 102.276 182.03C102.456 191.118 103.68 190.429 102.793 193.32C101.902 196.215 101.791 199.023 105.47 199.753C108.863 200.428 109.131 199.917 108.506 195.271C108.06 191.962 109.756 184.345 109.042 180.487C108.338 176.685 113.949 170.961 114.931 167.303V185.26H128.77V167.306H128.802V138.644L124.388 144.021Z" fill="#FFBA80"/>
<path d="M146.603 155.319C143.835 150.468 138.75 151.782 135.537 151.26C132.363 150.746 133.218 144.021 133.218 144.021L128.802 138.644V167.305H128.77V185.262H142.612V167.306H142.674C143.658 170.964 149.692 160.734 146.603 155.319Z" fill="#F7A054"/>
<path d="M136.807 138.171H136.647C136.716 137.624 136.782 137.086 136.849 136.58C137.192 133.945 137.967 126.243 128.773 126.243C119.579 126.243 120.351 133.943 120.696 136.58C120.762 137.086 120.831 137.624 120.895 138.171H120.739C119.338 137.135 119.221 139.841 119.804 140.763C120.287 141.529 120.3 141.61 120.589 142.454C120.807 143.076 121.162 143.159 121.459 143.09C121.496 143.456 121.531 143.778 121.553 144.034C121.681 145.455 125.096 148.3 125.873 149.192C126.595 150.027 127.805 149.701 128.196 149.683C128.585 149.665 128.771 149.652 128.771 149.652C128.771 149.652 128.956 149.664 129.35 149.683C129.735 149.701 130.947 150.027 131.672 149.192C132.445 148.3 135.862 145.455 135.989 144.034C136.013 143.778 136.041 143.456 136.081 143.09C136.38 143.159 136.739 143.076 136.95 142.454C137.244 141.61 137.253 141.529 137.737 140.763C138.323 139.841 138.206 137.135 136.807 138.171Z" fill="#FFBA80"/>
<path d="M151.097 164.794C152.892 165.767 152.892 167.067 154.124 166.184C157.313 163.898 163.347 159.285 165.521 156.753C168.576 153.199 169.136 153.059 170.886 156.04C172.788 159.276 170.615 161.058 167.863 162.319C165.112 163.578 166.442 164.034 159.77 170.211C159.207 170.732 157.482 171.428 156.841 171.887C152.137 175.249 151.247 174.63 147.344 175.206L143.832 169.947L151.097 164.794Z" fill="#FFBA80"/>
<path d="M128.771 149.652H128.773C128.773 149.652 128.958 149.664 129.351 149.683C129.737 149.701 130.949 150.027 131.673 149.192C132.446 148.3 135.863 145.455 135.99 144.034C136.015 143.778 136.042 143.456 136.083 143.09C136.381 143.159 136.74 143.076 136.951 142.454C137.245 141.61 137.254 141.529 137.739 140.763C138.323 139.842 138.205 137.135 136.805 138.171H136.645C136.715 137.624 136.781 137.086 136.847 136.58C137.062 134.936 137.443 131.316 135.464 128.827H128.77V149.652H128.771Z" fill="#F7A054"/>
<path d="M128.643 130.691C128.643 130.691 128.215 132.746 130.112 133.782C132.012 134.822 134.771 136.108 135.319 137.855C135.872 139.601 136.433 141.677 137.368 142.24C138.303 142.806 139.091 137.48 138.632 136.701C138.173 135.927 137.693 131.589 137.251 130.69C134.032 124.107 128.715 125.55 128.715 125.55L128.643 130.691Z" fill="#4F250A"/>
<path d="M128.899 130.691C128.899 130.691 129.328 132.746 127.431 133.782C125.531 134.822 122.771 136.108 122.224 137.855C121.671 139.601 121.11 141.677 120.175 142.24C119.24 142.806 118.452 137.48 118.911 136.701C119.37 135.927 119.852 131.589 120.292 130.69C123.511 124.107 128.828 125.55 128.828 125.55L128.899 130.691Z" fill="#693514"/>
<path d="M136.648 137.219C136.648 137.695 135.792 141.449 135.65 142.647C135.377 144.92 133.746 145.98 133.269 146.502C132.793 147.028 131.221 147.551 130.552 147.791C129.887 148.028 127.652 148.028 126.986 147.791C126.32 147.551 124.751 147.029 124.272 146.502C123.798 145.981 122.166 144.92 121.892 142.647C121.746 141.449 120.89 137.695 120.89 137.219C120.89 136.901 120.737 137.017 120.644 137.385C120.675 137.623 120.706 137.865 120.733 138.109C120.733 138.109 121.225 143.146 121.31 143.126C121.348 143.503 121.381 143.832 121.404 144.091C121.415 144.217 121.459 144.357 121.517 144.503C121.694 144.777 121.97 145.228 122.32 145.762C123.444 147.155 125.267 148.729 125.809 149.354C126.549 150.205 127.783 149.874 128.18 149.853C128.578 149.834 128.768 149.827 128.768 149.827C128.768 149.827 128.957 149.835 129.36 149.853C129.754 149.874 130.99 150.205 131.728 149.354C132.272 148.729 134.093 147.155 135.22 145.762C135.566 145.228 135.843 144.777 136.02 144.503C136.078 144.357 136.123 144.217 136.133 144.091C136.159 143.832 136.189 143.503 136.228 143.126C136.315 143.148 136.802 138.109 136.802 138.109C136.834 137.864 136.864 137.623 136.895 137.385C136.802 137.017 136.648 136.903 136.648 137.219Z" fill="#4F250A"/>
<path d="M129.533 148.328C129.204 148.01 128.772 148.065 128.772 148.065C128.772 148.065 128.337 148.01 128.008 148.328C127.681 148.647 126.984 148.413 126.984 148.413L128.388 149.569L128.772 149.186L129.155 149.569L130.558 148.413C130.558 148.413 129.862 148.645 129.533 148.328Z" fill="#4F250A"/>
<path d="M128.802 200.291C128.802 200.291 126.81 201.768 126.336 213.486C125.763 227.523 125.21 233.69 125.21 233.69H116.002L114.931 213.515V185.263L128.802 184.345V200.291Z" fill="#172C57"/>
<path d="M128.802 200.291C128.802 200.291 130.794 201.768 131.271 213.486C131.843 227.523 132.396 233.69 132.396 233.69H141.604L142.675 213.515V185.263L128.802 184.345V200.291Z" fill="#0E1F42"/>
<path d="M142.45 233.403L143.134 217.809H136.966V233.403H142.45Z" fill="#B05D2A"/>
<path d="M131.48 233.403L130.794 217.809H136.966V233.403H131.48Z" fill="#B05D2A"/>
<path d="M131.245 235.088C131.245 231.798 133.806 229.132 136.966 229.132C140.123 229.132 142.685 231.798 142.685 235.088C142.685 235.088 142.615 235.48 142.094 235.48C141.574 235.48 136.966 235.48 136.966 235.48C136.966 235.48 132.356 235.48 131.835 235.48C131.315 235.482 131.245 235.088 131.245 235.088Z" fill="#853A0C"/>
<path d="M130.154 214.05C130.154 213.758 130.386 213.515 130.667 213.515H143.262C143.547 213.515 143.776 213.756 143.776 214.05V218.433C143.776 218.728 143.547 218.969 143.262 218.969H130.667C130.385 218.969 130.154 218.728 130.154 218.433V214.05Z" fill="#853A0C"/>
<path d="M122.433 151.164V151.161C122.318 151.203 122.198 151.238 122.069 151.261C121.218 151.398 120.235 151.41 119.199 151.44C119.081 151.43 118.956 151.421 118.811 151.426C117.05 151.454 115.822 151.514 115.822 151.514C109.867 151.646 104.714 165.768 104.714 165.768L113.815 170.854L114.93 168.577V185.263H128.769V167.306H128.8V157.535L122.433 151.164Z" fill="#A6DAF5"/>
<path d="M135.174 151.164L135.175 151.161C135.292 151.203 135.409 151.238 135.537 151.261C136.387 151.398 137.372 151.41 138.407 151.44C138.525 151.43 138.651 151.421 138.794 151.426C140.555 151.454 141.785 151.514 141.785 151.514C147.741 151.646 152.892 165.768 152.892 165.768L143.792 170.854L142.675 168.577V185.263H128.835V167.306H128.802V157.535L135.174 151.164Z" fill="#77BBE6"/>
<path d="M115.157 233.403L114.471 217.809H120.641V233.403H115.157Z" fill="#B36434"/>
<path d="M126.127 233.403L126.812 217.809H120.641V233.403H126.127Z" fill="#B36434"/>
<path d="M126.362 235.088C126.362 231.798 123.799 229.132 120.641 229.132C117.482 229.132 114.921 231.798 114.921 235.088C114.921 235.088 114.992 235.48 115.513 235.48C116.034 235.48 120.641 235.48 120.641 235.48C120.641 235.48 125.252 235.48 125.77 235.48C126.291 235.482 126.362 235.088 126.362 235.088Z" fill="#964514"/>
<path d="M127.453 214.05C127.453 213.758 127.223 213.515 126.941 213.515H114.344C114.061 213.515 113.831 213.756 113.831 214.05V218.433C113.831 218.728 114.061 218.969 114.344 218.969H126.941C127.223 218.969 127.453 218.728 127.453 218.433V214.05Z" fill="#964514"/>
<path d="M128.008 148.328C127.681 148.647 126.984 148.413 126.984 148.413L128.388 149.569L128.772 149.186V148.066C128.772 148.065 128.336 148.01 128.008 148.328Z" fill="#693514"/>
<path d="M126.986 147.791C126.32 147.551 124.751 147.029 124.272 146.502C123.798 145.981 122.166 144.92 121.892 142.647C121.746 141.449 120.89 137.695 120.89 137.219C120.89 136.901 120.737 137.017 120.644 137.385C120.675 137.623 120.706 137.865 120.733 138.109C120.733 138.109 121.225 143.146 121.31 143.126C121.348 143.503 121.381 143.832 121.404 144.091C121.415 144.217 121.459 144.357 121.517 144.503C121.694 144.777 121.97 145.228 122.32 145.762C123.444 147.155 125.267 148.729 125.809 149.354C126.549 150.205 127.783 149.874 128.18 149.853C128.578 149.834 128.768 149.827 128.768 149.827V147.967C128.047 147.967 127.32 147.909 126.986 147.791Z" fill="#693514"/>
<path d="M114.931 185.263V151.514L119.346 151.424V167.961H128.771V185.263H114.931Z" fill="#172C57"/>
<path d="M142.613 185.263V151.514L138.195 151.424V167.961H128.771V185.263H142.613Z" fill="#0E1F42"/>
<path d="M134.181 180.985C134.129 181.273 133.845 181.511 133.55 181.511H123.993C123.698 181.511 123.417 181.273 123.365 180.985L121.945 173.02C121.893 172.729 122.094 172.49 122.388 172.49H135.156C135.452 172.49 135.65 172.729 135.598 173.02L134.181 180.985Z" fill="#964514"/>
<path d="M135.156 172.492H130.535H129.307H128.803V172.871C128.787 172.922 128.771 172.972 128.771 173.027V180.975C128.771 181.031 128.787 181.083 128.803 181.131V181.51H129.307H130.535H133.55C133.845 181.51 134.129 181.272 134.181 180.983L135.598 173.019C135.648 172.729 135.451 172.492 135.156 172.492Z" fill="#853A0C"/>
<path d="M143.832 133.099C143.832 130.277 137.089 127.99 128.771 127.99C120.453 127.99 113.712 130.277 113.712 133.099C113.712 135.923 120.453 138.21 128.771 138.21C137.089 138.21 143.832 135.923 143.832 133.099Z" fill="#FFB804"/>
<path d="M128.771 127.99V138.21C137.09 138.21 143.832 135.923 143.832 133.099C143.832 130.277 137.09 127.99 128.771 127.99Z" fill="#FCA001"/>
<path d="M128.771 133.847C124.409 133.847 119.376 132.944 119.376 132.138C119.376 131.333 120.476 123.289 128.771 123.289V133.847Z" fill="#FCA001"/>
<path d="M128.771 133.847C133.134 133.847 138.167 132.944 138.167 132.138C138.167 131.333 137.903 123.289 128.771 123.289V133.847Z" fill="#F58300"/>
<path d="M128.771 131.17C125.19 131.17 121.158 130.558 119.832 129.898C119.476 131.016 119.376 131.899 119.376 132.138C119.376 132.942 124.409 133.847 128.771 133.847C133.134 133.847 138.167 132.944 138.167 132.138C138.167 131.893 138.141 130.974 137.85 129.818C136.692 130.512 132.495 131.17 128.771 131.17Z" fill="#964514"/>
<path d="M138.166 132.138C138.166 131.893 138.14 130.974 137.849 129.818C136.693 130.512 132.494 131.17 128.77 131.17V133.847C133.133 133.847 138.166 132.944 138.166 132.138Z" fill="#853A0C"/>
<path d="M176.977 189.51H80.6299V232.502H176.977V189.51Z" fill="#B05D2A"/>
<path d="M128.803 189.51H80.6299V232.502H128.803V189.51Z" fill="#B36434"/>
<path d="M179.662 187.249H77.5576V190.297H179.662V187.249Z" fill="#853A0C"/>
<path d="M128.61 187.249H77.5576V190.297H128.61V187.249Z" fill="#964514"/>
<path d="M181.937 181.751H75.2866V187.368H181.937V181.751Z" fill="#4F250A"/>
<path d="M128.802 181.751H75.2866V187.368H128.802V181.751Z" fill="#693514"/>
<path d="M89.8427 121.154H80.6299V181.753H89.8427V121.154Z" fill="#B36434"/>
<path d="M176.593 121.154H167.381V181.753H176.593V121.154Z" fill="#B05D2A"/>
<path d="M75.2866 117.891L82.5486 100.617H128.588V121.758H75.2866V117.891Z" fill="#964514"/>
<path d="M181.891 117.891L174.626 100.617H128.588V121.758H181.891V117.891Z" fill="#853A0C"/>
<path d="M128.588 117.891H75.2866V121.758H128.588V117.891Z" fill="#693514"/>
<path d="M181.891 117.891H128.588V121.758H181.891V117.891Z" fill="#693514"/>
<path d="M97.5129 229.155C92.5696 229.155 87.7936 230.048 88.9133 226.767C90.033 223.483 89.3231 214.529 92.3647 212.737C95.4063 210.947 95.9488 210.831 96.2013 208.246H97.5129V229.155V229.155Z" fill="#FCA001"/>
<path d="M97.5127 229.155C102.452 229.155 107.232 230.048 106.111 226.767C104.99 223.483 105.7 214.529 102.658 212.737C99.6164 210.947 99.0753 210.831 98.8228 208.246H97.5112V229.155H97.5127Z" fill="#F58300"/>
<path d="M95.9546 209.686C95.9546 209.686 93.2376 207.589 93.1309 206.021C93.1309 206.021 94.366 205.797 95.4092 206.021C96.4538 206.244 96.7814 206.244 97.5143 206.244V209.976L95.9546 209.686Z" fill="#FCA001"/>
<path d="M99.0681 209.686C99.0681 209.686 101.786 207.589 101.892 206.021C101.892 206.021 100.658 205.797 99.6135 206.021C98.5689 206.244 98.2442 206.244 97.5112 206.244V209.976L99.0681 209.686Z" fill="#F58300"/>
<path d="M97.4581 210.505C96.3644 210.505 95.6646 210.139 95.6242 210.113C95.477 210.035 95.4236 209.854 95.5015 209.712C95.5795 209.566 95.7613 209.511 95.9056 209.59C95.9604 209.618 97.2633 210.29 99.1116 209.598C99.266 209.541 99.4363 209.618 99.494 209.772C99.5517 209.927 99.4752 210.098 99.3209 210.157C98.6254 210.414 97.9934 210.505 97.4581 210.505Z" fill="#172C57"/>
<path d="M97.4551 211.085C96.2921 211.085 95.549 210.696 95.5043 210.671C95.3586 210.593 95.3037 210.411 95.3831 210.266C95.461 210.123 95.6428 210.068 95.7856 210.146C95.8044 210.155 97.2487 210.896 99.2298 210.155C99.3842 210.097 99.5559 210.176 99.6151 210.329C99.6713 210.485 99.5934 210.655 99.4376 210.713C98.6974 210.991 98.0236 211.085 97.4551 211.085Z" fill="#172C57"/>
<path d="M88.6908 229.12C82.2686 229.12 76.0541 230.283 77.5114 226.015C78.9687 221.748 78.0452 210.105 82.0002 207.778C85.9537 205.449 86.6578 205.299 86.9839 201.939H88.6908V229.12Z" fill="#7CA324"/>
<path d="M88.6909 229.12C95.1146 229.12 101.326 230.283 99.8689 226.015C98.4116 221.748 99.3365 210.105 95.3801 207.778C91.4266 205.449 90.7225 205.299 90.3964 201.939H88.6909V229.12Z" fill="#668A16"/>
<path d="M86.6648 203.809C86.6648 203.809 83.1326 201.083 82.9927 199.046C82.9927 199.046 84.5986 198.757 85.9578 199.046C87.3127 199.337 87.7369 199.337 88.6906 199.337V204.187L86.6648 203.809Z" fill="#7CA324"/>
<path d="M90.7167 203.809C90.7167 203.809 94.2475 201.083 94.3874 199.046C94.3874 199.046 92.7829 198.757 91.4223 199.046C90.066 199.337 89.6432 199.337 88.6909 199.337V204.187L90.7167 203.809Z" fill="#668A16"/>
<path d="M88.6189 204.875C87.1977 204.875 86.2887 204.397 86.2338 204.367C86.0434 204.266 85.9741 204.029 86.0751 203.843C86.1761 203.653 86.4113 203.584 86.6003 203.683C86.671 203.722 88.3664 204.595 90.7674 203.693C90.9679 203.62 91.1901 203.721 91.2666 203.92C91.3416 204.122 91.2421 204.345 91.0401 204.42C90.1383 204.761 89.3158 204.875 88.6189 204.875Z" fill="#172C57"/>
<path d="M88.6157 205.63C87.1036 205.63 86.1383 205.123 86.0792 205.091C85.8901 204.99 85.8209 204.754 85.9248 204.566C86.0243 204.377 86.261 204.308 86.4471 204.407C86.4702 204.419 88.3488 205.386 90.9229 204.419C91.1235 204.347 91.3486 204.448 91.4236 204.648C91.4972 204.849 91.3962 205.071 91.1942 205.148C90.2303 205.507 89.3559 205.63 88.6157 205.63Z" fill="#172C57"/>
<path d="M169.208 229.132C163.294 229.132 157.571 230.204 158.913 226.273C160.257 222.341 159.407 211.621 163.047 209.476C166.689 207.332 167.337 207.195 167.637 204.1H169.207V229.132H169.208Z" fill="#FCA001"/>
<path d="M169.208 229.132C175.123 229.132 180.844 230.204 179.503 226.273C178.162 222.341 179.011 211.621 175.37 209.476C171.729 207.332 171.08 207.195 170.78 204.1H169.21V229.132H169.208Z" fill="#F58300"/>
<path d="M167.346 205.823C167.346 205.823 164.093 203.314 163.965 201.437C163.965 201.437 165.441 201.168 166.693 201.437C167.944 201.706 168.332 201.706 169.21 201.706V206.172L167.346 205.823Z" fill="#FCA001"/>
<path d="M171.074 205.823C171.074 205.823 174.325 203.314 174.455 201.437C174.455 201.437 172.977 201.168 171.726 201.437C170.474 201.706 170.087 201.706 169.208 201.706V206.172L171.074 205.823Z" fill="#F58300"/>
<path d="M169.142 206.804C167.833 206.804 166.997 206.366 166.946 206.338C166.773 206.244 166.708 206.026 166.802 205.855C166.896 205.682 167.111 205.617 167.284 205.709C167.35 205.742 168.911 206.549 171.122 205.719C171.306 205.651 171.513 205.742 171.581 205.928C171.65 206.114 171.557 206.319 171.373 206.389C170.542 206.699 169.784 206.804 169.142 206.804Z" fill="#172C57"/>
<path d="M169.14 207.501C167.748 207.501 166.858 207.032 166.803 207.003C166.63 206.909 166.565 206.693 166.66 206.521C166.752 206.347 166.97 206.282 167.144 206.374C167.164 206.384 168.892 207.273 171.264 206.389C171.449 206.319 171.657 206.412 171.726 206.596C171.795 206.782 171.7 206.987 171.515 207.057C170.628 207.387 169.823 207.501 169.14 207.501Z" fill="#172C57"/>
<path d="M159.332 226.757C159.332 226.441 159.072 226.181 158.756 226.181H140.42C140.103 226.181 139.844 226.441 139.844 226.757V228.69C139.844 229.006 140.103 229.264 140.42 229.264H158.758C159.074 229.264 159.333 229.006 159.333 228.69V226.757H159.332Z" fill="#9A9A9A"/>
<path d="M159.332 222.871C159.332 222.553 159.072 222.295 158.756 222.295H140.42C140.103 222.295 139.844 222.553 139.844 222.871V224.803C139.844 225.12 140.103 225.379 140.42 225.379H158.758C159.074 225.379 159.333 225.119 159.333 224.803V222.871H159.332Z" fill="#9A9A9A"/>
<path d="M159.332 218.984C159.332 218.666 159.072 218.408 158.756 218.408H140.42C140.103 218.408 139.844 218.666 139.844 218.984V220.917C139.844 221.233 140.103 221.491 140.42 221.491H158.758C159.074 221.491 159.333 221.232 159.333 220.917V218.984H159.332Z" fill="#9A9A9A"/>
<path d="M142.814 228.69C142.814 229.006 142.555 229.264 142.238 229.264H141.762C141.443 229.264 141.186 229.006 141.186 228.69V218.363C141.186 218.047 141.444 217.787 141.762 217.787H142.238C142.555 217.787 142.814 218.049 142.814 218.363V228.69Z" fill="#747474"/>
<path d="M156.361 228.69C156.361 229.006 156.619 229.264 156.937 229.264H157.414C157.732 229.264 157.99 229.006 157.99 228.69V218.363C157.99 218.047 157.732 217.787 157.414 217.787H156.937C156.619 217.787 156.361 218.049 156.361 218.363V228.69Z" fill="#747474"/>
<path d="M181.392 228.702H75.832V235.653H181.392V228.702Z" fill="#0E1F42"/>
<path d="M128.942 228.702H75.832V235.653H128.942V228.702Z" fill="#172C57"/>
<path d="M139.69 112.381L141.092 110.687L138.447 110.176C137.602 108.384 135.921 106.273 133.683 104.362C131.445 102.452 129.113 101.138 127.238 100.607L126.274 98.0382L124.871 99.7322C124.824 99.7769 124.78 99.8245 124.738 99.875C123.392 101.523 125.623 105.693 129.719 109.19C133.817 112.688 138.229 114.187 139.576 112.539C139.617 112.49 139.656 112.437 139.69 112.381Z" fill="#FFD580"/>
<path d="M140.933 110.902C139.587 112.549 135.175 111.049 131.077 107.553C126.979 104.055 124.75 99.8851 126.096 98.2373C127.442 96.5896 131.856 98.0887 135.952 101.586C140.05 105.082 142.279 109.254 140.933 110.902Z" fill="#FAC751"/>
<path d="M135.553 102.075C131.972 99.018 128.194 97.6111 127.115 98.9314C126.036 100.252 128.064 103.8 131.646 106.857C135.227 109.915 139.004 111.322 140.084 110.001C141.163 108.681 139.134 105.132 135.553 102.075ZM132.152 106.237C129.008 103.554 127.183 100.494 128.076 99.4018C128.968 98.3095 132.239 99.6009 135.383 102.283C138.527 104.967 140.351 108.026 139.459 109.118C138.567 110.211 135.296 108.921 132.152 106.237Z" fill="#FFD580"/>
<path d="M131.21 102.324L131.445 102.024L132.077 102.484C132.315 102.2 132.598 102.028 132.926 101.966L133.288 102.416C132.937 102.485 132.664 102.644 132.471 102.892C132.346 103.054 132.301 103.225 132.334 103.41C132.367 103.595 132.471 103.749 132.646 103.878C132.804 103.993 132.97 104.052 133.148 104.054C133.324 104.057 133.536 104 133.781 103.883C134.159 103.707 134.481 103.622 134.745 103.632C135.008 103.641 135.262 103.735 135.504 103.911C135.764 104.1 135.938 104.326 136.028 104.59C136.119 104.855 136.101 105.117 135.976 105.38L136.608 105.841L136.373 106.143L135.759 105.696C135.572 105.915 135.337 106.064 135.057 106.142L134.703 105.704C135.005 105.622 135.238 105.475 135.402 105.264C135.521 105.11 135.563 104.954 135.529 104.797C135.492 104.64 135.399 104.504 135.247 104.393C135.1 104.286 134.944 104.234 134.777 104.241C134.612 104.248 134.383 104.318 134.091 104.45C133.739 104.611 133.431 104.68 133.165 104.661C132.898 104.642 132.633 104.536 132.364 104.341C132.102 104.149 131.918 103.912 131.817 103.634C131.716 103.355 131.729 103.077 131.859 102.8L131.21 102.324Z" fill="#FFD580"/>
<path d="M74.483 113.46L73.2825 112.35L72.7962 114.292C71.4313 114.848 69.7965 116.01 68.2872 117.594C66.778 119.178 65.7074 120.856 65.237 122.227L63.2905 122.839L64.491 123.948C64.5227 123.984 64.5559 124.019 64.592 124.052C65.7607 125.119 68.9466 123.632 71.7097 120.732C74.4729 117.832 75.7657 114.617 74.5969 113.551C74.5609 113.519 74.5234 113.487 74.483 113.46Z" fill="#FFD580"/>
<path d="M73.4354 112.477C74.6042 113.544 73.3114 116.758 70.5482 119.659C67.7851 122.559 64.5992 124.045 63.4305 122.979C62.2618 121.912 63.5546 118.698 66.3177 115.797C69.0794 112.897 72.2667 111.411 73.4354 112.477Z" fill="#FAC751"/>
<path d="M66.6641 116.113C64.2487 118.649 63.0511 121.396 63.9876 122.25C64.924 123.104 67.6409 121.744 70.0549 119.208C72.4703 116.673 73.6679 113.926 72.7314 113.072C71.795 112.216 69.0795 113.578 66.6641 116.113ZM69.6162 118.807C67.4967 121.032 65.1505 122.263 64.3771 121.556C63.6023 120.849 64.6931 118.473 66.8127 116.249C68.9323 114.024 71.2784 112.793 72.0518 113.5C72.8252 114.206 71.7358 116.582 69.6162 118.807Z" fill="#FFD580"/>
<path d="M66.6725 119.347L66.459 119.161L66.8269 118.711C66.6264 118.523 66.5095 118.307 66.4777 118.06L66.8269 117.809C66.8644 118.073 66.9712 118.281 67.1472 118.435C67.2612 118.535 67.3882 118.577 67.5267 118.558C67.6652 118.54 67.785 118.47 67.886 118.346C67.9783 118.233 68.0288 118.112 68.0375 117.981C68.0462 117.849 68.013 117.691 67.9365 117.504C67.8211 117.216 67.772 116.975 67.7893 116.779C67.8066 116.584 67.886 116.399 68.0274 116.227C68.1789 116.043 68.3535 115.922 68.5526 115.865C68.7517 115.809 68.9465 115.832 69.1355 115.936L69.5035 115.486L69.717 115.672L69.3606 116.109C69.5165 116.258 69.6175 116.438 69.6622 116.649L69.3231 116.893C69.274 116.665 69.1745 116.486 69.0244 116.356C68.9148 116.261 68.8008 116.223 68.6825 116.243C68.5641 116.264 68.4603 116.327 68.3722 116.435C68.2871 116.539 68.2424 116.655 68.2409 116.777C68.2395 116.9 68.2813 117.073 68.3694 117.295C68.4732 117.562 68.5136 117.794 68.4891 117.992C68.4646 118.19 68.3737 118.383 68.2179 118.574C68.0649 118.761 67.8817 118.887 67.671 118.95C67.4603 119.014 67.254 118.994 67.0535 118.885L66.6725 119.347Z" fill="#FFD580"/>
<path d="M178.271 67.3103L176.184 65.3811L175.337 68.7575C172.965 69.7214 170.123 71.7429 167.5 74.4959C164.876 77.249 163.015 80.1665 162.197 82.5487L158.813 83.6122L160.901 85.5413C160.956 85.6048 161.014 85.6654 161.076 85.7231C163.106 87.5758 168.647 84.993 173.449 79.953C178.252 74.9129 180.499 69.3231 178.467 67.4704C178.406 67.4113 178.34 67.3579 178.271 67.3103Z" fill="#FFD580"/>
<path d="M176.449 65.6004C178.48 67.4545 176.232 73.0429 171.43 78.0844C166.627 83.1244 161.088 85.7086 159.058 83.856C157.026 82.0018 159.273 76.4135 164.076 71.372C168.878 66.3305 174.417 63.7462 176.449 65.6004Z" fill="#FAC751"/>
<path d="M164.679 71.9217C160.482 76.3269 158.398 81.1029 160.026 82.589C161.653 84.0752 166.376 81.7074 170.573 77.3023C174.77 72.8971 176.854 68.1196 175.225 66.6349C173.599 65.1487 168.876 67.5151 164.679 71.9217ZM169.81 76.6039C166.126 80.4709 162.047 82.6107 160.702 81.3828C159.356 80.1549 161.252 76.0238 164.937 72.1569C168.622 68.2899 172.7 66.1501 174.046 67.378C175.389 68.6059 173.494 72.7369 169.81 76.6039Z" fill="#FFD580"/>
<path d="M164.692 77.5433L164.321 77.2201L164.96 76.4366C164.611 76.1105 164.408 75.7324 164.353 75.3053L164.959 74.8696C165.024 75.3284 165.21 75.6906 165.516 75.9575C165.715 76.1307 165.934 76.2014 166.174 76.1711C166.413 76.1408 166.621 76.0181 166.8 75.8017C166.959 75.6054 167.048 75.3948 167.063 75.1668C167.079 74.9388 167.021 74.6632 166.888 74.3386C166.686 73.8379 166.601 73.4166 166.631 73.0775C166.662 72.7384 166.799 72.4181 167.044 72.118C167.307 71.7976 167.611 71.587 167.957 71.4889C168.304 71.3907 168.641 71.4311 168.972 71.6115L169.611 70.828L169.983 71.1527L169.363 71.9116C169.634 72.1699 169.809 72.483 169.888 72.8495L169.299 73.2737C169.214 72.8784 169.041 72.5667 168.781 72.3402C168.591 72.1757 168.393 72.1093 168.187 72.1439C167.98 72.1786 167.8 72.2911 167.646 72.4787C167.497 72.6605 167.421 72.8596 167.418 73.0732C167.415 73.2867 167.488 73.5868 167.64 73.9721C167.822 74.4367 167.89 74.8407 167.848 75.1827C167.804 75.5246 167.647 75.8608 167.377 76.1927C167.11 76.5188 166.793 76.7367 166.426 76.8492C166.06 76.9603 165.702 76.9228 165.353 76.7352L164.692 77.5433Z" fill="#FFD580"/>
<path d="M173.762 97.412C173.762 97.412 189.809 92.5797 196.539 83.6078L202.579 93.7889C202.579 93.7889 195.16 103.797 179.802 108.284L173.762 97.412Z" fill="#71C6A9"/>
<path d="M195.519 85.9597C189.785 93.4455 175.86 97.4726 175.86 97.4726L180.844 106.662C193.791 103.022 200.509 94.5695 200.509 94.5695L195.519 85.9597ZM180.34 104.42L177.456 99.1017C177.803 98.8492 178.402 98.2633 178.114 97.4019C181.76 96.1336 189.341 93.0963 194.186 88.3838C194.534 88.6175 195.382 89.0389 196.142 88.2828L199.187 93.5364C198.698 93.76 197.744 94.3949 198.601 95.7123C196.226 98.0801 190.893 102.644 182.83 105.39C182.38 103.719 180.888 104.184 180.34 104.42Z" fill="#378E70"/>
<path d="M191.653 96.0283C192.474 97.7871 192.102 99.6975 190.822 100.295C189.542 100.891 187.84 99.9486 187.02 98.1897C186.199 96.4308 186.571 94.5204 187.851 93.9231C189.13 93.3271 190.832 94.2694 191.653 96.0283Z" fill="#378E70"/>
<path d="M187.579 94.8105L187.866 94.6388L188.238 95.2174C188.524 95.0601 188.811 95.0082 189.1 95.063L189.254 95.5478C188.944 95.493 188.67 95.5363 188.433 95.6791C188.279 95.7715 188.187 95.8984 188.156 96.0601C188.125 96.2217 188.161 96.3818 188.263 96.5434C188.357 96.6877 188.474 96.7902 188.618 96.8479C188.762 96.907 188.953 96.9272 189.191 96.9099C189.557 96.8854 189.847 96.9186 190.061 97.0095C190.274 97.1004 190.452 97.2577 190.595 97.4799C190.748 97.7165 190.818 97.9589 190.81 98.2042C190.8 98.4495 190.702 98.6587 190.517 98.8347L190.889 99.4148L190.6 99.5865L190.24 99.0252C190.016 99.1464 189.777 99.194 189.521 99.1666L189.37 98.6962C189.644 98.7251 189.882 98.6789 190.083 98.5577C190.23 98.4697 190.313 98.3557 190.335 98.2143C190.357 98.0729 190.322 97.9329 190.233 97.7944C190.146 97.6602 190.033 97.5679 189.895 97.5217C189.758 97.4741 189.547 97.4597 189.266 97.4755C188.927 97.4943 188.651 97.4539 188.439 97.3543C188.227 97.2548 188.042 97.0816 187.885 96.8363C187.731 96.5954 187.656 96.3429 187.661 96.0831C187.667 95.822 187.767 95.5983 187.961 95.4122L187.579 94.8105Z" fill="#71C6A9"/>
<path d="M96.0611 125.908C96.0611 125.908 102.068 135.93 109.282 138.947L103.431 144.768C103.431 144.768 95.3988 141.462 89.7427 131.847L96.0611 125.908Z" fill="#71C6A9"/>
<path d="M107.517 138.66C101.479 136.063 96.3769 127.336 96.3769 127.336L91.0166 132.275C95.6887 140.406 102.55 143.504 102.55 143.504L107.517 138.66ZM92.4465 131.551L95.5487 128.693C95.7796 128.885 96.2773 129.189 96.8098 128.847C98.2902 131.095 101.638 135.701 105.65 138.171C105.552 138.447 105.411 139.092 106.053 139.475L103.021 142.432C102.786 142.139 102.195 141.604 101.452 142.407C99.4445 141.207 95.4491 138.38 92.2156 133.399C93.2689 132.812 92.7004 131.881 92.4465 131.551Z" fill="#378E70"/>
<path d="M100.051 137.766C99.0016 138.621 97.6467 138.695 97.0248 137.932C96.403 137.168 96.7492 135.857 97.7982 135.001C98.8472 134.145 100.202 134.072 100.824 134.835C101.447 135.6 101.1 136.911 100.051 137.766Z" fill="#378E70"/>
<path d="M100.179 134.803L100.345 134.968L100.017 135.318C100.173 135.484 100.257 135.669 100.268 135.874L99.9668 136.06C99.951 135.841 99.8745 135.663 99.7374 135.528C99.6494 135.44 99.547 135.398 99.433 135.405C99.319 135.411 99.2165 135.463 99.1242 135.559C99.042 135.647 98.9943 135.744 98.9799 135.852C98.9655 135.959 98.9842 136.092 99.0362 136.251C99.1155 136.494 99.143 136.696 99.117 136.857C99.0925 137.015 99.016 137.162 98.8905 137.297C98.7563 137.44 98.6048 137.53 98.4374 137.565C98.27 137.6 98.1113 137.571 97.9612 137.476L97.6337 137.826L97.4678 137.66L97.7852 137.321C97.6654 137.19 97.5919 137.037 97.5673 136.859L97.8602 136.676C97.8877 136.867 97.9598 137.02 98.0767 137.135C98.1618 137.22 98.2527 137.258 98.3523 137.248C98.4504 137.238 98.5398 137.191 98.6192 137.106C98.6957 137.025 98.7375 136.933 98.7462 136.832C98.7548 136.731 98.7289 136.587 98.6697 136.399C98.599 136.173 98.5788 135.979 98.6105 135.819C98.6423 135.659 98.7274 135.505 98.8659 135.356C99.003 135.21 99.1603 135.116 99.3378 135.076C99.5152 135.036 99.684 135.065 99.8428 135.164L100.179 134.803Z" fill="#71C6A9"/>
<path d="M89.1713 74.7772C89.1713 74.7772 97.9512 81.4304 105.321 81.5314L102.251 88.681C102.251 88.681 94.0627 88.6146 85.7329 82.1937L89.1713 74.7772Z" fill="#71C6A9"/>
<path d="M103.678 81.9008C97.4825 81.7536 89.9521 75.9156 89.9521 75.9156L87 82.1201C93.946 87.5887 101.038 87.8845 101.038 87.8845L103.678 81.9008ZM87.9956 80.9831L89.704 77.3917C89.9723 77.4783 90.5149 77.5692 90.8626 77.083C92.9476 78.5287 97.4955 81.3799 101.875 82.1288C101.885 82.4044 101.989 83.0176 102.686 83.1287L101.074 86.7807C100.765 86.6075 100.06 86.3464 99.6916 87.3117C97.5143 86.9668 93.0255 85.9005 88.4458 82.68C89.1585 81.7969 88.3332 81.1837 87.9956 80.9831Z" fill="#378E70"/>
<path d="M96.8328 83.7448C96.2152 84.8616 95.0566 85.4042 94.2442 84.9554C93.4319 84.5067 93.2732 83.2369 93.8907 82.1201C94.5083 81.0033 95.6669 80.4608 96.4793 80.9095C97.2902 81.3583 97.4489 82.628 96.8328 83.7448Z" fill="#378E70"/>
<path d="M95.9025 81.1086L96.1059 81.1952L95.9429 81.6165C96.1377 81.7074 96.2762 81.8388 96.3584 82.0133L96.1608 82.2832C96.0699 82.097 95.94 81.9686 95.7726 81.8979C95.6644 81.8517 95.5605 81.8517 95.4624 81.8979C95.3643 81.9441 95.2936 82.0249 95.2474 82.1418C95.207 82.2471 95.1984 82.3495 95.2229 82.4477C95.2474 82.5472 95.3109 82.6554 95.4119 82.7766C95.5663 82.9613 95.6615 83.1287 95.6962 83.2773C95.7308 83.4259 95.7164 83.5803 95.6529 83.7434C95.5865 83.9165 95.4855 84.0478 95.3513 84.1373C95.2171 84.2268 95.0685 84.2556 94.9026 84.2253L94.7381 84.6466L94.5346 84.5601L94.6934 84.1517C94.5433 84.0796 94.425 83.9699 94.3398 83.8256L94.5317 83.563C94.6226 83.7189 94.7395 83.8285 94.8824 83.8877C94.9863 83.931 95.08 83.9324 95.1623 83.8891C95.246 83.8458 95.3066 83.7737 95.3455 83.6727C95.383 83.5746 95.3888 83.4793 95.36 83.3884C95.3325 83.2975 95.259 83.1792 95.1406 83.0364C94.9992 82.8632 94.9141 82.7016 94.8853 82.5501C94.8564 82.3986 94.8766 82.2341 94.9459 82.0552C95.0137 81.8792 95.119 81.7421 95.259 81.644C95.4004 81.5458 95.5576 81.5112 95.7308 81.543L95.9025 81.1086Z" fill="#71C6A9"/>
<path opacity="0.15" d="M220.952 121.848H215.863L213.621 127.14C213.621 127.14 217.792 130.007 220.952 131.241V121.848Z" fill="#020202"/>
<path d="M219.044 117.849C219.044 117.849 228.356 124.908 236.175 125.015L232.918 132.599C232.918 132.599 224.232 132.528 215.397 125.716L219.044 117.849Z" fill="#71C6A9"/>
<path d="M234.43 125.407C227.858 125.25 219.87 119.058 219.87 119.058L216.739 125.641C224.108 131.441 231.63 131.756 231.63 131.756L234.43 125.407ZM217.797 124.433L219.609 120.624C219.895 120.716 220.469 120.813 220.837 120.296C223.049 121.83 227.873 124.854 232.517 125.65C232.529 125.941 232.638 126.592 233.377 126.71L231.667 130.584C231.34 130.401 230.591 130.124 230.201 131.148C227.891 130.782 223.13 129.652 218.272 126.237C219.031 125.296 218.155 124.645 217.797 124.433Z" fill="#378E70"/>
<path d="M227.17 127.362C226.515 128.547 225.287 129.121 224.424 128.645C223.562 128.169 223.394 126.823 224.049 125.638C224.704 124.453 225.932 123.879 226.795 124.354C227.656 124.831 227.825 126.178 227.17 127.362Z" fill="#378E70"/>
<path d="M226.183 124.567L226.398 124.658L226.225 125.106C226.431 125.202 226.578 125.342 226.665 125.527L226.455 125.813C226.359 125.615 226.222 125.479 226.044 125.404C225.929 125.355 225.819 125.355 225.715 125.404C225.611 125.453 225.535 125.538 225.487 125.663C225.444 125.774 225.435 125.883 225.461 125.987C225.487 126.093 225.555 126.208 225.662 126.335C225.826 126.531 225.927 126.709 225.963 126.866C226 127.023 225.984 127.188 225.917 127.359C225.847 127.543 225.74 127.683 225.597 127.778C225.456 127.873 225.297 127.905 225.121 127.872L224.948 128.319L224.733 128.227L224.902 127.792C224.741 127.716 224.616 127.6 224.526 127.446L224.73 127.167C224.826 127.333 224.951 127.449 225.101 127.512C225.21 127.559 225.31 127.56 225.398 127.514C225.486 127.468 225.551 127.391 225.593 127.283C225.633 127.179 225.639 127.078 225.609 126.981C225.578 126.885 225.502 126.761 225.376 126.608C225.226 126.424 225.135 126.253 225.105 126.091C225.075 125.931 225.095 125.755 225.168 125.566C225.241 125.38 225.352 125.234 225.502 125.13C225.65 125.026 225.818 124.99 226.002 125.023L226.183 124.567Z" fill="#71C6A9"/>
</svg>
