<svg width="300" height="250" viewBox="0 0 300 250" fill="none" xmlns="http://www.w3.org/2000/svg">
<path opacity="0.15" d="M205.02 232.512C229.332 232.512 249.041 231.294 249.041 229.791C249.041 228.288 229.332 227.07 205.02 227.07C180.708 227.07 161 228.288 161 229.791C161 231.294 180.708 232.512 205.02 232.512Z" fill="#020202"/>
<path d="M206.544 101.001H203.883V210.178H206.544V101.001Z" fill="#999999"/>
<path d="M181.213 230.46C180.961 230.46 180.711 230.354 180.534 230.149C180.211 229.775 180.253 229.21 180.627 228.887L204.301 208.48C204.676 208.157 205.242 208.201 205.563 208.573C205.886 208.948 205.844 209.512 205.47 209.835L181.796 230.242C181.628 230.388 181.42 230.46 181.213 230.46Z" fill="#999999"/>
<path d="M228.827 230.46C228.621 230.46 228.412 230.388 228.243 230.242L204.568 209.835C204.194 209.512 204.152 208.948 204.475 208.573C204.799 208.199 205.363 208.157 205.737 208.48L229.411 228.887C229.786 229.21 229.828 229.775 229.505 230.149C229.329 230.354 229.079 230.46 228.827 230.46Z" fill="#999999"/>
<path d="M253.656 104.4H156.382V170.224H253.656V104.4Z" fill="#F7F7F7"/>
<path d="M256.036 104.402H154.003V107.46H256.036V104.402Z" fill="#436043"/>
<path d="M256.038 165.974H154.003V170.396H256.038V165.974Z" fill="#436043"/>
<path d="M199.304 113.755H159.567V114.876H199.304V113.755Z" fill="#DBD8D5"/>
<path d="M199.304 118.243H159.567V119.365H199.304V118.243Z" fill="#DBD8D5"/>
<path d="M199.304 122.731H159.567V123.852H199.304V122.731Z" fill="#DBD8D5"/>
<path d="M199.304 127.22H159.567V128.341H199.304V127.22Z" fill="#DBD8D5"/>
<path d="M225.489 136.373H221.128V155.76H225.489V136.373Z" fill="#40916C"/>
<path d="M215.797 141.542H211.436V155.758H215.797V141.542Z" fill="#95D2BD"/>
<path d="M235.185 141.542H230.822V155.758H235.185V141.542Z" fill="#95D2BD"/>
<path d="M206.104 145.419H201.741V155.758H206.104V145.419Z" fill="#C96701"/>
<path d="M177.482 148.305C177.482 151.387 174.982 153.888 171.899 153.888C171.813 153.888 171.729 153.879 171.644 153.875V157.226C171.728 157.228 171.813 157.233 171.899 157.233C176.83 157.233 180.826 153.236 180.826 148.305C180.826 148.104 180.817 147.906 180.804 147.709H177.449C177.469 147.906 177.482 148.104 177.482 148.305Z" fill="#C96701"/>
<path d="M179.783 147.03C179.796 147.227 179.805 147.424 179.805 147.625C179.805 147.424 179.796 147.227 179.783 147.03Z" fill="#95D2BD"/>
<path d="M170.623 153.196C167.659 153.06 165.294 150.622 165.294 147.625C165.294 144.541 167.794 142.042 170.877 142.042C173.759 142.042 176.131 144.226 176.427 147.03H179.782C179.475 142.376 175.607 138.696 170.875 138.696C165.944 138.696 161.946 142.694 161.946 147.625C161.946 152.556 165.944 156.554 170.875 156.554C170.789 156.554 170.705 156.55 170.619 156.547V153.196H170.623Z" fill="#95D2BD"/>
<path d="M186.111 141.248C185.293 139.679 185.899 137.745 187.468 136.927C187.511 136.903 187.557 136.887 187.601 136.865L186.712 135.161C186.668 135.183 186.624 135.203 186.58 135.225C184.073 136.534 183.103 139.628 184.412 142.134C184.465 142.236 184.522 142.334 184.582 142.429L186.288 141.538C186.222 141.447 186.164 141.35 186.111 141.248Z" fill="#C96701"/>
<path d="M185.279 142.506C185.221 142.409 185.164 142.311 185.111 142.21C185.164 142.312 185.221 142.409 185.279 142.506Z" fill="#95D2BD"/>
<path d="M188.3 136.94C189.843 136.22 191.693 136.832 192.488 138.357C193.306 139.924 192.7 141.86 191.133 142.678C189.666 143.443 187.882 142.963 186.985 141.615L185.279 142.506C186.671 144.791 189.615 145.635 192.02 144.378C194.528 143.069 195.497 139.975 194.188 137.469C192.878 134.962 189.785 133.992 187.279 135.301C187.323 135.279 187.367 135.259 187.411 135.237L188.3 136.94Z" fill="#95D2BD"/>
<path d="M251.291 119.175L244.337 120.214L245.887 122.161L231.841 131.977L217.943 122.532L197.929 139.681L198.999 140.93L218.058 124.595L231.854 133.974L246.912 123.45L248.714 125.715L251.291 119.175Z" fill="#477184"/>
<path d="M244.878 136.373H240.515V155.76H244.878V136.373Z" fill="#40916C"/>
<path d="M123.32 94.6113C123.32 94.6113 122.058 92.1275 119.381 92.953C116.705 93.7785 116.354 95.4075 115.072 96.2202C113.794 97.0384 112.368 97.3836 111.628 100.063C110.887 102.738 110.351 103.538 109.749 104.521C107.026 109.003 108.05 113.03 110.067 115.72C112.572 119.067 110.686 118.284 111.478 121.294C111.825 122.609 115.911 124.851 114.623 126.544C114.623 126.544 118.65 124.504 119.706 123.231C121.079 121.56 123.32 94.6113 123.32 94.6113Z" fill="#693514"/>
<path d="M123.179 94.6113C123.179 94.6113 124.439 92.1275 127.117 92.953C129.792 93.7785 130.143 95.4075 131.425 96.2202C132.701 97.0384 134.13 97.3836 134.873 100.063C135.613 102.738 136.149 103.538 136.749 104.521C139.473 109.003 138.447 113.03 136.433 115.72C133.927 119.067 135.813 118.284 135.019 121.294C134.676 122.609 130.588 124.851 131.876 126.544C131.876 126.544 127.847 124.504 126.795 123.231C125.42 121.56 123.179 94.6113 123.179 94.6113Z" fill="#4F250A"/>
<path d="M117.7 117.018C117.7 117.018 118.781 125.531 114.764 126.181C110.698 126.842 104.261 125.178 100.76 131.318C96.8476 138.173 91.2519 150.111 90.5944 160.947C90.536 161.942 89.694 164.157 89.7123 165.127C89.9406 176.631 91.4893 175.758 90.3661 179.418C89.2393 183.082 89.0987 186.636 93.7557 187.56C98.0493 188.414 98.389 187.768 97.5982 181.887C97.0339 177.699 99.1798 168.058 98.2758 163.175C97.3845 158.362 104.487 151.117 105.731 146.488V169.216H123.247V146.491H123.287V110.214L117.7 117.018Z" fill="#FFBA80"/>
<path d="M145.818 131.318C142.315 125.178 135.879 126.842 131.812 126.181C127.794 125.531 128.877 117.018 128.877 117.018L123.287 110.214V146.49H123.247V169.218H140.766V146.491H140.845C142.09 151.121 149.728 138.173 145.818 131.318Z" fill="#F7A054"/>
<path d="M133.419 109.614H133.216C133.304 108.922 133.388 108.241 133.472 107.6C133.907 104.265 134.887 94.5164 123.25 94.5164C111.613 94.5164 112.59 104.263 113.027 107.6C113.111 108.241 113.198 108.922 113.279 109.614H113.081C111.308 108.303 111.16 111.728 111.898 112.895C112.51 113.864 112.526 113.967 112.891 115.035C113.167 115.822 113.616 115.928 113.993 115.84C114.04 116.304 114.084 116.712 114.111 117.035C114.274 118.834 118.597 122.435 119.579 123.564C120.494 124.621 122.025 124.209 122.52 124.185C123.013 124.163 123.248 124.146 123.248 124.146C123.248 124.146 123.482 124.161 123.981 124.185C124.468 124.209 126.002 124.621 126.919 123.564C127.898 122.435 132.223 118.834 132.383 117.035C132.414 116.712 132.449 116.304 132.5 115.84C132.878 115.928 133.333 115.822 133.6 115.035C133.972 113.967 133.983 113.864 134.597 112.895C135.338 111.728 135.19 108.303 133.419 109.614Z" fill="#FFBA80"/>
<path d="M151.506 143.312C153.778 144.543 153.778 146.188 155.338 145.07C159.374 142.177 167.012 136.339 169.764 133.134C173.63 128.635 174.339 128.458 176.554 132.231C178.961 136.328 176.211 138.583 172.728 140.179C169.245 141.772 170.929 142.349 162.484 150.168C161.772 150.827 159.588 151.709 158.777 152.29C152.823 156.545 151.696 155.762 146.756 156.49L142.311 149.833L151.506 143.312Z" fill="#FFBA80"/>
<path d="M123.248 124.146H123.25C123.25 124.146 123.484 124.161 123.983 124.185C124.47 124.209 126.004 124.621 126.921 123.564C127.9 122.435 132.225 118.834 132.385 117.035C132.416 116.711 132.451 116.304 132.502 115.84C132.88 115.928 133.335 115.822 133.602 115.035C133.974 113.967 133.985 113.864 134.599 112.894C135.338 111.729 135.189 108.303 133.417 109.614H133.214C133.302 108.922 133.386 108.241 133.47 107.6C133.742 105.52 134.224 100.938 131.719 97.7872H123.247V124.146H123.248Z" fill="#F7A054"/>
<path d="M123.086 100.147C123.086 100.147 122.544 102.747 124.945 104.059C127.351 105.376 130.842 107.003 131.536 109.214C132.236 111.424 132.946 114.052 134.13 114.765C135.313 115.481 136.31 108.74 135.73 107.753C135.149 106.774 134.541 101.283 133.982 100.145C129.907 91.8133 123.178 93.6396 123.178 93.6396L123.086 100.147Z" fill="#4F250A"/>
<path d="M123.409 100.147C123.409 100.147 123.953 102.747 121.552 104.059C119.146 105.376 115.653 107.003 114.961 109.214C114.261 111.424 113.551 114.052 112.367 114.765C111.184 115.481 110.187 108.74 110.767 107.753C111.348 106.774 111.958 101.283 112.515 100.145C116.59 91.8133 123.32 93.6396 123.32 93.6396L123.409 100.147Z" fill="#693514"/>
<path d="M133.218 108.409C133.218 109.012 132.135 113.764 131.954 115.28C131.609 118.156 129.545 119.498 128.94 120.159C128.338 120.824 126.349 121.487 125.502 121.79C124.66 122.09 121.831 122.09 120.989 121.79C120.145 121.487 118.16 120.826 117.554 120.159C116.953 119.5 114.887 118.156 114.54 115.28C114.356 113.764 113.273 109.012 113.273 108.409C113.273 108.007 113.079 108.153 112.96 108.619C113.001 108.92 113.039 109.227 113.074 109.536C113.074 109.536 113.696 115.911 113.804 115.886C113.852 116.363 113.894 116.779 113.923 117.108C113.938 117.267 113.992 117.444 114.065 117.628C114.29 117.975 114.639 118.547 115.083 119.223C116.505 120.985 118.812 122.977 119.499 123.768C120.435 124.846 121.997 124.428 122.499 124.4C123.003 124.376 123.244 124.367 123.244 124.367C123.244 124.367 123.484 124.378 123.993 124.4C124.492 124.428 126.057 124.846 126.99 123.768C127.679 122.977 129.983 120.985 131.41 119.223C131.848 118.547 132.199 117.975 132.423 117.628C132.496 117.444 132.553 117.267 132.566 117.108C132.599 116.779 132.637 116.363 132.686 115.886C132.796 115.913 133.413 109.536 133.413 109.536C133.453 109.225 133.492 108.92 133.53 108.619C133.413 108.153 133.218 108.009 133.218 108.409Z" fill="#4F250A"/>
<path d="M124.213 122.47C123.796 122.068 123.249 122.137 123.249 122.137C123.249 122.137 122.699 122.068 122.283 122.47C121.868 122.873 120.986 122.577 120.986 122.577L122.763 124.04L123.249 123.556L123.734 124.04L125.51 122.577C125.51 122.577 124.629 122.871 124.213 122.47Z" fill="#4F250A"/>
<path d="M123.287 188.241C123.287 188.241 120.766 190.111 120.165 204.942C119.44 222.709 118.741 230.514 118.741 230.514H107.086L105.73 204.979V169.22L123.287 168.058V188.241Z" fill="#172C57"/>
<path d="M123.287 188.241C123.287 188.241 125.809 190.111 126.411 204.942C127.136 222.709 127.836 230.514 127.836 230.514H139.491L140.846 204.979V169.22L123.287 168.058V188.241Z" fill="#0E1F42"/>
<path d="M140.562 230.151L141.428 210.414H133.62V230.151H140.562Z" fill="#B05D2A"/>
<path d="M126.677 230.151L125.809 210.414H133.62V230.151H126.677Z" fill="#B05D2A"/>
<path d="M126.379 232.284C126.379 228.12 129.621 224.745 133.62 224.745C137.616 224.745 140.86 228.12 140.86 232.284C140.86 232.284 140.77 232.781 140.111 232.781C139.453 232.781 133.62 232.781 133.62 232.781C133.62 232.781 127.785 232.781 127.126 232.781C126.468 232.783 126.379 232.284 126.379 232.284Z" fill="#853A0C"/>
<path d="M124.998 205.657C124.998 205.286 125.292 204.979 125.648 204.979H141.59C141.95 204.979 142.24 205.284 142.24 205.657V211.203C142.24 211.577 141.95 211.882 141.59 211.882H125.648C125.29 211.882 124.998 211.577 124.998 211.203V205.657Z" fill="#853A0C"/>
<path d="M115.226 126.06V126.057C115.08 126.109 114.928 126.153 114.765 126.183C113.688 126.356 112.444 126.371 111.133 126.409C110.983 126.396 110.824 126.385 110.642 126.391C108.412 126.427 106.858 126.502 106.858 126.502C99.3205 126.67 92.7988 144.544 92.7988 144.544L104.317 150.982L105.729 148.1V169.22H123.245V146.491H123.285V134.123L115.226 126.06Z" fill="#A6DAF5"/>
<path d="M131.352 126.06L131.353 126.057C131.501 126.109 131.649 126.153 131.812 126.183C132.887 126.356 134.135 126.371 135.444 126.409C135.594 126.396 135.753 126.385 135.934 126.391C138.164 126.427 139.72 126.502 139.72 126.502C147.258 126.67 153.778 144.544 153.778 144.544L142.26 150.982L140.846 148.1V169.22H123.329V146.491H123.287V134.123L131.352 126.06Z" fill="#77BBE6"/>
<path d="M106.016 230.151L105.148 210.414H112.958V230.151H106.016Z" fill="#B36434"/>
<path d="M119.901 230.151L120.769 210.414H112.958V230.151H119.901Z" fill="#B36434"/>
<path d="M120.198 232.284C120.198 228.12 116.955 224.745 112.957 224.745C108.959 224.745 105.718 228.12 105.718 232.284C105.718 232.284 105.807 232.781 106.467 232.781C107.126 232.781 112.957 232.781 112.957 232.781C112.957 232.781 118.794 232.781 119.45 232.781C120.109 232.783 120.198 232.284 120.198 232.284Z" fill="#964514"/>
<path d="M121.579 205.657C121.579 205.286 121.289 204.979 120.931 204.979H104.988C104.63 204.979 104.337 205.284 104.337 205.657V211.203C104.337 211.577 104.63 211.882 104.988 211.882H120.931C121.289 211.882 121.579 211.577 121.579 211.203V205.657Z" fill="#964514"/>
<path d="M122.283 122.47C121.868 122.873 120.986 122.578 120.986 122.578L122.763 124.04L123.249 123.556V122.139C123.249 122.137 122.697 122.068 122.283 122.47Z" fill="#693514"/>
<path d="M120.989 121.79C120.145 121.487 118.16 120.826 117.554 120.159C116.953 119.5 114.887 118.156 114.54 115.28C114.356 113.764 113.273 109.012 113.273 108.409C113.273 108.007 113.079 108.153 112.96 108.619C113.001 108.92 113.039 109.227 113.074 109.536C113.074 109.536 113.696 115.911 113.804 115.886C113.852 116.363 113.894 116.779 113.923 117.108C113.938 117.267 113.992 117.444 114.065 117.628C114.29 117.975 114.639 118.547 115.083 119.223C116.505 120.985 118.812 122.977 119.499 123.768C120.435 124.846 121.997 124.428 122.499 124.4C123.003 124.376 123.244 124.367 123.244 124.367V122.013C122.331 122.013 121.411 121.94 120.989 121.79Z" fill="#693514"/>
<path d="M105.73 169.22V126.502L111.319 126.389V147.32H123.248V169.22H105.73Z" fill="#172C57"/>
<path d="M140.768 169.22V126.502L135.176 126.389V147.32H123.249V169.22H140.768Z" fill="#0E1F42"/>
<path d="M130.095 163.805C130.03 164.17 129.67 164.471 129.297 164.471H117.2C116.827 164.471 116.471 164.17 116.406 163.805L114.609 153.723C114.543 153.355 114.797 153.053 115.169 153.053H131.33C131.704 153.053 131.955 153.355 131.889 153.723L130.095 163.805Z" fill="#964514"/>
<path d="M131.33 153.055H125.48H123.926H123.289V153.535C123.269 153.599 123.249 153.663 123.249 153.733V163.792C123.249 163.863 123.269 163.929 123.289 163.989V164.47H123.926H125.48H129.297C129.67 164.47 130.03 164.168 130.095 163.803L131.889 153.722C131.953 153.355 131.702 153.055 131.33 153.055Z" fill="#853A0C"/>
<path d="M142.311 103.195C142.311 99.6225 133.777 96.7278 123.248 96.7278C112.72 96.7278 104.188 99.6225 104.188 103.195C104.188 106.769 112.72 109.664 123.248 109.664C133.777 109.664 142.311 106.769 142.311 103.195Z" fill="#FFB804"/>
<path d="M123.249 96.7278V109.664C133.777 109.664 142.311 106.769 142.311 103.195C142.311 99.6225 133.777 96.7278 123.249 96.7278Z" fill="#FCA001"/>
<path d="M123.248 104.141C117.727 104.141 111.357 102.998 111.357 101.978C111.357 100.959 112.749 90.7777 123.248 90.7777V104.141Z" fill="#FCA001"/>
<path d="M123.248 104.141C128.771 104.141 135.141 102.998 135.141 101.978C135.141 100.959 134.807 90.7777 123.248 90.7777V104.141Z" fill="#F58300"/>
<path d="M123.248 100.753C118.715 100.753 113.612 99.9789 111.934 99.1424C111.483 100.558 111.357 101.676 111.357 101.979C111.357 102.996 117.727 104.141 123.248 104.141C128.771 104.141 135.141 102.998 135.141 101.979C135.141 101.668 135.108 100.505 134.739 99.042C133.274 99.9204 127.962 100.753 123.248 100.753Z" fill="#964514"/>
<path d="M135.139 101.979C135.139 101.668 135.106 100.505 134.738 99.042C133.275 99.9204 127.96 100.753 123.247 100.753V104.141C128.769 104.141 135.139 102.998 135.139 101.979Z" fill="#853A0C"/>
<path d="M184.263 174.595H62.3145V229.011H184.263V174.595Z" fill="#B05D2A"/>
<path d="M123.289 174.595H62.3145V229.011H123.289V174.595Z" fill="#B36434"/>
<path d="M187.661 171.733H58.4258V175.592H187.661V171.733Z" fill="#853A0C"/>
<path d="M123.044 171.733H58.4258V175.592H123.044V171.733Z" fill="#964514"/>
<path d="M190.541 164.774H55.5513V171.884H190.541V164.774Z" fill="#4F250A"/>
<path d="M123.286 164.774H55.5513V171.884H123.286V164.774Z" fill="#693514"/>
<path d="M73.9753 88.0748H62.3145V164.776H73.9753V88.0748Z" fill="#B36434"/>
<path d="M183.777 88.075H172.118V164.776H183.777V88.075Z" fill="#B05D2A"/>
<path d="M55.5513 83.9454L64.743 62.0808H123.016V88.84H55.5513V83.9454Z" fill="#964514"/>
<path d="M190.483 83.9454L181.288 62.0808H123.016V88.84H190.483V83.9454Z" fill="#853A0C"/>
<path d="M123.016 83.9456H55.5513V88.8401H123.016V83.9456Z" fill="#693514"/>
<path d="M190.483 83.9456H123.016V88.8401H190.483V83.9456Z" fill="#693514"/>
<path d="M83.6836 224.774C77.4267 224.774 71.3817 225.905 72.7989 221.752C74.2161 217.595 73.3175 206.263 77.1674 203.995C81.0172 201.728 81.7039 201.582 82.0235 198.309H83.6836V224.774V224.774Z" fill="#FCA001"/>
<path d="M83.684 224.774C89.9353 224.774 95.9858 225.905 94.5668 221.752C93.1478 217.595 94.0463 206.263 90.1965 203.995C86.3467 201.728 85.6618 201.582 85.3422 198.309H83.6821V224.774H83.684Z" fill="#F58300"/>
<path d="M81.7113 200.132C81.7113 200.132 78.2724 197.478 78.1372 195.493C78.1372 195.493 79.7005 195.21 81.0209 195.493C82.3432 195.776 82.7577 195.776 83.6855 195.776V200.499L81.7113 200.132Z" fill="#FCA001"/>
<path d="M85.6527 200.132C85.6527 200.132 89.0934 197.478 89.2267 195.493C89.2267 195.493 87.6653 195.21 86.343 195.493C85.0208 195.776 84.6099 195.776 83.6821 195.776V200.499L85.6527 200.132Z" fill="#F58300"/>
<path d="M83.6144 201.169C82.2301 201.169 81.3444 200.705 81.2932 200.673C81.1069 200.574 81.0394 200.346 81.138 200.165C81.2366 199.98 81.4667 199.911 81.6494 200.011C81.7188 200.046 83.3679 200.897 85.7074 200.021C85.9028 199.949 86.1183 200.046 86.1913 200.242C86.2644 200.437 86.1676 200.654 85.9722 200.729C85.0919 201.054 84.292 201.169 83.6144 201.169Z" fill="#172C57"/>
<path d="M83.611 201.903C82.139 201.903 81.1985 201.41 81.1419 201.379C80.9574 201.281 80.888 201.051 80.9885 200.866C81.0871 200.685 81.3172 200.616 81.498 200.715C81.5217 200.725 83.3499 201.664 85.8574 200.725C86.0528 200.652 86.2701 200.753 86.345 200.946C86.4162 201.144 86.3176 201.359 86.1203 201.432C85.1834 201.785 84.3306 201.903 83.611 201.903Z" fill="#172C57"/>
<path d="M72.5178 224.73C64.389 224.73 56.5231 226.202 58.3677 220.8C60.2122 215.4 59.0434 200.663 64.0493 197.717C69.0533 194.77 69.9445 194.58 70.3573 190.326H72.5178V224.73Z" fill="#7CA324"/>
<path d="M72.5176 224.73C80.6482 224.73 88.5104 226.202 86.6658 220.8C84.8213 215.4 85.9919 200.663 80.9842 197.717C75.9802 194.77 75.089 194.58 74.6763 190.326H72.5176V224.73Z" fill="#668A16"/>
<path d="M69.9531 192.693C69.9531 192.693 65.4823 189.243 65.3052 186.665C65.3052 186.665 67.3378 186.299 69.0582 186.665C70.7731 187.034 71.31 187.034 72.5172 187.034V193.172L69.9531 192.693Z" fill="#7CA324"/>
<path d="M75.0817 192.693C75.0817 192.693 79.5506 189.243 79.7278 186.665C79.7278 186.665 77.6969 186.299 75.9747 186.665C74.258 187.034 73.7229 187.034 72.5176 187.034V193.172L75.0817 192.693Z" fill="#668A16"/>
<path d="M72.4263 194.043C70.6274 194.043 69.4769 193.439 69.4075 193.4C69.1664 193.272 69.0787 192.973 69.2066 192.737C69.3344 192.496 69.6321 192.408 69.8713 192.535C69.9608 192.584 72.1067 193.689 75.1456 192.547C75.3995 192.454 75.6808 192.582 75.7775 192.834C75.8725 193.09 75.7465 193.373 75.4908 193.468C74.3494 193.899 73.3084 194.043 72.4263 194.043Z" fill="#172C57"/>
<path d="M72.4227 194.998C70.5088 194.998 69.287 194.357 69.2121 194.317C68.9729 194.189 68.8852 193.89 69.0167 193.652C69.1427 193.413 69.4422 193.325 69.6778 193.451C69.707 193.466 72.0849 194.689 75.343 193.466C75.5968 193.375 75.8817 193.502 75.9767 193.756C76.0698 194.01 75.942 194.291 75.6863 194.388C74.4664 194.843 73.3596 194.998 72.4227 194.998Z" fill="#172C57"/>
<path d="M174.431 224.745C166.945 224.745 159.702 226.102 161.4 221.127C163.101 216.15 162.025 202.581 166.633 199.867C171.242 197.153 172.062 196.98 172.442 193.062H174.429V224.745H174.431Z" fill="#FCA001"/>
<path d="M174.432 224.745C181.918 224.745 189.159 226.102 187.462 221.127C185.764 216.15 186.839 202.581 182.23 199.867C177.622 197.153 176.8 196.98 176.42 193.062H174.433V224.745H174.432Z" fill="#F58300"/>
<path d="M172.072 195.243C172.072 195.243 167.956 192.067 167.793 189.691C167.793 189.691 169.662 189.351 171.247 189.691C172.83 190.032 173.322 190.032 174.432 190.032V195.685L172.072 195.243Z" fill="#FCA001"/>
<path d="M176.793 195.243C176.793 195.243 180.908 192.067 181.072 189.691C181.072 189.691 179.202 189.351 177.619 189.691C176.033 190.032 175.544 190.032 174.432 190.032V195.685L176.793 195.243Z" fill="#F58300"/>
<path d="M174.347 196.485C172.69 196.485 171.631 195.93 171.567 195.895C171.348 195.776 171.266 195.5 171.384 195.283C171.503 195.064 171.775 194.982 171.994 195.099C172.078 195.141 174.054 196.161 176.852 195.111C177.086 195.026 177.347 195.141 177.433 195.376C177.521 195.612 177.404 195.871 177.17 195.959C176.118 196.351 175.159 196.485 174.347 196.485Z" fill="#172C57"/>
<path d="M174.345 197.367C172.583 197.367 171.456 196.773 171.386 196.737C171.167 196.618 171.085 196.344 171.206 196.127C171.322 195.906 171.598 195.824 171.817 195.94C171.843 195.953 174.031 197.078 177.033 195.959C177.267 195.871 177.53 195.988 177.618 196.222C177.705 196.457 177.585 196.717 177.351 196.804C176.228 197.223 175.209 197.367 174.345 197.367Z" fill="#172C57"/>
<path d="M161.93 221.739C161.93 221.339 161.601 221.01 161.201 221.01H137.992C137.591 221.01 137.264 221.339 137.264 221.739V224.186C137.264 224.586 137.591 224.913 137.992 224.913H161.203C161.603 224.913 161.931 224.586 161.931 224.186V221.739H161.93Z" fill="#9A9A9A"/>
<path d="M161.93 216.821C161.93 216.419 161.601 216.092 161.201 216.092H137.992C137.591 216.092 137.264 216.419 137.264 216.821V219.266C137.264 219.668 137.591 219.995 137.992 219.995H161.203C161.603 219.995 161.931 219.666 161.931 219.266V216.821H161.93Z" fill="#9A9A9A"/>
<path d="M161.93 211.901C161.93 211.499 161.601 211.172 161.201 211.172H137.992C137.591 211.172 137.264 211.499 137.264 211.901V214.348C137.264 214.748 137.591 215.075 137.992 215.075H161.203C161.603 215.075 161.931 214.746 161.931 214.348V211.901H161.93Z" fill="#9A9A9A"/>
<path d="M141.022 224.186C141.022 224.586 140.695 224.913 140.293 224.913H139.691C139.287 224.913 138.962 224.586 138.962 224.186V211.115C138.962 210.715 139.289 210.387 139.691 210.387H140.293C140.695 210.387 141.022 210.717 141.022 211.115V224.186Z" fill="#747474"/>
<path d="M158.169 224.186C158.169 224.586 158.496 224.913 158.898 224.913H159.503C159.904 224.913 160.231 224.586 160.231 224.186V211.115C160.231 210.715 159.904 210.387 159.503 210.387H158.898C158.496 210.387 158.169 210.717 158.169 211.115V224.186Z" fill="#747474"/>
<path d="M189.851 224.201H56.2417V233H189.851V224.201Z" fill="#0E1F42"/>
<path d="M123.464 224.201H56.2417V233H123.464V224.201Z" fill="#172C57"/>
<path d="M137.068 76.9708L138.843 74.8267L135.495 74.1802C134.425 71.9119 132.298 69.24 129.465 66.822C126.633 64.404 123.681 62.7402 121.307 62.0681L120.087 58.8173L118.312 60.9614C118.252 61.018 118.197 61.0782 118.144 61.1422C116.44 63.2278 119.263 68.5059 124.448 72.9328C129.635 77.3598 135.22 79.2574 136.924 77.1717C136.977 77.1096 137.026 77.042 137.068 76.9708Z" fill="#FFD580"/>
<path d="M138.642 75.0988C136.938 77.1845 131.353 75.2851 126.167 70.8599C120.98 66.433 118.158 61.1549 119.862 59.0693C121.566 56.9836 127.153 58.8811 132.338 63.3081C137.524 67.7333 140.346 73.0132 138.642 75.0988Z" fill="#FAC751"/>
<path d="M131.832 63.9272C127.299 60.0573 122.518 58.2766 121.152 59.9477C119.786 61.6188 122.354 66.1097 126.887 69.9796C131.419 73.8496 136.201 75.6302 137.567 73.9592C138.933 72.2881 136.365 67.7954 131.832 63.9272ZM127.528 69.1943C123.548 65.7992 121.238 61.9256 122.368 60.5431C123.497 59.1605 127.637 60.7951 131.617 64.1902C135.596 67.5872 137.905 71.4589 136.776 72.8415C135.647 74.224 131.507 72.5913 127.528 69.1943Z" fill="#FFD580"/>
<path d="M126.335 64.2415L126.633 63.8616L127.433 64.4442C127.734 64.0844 128.092 63.8671 128.506 63.7886L128.965 64.3584C128.521 64.446 128.176 64.6469 127.931 64.9611C127.772 65.1656 127.716 65.3829 127.758 65.6167C127.8 65.8505 127.931 66.0459 128.152 66.2084C128.353 66.3545 128.563 66.4294 128.788 66.4313C129.01 66.4349 129.279 66.3637 129.589 66.2157C130.068 65.9929 130.475 65.8852 130.809 65.898C131.142 65.9089 131.463 66.0276 131.77 66.2504C132.099 66.4897 132.32 66.7764 132.433 67.1106C132.548 67.4449 132.526 67.7772 132.367 68.1096L133.167 68.694L132.869 69.0758L132.093 68.5096C131.856 68.7872 131.558 68.9753 131.204 69.0739L130.756 68.5206C131.138 68.4165 131.434 68.2302 131.64 67.9635C131.792 67.7681 131.845 67.5709 131.801 67.3718C131.755 67.1727 131.637 67.0011 131.445 66.8604C131.259 66.7253 131.061 66.6595 130.85 66.6687C130.641 66.6778 130.351 66.7655 129.982 66.9335C129.536 67.1362 129.146 67.2239 128.81 67.2001C128.472 67.1764 128.136 67.0412 127.796 66.7947C127.464 66.5518 127.232 66.2523 127.104 65.8998C126.976 65.5473 126.992 65.1948 127.157 64.8442L126.335 64.2415Z" fill="#FFD580"/>
<path d="M54.5347 78.3368L53.0152 76.9324L52.3998 79.3906C50.6721 80.0937 48.6029 81.5639 46.6926 83.5692C44.7823 85.5745 43.4272 87.6985 42.8318 89.4335L40.3682 90.2078L41.8876 91.6123C41.9278 91.6579 41.9698 91.7018 42.0155 91.7438C43.4948 93.0934 47.5272 91.2123 51.0246 87.5414C54.5219 83.8705 56.1583 79.8015 54.679 78.4519C54.6333 78.4117 54.5858 78.3715 54.5347 78.3368Z" fill="#FFD580"/>
<path d="M53.2084 77.0933C54.6877 78.4429 53.0513 82.5119 49.554 86.1828C46.0566 89.8537 42.0242 91.7348 40.5449 90.3852C39.0656 89.0355 40.702 84.9665 44.1993 81.2956C47.6948 77.6247 51.7291 75.7436 53.2084 77.0933Z" fill="#FAC751"/>
<path d="M44.6377 81.6954C41.5805 84.9043 40.0647 88.3816 41.25 89.4627C42.4352 90.5439 45.8741 88.8217 48.9295 85.6129C51.9867 82.404 53.5025 78.9267 52.3173 77.8456C51.132 76.7626 47.6949 78.4866 44.6377 81.6954ZM48.3743 85.1052C45.6915 87.9213 42.722 89.4792 41.7431 88.5843C40.7623 87.6894 42.143 84.6814 44.8258 81.8671C47.5087 79.0509 50.4782 77.4931 51.4571 78.388C52.436 79.281 51.0571 82.289 48.3743 85.1052Z" fill="#FFD580"/>
<path d="M44.6487 85.7883L44.3784 85.5527L44.8441 84.9829C44.5903 84.7455 44.4423 84.4716 44.4022 84.1593L44.8441 83.8415C44.8916 84.1757 45.0268 84.4387 45.2496 84.6341C45.3938 84.7601 45.5545 84.8131 45.7299 84.7893C45.9052 84.7674 46.0568 84.6779 46.1846 84.5209C46.3015 84.3784 46.3654 84.225 46.3764 84.0588C46.3873 83.8926 46.3453 83.6917 46.2485 83.4561C46.1024 83.0909 46.0403 82.7859 46.0623 82.5375C46.0842 82.2909 46.1846 82.0572 46.3636 81.8398C46.5554 81.6061 46.7763 81.4527 47.0284 81.3814C47.2804 81.3102 47.5269 81.3394 47.7662 81.4709L48.2319 80.9011L48.5022 81.1367L48.0511 81.6901C48.2483 81.8782 48.3762 82.1065 48.4328 82.3731L48.0036 82.6818C47.9415 82.3932 47.8155 82.1668 47.6256 82.0024C47.4868 81.8819 47.3425 81.8344 47.1927 81.8599C47.043 81.8855 46.9115 81.9659 46.8001 82.1028C46.6923 82.2343 46.6357 82.3804 46.6339 82.5357C46.6321 82.6909 46.685 82.9101 46.7964 83.1913C46.9279 83.5292 46.9791 83.8232 46.948 84.0734C46.917 84.3236 46.8019 84.5684 46.6047 84.8094C46.4111 85.0469 46.1791 85.2057 45.9125 85.2861C45.6459 85.3665 45.3847 85.3409 45.1308 85.2039L44.6487 85.7883Z" fill="#FFD580"/>
<path d="M185.901 19.9242L183.26 17.4824L182.188 21.756C179.186 22.976 175.588 25.5346 172.268 29.0192C168.948 32.5039 166.592 36.1967 165.556 39.2119L161.273 40.5579L163.916 42.9997C163.985 43.08 164.059 43.1567 164.137 43.2298C166.707 45.5748 173.72 42.3057 179.797 35.9264C185.877 29.5471 188.721 22.4719 186.149 20.1269C186.073 20.052 185.989 19.9845 185.901 19.9242Z" fill="#FFD580"/>
<path d="M183.595 17.7599C186.166 20.1067 183.321 27.18 177.243 33.5612C171.163 39.9405 164.152 43.2114 161.583 40.8664C159.011 38.5196 161.855 31.4463 167.934 25.0652C174.012 18.684 181.023 15.4131 183.595 17.7599Z" fill="#FAC751"/>
<path d="M168.697 25.761C163.385 31.3367 160.747 37.3818 162.808 39.2629C164.868 41.144 170.845 38.1471 176.158 32.5713C181.47 26.9956 184.108 20.9487 182.046 19.0694C179.987 17.1883 174.01 20.1834 168.697 25.761ZM175.192 31.6874C170.529 36.5819 165.366 39.2903 163.664 37.7361C161.96 36.1819 164.36 30.9532 169.024 26.0587C173.689 21.1642 178.85 18.4558 180.554 20.0099C182.254 21.5641 179.854 26.7929 175.192 31.6874Z" fill="#FFD580"/>
<path d="M168.714 32.8762L168.245 32.4672L169.054 31.4755C168.612 31.0627 168.354 30.5842 168.285 30.0436L169.052 29.4921C169.134 30.0729 169.37 30.5313 169.757 30.8691C170.009 31.0883 170.286 31.1778 170.59 31.1394C170.893 31.1011 171.156 30.9458 171.382 30.6719C171.583 30.4235 171.696 30.1569 171.715 29.8683C171.735 29.5798 171.662 29.2309 171.494 28.82C171.238 28.1863 171.13 27.653 171.169 27.2238C171.207 26.7946 171.38 26.3892 171.691 26.0093C172.023 25.6039 172.409 25.3372 172.847 25.213C173.285 25.0888 173.713 25.14 174.131 25.3683L174.94 24.3766L175.411 24.7875L174.626 25.7481C174.969 26.0751 175.19 26.4714 175.29 26.9353L174.545 27.4722C174.438 26.9718 174.218 26.5773 173.89 26.2906C173.649 26.0824 173.398 25.9984 173.137 26.0422C172.876 26.086 172.648 26.2285 172.452 26.4659C172.264 26.696 172.168 26.948 172.164 27.2183C172.16 27.4886 172.253 27.8685 172.445 28.3561C172.675 28.9442 172.761 29.4556 172.708 29.8884C172.653 30.3212 172.454 30.7468 172.113 31.1668C171.775 31.5796 171.373 31.8553 170.909 31.9978C170.445 32.1384 169.992 32.0909 169.55 31.8535L168.714 32.8762Z" fill="#FFD580"/>
<path d="M180.194 58.0246C180.194 58.0246 200.506 51.9083 209.024 40.5522L216.669 53.4387C216.669 53.4387 207.278 66.106 187.839 71.7859L180.194 58.0246Z" fill="#71C6A9"/>
<path d="M207.734 43.5292C200.476 53.0041 182.851 58.1013 182.851 58.1013L189.159 69.7331C205.546 65.1253 214.049 54.4268 214.049 54.4268L207.734 43.5292ZM188.521 66.895L184.87 60.1632C185.311 59.8436 186.069 59.1021 185.703 58.0118C190.318 56.4065 199.914 52.5621 206.046 46.5974C206.486 46.8932 207.56 47.4265 208.523 46.4695L212.376 53.1191C211.757 53.4022 210.55 54.2058 211.635 55.8732C208.629 58.8702 201.879 64.6468 191.673 68.1223C191.104 66.0074 189.215 66.5955 188.521 66.895Z" fill="#378E70"/>
<path d="M202.84 56.2731C203.879 58.4994 203.408 60.9174 201.788 61.6735C200.168 62.4278 198.013 61.2352 196.976 59.0089C195.937 56.7826 196.408 54.3646 198.028 53.6085C199.646 52.8542 201.801 54.0468 202.84 56.2731Z" fill="#378E70"/>
<path d="M197.684 54.7319L198.047 54.5145L198.518 55.2469C198.88 55.0478 199.243 54.9821 199.609 55.0515L199.804 55.6651C199.411 55.5957 199.064 55.6505 198.765 55.8313C198.569 55.9482 198.452 56.1089 198.414 56.3134C198.374 56.518 198.42 56.7207 198.549 56.9253C198.668 57.1079 198.816 57.2376 198.999 57.3106C199.181 57.3855 199.422 57.4111 199.724 57.3891C200.187 57.3581 200.555 57.4001 200.825 57.5152C201.095 57.6302 201.32 57.8293 201.501 58.1105C201.694 58.4101 201.784 58.7169 201.773 59.0273C201.76 59.3378 201.636 59.6026 201.402 59.8254L201.873 60.5596L201.508 60.777L201.051 60.0665C200.768 60.2199 200.465 60.2802 200.142 60.2455L199.95 59.6501C200.297 59.6866 200.598 59.6282 200.852 59.4748C201.038 59.3634 201.144 59.2191 201.172 59.0401C201.199 58.8612 201.155 58.684 201.042 58.5087C200.933 58.3388 200.79 58.2219 200.615 58.1635C200.441 58.1032 200.175 58.085 199.819 58.1051C199.389 58.1288 199.041 58.0777 198.772 57.9517C198.504 57.8256 198.27 57.6065 198.071 57.296C197.875 56.991 197.78 56.6714 197.788 56.3427C197.795 56.0121 197.921 55.729 198.168 55.4934L197.684 54.7319Z" fill="#71C6A9"/>
<path d="M81.8464 94.0925C81.8464 94.0925 89.4493 106.778 98.5807 110.597L91.1751 117.964C91.1751 117.964 81.0082 113.78 73.8491 101.61L81.8464 94.0925Z" fill="#71C6A9"/>
<path d="M96.3469 110.233C88.7038 106.946 82.2461 95.9005 82.2461 95.9005L75.4614 102.152C81.3749 112.443 90.059 116.364 90.059 116.364L96.3469 110.233ZM77.2713 101.235L81.1978 97.6173C81.49 97.8602 82.1201 98.2455 82.794 97.8127C84.6677 100.658 88.9047 106.488 93.9836 109.614C93.8595 109.963 93.6805 110.779 94.4932 111.265L90.6561 115.007C90.3585 114.637 89.6097 113.959 88.6691 114.976C86.1288 113.457 81.0718 109.879 76.9791 103.575C78.3123 102.831 77.5927 101.653 77.2713 101.235Z" fill="#378E70"/>
<path d="M86.8957 109.101C85.568 110.184 83.8531 110.277 83.0659 109.311C82.2788 108.345 82.7171 106.685 84.0448 105.602C85.3725 104.519 87.0874 104.426 87.8746 105.392C88.6635 106.36 88.2234 108.02 86.8957 109.101Z" fill="#378E70"/>
<path d="M87.0581 105.352L87.2681 105.56L86.8535 106.004C87.0508 106.214 87.1567 106.448 87.1713 106.707L86.7896 106.943C86.7695 106.665 86.6727 106.44 86.4992 106.269C86.3878 106.157 86.2581 106.104 86.1139 106.113C85.9696 106.121 85.8399 106.186 85.723 106.309C85.6189 106.42 85.5587 106.543 85.5404 106.68C85.5222 106.815 85.5459 106.983 85.6116 107.184C85.7121 107.492 85.7468 107.748 85.7139 107.951C85.6829 108.152 85.5861 108.338 85.4272 108.508C85.2573 108.688 85.0656 108.804 84.8537 108.847C84.6419 108.891 84.441 108.855 84.2511 108.734L83.8365 109.178L83.6265 108.968L84.0283 108.539C83.8767 108.373 83.7835 108.179 83.7525 107.954L84.1232 107.722C84.1579 107.963 84.2492 108.157 84.3972 108.303C84.5049 108.411 84.62 108.458 84.746 108.446C84.8702 108.433 84.9834 108.374 85.0838 108.267C85.1806 108.164 85.2336 108.047 85.2446 107.92C85.2555 107.792 85.2226 107.609 85.1478 107.372C85.0583 107.085 85.0327 106.84 85.0729 106.638C85.1131 106.435 85.2208 106.239 85.3961 106.051C85.5696 105.867 85.7687 105.748 85.9933 105.697C86.218 105.646 86.4316 105.682 86.6325 105.808L87.0581 105.352Z" fill="#71C6A9"/>
<path d="M73.1255 29.3752C73.1255 29.3752 84.2385 37.7964 93.5671 37.9242L89.6808 46.9736C89.6808 46.9736 79.3166 46.8896 68.7734 38.7625L73.1255 29.3752Z" fill="#71C6A9"/>
<path d="M91.487 38.3917C83.6449 38.2054 74.1135 30.8162 74.1135 30.8162L70.377 38.6693C79.1687 45.591 88.1449 45.9654 88.1449 45.9654L91.487 38.3917ZM71.6371 37.2302L73.7994 32.6845C74.1391 32.7941 74.8258 32.9091 75.2659 32.2937C77.9049 34.1236 83.6614 37.7324 89.2042 38.6803C89.2169 39.0291 89.3484 39.8053 90.2305 39.9459L88.1906 44.5683C87.7997 44.3491 86.9067 44.0186 86.441 45.2404C83.6851 44.8039 78.0035 43.4543 72.2069 39.3779C73.1091 38.2602 72.0644 37.484 71.6371 37.2302Z" fill="#378E70"/>
<path d="M82.8225 40.7257C82.0409 42.1392 80.5743 42.8259 79.5461 42.2579C78.5179 41.6899 78.3171 40.0828 79.0987 38.6692C79.8804 37.2557 81.3469 36.569 82.3751 37.1369C83.4014 37.7049 83.6023 39.3121 82.8225 40.7257Z" fill="#378E70"/>
<path d="M81.6449 37.389L81.9024 37.4986L81.696 38.0319C81.9426 38.147 82.1179 38.3132 82.222 38.5341L81.9718 38.8757C81.8567 38.6401 81.6923 38.4775 81.4805 38.388C81.3435 38.3296 81.212 38.3296 81.0878 38.388C80.9637 38.4465 80.8742 38.5487 80.8157 38.6967C80.7646 38.83 80.7536 38.9597 80.7847 39.0839C80.8157 39.2099 80.8961 39.3468 81.0239 39.5003C81.2193 39.734 81.3399 39.9459 81.3837 40.134C81.4275 40.3221 81.4093 40.5175 81.3289 40.7239C81.2449 40.943 81.1171 41.1092 80.9472 41.2225C80.7774 41.3357 80.5893 41.3722 80.3792 41.3339L80.171 41.8672L79.9135 41.7576L80.1144 41.2407C79.9245 41.1494 79.7747 41.0106 79.667 40.828L79.9099 40.4956C80.0249 40.6928 80.1729 40.8316 80.3537 40.9065C80.4852 40.9613 80.6039 40.9631 80.708 40.9083C80.8139 40.8536 80.8906 40.7622 80.9399 40.6344C80.9874 40.5102 80.9947 40.3897 80.9582 40.2746C80.9235 40.1596 80.8303 40.0098 80.6806 39.829C80.5016 39.6098 80.3939 39.4053 80.3573 39.2135C80.3208 39.0218 80.3464 38.8136 80.434 38.5871C80.5199 38.3643 80.6532 38.1908 80.8303 38.0666C81.0093 37.9424 81.2084 37.8986 81.4275 37.9388L81.6449 37.389Z" fill="#71C6A9"/>
<path opacity="0.15" d="M239.923 88.9534H233.482L230.644 95.6523C230.644 95.6523 235.923 99.2812 239.923 100.843V88.9534Z" fill="#020202"/>
<path d="M237.507 83.8926C237.507 83.8926 249.294 92.8269 259.19 92.9621L255.068 102.561C255.068 102.561 244.074 102.472 232.892 93.8496L237.507 83.8926Z" fill="#71C6A9"/>
<path d="M256.982 93.4588C248.663 93.2597 238.553 85.423 238.553 85.423L234.59 93.7546C243.917 101.096 253.437 101.495 253.437 101.495L256.982 93.4588ZM235.929 92.226L238.222 87.4045C238.584 87.5214 239.311 87.6438 239.777 86.99C242.576 88.9313 248.682 92.7593 254.56 93.7656C254.575 94.1345 254.714 94.9582 255.649 95.1079L253.485 100.012C253.07 99.7796 252.122 99.429 251.629 100.726C248.705 100.262 242.678 98.8318 236.529 94.5089C237.49 93.3181 236.381 92.4945 235.929 92.226Z" fill="#378E70"/>
<path d="M247.793 95.9335C246.963 97.4329 245.409 98.1598 244.317 97.5571C243.227 96.9544 243.013 95.2505 243.842 93.7511C244.671 92.2517 246.226 91.5248 247.318 92.1257C248.408 92.7302 248.622 94.4341 247.793 95.9335Z" fill="#378E70"/>
<path d="M246.543 92.3959L246.815 92.5109L246.596 93.0771C246.857 93.1995 247.043 93.3766 247.153 93.6104L246.888 93.972C246.766 93.7218 246.592 93.5501 246.368 93.4551C246.221 93.393 246.083 93.393 245.951 93.4551C245.82 93.5172 245.723 93.625 245.663 93.7821C245.608 93.9227 245.597 94.0615 245.63 94.193C245.663 94.3263 245.748 94.4724 245.884 94.6331C246.092 94.8815 246.22 95.1061 246.265 95.3052C246.311 95.5043 246.291 95.7125 246.207 95.9298C246.117 96.1617 245.982 96.3389 245.801 96.4594C245.622 96.58 245.422 96.6201 245.199 96.5781L244.98 97.1443L244.707 97.0274L244.921 96.4777C244.718 96.3809 244.56 96.2348 244.446 96.0394L244.704 95.6869C244.826 95.8969 244.983 96.043 245.173 96.1234C245.312 96.1818 245.438 96.1837 245.549 96.1252C245.661 96.0668 245.743 95.97 245.796 95.833C245.847 95.7015 245.854 95.5737 245.816 95.4513C245.778 95.3289 245.681 95.1719 245.522 94.9783C245.332 94.7463 245.217 94.529 245.179 94.3245C245.14 94.1217 245.166 93.8989 245.259 93.6597C245.35 93.4241 245.491 93.2396 245.681 93.1081C245.869 92.9766 246.081 92.931 246.315 92.973L246.543 92.3959Z" fill="#71C6A9"/>
</svg>
