<svg width="300" height="250" viewBox="0 0 300 250" fill="none" xmlns="http://www.w3.org/2000/svg">
<path d="M129.711 75.905C129.711 75.905 128.109 67.418 139.891 67.5823V75.905H129.711Z" fill="#FCA001"/>
<path d="M150.07 75.905C150.07 75.905 151.672 67.418 139.89 67.5823V75.905H150.07Z" fill="#F58300"/>
<path d="M161.732 81.801C161.732 87.2358 151.975 91.6404 139.935 91.6404C127.894 91.6404 118.13 87.2168 118.13 81.801C118.13 76.3853 127.888 71.9364 139.935 71.9364C151.981 71.9364 161.732 76.36 161.732 81.801Z" fill="#FFB804"/>
<path d="M162.23 107.508C158.761 101.416 152.391 103.085 148.354 102.409C144.318 101.732 145.447 93.3213 145.447 93.3213L139.915 86.5721V122.555H139.877V145.103H157.216V122.555H157.298C158.541 127.149 166.103 114.308 162.23 107.508Z" fill="#F7A054"/>
<path d="M161.732 81.801C161.732 76.36 151.975 71.9553 139.934 71.9553V91.6404C151.975 91.6404 161.732 87.2357 161.732 81.801Z" fill="#FCA001"/>
<path d="M150.164 86.5722H149.956L150.215 84.531C150.656 81.1564 151.64 72.6378 139.89 72.6378C128.139 72.6378 129.123 81.1564 129.565 84.531C129.647 85.1629 129.735 85.877 129.817 86.5722H129.609C127.818 85.2451 127.673 88.7081 128.417 89.8962C128.869 90.5555 129.208 91.286 129.42 92.0574C129.697 92.8537 130.151 92.9611 130.53 92.8727C130.58 93.3466 130.624 93.7574 130.65 94.0797C130.82 95.906 135.185 99.546 136.175 100.69C137.165 101.834 138.647 101.322 139.146 101.322L139.883 101.29L140.621 101.322C141.12 101.322 142.665 101.764 143.592 100.69C144.519 99.6155 148.947 95.906 149.111 94.0797C149.111 93.7574 149.18 93.3466 149.231 92.8727C149.609 92.9611 150.07 92.8727 150.341 92.0574C150.552 91.2847 150.893 90.5538 151.35 89.8962C152.101 88.7081 151.949 85.2451 150.164 86.5722Z" fill="#FFBA80"/>
<path d="M140.628 101.315C141.126 101.315 142.671 101.758 143.598 100.683C144.525 99.6092 148.953 95.8996 149.117 94.0733C149.117 93.751 149.187 93.3403 149.237 92.8663C149.615 92.9548 150.076 92.8663 150.347 92.0511C150.558 91.2784 150.899 90.5474 151.356 89.8899C152.101 88.7018 151.949 85.2387 150.164 86.5658H149.956L150.215 84.5247C150.656 81.1501 151.64 72.6315 139.89 72.6315V101.277L140.628 101.315Z" fill="#F7A054"/>
<path d="M139.928 163.966C139.928 163.966 137.405 165.824 136.838 180.536C136.119 198.155 135.431 205.896 135.431 205.896H123.889L122.545 180.574V145.103L139.928 143.978V163.966Z" fill="#172C57"/>
<path d="M139.934 80.0695C138.301 82.0493 136.099 83.4769 133.627 84.1581C133.627 84.1581 134.662 82.8943 134.731 82.1107C134.731 82.1107 132.101 84.7901 129.982 85.4536L129.679 85.6622C129.506 84.7399 129.398 83.8065 129.357 82.869C129.212 80.7962 138.547 77.3395 138.547 77.3395L139.903 79.0015L139.934 80.0695Z" fill="#693514"/>
<path d="M139.934 80.0696C139.934 80.0696 140.981 82.1992 144.841 83.3873C144.691 83.02 144.569 82.6418 144.475 82.2561C144.475 82.2561 147.73 84.7839 149.849 85.4537L150.019 86.0857C150.019 86.0857 150.265 84.6069 150.41 82.5405C150.556 80.474 141.284 77.3649 141.284 77.3649L139.934 79.0269V80.0696Z" fill="#4F250A"/>
<path d="M129.433 83.6526C129.433 83.6526 131.124 79.7725 139.891 79.7725V71.9364C139.891 71.9364 129.534 71.7531 127.018 77.7882C124.501 83.8233 128.866 83.6337 128.866 83.6337L129.433 83.6526Z" fill="#FFB804"/>
<path d="M150.347 83.6526C150.347 83.6526 148.65 79.7725 139.89 79.7725V71.9364C139.89 71.9364 150.246 71.7531 152.763 77.7882C155.279 83.8233 150.915 83.6337 150.915 83.6337L150.347 83.6526Z" fill="#FCA001"/>
<path d="M139.928 163.966C139.928 163.966 142.451 165.824 143.018 180.536C143.737 198.155 144.431 205.909 144.431 205.909H155.973L157.311 180.587V145.103L139.928 143.978V163.966Z" fill="#0E1F42"/>
<path d="M157.033 205.536L157.891 185.958H150.158V205.536H157.033Z" fill="#B05D2A"/>
<path d="M143.284 205.536L142.426 185.958H150.158V205.536H143.284Z" fill="#B05D2A"/>
<path d="M142.987 207.653C142.959 206.692 143.123 205.735 143.47 204.838C143.818 203.942 144.341 203.125 145.01 202.435C145.678 201.745 146.478 201.196 147.362 200.822C148.246 200.447 149.196 200.254 150.155 200.254C151.115 200.254 152.065 200.447 152.949 200.822C153.833 201.196 154.632 201.745 155.301 202.435C155.969 203.125 156.493 203.942 156.84 204.838C157.188 205.735 157.352 206.692 157.323 207.653C157.281 207.81 157.182 207.947 157.047 208.038C156.911 208.128 156.747 208.167 156.585 208.146H143.731C143.569 208.168 143.403 208.131 143.266 208.04C143.129 207.949 143.03 207.811 142.987 207.653V207.653Z" fill="#853A0C"/>
<path d="M141.593 181.263C141.588 181.176 141.6 181.09 141.63 181.009C141.659 180.928 141.705 180.854 141.764 180.791C141.823 180.728 141.894 180.678 141.973 180.644C142.052 180.61 142.138 180.593 142.224 180.593H157.992C158.078 180.593 158.163 180.61 158.242 180.644C158.321 180.678 158.393 180.728 158.452 180.791C158.511 180.854 158.556 180.928 158.586 181.009C158.615 181.09 158.628 181.176 158.623 181.263V186.76C158.629 186.847 158.617 186.934 158.588 187.016C158.559 187.098 158.513 187.173 158.454 187.236C158.395 187.3 158.323 187.35 158.244 187.385C158.164 187.419 158.078 187.437 157.992 187.437H142.224C142.052 187.427 141.89 187.351 141.773 187.225C141.656 187.099 141.591 186.933 141.593 186.76V181.263Z" fill="#853A0C"/>
<path d="M122.829 205.536L121.971 185.958H129.704V205.536H122.829Z" fill="#B36434"/>
<path d="M136.572 205.536L137.43 185.958H129.704V205.536H136.572Z" fill="#B36434"/>
<path d="M136.869 207.653C136.897 206.692 136.733 205.735 136.386 204.838C136.038 203.942 135.515 203.125 134.846 202.435C134.178 201.745 133.378 201.196 132.494 200.822C131.61 200.447 130.66 200.254 129.701 200.254C128.741 200.254 127.791 200.447 126.907 200.822C126.023 201.196 125.224 201.745 124.555 202.435C123.887 203.125 123.363 203.942 123.016 204.838C122.668 205.735 122.504 206.692 122.532 207.653C122.575 207.811 122.675 207.949 122.812 208.04C122.949 208.131 123.114 208.168 123.277 208.146H136.131C136.293 208.167 136.456 208.128 136.592 208.038C136.728 207.947 136.826 207.81 136.869 207.653V207.653Z" fill="#964514"/>
<path d="M138.238 181.263C138.243 181.176 138.23 181.09 138.201 181.009C138.172 180.928 138.126 180.854 138.067 180.791C138.008 180.728 137.937 180.678 137.857 180.644C137.778 180.61 137.693 180.593 137.607 180.593H121.839C121.753 180.593 121.668 180.61 121.588 180.644C121.509 180.678 121.438 180.728 121.379 180.791C121.32 180.854 121.274 180.928 121.245 181.009C121.215 181.09 121.203 181.176 121.208 181.263V186.76C121.205 186.933 121.269 187.101 121.386 187.227C121.504 187.353 121.667 187.428 121.839 187.437H137.607C137.694 187.437 137.78 187.419 137.859 187.385C137.939 187.35 138.01 187.3 138.069 187.236C138.129 187.173 138.174 187.098 138.203 187.016C138.232 186.934 138.244 186.847 138.238 186.76V181.263Z" fill="#964514"/>
<path d="M122.545 145.103V123.377H124.747L124.557 102.731L129.42 102.617V123.377H139.89V145.103H122.545Z" fill="#172C57"/>
<path d="M157.228 145.103V123.377H155.033L155.223 102.731L150.353 102.617V123.377H139.89V145.103H157.228Z" fill="#0E1F42"/>
<path d="M154.208 123.351C154.208 123.629 154.126 123.9 153.972 124.131C153.818 124.362 153.599 124.541 153.343 124.648C153.087 124.754 152.806 124.782 152.534 124.727C152.263 124.673 152.013 124.54 151.817 124.343C151.622 124.147 151.488 123.897 151.434 123.625C151.38 123.353 151.408 123.071 151.514 122.815C151.62 122.558 151.799 122.339 152.03 122.185C152.26 122.031 152.531 121.949 152.807 121.949C152.992 121.948 153.174 121.983 153.344 122.054C153.515 122.124 153.669 122.227 153.799 122.358C153.93 122.488 154.033 122.643 154.103 122.814C154.173 122.984 154.208 123.167 154.208 123.351V123.351Z" fill="#747474"/>
<path d="M125.642 123.351C125.642 123.629 125.724 123.9 125.878 124.131C126.031 124.362 126.25 124.541 126.506 124.648C126.762 124.754 127.043 124.781 127.315 124.727C127.587 124.673 127.836 124.54 128.032 124.343C128.228 124.147 128.361 123.897 128.415 123.625C128.469 123.353 128.441 123.071 128.335 122.815C128.229 122.558 128.05 122.339 127.82 122.185C127.589 122.031 127.319 121.948 127.042 121.948C126.67 121.948 126.314 122.096 126.052 122.359C125.789 122.622 125.642 122.979 125.642 123.351Z" fill="#9A9A9A"/>
<path d="M145.409 93.3213C145.409 93.3213 144.336 101.764 148.316 102.409C152.296 103.053 158.717 101.416 162.192 107.508C166.065 114.308 171.104 125.569 173.4 135.396C175.034 142.392 174.353 142.796 162.722 149.084C157.014 152.174 157.386 152.2 152.775 153.122C148.531 153.963 149.205 147.624 152.775 145.615C158.584 142.347 164.866 139.845 165.321 138.436C166.077 136.091 158.502 127.149 157.272 122.555V145.103H139.927V122.555H139.89V86.5721L145.409 93.3213Z" fill="#F7A054"/>
<path d="M147.9 102.27C148.048 102.323 148.2 102.363 148.354 102.39C149.547 102.542 150.747 102.618 151.949 102.617C152.094 102.617 152.258 102.617 152.435 102.617C154.643 102.655 156.182 102.731 156.182 102.731C163.643 102.895 170.102 120.627 170.102 120.627L158.698 127.01L157.298 124.154V142.91L153.223 145.103H139.978L139.934 122.555V110.289L147.9 102.27Z" fill="#77BBE6"/>
<path d="M134.397 93.3213C134.397 93.3213 135.469 101.764 131.489 102.409C127.509 103.053 121.095 101.416 117.613 107.508C113.74 114.308 108.707 125.569 106.405 135.396C104.771 142.392 105.453 142.796 117.083 149.084C122.791 152.174 122.419 152.2 127.03 153.122C131.281 153.963 130.606 147.624 127.03 145.615C121.221 142.347 114.939 139.845 114.485 138.436C113.728 136.091 121.303 127.149 122.533 122.555V145.103H139.878V122.555H139.915V86.5721L134.397 93.3213Z" fill="#FFBA80"/>
<path d="M131.949 102.27C131.801 102.324 131.649 102.364 131.495 102.39C130.302 102.542 129.101 102.618 127.899 102.617C127.754 102.617 127.597 102.617 127.414 102.617C125.206 102.655 123.667 102.731 123.667 102.731C116.206 102.895 109.753 120.627 109.753 120.627L121.157 127.01L122.551 124.154V143.238L126.121 145.103H139.89L139.927 122.555V110.289L131.949 102.27Z" fill="#A6DAF5"/>
<path d="M62.2035 58.9878H56.0098L59.1571 153.937H62.2035V58.9878Z" fill="#82333D"/>
<path d="M202.528 58.9878H208.722L205.574 153.937H202.528V58.9878Z" fill="#82333D"/>
<path d="M234.341 65.7369L139.36 53.8943L26 65.7369L36.5394 67.9803H224.307L234.341 65.7369Z" fill="#82333D"/>
<path d="M89.9182 118.504H85.9194V120.602H89.9182V118.504Z" fill="#B9D3EA"/>
<path d="M89.7224 118.504H85.7236V120.602H89.7224V118.504Z" fill="#83A3BA"/>
<path d="M89.7348 120.337H85.7423L80.501 127.528V151.947H91.5954L89.7348 120.337Z" fill="#A0BED8"/>
<path d="M80.501 127.56V151.947H91.5954L90.2331 127.56H80.501Z" fill="#83A3BA"/>
<path d="M95.1206 127.528L89.7342 120.337L84.9092 127.528V151.947H95.1206V127.528Z" fill="#B9D3EA"/>
<path d="M80.501 136.035L84.9098 129.576V139.238L80.501 145.861V136.035Z" fill="#91B2C6"/>
<path d="M95.1206 136.035L84.9092 129.576V139.238L95.1206 145.861V136.035Z" fill="#E4EEF7"/>
<path d="M90.2834 145.874H85.7358V149.242H90.2834V145.874Z" fill="#83A3BA"/>
<path d="M183.334 120.602H187.333V118.504H183.334V120.602Z" fill="#B9D3EA"/>
<path d="M183.543 120.602H187.542V118.504H183.543V120.602Z" fill="#83A3BA"/>
<path d="M183.524 120.337H187.516L192.764 127.528V151.947H181.663L183.524 120.337Z" fill="#A0BED8"/>
<path d="M192.764 127.56V151.947H181.663L183.025 127.56H192.764Z" fill="#83A3BA"/>
<path d="M178.138 127.528L183.524 120.337L188.349 127.528V151.947H178.138V127.528Z" fill="#B9D3EA"/>
<path d="M192.764 136.035L188.349 129.576V139.238L192.764 145.861V136.035Z" fill="#91B2C6"/>
<path d="M178.138 136.035L188.349 129.576V139.238L178.138 145.861V136.035Z" fill="#E4EEF7"/>
<path d="M182.975 149.242H187.522V145.874H182.975V149.242Z" fill="#83A3BA"/>
<path d="M208.583 119.496H205.77L199.563 130.315V151.068H214.789V130.315L208.583 119.496Z" fill="#80BFBF"/>
<g style="mix-blend-mode:overlay" opacity="0.57">
<g style="mix-blend-mode:overlay" opacity="0.57">
<path d="M214.083 131.086L212.153 127.44C208.526 127.705 205.846 126.587 202.742 126.41L200.251 131.086V149.962H214.064L214.083 131.086Z" fill="#E8FCFB"/>
</g>
</g>
<g style="mix-blend-mode:multiply" opacity="0.61">
<path d="M213.471 128.021L212.588 146.651L199.563 149.033V151.068H214.789V130.315L213.471 128.021Z" fill="#80BFBF"/>
</g>
<g style="mix-blend-mode:overlay" opacity="0.58">
<path d="M210.866 130.195C210.866 129.791 210.866 129.386 210.866 128.969C210.866 128.552 210.866 128.078 210.834 127.636L207.567 121.519H205.366L200.503 130.612V132.091C203.783 133.368 207.819 132.533 210.866 130.195Z" fill="#E8FCFB"/>
</g>
<g style="mix-blend-mode:overlay" opacity="0.58">
<path d="M200.528 133.557V139.877C204.363 141.419 210.279 136.54 210.815 131.15C207.819 133.62 203.845 134.632 200.528 133.557Z" fill="#E8FCFB"/>
</g>
<g style="mix-blend-mode:multiply">
<path d="M213.199 127.548L208.582 119.49H205.769L203.7 123.124C206.885 122.89 210.253 124.571 213.199 127.548Z" fill="#80BFBF"/>
</g>
<path d="M209.302 118.643H205.044V120.343H209.302V118.643Z" fill="#C6E5E4"/>
<g style="mix-blend-mode:multiply">
<path d="M208.217 128.021L207.946 127.554L204.546 121.626L199.563 130.315V149.033V151.068H209.529V130.315L208.217 128.021Z" fill="#80BFBF"/>
</g>
<path d="M199.614 119.496H196.801L190.594 130.315V151.068H205.82V130.315L199.614 119.496Z" fill="#80BFBF"/>
<g style="mix-blend-mode:overlay" opacity="0.57">
<g style="mix-blend-mode:overlay" opacity="0.57">
<path d="M205.114 131.086L203.184 127.44C199.557 127.705 196.876 126.587 193.773 126.41L191.301 131.086V149.962H205.114V131.086Z" fill="#E8FCFB"/>
</g>
</g>
<g style="mix-blend-mode:multiply" opacity="0.61">
<path d="M204.502 128.021L203.619 146.651L190.594 149.033V151.068H205.82V130.315L204.502 128.021Z" fill="#80BFBF"/>
</g>
<g style="mix-blend-mode:overlay" opacity="0.58">
<path d="M201.897 130.195C201.897 129.791 201.897 129.386 201.897 128.969C201.897 128.552 201.897 128.078 201.897 127.636L198.63 121.519H196.428L191.565 130.612V132.091C194.814 133.368 198.825 132.533 201.897 130.195Z" fill="#E8FCFB"/>
</g>
<g style="mix-blend-mode:overlay" opacity="0.58">
<path d="M191.559 133.557V139.877C195.394 141.419 201.31 136.54 201.846 131.15C198.869 133.62 194.877 134.632 191.559 133.557Z" fill="#E8FCFB"/>
</g>
<g style="mix-blend-mode:multiply">
<path d="M204.23 127.547L199.62 119.496H196.807L194.731 123.124C197.917 122.89 201.285 124.571 204.23 127.547Z" fill="#80BFBF"/>
</g>
<path d="M200.333 118.643H196.075V120.343H200.333V118.643Z" fill="#C6E5E4"/>
<path d="M221.09 153.432H40.5255L38.2612 230.82H223.348L221.09 153.432Z" fill="#82333D"/>
<path d="M182.893 166.159H104.311L63.9824 230.82H162.054L182.893 166.159Z" fill="#9B404F"/>
<path d="M132.839 175.999C169.421 175.999 201.891 184.214 222.358 196.853L221.065 153.457H40.5255L39.1758 199.589C59.2329 185.383 93.6894 175.999 132.839 175.999Z" fill="#661D29"/>
<path d="M44.9284 58.9878H39.8447L41.882 153.937H44.9284V58.9878Z" fill="#82333D"/>
<path d="M215.975 58.9878H219.223L219.027 153.937H215.975V58.9878Z" fill="#82333D"/>
<path d="M214.019 18H46.322L26 65.8571H234.341L214.019 18Z" fill="#FFC655"/>
<path d="M50.3584 21.4251L43.1997 38.1463C60.633 43.8338 84.9096 47.3222 111.772 47.3222C159.789 47.3222 199.582 36.0925 206.69 21.4125L50.3584 21.4251Z" fill="#FFE48D"/>
<path d="M189.125 30.2217H70.8446L59.1572 56.0176H201.607L189.125 30.2217Z" fill="#FF9843"/>
<path d="M188.229 27.8456H72.1124L62.7524 53.6415H197.589L188.229 27.8456Z" fill="#FFFADC"/>
<path d="M223.543 150.626H36.7979V171.885H223.543V150.626Z" fill="#C4515F"/>
<path d="M130.966 165.565C172.833 165.565 208.368 159.998 221.002 152.294V151.978H40.4312C52.6105 159.846 88.5366 165.565 130.966 165.565Z" fill="#EF5B74"/>
<path d="M86.4678 223.439H223.165L222.913 219.622L86.4678 223.439Z" fill="#661D29"/>
<path d="M175.564 199.595H39.6737L39.125 203.412L175.564 199.595Z" fill="#661D29"/>
<path d="M218.718 169.3C218.718 169.519 218.783 169.733 218.905 169.915C219.026 170.097 219.199 170.239 219.401 170.322C219.603 170.406 219.825 170.427 220.04 170.384C220.254 170.341 220.451 170.235 220.605 170.08C220.759 169.924 220.864 169.727 220.905 169.512C220.947 169.297 220.924 169.074 220.84 168.872C220.755 168.67 220.613 168.498 220.431 168.377C220.248 168.257 220.034 168.193 219.816 168.194C219.671 168.194 219.528 168.223 219.394 168.278C219.261 168.334 219.139 168.416 219.037 168.518C218.935 168.621 218.855 168.743 218.8 168.877C218.745 169.011 218.717 169.155 218.718 169.3Z" fill="#661D29"/>
<path d="M218.718 153.261C218.718 153.48 218.783 153.694 218.905 153.876C219.026 154.058 219.199 154.2 219.401 154.284C219.603 154.367 219.825 154.389 220.04 154.345C220.254 154.302 220.451 154.196 220.605 154.041C220.759 153.886 220.864 153.688 220.905 153.473C220.947 153.258 220.924 153.036 220.84 152.834C220.755 152.632 220.613 152.459 220.431 152.339C220.248 152.218 220.034 152.154 219.816 152.155C219.671 152.155 219.528 152.184 219.394 152.24C219.261 152.295 219.139 152.377 219.037 152.48C218.935 152.582 218.855 152.704 218.8 152.838C218.745 152.973 218.717 153.116 218.718 153.261Z" fill="#661D29"/>
<path d="M40.5188 170.406C41.1284 170.406 41.6226 169.911 41.6226 169.3C41.6226 168.689 41.1284 168.194 40.5188 168.194C39.9092 168.194 39.415 168.689 39.415 169.3C39.415 169.911 39.9092 170.406 40.5188 170.406Z" fill="#661D29"/>
<path d="M56.1929 169.3C56.1929 169.519 56.2578 169.733 56.3794 169.915C56.5009 170.097 56.6737 170.239 56.8757 170.322C57.0778 170.406 57.3 170.427 57.5143 170.384C57.7286 170.341 57.9253 170.235 58.0794 170.08C58.2335 169.924 58.3381 169.727 58.38 169.512C58.4219 169.297 58.3991 169.074 58.3146 168.872C58.2301 168.67 58.0876 168.498 57.9053 168.377C57.7229 168.257 57.5089 168.193 57.2904 168.194C57.1457 168.194 57.0025 168.223 56.8689 168.278C56.7353 168.334 56.6141 168.416 56.5121 168.518C56.4101 168.621 56.3294 168.743 56.2746 168.877C56.2198 169.011 56.1921 169.155 56.1929 169.3Z" fill="#661D29"/>
<path d="M77.3662 169.3C77.3662 169.519 77.4311 169.733 77.5527 169.915C77.6743 170.097 77.847 170.239 78.0491 170.322C78.2511 170.406 78.4734 170.427 78.6877 170.384C78.9019 170.341 79.0986 170.235 79.2527 170.08C79.4068 169.924 79.5114 169.727 79.5533 169.512C79.5952 169.297 79.5724 169.074 79.4879 168.872C79.4034 168.67 79.261 168.498 79.0786 168.377C78.8963 168.257 78.6823 168.193 78.4637 168.194C78.319 168.194 78.1758 168.223 78.0423 168.278C77.9087 168.334 77.7874 168.416 77.6854 168.518C77.5834 168.621 77.5027 168.743 77.448 168.877C77.3932 169.011 77.3654 169.155 77.3662 169.3V169.3Z" fill="#661D29"/>
<path d="M99.6375 170.406C100.247 170.406 100.741 169.911 100.741 169.3C100.741 168.689 100.247 168.194 99.6375 168.194C99.0279 168.194 98.5337 168.689 98.5337 169.3C98.5337 169.911 99.0279 170.406 99.6375 170.406Z" fill="#661D29"/>
<path d="M119.713 169.3C119.713 169.519 119.778 169.733 119.9 169.915C120.021 170.097 120.194 170.239 120.396 170.322C120.598 170.406 120.821 170.427 121.035 170.384C121.249 170.341 121.446 170.235 121.6 170.08C121.754 169.924 121.859 169.727 121.9 169.512C121.942 169.297 121.92 169.074 121.835 168.872C121.751 168.67 121.608 168.498 121.426 168.377C121.243 168.257 121.029 168.193 120.811 168.194C120.666 168.194 120.523 168.223 120.389 168.278C120.256 168.334 120.135 168.416 120.033 168.518C119.931 168.621 119.85 168.743 119.795 168.877C119.74 169.011 119.713 169.155 119.713 169.3V169.3Z" fill="#661D29"/>
<path d="M140.887 169.3C140.887 169.519 140.952 169.733 141.073 169.915C141.195 170.097 141.368 170.239 141.57 170.322C141.772 170.406 141.994 170.427 142.208 170.384C142.422 170.341 142.619 170.235 142.773 170.08C142.927 169.924 143.032 169.727 143.074 169.512C143.116 169.297 143.093 169.074 143.008 168.872C142.924 168.67 142.781 168.498 142.599 168.377C142.417 168.257 142.203 168.193 141.984 168.194C141.84 168.194 141.696 168.223 141.563 168.278C141.429 168.334 141.308 168.416 141.206 168.518C141.104 168.621 141.023 168.743 140.968 168.877C140.914 169.011 140.886 169.155 140.887 169.3V169.3Z" fill="#661D29"/>
<path d="M162.06 169.3C162.06 169.519 162.125 169.733 162.247 169.915C162.368 170.097 162.541 170.239 162.743 170.322C162.945 170.406 163.167 170.427 163.382 170.384C163.596 170.341 163.792 170.235 163.947 170.08C164.101 169.924 164.205 169.727 164.247 169.512C164.289 169.297 164.266 169.074 164.182 168.872C164.097 168.67 163.955 168.498 163.772 168.377C163.59 168.257 163.376 168.193 163.158 168.194C163.013 168.194 162.87 168.223 162.736 168.278C162.603 168.334 162.481 168.416 162.379 168.518C162.277 168.621 162.197 168.743 162.142 168.877C162.087 169.011 162.059 169.155 162.06 169.3Z" fill="#661D29"/>
<path d="M183.221 169.3C183.221 169.519 183.286 169.733 183.407 169.914C183.528 170.096 183.701 170.238 183.903 170.322C184.104 170.405 184.326 170.427 184.54 170.385C184.754 170.342 184.951 170.237 185.105 170.082C185.26 169.927 185.365 169.73 185.408 169.516C185.45 169.301 185.428 169.079 185.345 168.877C185.261 168.675 185.12 168.502 184.938 168.38C184.757 168.259 184.543 168.194 184.325 168.194C184.032 168.194 183.751 168.311 183.544 168.518C183.337 168.725 183.221 169.007 183.221 169.3V169.3Z" fill="#661D29"/>
<path d="M204.401 169.3C204.401 169.519 204.466 169.733 204.587 169.914C204.709 170.096 204.881 170.238 205.083 170.322C205.284 170.405 205.506 170.427 205.72 170.385C205.935 170.342 206.131 170.237 206.286 170.082C206.44 169.927 206.545 169.73 206.588 169.516C206.63 169.301 206.608 169.079 206.525 168.877C206.441 168.675 206.3 168.502 206.118 168.38C205.937 168.259 205.723 168.194 205.505 168.194C205.212 168.194 204.932 168.311 204.725 168.518C204.518 168.725 204.401 169.007 204.401 169.3Z" fill="#661D29"/>
<path d="M56.1929 154.955C56.1916 155.174 56.2555 155.389 56.3763 155.572C56.4971 155.754 56.6694 155.897 56.8713 155.982C57.0733 156.066 57.2957 156.089 57.5104 156.046C57.7251 156.004 57.9224 155.898 58.0771 155.743C58.2319 155.588 58.3371 155.39 58.3795 155.175C58.4219 154.96 58.3995 154.737 58.3152 154.535C58.2309 154.333 58.0884 154.16 57.9059 154.039C57.7235 153.918 57.5092 153.854 57.2904 153.855C56.9993 153.855 56.7201 153.971 56.5143 154.177C56.3085 154.384 56.1929 154.663 56.1929 154.955Z" fill="#661D29"/>
<path d="M77.3662 154.955C77.365 155.174 77.4288 155.389 77.5496 155.572C77.6704 155.754 77.8427 155.897 78.0447 155.982C78.2466 156.066 78.4691 156.089 78.6838 156.046C78.8985 156.004 79.0957 155.898 79.2505 155.743C79.4052 155.588 79.5105 155.39 79.5529 155.175C79.5952 154.96 79.5728 154.737 79.4885 154.535C79.4042 154.333 79.2618 154.16 79.0793 154.039C78.8968 153.918 78.6825 153.854 78.4637 153.855C78.1726 153.855 77.8935 153.971 77.6877 154.177C77.4819 154.384 77.3662 154.663 77.3662 154.955V154.955Z" fill="#661D29"/>
<path d="M98.5396 154.955C98.5383 155.174 98.6022 155.389 98.723 155.572C98.8438 155.754 99.0161 155.897 99.218 155.982C99.42 156.066 99.6424 156.089 99.8571 156.046C100.072 156.004 100.269 155.898 100.424 155.743C100.579 155.588 100.684 155.39 100.726 155.175C100.769 154.96 100.746 154.737 100.662 154.535C100.578 154.333 100.435 154.16 100.253 154.039C100.07 153.918 99.8559 153.854 99.637 153.855C99.346 153.855 99.0668 153.971 98.861 154.177C98.6552 154.384 98.5396 154.663 98.5396 154.955Z" fill="#661D29"/>
<path d="M119.713 154.955C119.712 155.174 119.776 155.389 119.897 155.572C120.018 155.754 120.19 155.897 120.392 155.982C120.594 156.066 120.816 156.089 121.031 156.046C121.246 156.004 121.443 155.898 121.598 155.743C121.752 155.588 121.858 155.39 121.9 155.175C121.942 154.96 121.92 154.737 121.836 154.535C121.751 154.333 121.609 154.16 121.426 154.039C121.244 153.918 121.03 153.854 120.811 153.855C120.667 153.855 120.524 153.884 120.391 153.939C120.258 153.994 120.137 154.075 120.035 154.177C119.933 154.279 119.852 154.401 119.797 154.534C119.742 154.667 119.713 154.81 119.713 154.955Z" fill="#661D29"/>
<path d="M140.887 154.955C140.885 155.174 140.949 155.389 141.07 155.572C141.191 155.754 141.363 155.897 141.565 155.982C141.767 156.066 141.99 156.089 142.204 156.046C142.419 156.004 142.616 155.898 142.771 155.743C142.926 155.588 143.031 155.39 143.073 155.175C143.116 154.96 143.093 154.737 143.009 154.535C142.925 154.333 142.782 154.16 142.6 154.039C142.417 153.918 142.203 153.854 141.984 153.855C141.693 153.855 141.414 153.971 141.208 154.177C141.002 154.384 140.887 154.663 140.887 154.955V154.955Z" fill="#661D29"/>
<path d="M162.06 154.955C162.059 155.174 162.123 155.389 162.243 155.572C162.364 155.754 162.537 155.897 162.739 155.982C162.94 156.066 163.163 156.089 163.378 156.046C163.592 156.004 163.79 155.898 163.944 155.743C164.099 155.588 164.204 155.39 164.247 155.175C164.289 154.96 164.267 154.737 164.182 154.535C164.098 154.333 163.956 154.16 163.773 154.039C163.591 153.918 163.376 153.854 163.158 153.855C162.866 153.855 162.587 153.971 162.382 154.177C162.176 154.384 162.06 154.663 162.06 154.955Z" fill="#661D29"/>
<path d="M183.221 154.955C183.22 155.174 183.284 155.388 183.404 155.571C183.525 155.754 183.697 155.896 183.898 155.981C184.1 156.066 184.322 156.088 184.536 156.047C184.751 156.005 184.948 155.9 185.103 155.745C185.258 155.591 185.364 155.394 185.407 155.179C185.45 154.965 185.429 154.742 185.345 154.539C185.262 154.337 185.12 154.164 184.939 154.042C184.757 153.92 184.544 153.855 184.325 153.855C184.033 153.855 183.754 153.971 183.547 154.177C183.34 154.383 183.223 154.663 183.221 154.955V154.955Z" fill="#661D29"/>
<path d="M204.401 154.955C204.4 155.174 204.464 155.388 204.584 155.571C204.705 155.754 204.877 155.896 205.078 155.981C205.28 156.066 205.502 156.088 205.717 156.047C205.931 156.005 206.128 155.9 206.283 155.745C206.438 155.591 206.544 155.394 206.587 155.179C206.63 154.965 206.609 154.742 206.526 154.539C206.442 154.337 206.301 154.164 206.119 154.042C205.937 153.92 205.724 153.855 205.505 153.855C205.214 153.855 204.934 153.971 204.727 154.177C204.52 154.383 204.403 154.663 204.401 154.955Z" fill="#661D29"/>
<path d="M39.4151 153.261C39.4151 153.48 39.48 153.694 39.6015 153.876C39.7231 154.058 39.8958 154.2 40.0979 154.284C40.3 154.367 40.5222 154.389 40.7365 154.345C40.9508 154.302 41.1474 154.196 41.3015 154.041C41.4557 153.886 41.5603 153.688 41.6022 153.473C41.644 153.258 41.6213 153.036 41.5368 152.834C41.4522 152.632 41.3098 152.459 41.1275 152.339C40.9451 152.218 40.7311 152.154 40.5125 152.155C40.3679 152.155 40.2246 152.184 40.0911 152.24C39.9575 152.295 39.8363 152.377 39.7343 152.48C39.6323 152.582 39.5516 152.704 39.4968 152.838C39.442 152.973 39.4142 153.116 39.4151 153.261V153.261Z" fill="#661D29"/>
<path d="M194.833 51.0064C194.833 50.444 193.944 49.989 192.846 49.989C191.749 49.989 190.853 50.444 190.853 51.0064C190.853 51.5689 191.742 52.0239 192.846 52.0239C193.95 52.0239 194.833 51.5689 194.833 51.0064Z" fill="#82333D"/>
<path d="M187.547 30.4682C187.547 29.9058 186.658 29.4508 185.56 29.4508C184.463 29.4508 183.567 29.9058 183.567 30.4682C183.567 31.0307 184.482 31.492 185.56 31.492C186.639 31.492 187.547 31.0307 187.547 30.4682Z" fill="#82333D"/>
<path d="M65.5464 51.0064C65.5464 50.444 66.442 49.989 67.5395 49.989C68.6369 49.989 69.5326 50.444 69.5326 51.0064C69.5326 51.5689 68.6369 52.0239 67.5395 52.0239C66.442 52.0239 65.5464 51.5689 65.5464 51.0064Z" fill="#82333D"/>
<path d="M72.8438 30.4682C72.8438 29.9058 73.7394 29.4508 74.8368 29.4508C75.9343 29.4508 76.8236 29.9058 76.8236 30.4682C76.8236 31.0307 75.9217 31.492 74.8242 31.492C73.7268 31.492 72.8438 31.0307 72.8438 30.4682Z" fill="#82333D"/>
<path d="M87.5719 40.0801C87.6035 40.9269 87.635 44.5037 87.6728 45.4579L87.7738 49.7109C87.7738 50.147 87.1746 50.0395 86.4682 50.0395C85.9005 50.0395 84.8661 50.1217 84.2039 50.1217C83.2136 50.1217 83.2515 49.8752 83.2704 49.1927C83.2704 48.6745 82.9929 45.2368 82.9487 44.1372C82.9046 43.0376 83.2515 39.2838 83.2136 38.298C83.1758 37.3122 83.1569 33.9629 83.1253 33.1729C83.1253 32.7938 83.0433 32.2187 83.0244 31.7005C83.0055 31.1823 83.0244 30.721 83.2199 30.6073C83.3184 30.5471 83.4328 30.5185 83.5479 30.5251C83.9236 30.5993 84.3071 30.6269 84.6895 30.6073C85.1121 30.6073 85.4905 30.6073 85.8627 30.6073C86.3049 30.5967 86.7474 30.6157 87.1872 30.6641C87.9945 30.8284 88.1207 31.7005 88.4486 32.383C88.8649 33.4952 90.5994 35.7639 91.3878 36.7182C92.6932 38.0787 93.8674 39.5598 94.8947 41.1418C95.2479 41.66 95.9354 42.4815 96.4841 43.2145L97.5185 44.4784C98.1997 43.6885 98.8304 42.9491 99.4107 42.2161L102.356 38.6709C103.807 36.9773 105.567 34.7149 106.519 33.6785C107.377 32.6421 109.042 30.7842 109.723 30.7842C110.007 30.7842 110.101 30.9232 110.108 31.1381C110.022 31.6642 109.9 32.1837 109.742 32.6927C109.578 33.432 109.742 38.0705 109.786 39.2396C109.83 40.4087 109.786 43.9349 109.654 44.7754C109.615 45.4764 109.615 46.1789 109.654 46.8798C109.692 48.0489 109.786 49.3065 109.792 49.5213V49.6604C109.792 49.9321 109.66 49.9574 109.521 49.9321H109.427C109.143 49.9321 108.626 49.989 108.247 49.989C107.869 49.989 107.907 49.7994 107.9 49.4708C107.788 47.845 107.76 46.2145 107.818 44.5859C107.932 43.7706 108.014 40.7436 107.982 39.9474C107.919 39.5429 107.982 38.5066 107.982 37.4196V35.4606C107.776 35.6256 107.591 35.8168 107.433 36.0293C107.127 36.3479 106.84 36.6856 106.576 37.0404C106.077 37.6724 103.227 41.1038 102.634 41.7611C102.041 42.4183 99.0196 46.1847 98.6601 46.7218C98.3006 47.259 97.4933 48.3838 97.304 48.3838C97.1148 48.3838 96.9193 48.169 96.4778 47.7519C95.6232 46.8393 94.8605 45.8444 94.2009 44.7818C93.7026 43.9855 90.4733 40.8763 89.8299 40.0611C89.4893 39.6504 88.9406 38.8857 88.4928 38.2348C88.1906 37.8495 87.9085 37.4487 87.6476 37.0341L87.5972 38.2348C87.5782 38.8794 87.5593 39.7072 87.5719 40.0801Z" fill="#EF5292"/>
<path d="M118.168 34.9801C118.225 36.4526 118.01 41.1163 118.061 42.5066C118.111 43.8969 118.42 48.6996 118.59 49.3821C118.631 49.5066 118.65 49.6369 118.647 49.7676C118.647 50.0646 118.471 50.1215 118.193 50.2037C117.714 50.3045 117.224 50.3406 116.736 50.3111C115.178 50.3111 115.607 50.4185 115.557 49.1673C115.525 48.1309 115.481 41.6661 115.418 39.8651C115.355 38.064 115.639 32.7747 115.475 32.1174C115.475 31.9279 115.412 31.7383 115.405 31.5424C115.405 31.1632 115.519 30.8346 116.131 30.8346C116.465 30.8346 117.171 30.8346 117.884 30.8346C118.256 30.8346 118.357 30.9989 118.363 31.2201C118.37 31.4413 118.288 31.6561 118.294 31.852C118.163 32.8892 118.12 33.9357 118.168 34.9801V34.9801Z" fill="#EF5292"/>
<path d="M147.901 49.8183C147.901 49.8752 147.951 49.9258 147.958 49.9574C147.958 50.147 147.63 50.1722 146.879 50.1722C145.983 50.1722 139.228 50.0901 137.576 50.0901C136.207 50.0901 131.773 50.2544 129.887 50.2544C129.509 50.2544 129.225 50.2544 129.086 50.2544C128.802 50.2544 128.424 50.2544 128.001 50.2544C126.816 50.2544 125.214 50.3049 124.413 50.3049C123.372 50.3049 123.605 50.1154 123.586 49.5972C123.567 49.079 123.719 45.3442 123.694 44.7122C123.668 44.0803 123.372 42.3172 123.34 41.4135C123.391 42.7216 123.744 36.8888 123.719 36.0925L123.561 33.015C123.561 32.7685 123.416 31.65 123.403 31.2708C123.403 30.9422 124.154 31.0812 124.577 31.0812C124.999 31.0812 125.283 31.0812 126.374 31.0812H126.797C126.986 31.0812 127.081 31.1128 127.087 31.3024C127.093 31.492 126.935 36.2379 126.961 37.0278L127.055 40.9269C127.055 41.3629 127.207 42.6458 127.238 43.4547C127.271 43.6894 127.271 43.9277 127.238 44.1624C127.216 44.326 127.216 44.4918 127.238 44.6554C127.238 44.7375 127.238 44.7628 127.289 44.7881L128.424 44.8449C129.137 44.8449 130.032 44.9018 130.947 44.8449C132.644 44.8449 137.929 44.7944 139.676 44.7944C141.423 44.7944 146.147 44.9018 146.854 44.9018C147.283 44.9018 147.377 44.984 147.384 45.0661C147.39 45.1483 147.295 45.2557 147.295 45.3631L147.339 46.627C147.352 47.2021 147.901 49.5213 147.901 49.8183Z" fill="#EF5292"/>
<path d="M151.848 50.1217C151.66 50.1422 151.469 50.1422 151.281 50.1217C151.041 50.1217 150.947 50.0712 150.94 49.9574C150.976 49.8136 151.036 49.6769 151.117 49.553C151.249 49.2244 150.839 48.3776 150.814 47.7519C150.789 47.1263 150.776 39.9474 150.94 39.2144C151.014 38.3063 151.029 37.3944 150.984 36.4844C150.983 36.0614 150.951 35.639 150.89 35.2205C150.827 34.8235 150.797 34.4218 150.801 34.0198C150.744 33.1264 150.79 32.2293 150.94 31.3467C150.978 31.1318 151.218 31.075 151.451 31.075C151.684 31.075 152.113 31.1571 152.397 31.1571C153.482 31.1571 154.807 31.214 155.891 31.1571H156.175C156.932 31.1571 156.806 31.4288 156.806 31.7069C156.806 31.985 156.806 32.5474 156.863 33.312C156.863 33.5016 156.863 33.944 156.907 34.4306C156.996 35.7842 156.981 37.1426 156.863 38.494C156.816 38.8098 156.795 39.1289 156.8 39.4482C156.8 39.7768 156.869 40.0801 156.882 40.3519L157.008 41.2745L157.746 40.8132C158.162 40.5162 158.667 40.2445 159.089 39.998C159.922 39.562 162.779 37.704 163.429 37.268C163.927 36.832 166.425 35.2521 167.718 34.4874C169.011 33.7228 171.735 31.9597 172.051 31.6247C172.311 31.3576 172.657 31.1919 173.028 31.1571C173.356 31.1571 173.924 31.1571 174.346 31.1571C174.586 31.1571 174.681 31.2645 174.687 31.3467C174.693 31.4288 174.548 31.5426 174.46 31.5931C174.227 31.7322 172.284 32.9329 171.546 33.2868C170.808 33.6406 166.664 36.6929 166.204 37.0784C165.882 37.2996 164.589 38.1401 163.296 38.9363L160.773 40.4593C161.354 40.8701 161.934 41.224 162.464 41.5779C163.384 42.2098 164.444 42.8417 165.024 43.1893C166.179 43.8213 170.442 46.8735 171.332 47.3096C172.221 47.7456 174.485 49.4076 174.908 49.6541C175.009 49.7362 175.053 49.7868 175.059 49.869C175.066 49.9511 174.738 50.0901 174.264 50.0901C173.634 50.0901 169.029 50.1723 168.178 50.1723C167.512 50.2049 166.852 50.033 166.286 49.6794C165.655 49.3824 162.312 46.7598 161.303 46.1342C160.423 45.6412 159.568 45.1033 158.742 44.5227L157.084 43.499C157.109 43.8882 157.109 44.2788 157.084 44.6681C157.084 45.3 157.039 46.0583 157.052 46.4122C157.065 46.7661 157.052 47.5876 157.052 48.3081C157.047 48.7513 157.111 49.1925 157.241 49.6162C157.277 49.6753 157.297 49.7429 157.298 49.8121C157.298 50.0838 156.976 50.0838 156.667 50.0838H154.775C154.207 50.0396 152.744 50.1217 151.848 50.1217Z" fill="#EF5292"/>
<path d="M51.3991 132.306H50.1755L47.4633 138.575L47.457 150.613H54.1049L54.1112 138.581L51.3991 132.306Z" fill="#80BFBF"/>
<g style="mix-blend-mode:overlay" opacity="0.57">
<g style="mix-blend-mode:overlay" opacity="0.57">
<path d="M53.8027 139.023L52.9575 136.913C51.3744 137.064 50.2138 136.42 48.8515 136.312L47.7666 139.023V149.969H53.7963L53.8027 139.023Z" fill="#E8FCFB"/>
</g>
</g>
<g style="mix-blend-mode:multiply" opacity="0.61">
<path d="M53.5372 137.248L53.1462 148.054L47.457 149.432V150.613H54.1049L54.1112 138.581L53.5372 137.248Z" fill="#80BFBF"/>
</g>
<g style="mix-blend-mode:overlay" opacity="0.58">
<path d="M52.3954 138.512C52.3954 138.278 52.3954 138.038 52.3954 137.797C52.3954 137.557 52.3954 137.279 52.3954 137.026L50.97 133.475H50.0049L47.8794 138.745V139.605C49.3048 140.351 51.0519 139.864 52.3954 138.512Z" fill="#E8FCFB"/>
</g>
<g style="mix-blend-mode:overlay" opacity="0.58">
<path d="M47.8794 140.458V144.123C49.5571 145.014 52.1368 142.19 52.3702 139.068C51.0709 140.496 49.3301 141.084 47.8794 140.458Z" fill="#E8FCFB"/>
</g>
<g style="mix-blend-mode:multiply">
<path d="M53.4173 136.976L51.3989 132.306H50.1753L49.2671 134.398C50.661 134.271 52.1306 135.245 53.4173 136.976Z" fill="#80BFBF"/>
</g>
<path d="M51.721 131.807H49.8604V132.793H51.721V131.807Z" fill="#C6E5E4"/>
<path d="M55.2218 132.306H53.9919L51.2798 138.575V150.613H57.9213L57.9276 138.581L55.2218 132.306Z" fill="#80BFBF"/>
<g style="mix-blend-mode:overlay" opacity="0.57">
<g style="mix-blend-mode:overlay" opacity="0.57">
<path d="M57.6186 139.023L56.7797 136.913C55.1966 137.064 54.0298 136.42 52.6674 136.312L51.5889 139.023V149.969H57.6249L57.6186 139.023Z" fill="#E8FCFB"/>
</g>
</g>
<g style="mix-blend-mode:multiply" opacity="0.61">
<path d="M57.3537 137.248L56.9626 148.054L51.2798 149.432V150.613H57.9213L57.9276 138.581L57.3537 137.248Z" fill="#80BFBF"/>
</g>
<g style="mix-blend-mode:overlay" opacity="0.58">
<path d="M56.2118 138.512C56.2118 138.278 56.2118 138.038 56.2118 137.797C56.2118 137.557 56.2118 137.279 56.2118 137.026L54.7864 133.475H53.8277L51.7021 138.745V139.605C53.1213 140.351 54.8747 139.864 56.2118 138.512Z" fill="#E8FCFB"/>
</g>
<g style="mix-blend-mode:overlay" opacity="0.58">
<path d="M51.7021 140.458V144.123C53.3736 145.014 55.9595 142.19 56.1929 139.068C54.8936 140.496 53.1465 141.084 51.7021 140.458Z" fill="#E8FCFB"/>
</g>
<g style="mix-blend-mode:multiply">
<path d="M57.233 136.976L55.221 132.306H53.9596L53.0576 134.398C54.4768 134.271 55.9463 135.245 57.233 136.976Z" fill="#80BFBF"/>
</g>
<path d="M55.5369 131.807H53.6763V132.793H55.5369V131.807Z" fill="#C6E5E4"/>
<path d="M59.0373 132.306H57.8136L55.1015 138.575L55.0952 150.613H61.7431V138.581L59.0373 132.306Z" fill="#80BFBF"/>
<g style="mix-blend-mode:overlay" opacity="0.57">
<g style="mix-blend-mode:overlay" opacity="0.57">
<path d="M61.4403 139.023L60.5952 136.913C59.0121 137.064 57.8452 136.42 56.4891 136.312L55.4043 139.023V149.969H61.434L61.4403 139.023Z" fill="#E8FCFB"/>
</g>
</g>
<g style="mix-blend-mode:multiply" opacity="0.61">
<path d="M61.1691 137.248L60.7844 148.054L55.0952 149.432V150.613H61.7431V138.581L61.1691 137.248Z" fill="#80BFBF"/>
</g>
<g style="mix-blend-mode:overlay" opacity="0.58">
<path d="M60.0336 138.512C60.0336 138.278 60.0336 138.038 60.0336 137.797C60.0336 137.557 60.0336 137.279 60.0336 137.026L58.6018 133.475H57.6431L55.5176 138.745V139.605C56.9367 140.351 58.6901 139.864 60.0336 138.512Z" fill="#E8FCFB"/>
</g>
<g style="mix-blend-mode:overlay" opacity="0.58">
<path d="M55.5176 140.458V144.123C57.1953 145.014 59.775 142.19 60.0084 139.068C58.7091 140.496 56.9682 141.084 55.5176 140.458Z" fill="#E8FCFB"/>
</g>
<g style="mix-blend-mode:multiply">
<path d="M61.0554 136.976L59.0371 132.306H57.8135L56.9053 134.398C58.2992 134.271 59.7688 135.245 61.0554 136.976Z" fill="#80BFBF"/>
</g>
<path d="M59.3528 131.807H57.4922V132.793H59.3528V131.807Z" fill="#C6E5E4"/>
<path d="M66.9592 125.228H64.4552L58.9237 133.924L58.9111 150.613H72.478L72.4907 133.93L66.9592 125.228Z" fill="#80BFBF"/>
<g style="mix-blend-mode:overlay" opacity="0.57">
<g style="mix-blend-mode:overlay" opacity="0.57">
<path d="M71.8601 134.549L70.1445 131.617C66.9089 131.826 64.5311 130.935 61.7559 130.789L59.5483 134.581V149.748H71.8601V134.549Z" fill="#E8FCFB"/>
</g>
</g>
<g style="mix-blend-mode:multiply" opacity="0.61">
<path d="M71.3175 132.085L70.5228 147.062L58.9174 148.977L58.9111 150.613H72.478L72.4907 133.93L71.3175 132.085Z" fill="#80BFBF"/>
</g>
<g style="mix-blend-mode:overlay" opacity="0.58">
<path d="M68.9899 133.867C68.9899 133.538 68.9899 133.235 68.9899 132.881C68.9899 132.527 68.9899 132.161 68.9899 131.807L66.0759 126.89H64.1143L59.7812 134.202V135.39C62.6763 136.395 66.2525 135.712 68.9899 133.867Z" fill="#E8FCFB"/>
</g>
<g style="mix-blend-mode:overlay" opacity="0.58">
<path d="M59.7812 136.534V141.589C63.1998 142.853 68.4727 138.904 68.952 134.575C66.2903 136.584 62.752 137.399 59.7812 136.534Z" fill="#E8FCFB"/>
</g>
<g style="mix-blend-mode:multiply">
<path d="M71.078 131.706L66.9593 125.228H64.4364L62.5884 128.129C65.4519 127.958 68.4289 129.311 71.078 131.706Z" fill="#80BFBF"/>
</g>
<path d="M67.6085 124.546H63.8115V125.911H67.6085V124.546Z" fill="#C6E5E4"/>
<path d="M96.0739 132.306H94.8503L92.1381 138.575L92.1318 150.613H98.7797V138.581L96.0739 132.306Z" fill="#80BFBF"/>
<g style="mix-blend-mode:overlay" opacity="0.57">
<g style="mix-blend-mode:overlay" opacity="0.57">
<path d="M98.477 139.023L97.6318 136.913C96.0487 137.064 94.8818 136.42 93.5258 136.312L92.4409 139.023V149.969H98.4707L98.477 139.023Z" fill="#E8FCFB"/>
</g>
</g>
<g style="mix-blend-mode:multiply" opacity="0.61">
<path d="M98.2057 137.248L97.821 148.054L92.1318 149.432V150.613H98.7797V138.581L98.2057 137.248Z" fill="#80BFBF"/>
</g>
<g style="mix-blend-mode:overlay" opacity="0.58">
<path d="M97.0697 138.512C97.0697 138.278 97.0697 138.038 97.0697 137.797C97.0697 137.557 97.0697 137.279 97.0697 137.026L95.638 133.475H94.6793L92.5537 138.745V139.605C93.9728 140.351 95.7263 139.864 97.0697 138.512Z" fill="#E8FCFB"/>
</g>
<g style="mix-blend-mode:overlay" opacity="0.58">
<path d="M92.5537 140.458V144.123C94.2314 145.014 96.8111 142.19 97.0445 139.068C95.7452 140.496 94.0044 141.084 92.5537 140.458Z" fill="#E8FCFB"/>
</g>
<g style="mix-blend-mode:multiply">
<path d="M98.0725 136.976L96.0542 132.306H94.8306L93.9224 134.398C95.3352 134.271 96.8111 135.245 98.0725 136.976Z" fill="#80BFBF"/>
</g>
<path d="M96.3885 131.807H94.5278V132.793H96.3885V131.807Z" fill="#C6E5E4"/>
<path d="M73.7077 132.306H72.4841L69.7719 138.575L69.7656 150.613H76.4135L76.4198 138.581L73.7077 132.306Z" fill="#80BFBF"/>
<g style="mix-blend-mode:overlay" opacity="0.57">
<g style="mix-blend-mode:overlay" opacity="0.57">
<path d="M76.1113 139.023L75.2661 136.913C73.683 137.064 72.5225 136.42 71.1601 136.312L70.0815 139.023V149.969H76.1113V139.023Z" fill="#E8FCFB"/>
</g>
</g>
<g style="mix-blend-mode:multiply" opacity="0.61">
<path d="M75.8458 137.248L75.4548 148.054L69.7656 149.432V150.613H76.4135L76.4198 138.581L75.8458 137.248Z" fill="#80BFBF"/>
</g>
<g style="mix-blend-mode:overlay" opacity="0.58">
<path d="M74.7357 138.512C74.7357 138.278 74.7357 138.038 74.7357 137.797C74.7357 137.557 74.7357 137.279 74.7357 137.026L73.3103 133.475H72.3453L70.2197 138.745V139.605C71.6136 140.351 73.3607 139.864 74.7357 138.512Z" fill="#E8FCFB"/>
</g>
<g style="mix-blend-mode:overlay" opacity="0.58">
<path d="M70.189 140.458V144.123C71.8667 145.014 74.4464 142.19 74.6797 139.068C73.3804 140.496 71.6396 141.084 70.189 140.458Z" fill="#E8FCFB"/>
</g>
<g style="mix-blend-mode:multiply">
<path d="M75.7264 136.976L73.7081 132.306H72.4845L71.5825 134.391C72.9701 134.271 74.4397 135.245 75.7264 136.976Z" fill="#80BFBF"/>
</g>
<path d="M74.0301 131.807H72.1694V132.793H74.0301V131.807Z" fill="#C6E5E4"/>
<path d="M234.89 67.7149C234.933 67.3619 235.05 67.022 235.233 66.7173C235.416 66.4126 235.661 66.15 235.952 65.9467C236.243 65.7433 236.573 65.6037 236.922 65.5371C237.271 65.4705 237.629 65.4783 237.975 65.56C237.975 65.56 235.527 63.2913 239.703 59.7777C243.878 56.2641 246.704 57.9893 246.704 57.9893C247.808 55.828 258.517 55.8849 261.507 58.5517C264.497 61.2185 261.324 62.7352 261.324 62.7352C261.324 62.7352 268.559 64.2834 271.756 69.7371C274.954 75.1908 271.92 78.2999 271.92 78.2999C271.92 78.2999 273.27 77.4658 273.119 83.2986C272.967 89.1315 269 88.9861 269 88.9861C269 88.9861 270.804 91.2169 264.465 95.5962C258.126 99.9756 255.704 97.1003 255.704 97.1003C255.477 99.3816 241.702 96.6895 244.919 92.0447L237.3 78.0661C235.124 77.5732 234.392 70.4765 234.89 67.7149Z" fill="#932C36"/>
<path d="M238.258 79.8106C257.521 78.9258 251.169 65.3959 262.737 60.3214C263.115 61.876 261.324 62.7354 261.324 62.7354C261.324 62.7354 268.558 64.2837 271.756 69.7374C274.954 75.191 271.92 78.3002 271.92 78.3002C271.92 78.3002 273.27 77.466 273.119 83.2989C272.967 89.1317 269 88.9864 269 88.9864C269 88.9864 270.804 91.2171 264.465 95.5965C258.126 99.9759 255.704 97.1005 255.704 97.1005C255.477 99.3819 241.702 96.6898 244.919 92.045L238.258 79.8106Z" fill="#77232F"/>
<path d="M251.825 80.2023C257.975 80.2023 254.039 88.8599 264.439 95.5775C258.101 99.9568 255.679 97.0815 255.679 97.0815C255.452 99.3628 241.677 96.6707 244.893 92.0259L243.632 89.7257C245.461 85.2073 247.334 80.2023 251.825 80.2023Z" fill="#681D2C"/>
<path d="M228.311 115.193C233.565 107.856 241.897 96.4242 244.887 96.2978C247.877 96.1714 242.799 104.772 241.929 106.124C241.058 107.477 232.02 116.804 230.998 117.24C229.977 117.676 227.012 117 228.311 115.193Z" fill="#ED5167"/>
<path d="M228.633 114.763C229.009 115.037 229.437 115.229 229.891 115.328C230.345 115.427 230.814 115.43 231.27 115.338C232.291 114.934 241.084 105.189 241.948 103.837C242.503 102.971 244.786 99.1289 245.568 96.5127C246.912 97.8271 242.73 104.911 241.948 106.125C241.084 107.471 232.291 117.215 231.27 117.626C230.248 118.037 227.031 116.994 228.33 115.193L228.633 114.763Z" fill="#D3354F"/>
<path d="M259.665 147.649L252.355 230.434H251.339C251.339 230.434 238.176 156.402 238.87 135.377C239.091 128.761 259.665 147.649 259.665 147.649Z" fill="#FFB882"/>
<path d="M250.38 187.329L251.97 230.453H251.913L248.381 187.222L244.086 185.579C241.178 165.875 238.573 145.052 238.895 135.396C239.109 128.761 259.709 147.65 259.709 147.65L256.044 189.175L250.38 187.329Z" fill="#FF9566"/>
<path d="M259.885 187.405L236.58 180.416C236.58 180.416 230.664 145.785 239.103 130.303C240.964 126.941 241.993 123.182 242.103 119.34C242.212 115.497 241.4 111.685 239.734 108.223L254.871 102.864C254.871 102.864 248.034 118.877 252.708 127.067C257.274 135.004 266.861 132.42 259.885 187.405Z" fill="#ED5167"/>
<path d="M253.061 132.742L261.141 154.323L246.098 156.162L250.576 130.594L253.061 132.742Z" fill="#D3354F"/>
<path d="M257.785 163.688C258.416 144.471 252.613 128.893 244.792 128.893C242.301 128.893 239.904 130.473 237.779 133.248C238.17 132.239 238.623 131.255 239.135 130.303C240.996 126.941 242.025 123.182 242.135 119.34C242.244 115.497 241.432 111.685 239.766 108.223L254.903 102.864C254.903 102.864 248.066 118.877 252.74 127.067C257.275 135.004 266.862 132.42 259.886 187.405L253.862 185.604C256.064 179.62 257.508 171.998 257.785 163.688Z" fill="#D3354F"/>
<path d="M257.016 97.3722C257.281 100.968 253.743 114.277 252.551 115.022C251.359 115.768 235.061 114.27 235.061 113.266C235.061 112.261 242.932 97.5554 243.979 96.5506C245.026 95.5458 256.915 96.2031 257.016 97.3722Z" fill="#ED5167"/>
<path d="M249.888 113.777C251.005 113.076 256.076 101.853 256.612 97.0247C256.852 97.1384 256.99 97.2522 257.003 97.3722C257.268 100.968 253.994 114.65 252.809 115.395C251.623 116.141 235.047 114.27 235.047 113.266C235.075 113.089 235.126 112.917 235.199 112.754C238.964 113.689 248.873 114.422 249.888 113.777Z" fill="#D3354F"/>
<path d="M263.102 122.871C262.352 114.024 259.274 98.8571 257.003 97.3721C254.733 95.887 254.758 105.745 254.815 107.325C254.871 108.905 258.725 122.574 259.337 123.414C259.949 124.255 263.285 125.051 263.102 122.871Z" fill="#ED5167"/>
<path d="M255.206 99.9252C255.061 102.011 255.08 104.058 255.105 104.709C255.168 106.289 258.069 117.013 258.681 117.853C259.142 118.485 261.696 119.383 262.882 120.647C262.926 121.114 263.065 122.429 263.102 122.871C263.285 125.051 259.905 125.171 259.318 124.337C258.732 123.503 254.613 109.12 254.556 107.534C254.603 104.986 254.82 102.444 255.206 99.9252V99.9252Z" fill="#D3354F"/>
<path d="M264.37 122.524C265.215 123.434 263.077 127.813 260.851 126.574C259.558 125.848 257.199 121.519 258.378 120.438C259.394 119.516 263.746 121.86 264.37 122.524Z" fill="#FFEAC0"/>
<path d="M255.596 117.436L255.174 117.79C252.543 121.209 254.089 129.797 254.089 129.797L255.35 129.582C253.408 121.967 255.596 117.436 255.596 117.436Z" fill="#F92B58"/>
<path d="M244.143 111.932C250.015 113.746 260.952 120.299 261.986 121.677C263.021 123.054 263.349 124.242 260.693 124.584C258.549 124.862 243.771 112.381 243.771 112.381L244.143 111.932Z" fill="#FFB882"/>
<path d="M244.162 111.938C247.845 115.161 258.246 124.084 260.006 123.857C261.867 123.617 262.138 122.542 261.778 121.449C261.853 121.52 261.923 121.596 261.986 121.677C263.014 123.042 263.595 125.077 260.939 125.418C258.789 125.69 243.771 112.381 243.771 112.381L244.124 111.951L244.162 111.938Z" fill="#FF9566"/>
<path d="M255.673 96.7338C252.954 101.202 248.413 106.725 244.175 106.377C240.308 106.068 242.97 99.9756 244.995 96.2282C247.776 95.4509 253.459 95.8238 255.673 96.7338Z" fill="#FFB882"/>
<path d="M244.995 96.2283C245.14 96.184 245.297 96.1461 245.455 96.1145C243.456 99.9062 240.964 105.739 244.755 106.042C245.958 106.093 247.15 105.792 248.186 105.177C247.008 106.004 245.593 106.425 244.156 106.377C240.308 106.061 242.97 99.9757 244.995 96.2283Z" fill="#FF9566"/>
<path d="M254.549 84.076L254.001 96.2852C254.001 96.2852 250.084 97.3469 247.611 95.9503L248.816 87.0272L254.549 84.076Z" fill="#FFB882"/>
<path d="M251.535 127.737L264.85 150.809L246.565 150.222L249.485 127.946L251.535 127.737Z" fill="#FFA645"/>
<path d="M250.494 231.439H258.788C258.788 231.439 253.452 228.595 252.512 228.595C250.992 228.595 250.494 231.439 250.494 231.439Z" fill="#FFEAC0"/>
<path d="M251.781 231.439H246.243C246.243 231.439 250.028 228.772 250.784 228.772C252.046 228.772 251.781 231.439 251.781 231.439Z" fill="#FFEAC0"/>
<path d="M232.79 116.678C232.878 118.018 228.11 119.484 227.365 116.64C226.962 115.098 228.311 110.82 229.768 111.035C231.017 111.212 232.727 115.736 232.79 116.678Z" fill="#FFEAC0"/>
<path d="M221.872 95.5269C225.89 100.702 231.15 112.381 231.207 114.068C231.263 115.755 230.607 117.708 228.305 116.653C226.413 115.781 221.311 95.6848 221.311 95.6848L221.872 95.5269Z" fill="#FFB882"/>
<path d="M228.072 114.422C229.901 115.262 230.696 114.182 230.91 112.867C231.056 113.254 231.155 113.657 231.207 114.068C231.27 115.73 230.607 117.708 228.305 116.653C226.413 115.781 221.311 95.6848 221.311 95.6848L221.639 95.59C223.007 100.791 226.558 113.72 228.072 114.422Z" fill="#FF9566"/>
<path d="M246.742 102.737L244.925 106.295L243.594 106.087L246.742 102.737Z" fill="#FF9566"/>
<path d="M262.996 129.349L264.989 150.822L250.886 149.375L251.535 127.737L262.996 129.349Z" fill="#FFC84D"/>
<path d="M255.906 117.569L256.398 117.891C259.672 121.051 259.646 128.931 259.646 128.931L258.303 128.735C258.909 121.727 255.906 117.569 255.906 117.569Z" fill="#F92B58"/>
<path d="M252.879 130.069L261.949 130.973L262.226 135.08L252.689 133.323L252.879 130.069Z" fill="#B7A63E"/>
<path d="M259.299 135.579L253.231 134.733L253.042 136.989L259.425 137.425L259.299 135.579Z" fill="#FFD878"/>
<path d="M261.715 138.935L258.227 138.562L258.113 140.837L261.784 140.774L261.715 138.935Z" fill="#B7A63E"/>
<g style="mix-blend-mode:multiply" opacity="0.6">
<path d="M246.975 104.911C239.671 103.875 243.045 97.0878 243.903 96.6264L243.966 96.5506C244.278 96.3605 244.631 96.2498 244.994 96.2283C245.855 96.0086 246.737 95.8795 247.625 95.8428L248.823 86.9956L254.55 84.0444L254.001 96.2346C254.571 96.3415 255.13 96.498 255.673 96.7023C256.049 96.776 256.414 96.8993 256.757 97.0688H256.789L256.877 97.132L256.921 97.1762L256.966 97.2268C256.984 97.256 256.996 97.288 257.003 97.3216C257.397 97.6554 257.71 98.0747 257.918 98.5475C255.666 97.6628 254.184 105.941 246.975 104.911Z" fill="#843131"/>
</g>
<path d="M244.13 95.9819C238.781 90.8442 237.003 82.5784 237.097 79.3491C237.312 71.7658 239.437 66.3311 246.148 67.8225C252.859 69.3139 256.189 77.7314 255.054 83.6211C253.578 91.2423 244.13 95.9819 244.13 95.9819Z" fill="#FFB882"/>
<path d="M254.96 87.678C251.541 75.8606 237.097 71.6266 242.049 66.8238C242.049 66.8238 250.879 61.5913 255.855 69.004C260.832 76.4167 254.96 87.678 254.96 87.678Z" fill="#77232F"/>
<path d="M258.189 81.5608C257.413 84.1202 255.079 87.4947 253.704 86.2119C252.329 84.929 253.269 79.4438 254.335 78.5717C255.716 77.4279 258.788 79.5638 258.189 81.5608Z" fill="#FFB882"/>
<path d="M257.111 81.8011C256.644 83.3493 255.219 85.3905 254.399 84.6132C253.579 83.8359 254.134 80.5182 254.771 79.9937C255.616 79.2986 257.47 80.594 257.111 81.8011Z" fill="#EA7B59"/>
<path d="M256.051 83.2734C255.755 84.2845 254.834 85.6115 254.291 85.106C253.749 84.6004 254.121 82.4392 254.537 82.0979C255.08 81.6493 256.291 82.4897 256.051 83.2734Z" fill="#FFB882"/>
<path d="M240.914 68.5112C240.914 65.7117 244.629 63.4557 248.735 63.4557C252.424 63.4557 255.143 65.3515 255.143 67.6202C255.143 69.8889 252.412 72.1449 248.709 72.6126C244.584 73.1307 240.895 71.3044 240.914 68.5112Z" fill="#932C36"/>
<path d="M248.236 114.675C246.508 114.043 243.979 114.428 243.089 113.784C242.396 113.278 242.572 110.927 243.089 110.744C243.607 110.561 247.933 113.556 247.933 113.556L248.236 114.675Z" fill="#FFB882"/>
<path d="M246.294 112.381C245.53 111.401 244.78 109.354 244.565 109C244.351 108.646 243.935 108.949 244.225 110.049C244.515 111.149 244.856 111.376 244.465 111.768C244.074 112.16 246.666 112.848 246.294 112.381Z" fill="#FFB882"/>
<path d="M243.367 111.831C242.465 111.199 240.321 109.632 240.504 109.303C240.687 108.975 243.941 111.123 243.941 111.123L243.367 111.831Z" fill="#FFB882"/>
<path d="M243.14 112.659C242.175 112.273 239.879 111.395 239.986 111.054C240.093 110.712 243.575 111.9 243.575 111.9L243.14 112.659Z" fill="#FFB882"/>
<path d="M243.726 114.024C242.705 113.866 240.283 113.512 240.339 113.171C240.396 112.83 244.004 113.171 244.004 113.171L243.726 114.024Z" fill="#FFB882"/>
<path d="M222.496 98.7813C222.288 97.6438 221.443 96.5379 221.102 96.4937C220.761 96.4495 219.342 96.7402 218.957 96.4937C218.573 96.2472 219.229 94.9834 220.137 94.7053C221.045 94.4272 221.398 94.7053 222.18 94.4904C222.963 94.2756 223.234 95.9376 223.36 97.2647C223.682 100.677 222.496 98.7813 222.496 98.7813Z" fill="#FFB882"/>
<path d="M219.134 96.5823C218.144 96.4938 216.233 95.2742 216.132 94.9013C216.031 94.5285 218.579 95.9188 219.077 95.8872C219.576 95.8556 219.134 96.5823 219.134 96.5823Z" fill="#FFB882"/>
<path d="M219.589 95.7733C218.605 95.6154 216.795 94.2693 216.719 93.8775C216.643 93.4857 219.084 95.0656 219.589 95.0719C220.093 95.0782 219.589 95.7733 219.589 95.7733Z" fill="#FFB882"/>
<path d="M220.655 95.3183C219.69 95.0908 217.993 93.6121 217.949 93.2266C217.905 92.8411 220.213 94.5853 220.711 94.6232C221.21 94.6611 220.655 95.3183 220.655 95.3183Z" fill="#FFB882"/>
<path d="M217.533 87.3242H218.819L221.658 93.8838V106.478H214.707L214.701 93.8901L217.533 87.3242Z" fill="#80BFBF"/>
<g style="mix-blend-mode:overlay" opacity="0.57">
<g style="mix-blend-mode:overlay" opacity="0.57">
<path d="M215.022 94.3577L215.905 92.1459C217.564 92.3038 218.782 91.6277 220.201 91.5139L221.336 94.345V105.796H215.029L215.022 94.3577Z" fill="#E8FCFB"/>
</g>
</g>
<g style="mix-blend-mode:multiply" opacity="0.61">
<path d="M215.306 92.4934L215.71 103.799L221.658 105.24V106.478H214.707L214.701 93.89L215.306 92.4934Z" fill="#80BFBF"/>
</g>
<g style="mix-blend-mode:overlay" opacity="0.58">
<path d="M216.492 93.8144C216.492 93.5679 216.492 93.3215 216.492 93.0687C216.492 92.8159 216.492 92.5252 216.492 92.2598L217.98 88.5503H218.989L221.21 94.0608V94.9582C219.727 95.7355 217.911 95.2299 216.492 93.8144Z" fill="#E8FCFB"/>
</g>
<g style="mix-blend-mode:overlay" opacity="0.58">
<path d="M221.216 95.8492V99.6851C219.463 100.62 216.764 97.6629 216.518 94.3958C217.911 95.8935 219.703 96.5064 221.216 95.8492Z" fill="#E8FCFB"/>
</g>
<g style="mix-blend-mode:multiply">
<path d="M215.426 92.2091L217.532 87.3242H218.794L219.74 89.5107C218.308 89.378 216.769 90.4018 215.426 92.2091Z" fill="#80BFBF"/>
</g>
<path d="M217.206 87.8372L219.148 87.8365L219.148 86.8065L217.205 86.8072L217.206 87.8372Z" fill="#C6E5E4"/>
<path d="M223.001 95.6847C223.121 94.5788 221.79 93.8268 221.374 93.7888C220.958 93.7509 220.232 93.5234 220.144 93.7888C220.056 94.0543 221.059 94.2944 221.298 94.4208C221.538 94.5472 221.721 95.3245 221.929 95.3434C222.305 95.3883 222.669 95.5041 223.001 95.6847V95.6847Z" fill="#FFB882"/>
</svg>
