<svg width="300" height="300" viewBox="0 0 300 300" fill="none" xmlns="http://www.w3.org/2000/svg">
<path d="M135.928 107.718C135.928 107.718 134.802 101.75 143.087 101.866V107.718H135.928Z" fill="#FCA001"/>
<path d="M150.245 107.718C150.245 107.718 151.371 101.75 143.086 101.866V107.718H150.245Z" fill="#F58300"/>
<path d="M158.446 111.864C158.446 115.686 151.585 118.783 143.118 118.783C134.651 118.783 127.785 115.673 127.785 111.864C127.785 108.056 134.646 104.928 143.118 104.928C151.589 104.928 158.446 108.038 158.446 111.864Z" fill="#FFB804"/>
<path d="M158.796 129.942C156.357 125.658 151.877 126.831 149.039 126.355C146.2 125.88 146.994 119.965 146.994 119.965L143.104 115.219V140.522H143.078V156.378H155.27V140.522H155.328C156.201 143.753 161.519 134.723 158.796 129.942Z" fill="#F7A054"/>
<path d="M158.446 111.864C158.446 108.038 151.584 104.941 143.118 104.941V118.783C151.584 118.783 158.446 115.686 158.446 111.864Z" fill="#FCA001"/>
<path d="M150.312 115.219H150.165L150.347 113.784C150.658 111.411 151.349 105.421 143.087 105.421C134.824 105.421 135.516 111.411 135.826 113.784C135.884 114.228 135.946 114.731 136.004 115.219H135.857C134.598 114.286 134.496 116.721 135.019 117.557C135.337 118.02 135.575 118.534 135.724 119.077C135.919 119.637 136.239 119.712 136.505 119.65C136.54 119.983 136.571 120.272 136.589 120.499C136.709 121.783 139.778 124.342 140.474 125.147C141.171 125.951 142.213 125.591 142.563 125.591L143.082 125.569L143.601 125.591C143.951 125.591 145.038 125.902 145.69 125.147C146.342 124.391 149.456 121.783 149.571 120.499C149.571 120.272 149.62 119.983 149.655 119.65C149.921 119.712 150.245 119.65 150.436 119.077C150.584 118.533 150.824 118.019 151.145 117.557C151.673 116.721 151.567 114.286 150.312 115.219Z" fill="#FFBA80"/>
<path d="M143.605 125.587C143.956 125.587 145.042 125.898 145.694 125.142C146.346 124.387 149.46 121.778 149.575 120.494C149.575 120.267 149.624 119.979 149.659 119.645C149.926 119.708 150.249 119.645 150.44 119.072C150.588 118.529 150.828 118.015 151.15 117.552C151.673 116.717 151.567 114.282 150.311 115.215H150.165L150.347 113.78C150.657 111.407 151.349 105.416 143.086 105.416V125.56L143.605 125.587Z" fill="#F7A054"/>
<path d="M143.113 169.642C143.113 169.642 141.339 170.949 140.94 181.294C140.434 193.683 139.951 199.127 139.951 199.127H131.834L130.89 181.321V156.378L143.113 155.587V169.642Z" fill="#172C57"/>
<path d="M143.118 110.647C141.969 112.039 140.421 113.043 138.683 113.522C138.683 113.522 139.41 112.633 139.459 112.082C139.459 112.082 137.609 113.966 136.119 114.433L135.906 114.58C135.784 113.931 135.709 113.275 135.68 112.615C135.578 111.158 142.142 108.727 142.142 108.727L143.096 109.896L143.118 110.647Z" fill="#693514"/>
<path d="M143.118 110.647C143.118 110.647 143.854 112.144 146.568 112.98C146.463 112.721 146.377 112.456 146.311 112.184C146.311 112.184 148.6 113.962 150.09 114.433L150.21 114.877C150.21 114.877 150.383 113.837 150.485 112.384C150.587 110.931 144.067 108.745 144.067 108.745L143.118 109.914V110.647Z" fill="#4F250A"/>
<path d="M135.733 113.166C135.733 113.166 136.922 110.438 143.087 110.438V104.928C143.087 104.928 135.804 104.799 134.035 109.043C132.265 113.286 135.334 113.153 135.334 113.153L135.733 113.166Z" fill="#FFB804"/>
<path d="M150.44 113.166C150.44 113.166 149.247 110.438 143.086 110.438V104.928C143.086 104.928 150.369 104.799 152.139 109.043C153.908 113.286 150.839 113.153 150.839 113.153L150.44 113.166Z" fill="#FCA001"/>
<path d="M143.113 169.642C143.113 169.642 144.887 170.949 145.287 181.294C145.792 193.683 146.28 199.136 146.28 199.136H154.396L155.337 181.329V156.378L143.113 155.587V169.642Z" fill="#0E1F42"/>
<path d="M155.142 198.874L155.745 185.107H150.307V198.874H155.142Z" fill="#B05D2A"/>
<path d="M145.473 198.874L144.87 185.107H150.307V198.874H145.473Z" fill="#B05D2A"/>
<path d="M145.264 200.362C145.244 199.686 145.36 199.013 145.604 198.383C145.849 197.753 146.217 197.178 146.687 196.693C147.157 196.208 147.719 195.822 148.341 195.559C148.962 195.295 149.63 195.16 150.305 195.16C150.98 195.16 151.648 195.295 152.269 195.559C152.891 195.822 153.453 196.208 153.923 196.693C154.393 197.178 154.761 197.753 155.006 198.383C155.25 199.013 155.366 199.686 155.346 200.362C155.316 200.473 155.246 200.569 155.151 200.633C155.056 200.697 154.94 200.724 154.827 200.709H145.788C145.673 200.725 145.557 200.698 145.461 200.634C145.364 200.571 145.295 200.474 145.264 200.362V200.362Z" fill="#853A0C"/>
<path d="M144.284 181.805C144.28 181.744 144.289 181.684 144.31 181.627C144.33 181.57 144.363 181.517 144.404 181.473C144.446 181.429 144.496 181.394 144.551 181.37C144.607 181.346 144.667 181.334 144.728 181.334H155.816C155.876 181.334 155.936 181.346 155.992 181.37C156.047 181.394 156.097 181.429 156.139 181.473C156.181 181.517 156.213 181.57 156.233 181.627C156.254 181.684 156.263 181.744 156.259 181.805V185.671C156.263 185.732 156.255 185.793 156.235 185.851C156.214 185.908 156.182 185.961 156.141 186.006C156.099 186.05 156.049 186.086 155.993 186.11C155.937 186.134 155.877 186.147 155.816 186.146H144.728C144.607 186.14 144.493 186.086 144.411 185.998C144.328 185.909 144.283 185.792 144.284 185.671V181.805Z" fill="#853A0C"/>
<path d="M131.09 198.874L130.486 185.107H135.924V198.874H131.09Z" fill="#B36434"/>
<path d="M140.754 198.874L141.357 185.107H135.924V198.874H140.754Z" fill="#B36434"/>
<path d="M140.962 200.362C140.982 199.686 140.867 199.013 140.622 198.383C140.378 197.753 140.01 197.178 139.54 196.693C139.07 196.208 138.508 195.822 137.886 195.559C137.265 195.295 136.597 195.16 135.922 195.16C135.247 195.16 134.579 195.295 133.957 195.559C133.336 195.822 132.773 196.208 132.303 196.693C131.833 197.178 131.465 197.753 131.221 198.383C130.977 199.013 130.861 199.686 130.881 200.362C130.911 200.474 130.981 200.571 131.077 200.634C131.174 200.698 131.29 200.725 131.404 200.709H140.443C140.557 200.724 140.672 200.697 140.768 200.633C140.863 200.569 140.932 200.473 140.962 200.362V200.362Z" fill="#964514"/>
<path d="M141.925 181.805C141.928 181.744 141.919 181.684 141.899 181.627C141.878 181.57 141.846 181.517 141.805 181.473C141.763 181.429 141.713 181.394 141.657 181.37C141.602 181.346 141.542 181.334 141.481 181.334H130.393C130.332 181.334 130.273 181.346 130.217 181.37C130.161 181.394 130.111 181.429 130.07 181.473C130.028 181.517 129.996 181.57 129.975 181.627C129.955 181.684 129.946 181.744 129.95 181.805V185.671C129.947 185.793 129.992 185.91 130.075 185.999C130.158 186.088 130.272 186.141 130.393 186.146H141.481C141.542 186.147 141.602 186.134 141.658 186.11C141.714 186.086 141.765 186.05 141.806 186.006C141.848 185.961 141.88 185.908 141.9 185.851C141.921 185.793 141.929 185.732 141.925 185.671V181.805Z" fill="#964514"/>
<path d="M130.89 156.378V141.1H132.438L132.304 126.582L135.724 126.502V141.1H143.086V156.378H130.89Z" fill="#172C57"/>
<path d="M155.279 156.378V141.1H153.735L153.868 126.582L150.444 126.502V141.1H143.086V156.378H155.279Z" fill="#0E1F42"/>
<path d="M153.155 141.082C153.155 141.277 153.097 141.468 152.989 141.63C152.881 141.793 152.727 141.919 152.547 141.994C152.367 142.068 152.169 142.088 151.978 142.05C151.787 142.012 151.612 141.918 151.474 141.78C151.336 141.642 151.242 141.466 151.204 141.275C151.166 141.083 151.186 140.885 151.26 140.705C151.335 140.524 151.461 140.37 151.623 140.262C151.785 140.154 151.975 140.096 152.17 140.096C152.3 140.095 152.428 140.12 152.548 140.17C152.667 140.219 152.776 140.292 152.868 140.383C152.959 140.475 153.032 140.584 153.081 140.704C153.13 140.824 153.155 140.953 153.155 141.082V141.082Z" fill="#747474"/>
<path d="M133.067 141.082C133.067 141.277 133.125 141.468 133.233 141.63C133.342 141.793 133.495 141.919 133.675 141.994C133.855 142.068 134.053 142.088 134.244 142.05C134.435 142.012 134.611 141.918 134.748 141.78C134.886 141.642 134.98 141.466 135.018 141.275C135.056 141.083 135.036 140.885 134.962 140.705C134.887 140.524 134.761 140.37 134.599 140.262C134.437 140.154 134.247 140.096 134.052 140.096C133.791 140.096 133.54 140.2 133.356 140.385C133.171 140.57 133.067 140.821 133.067 141.082Z" fill="#9A9A9A"/>
<path d="M146.967 119.965C146.967 119.965 146.213 125.902 149.012 126.355C151.81 126.809 156.326 125.658 158.769 129.942C161.493 134.723 165.036 142.642 166.651 149.552C167.799 154.471 167.32 154.756 159.142 159.177C155.128 161.35 155.39 161.368 152.148 162.017C149.163 162.608 149.637 158.151 152.148 156.738C156.232 154.44 160.65 152.68 160.969 151.689C161.501 150.041 156.175 143.753 155.31 140.522V156.378H143.113V140.522H143.086V115.219L146.967 119.965Z" fill="#F7A054"/>
<path d="M148.719 126.258C148.823 126.295 148.93 126.323 149.039 126.342C149.877 126.449 150.722 126.503 151.567 126.502C151.669 126.502 151.784 126.502 151.908 126.502C153.461 126.529 154.543 126.582 154.543 126.582C159.79 126.698 164.331 139.167 164.331 139.167L156.312 143.655L155.328 141.646V154.836L152.463 156.378H143.149L143.118 140.522V131.897L148.719 126.258Z" fill="#77BBE6"/>
<path d="M139.224 119.965C139.224 119.965 139.978 125.902 137.179 126.355C134.38 126.809 129.87 125.658 127.421 129.942C124.698 134.723 121.159 142.642 119.54 149.552C118.391 154.471 118.87 154.756 127.049 159.177C131.063 161.35 130.801 161.368 134.043 162.017C137.033 162.608 136.558 158.151 134.043 156.738C129.958 154.44 125.541 152.68 125.222 151.689C124.689 150.041 130.016 143.753 130.881 140.522V156.378H143.078V140.522H143.104V115.219L139.224 119.965Z" fill="#FFBA80"/>
<path d="M137.503 126.258C137.399 126.296 137.292 126.324 137.183 126.342C136.345 126.449 135.5 126.503 134.655 126.502C134.553 126.502 134.442 126.502 134.314 126.502C132.761 126.529 131.679 126.582 131.679 126.582C126.432 126.698 121.895 139.167 121.895 139.167L129.914 143.655L130.894 141.646V155.067L133.404 156.378H143.086L143.113 140.522V131.897L137.503 126.258Z" fill="#A6DAF5"/>
<path d="M88.4579 95.8223H84.1025L86.3157 162.59H88.4579V95.8223Z" fill="#82333D"/>
<path d="M187.133 95.8223H191.488L189.275 162.59H187.133V95.8223Z" fill="#82333D"/>
<path d="M209.504 100.568L142.714 92.2406L63 100.568L70.4112 102.146H202.448L209.504 100.568Z" fill="#82333D"/>
<path d="M107.947 137.674H105.135V139.149H107.947V137.674Z" fill="#B9D3EA"/>
<path d="M107.809 137.674H104.997V139.149H107.809V137.674Z" fill="#83A3BA"/>
<path d="M107.818 138.963H105.01L101.325 144.02V161.19H109.126L107.818 138.963Z" fill="#A0BED8"/>
<path d="M101.325 144.042V161.19H109.126L108.168 144.042H101.325Z" fill="#83A3BA"/>
<path d="M111.605 144.02L107.818 138.963L104.425 144.02V161.19H111.605V144.02Z" fill="#B9D3EA"/>
<path d="M101.325 150.001L104.425 145.459V152.254L101.325 156.911V150.001Z" fill="#91B2C6"/>
<path d="M111.605 150.001L104.425 145.459V152.254L111.605 156.911V150.001Z" fill="#E4EEF7"/>
<path d="M108.204 156.92H105.006V159.288H108.204V156.92Z" fill="#83A3BA"/>
<path d="M173.636 139.149H176.448V137.674H173.636V139.149Z" fill="#B9D3EA"/>
<path d="M173.783 139.149H176.595V137.674H173.783V139.149Z" fill="#83A3BA"/>
<path d="M173.769 138.963H176.577L180.267 144.02V161.19H172.461L173.769 138.963Z" fill="#A0BED8"/>
<path d="M180.267 144.042V161.19H172.461L173.419 144.042H180.267Z" fill="#83A3BA"/>
<path d="M169.982 144.02L173.77 138.963L177.163 144.02V161.19H169.982V144.02Z" fill="#B9D3EA"/>
<path d="M180.267 150.001L177.163 145.459V152.254L180.267 156.911V150.001Z" fill="#91B2C6"/>
<path d="M169.982 150.001L177.163 145.459V152.254L169.982 156.911V150.001Z" fill="#E4EEF7"/>
<path d="M173.384 159.288H176.582V156.92H173.384V159.288Z" fill="#83A3BA"/>
<path d="M191.391 138.371H189.413L185.048 145.979V160.573H195.755V145.979L191.391 138.371Z" fill="#80BFBF"/>
<g style="mix-blend-mode:overlay" opacity="0.57">
<g style="mix-blend-mode:overlay" opacity="0.57">
<path d="M195.258 146.521L193.901 143.957C191.351 144.144 189.466 143.357 187.284 143.233L185.532 146.521V159.795H195.245L195.258 146.521Z" fill="#E8FCFB"/>
</g>
</g>
<g style="mix-blend-mode:multiply" opacity="0.61">
<path d="M194.828 144.366L194.207 157.466L185.048 159.142V160.573H195.755V145.979L194.828 144.366Z" fill="#80BFBF"/>
</g>
<g style="mix-blend-mode:overlay" opacity="0.58">
<path d="M192.996 145.895C192.996 145.61 192.996 145.326 192.996 145.033C192.996 144.739 192.996 144.406 192.974 144.095L190.676 139.793H189.129L185.709 146.188V147.228C188.015 148.126 190.854 147.539 192.996 145.895Z" fill="#E8FCFB"/>
</g>
<g style="mix-blend-mode:overlay" opacity="0.58">
<path d="M185.727 148.259V152.703C188.423 153.787 192.583 150.356 192.96 146.566C190.854 148.303 188.059 149.014 185.727 148.259Z" fill="#E8FCFB"/>
</g>
<g style="mix-blend-mode:multiply">
<path d="M194.637 144.033L191.39 138.367H189.412L187.958 140.922C190.197 140.758 192.566 141.94 194.637 144.033Z" fill="#80BFBF"/>
</g>
<path d="M191.896 137.772H188.902V138.967H191.896V137.772Z" fill="#C6E5E4"/>
<g style="mix-blend-mode:multiply">
<path d="M191.133 144.366L190.943 144.037L188.552 139.869L185.048 145.979V159.142V160.573H192.056V145.979L191.133 144.366Z" fill="#80BFBF"/>
</g>
<path d="M185.084 138.371H183.105L178.741 145.979V160.573H189.448V145.979L185.084 138.371Z" fill="#80BFBF"/>
<g style="mix-blend-mode:overlay" opacity="0.57">
<g style="mix-blend-mode:overlay" opacity="0.57">
<path d="M188.951 146.521L187.594 143.957C185.044 144.144 183.159 143.357 180.977 143.233L179.238 146.521V159.795H188.951V146.521Z" fill="#E8FCFB"/>
</g>
</g>
<g style="mix-blend-mode:multiply" opacity="0.61">
<path d="M188.521 144.366L187.9 157.466L178.741 159.142V160.573H189.448V145.979L188.521 144.366Z" fill="#80BFBF"/>
</g>
<g style="mix-blend-mode:overlay" opacity="0.58">
<path d="M186.689 145.895C186.689 145.61 186.689 145.326 186.689 145.033C186.689 144.739 186.689 144.406 186.689 144.095L184.392 139.793H182.844L179.424 146.188V147.228C181.708 148.126 184.529 147.539 186.689 145.895Z" fill="#E8FCFB"/>
</g>
<g style="mix-blend-mode:overlay" opacity="0.58">
<path d="M179.42 148.259V152.703C182.117 153.787 186.277 150.356 186.654 146.566C184.56 148.303 181.753 149.014 179.42 148.259Z" fill="#E8FCFB"/>
</g>
<g style="mix-blend-mode:multiply">
<path d="M188.33 144.033L185.088 138.371H183.11L181.651 140.922C183.891 140.758 186.259 141.94 188.33 144.033Z" fill="#80BFBF"/>
</g>
<path d="M185.589 137.772H182.596V138.967H185.589V137.772Z" fill="#C6E5E4"/>
<path d="M200.186 162.234H73.2143L71.6221 216.653H201.773L200.186 162.234Z" fill="#82333D"/>
<path d="M173.326 171.184H118.068L89.709 216.653H158.672L173.326 171.184Z" fill="#9B404F"/>
<path d="M138.128 178.103C163.852 178.103 186.685 183.88 201.077 192.768L200.168 162.252H73.2143L72.2651 194.692C86.3691 184.702 110.599 178.103 138.128 178.103Z" fill="#661D29"/>
<path d="M76.3101 95.8223H72.7354L74.1679 162.59H76.3101V95.8223Z" fill="#82333D"/>
<path d="M196.589 95.8223H198.873L198.736 162.59H196.589V95.8223Z" fill="#82333D"/>
<path d="M195.214 67H77.2903L63 100.653H209.504L195.214 67Z" fill="#FFC655"/>
<path d="M80.1287 69.4085L75.0947 81.1668C87.3537 85.1662 104.425 87.6191 123.314 87.6191C157.08 87.6191 185.061 79.7225 190.06 69.3997L80.1287 69.4085Z" fill="#FFE48D"/>
<path d="M177.708 75.5942H94.5344L86.3159 93.7337H186.485L177.708 75.5942Z" fill="#FF9843"/>
<path d="M177.078 73.9233H95.4256L88.8438 92.0628H183.66L177.078 73.9233Z" fill="#FFFADC"/>
<path d="M201.911 160.261H70.5933V175.21H201.911V160.261Z" fill="#C4515F"/>
<path d="M136.811 170.767C166.252 170.767 191.24 166.852 200.124 161.435V161.213H73.1479C81.7123 166.745 106.975 170.767 136.811 170.767Z" fill="#EF5B74"/>
<path d="M105.521 211.463H201.645L201.467 208.779L105.521 211.463Z" fill="#661D29"/>
<path d="M168.172 194.696H72.6154L72.2295 197.38L168.172 194.696Z" fill="#661D29"/>
<path d="M198.518 173.393C198.518 173.547 198.564 173.697 198.649 173.825C198.735 173.953 198.856 174.053 198.998 174.112C199.14 174.171 199.297 174.186 199.447 174.155C199.598 174.125 199.736 174.05 199.845 173.941C199.953 173.832 200.027 173.693 200.056 173.542C200.085 173.391 200.069 173.234 200.01 173.092C199.951 172.95 199.85 172.829 199.722 172.744C199.594 172.659 199.443 172.614 199.29 172.615C199.188 172.615 199.087 172.635 198.993 172.675C198.9 172.714 198.814 172.771 198.743 172.843C198.671 172.916 198.614 173.001 198.576 173.096C198.537 173.19 198.517 173.291 198.518 173.393Z" fill="#661D29"/>
<path d="M198.518 162.115C198.518 162.269 198.564 162.419 198.649 162.547C198.735 162.675 198.856 162.775 198.998 162.833C199.14 162.892 199.297 162.907 199.447 162.877C199.598 162.847 199.736 162.772 199.845 162.663C199.953 162.554 200.027 162.415 200.056 162.264C200.085 162.112 200.069 161.956 200.01 161.814C199.951 161.672 199.85 161.551 199.722 161.466C199.594 161.381 199.443 161.336 199.29 161.337C199.188 161.337 199.087 161.357 198.993 161.396C198.9 161.435 198.814 161.493 198.743 161.565C198.671 161.637 198.614 161.723 198.576 161.817C198.537 161.912 198.517 162.013 198.518 162.115Z" fill="#661D29"/>
<path d="M73.2098 174.171C73.6384 174.171 73.9859 173.822 73.9859 173.393C73.9859 172.963 73.6384 172.615 73.2098 172.615C72.7811 172.615 72.4336 172.963 72.4336 173.393C72.4336 173.822 72.7811 174.171 73.2098 174.171Z" fill="#661D29"/>
<path d="M84.2315 173.393C84.2315 173.547 84.2771 173.697 84.3626 173.825C84.4481 173.953 84.5695 174.053 84.7116 174.112C84.8537 174.171 85.01 174.186 85.1607 174.155C85.3114 174.125 85.4497 174.05 85.558 173.941C85.6664 173.832 85.74 173.693 85.7694 173.542C85.7989 173.391 85.7828 173.234 85.7234 173.092C85.664 172.95 85.5638 172.829 85.4356 172.744C85.3074 172.659 85.1569 172.614 85.0032 172.615C84.9015 172.615 84.8008 172.635 84.7068 172.675C84.6129 172.714 84.5276 172.771 84.4559 172.843C84.3842 172.916 84.3274 173.001 84.2889 173.096C84.2504 173.19 84.2309 173.291 84.2315 173.393Z" fill="#661D29"/>
<path d="M99.1206 173.393C99.1206 173.547 99.1663 173.697 99.2517 173.825C99.3372 173.953 99.4587 174.053 99.6008 174.112C99.7429 174.171 99.8992 174.186 100.05 174.155C100.201 174.125 100.339 174.05 100.447 173.941C100.556 173.832 100.629 173.693 100.659 173.542C100.688 173.391 100.672 173.234 100.613 173.092C100.553 172.95 100.453 172.829 100.325 172.744C100.197 172.659 100.046 172.614 99.8923 172.615C99.7906 172.615 99.6899 172.635 99.596 172.675C99.5021 172.714 99.4168 172.771 99.3451 172.843C99.2734 172.916 99.2166 173.001 99.1781 173.096C99.1396 173.19 99.12 173.291 99.1206 173.393V173.393Z" fill="#661D29"/>
<path d="M114.781 174.171C115.21 174.171 115.557 173.822 115.557 173.393C115.557 172.963 115.21 172.615 114.781 172.615C114.352 172.615 114.005 172.963 114.005 173.393C114.005 173.822 114.352 174.171 114.781 174.171Z" fill="#661D29"/>
<path d="M128.898 173.393C128.898 173.547 128.944 173.697 129.03 173.825C129.115 173.953 129.237 174.053 129.379 174.112C129.521 174.171 129.677 174.186 129.828 174.155C129.978 174.125 130.117 174.05 130.225 173.941C130.333 173.832 130.407 173.693 130.436 173.542C130.466 173.391 130.45 173.234 130.39 173.092C130.331 172.95 130.231 172.829 130.103 172.744C129.974 172.659 129.824 172.614 129.67 172.615C129.568 172.615 129.468 172.635 129.374 172.675C129.28 172.714 129.195 172.771 129.123 172.843C129.051 172.916 128.994 173.001 128.956 173.096C128.917 173.19 128.898 173.291 128.898 173.393V173.393Z" fill="#661D29"/>
<path d="M143.788 173.393C143.788 173.547 143.833 173.697 143.919 173.825C144.004 173.953 144.126 174.053 144.268 174.112C144.41 174.171 144.566 174.186 144.717 174.155C144.868 174.125 145.006 174.05 145.114 173.941C145.223 173.832 145.296 173.693 145.326 173.542C145.355 173.391 145.339 173.234 145.28 173.092C145.22 172.95 145.12 172.829 144.992 172.744C144.864 172.659 144.713 172.614 144.559 172.615C144.458 172.615 144.357 172.635 144.263 172.675C144.169 172.714 144.084 172.771 144.012 172.843C143.94 172.916 143.884 173.001 143.845 173.096C143.807 173.19 143.787 173.291 143.788 173.393V173.393Z" fill="#661D29"/>
<path d="M158.676 173.393C158.676 173.547 158.722 173.697 158.807 173.825C158.893 173.953 159.014 174.053 159.156 174.112C159.299 174.171 159.455 174.186 159.606 174.155C159.756 174.125 159.894 174.05 160.003 173.941C160.111 173.832 160.185 173.693 160.214 173.542C160.244 173.391 160.228 173.234 160.168 173.092C160.109 172.95 160.009 172.829 159.88 172.744C159.752 172.659 159.602 172.614 159.448 172.615C159.346 172.615 159.246 172.635 159.152 172.675C159.058 172.714 158.972 172.771 158.901 172.843C158.829 172.916 158.772 173.001 158.734 173.096C158.695 173.19 158.676 173.291 158.676 173.393Z" fill="#661D29"/>
<path d="M173.557 173.393C173.557 173.547 173.602 173.697 173.687 173.825C173.773 173.953 173.894 174.053 174.036 174.111C174.178 174.17 174.334 174.186 174.484 174.156C174.635 174.126 174.773 174.052 174.882 173.943C174.99 173.834 175.064 173.695 175.094 173.545C175.124 173.394 175.109 173.237 175.05 173.095C174.991 172.953 174.892 172.832 174.764 172.746C174.636 172.661 174.486 172.615 174.333 172.615C174.127 172.615 173.93 172.697 173.784 172.843C173.638 172.989 173.557 173.187 173.557 173.393V173.393Z" fill="#661D29"/>
<path d="M188.45 173.393C188.45 173.547 188.496 173.697 188.581 173.825C188.666 173.953 188.788 174.053 188.929 174.111C189.071 174.17 189.227 174.186 189.378 174.156C189.528 174.126 189.667 174.052 189.775 173.943C189.884 173.834 189.958 173.695 189.988 173.545C190.018 173.394 190.002 173.237 189.943 173.095C189.885 172.953 189.785 172.832 189.658 172.746C189.53 172.661 189.38 172.615 189.226 172.615C189.021 172.615 188.823 172.697 188.678 172.843C188.532 172.989 188.45 173.187 188.45 173.393Z" fill="#661D29"/>
<path d="M84.2315 163.305C84.2306 163.46 84.2755 163.611 84.3604 163.739C84.4454 163.868 84.5665 163.968 84.7085 164.027C84.8505 164.087 85.007 164.103 85.1579 164.073C85.3089 164.043 85.4476 163.969 85.5564 163.86C85.6653 163.751 85.7393 163.612 85.7691 163.461C85.7989 163.309 85.7831 163.153 85.7238 163.01C85.6645 162.868 85.5644 162.747 85.4361 162.661C85.3077 162.576 85.1571 162.531 85.0032 162.532C84.7985 162.532 84.6022 162.614 84.4575 162.759C84.3128 162.904 84.2315 163.1 84.2315 163.305Z" fill="#661D29"/>
<path d="M99.1206 163.305C99.1197 163.46 99.1646 163.611 99.2496 163.739C99.3345 163.868 99.4557 163.968 99.5977 164.027C99.7397 164.087 99.8961 164.103 100.047 164.073C100.198 164.043 100.337 163.969 100.446 163.86C100.554 163.751 100.628 163.612 100.658 163.461C100.688 163.309 100.672 163.153 100.613 163.01C100.554 162.868 100.454 162.747 100.325 162.661C100.197 162.576 100.046 162.531 99.8923 162.532C99.6877 162.532 99.4914 162.614 99.3467 162.759C99.2019 162.904 99.1206 163.1 99.1206 163.305V163.305Z" fill="#661D29"/>
<path d="M114.009 163.305C114.008 163.46 114.053 163.611 114.138 163.739C114.223 163.868 114.344 163.968 114.486 164.027C114.628 164.087 114.785 164.103 114.936 164.073C115.087 164.043 115.225 163.969 115.334 163.86C115.443 163.751 115.517 163.612 115.547 163.461C115.577 163.309 115.561 163.153 115.502 163.01C115.442 162.868 115.342 162.747 115.214 162.661C115.086 162.576 114.935 162.531 114.781 162.532C114.576 162.532 114.38 162.614 114.235 162.759C114.091 162.904 114.009 163.1 114.009 163.305Z" fill="#661D29"/>
<path d="M128.898 163.305C128.898 163.46 128.942 163.611 129.027 163.739C129.112 163.868 129.234 163.968 129.376 164.027C129.518 164.087 129.674 164.103 129.825 164.073C129.976 164.043 130.115 163.969 130.223 163.86C130.332 163.751 130.406 163.612 130.436 163.461C130.466 163.309 130.45 163.153 130.391 163.01C130.332 162.868 130.231 162.747 130.103 162.661C129.975 162.576 129.824 162.531 129.67 162.532C129.569 162.532 129.468 162.552 129.375 162.591C129.281 162.63 129.196 162.687 129.124 162.759C129.053 162.831 128.996 162.916 128.957 163.01C128.918 163.103 128.898 163.204 128.898 163.305Z" fill="#661D29"/>
<path d="M143.788 163.305C143.787 163.46 143.832 163.611 143.917 163.739C144.002 163.868 144.123 163.968 144.265 164.027C144.407 164.087 144.563 164.103 144.714 164.073C144.865 164.043 145.004 163.969 145.113 163.86C145.221 163.751 145.295 163.612 145.325 163.461C145.355 163.309 145.339 163.153 145.28 163.01C145.221 162.868 145.121 162.747 144.992 162.661C144.864 162.576 144.713 162.531 144.559 162.532C144.355 162.532 144.158 162.614 144.014 162.759C143.869 162.904 143.788 163.1 143.788 163.305V163.305Z" fill="#661D29"/>
<path d="M158.676 163.305C158.675 163.46 158.72 163.611 158.805 163.739C158.89 163.868 159.011 163.968 159.153 164.027C159.295 164.087 159.452 164.103 159.603 164.073C159.754 164.043 159.892 163.969 160.001 163.86C160.11 163.751 160.184 163.612 160.214 163.461C160.244 163.309 160.228 163.153 160.169 163.01C160.109 162.868 160.009 162.747 159.881 162.661C159.753 162.576 159.602 162.531 159.448 162.532C159.243 162.532 159.047 162.614 158.902 162.759C158.758 162.904 158.676 163.1 158.676 163.305Z" fill="#661D29"/>
<path d="M173.557 163.305C173.556 163.459 173.601 163.61 173.685 163.739C173.77 163.867 173.891 163.968 174.033 164.027C174.174 164.087 174.331 164.103 174.481 164.073C174.632 164.044 174.771 163.97 174.88 163.861C174.989 163.753 175.063 163.614 175.094 163.463C175.124 163.312 175.109 163.156 175.05 163.013C174.992 162.871 174.892 162.749 174.764 162.664C174.637 162.578 174.487 162.532 174.333 162.532C174.128 162.532 173.931 162.614 173.786 162.758C173.64 162.903 173.558 163.1 173.557 163.305V163.305Z" fill="#661D29"/>
<path d="M188.45 163.305C188.449 163.459 188.494 163.61 188.579 163.739C188.664 163.867 188.785 163.968 188.926 164.027C189.068 164.087 189.224 164.103 189.375 164.073C189.526 164.044 189.665 163.97 189.774 163.861C189.883 163.753 189.957 163.614 189.987 163.463C190.018 163.312 190.002 163.156 189.944 163.013C189.885 162.871 189.786 162.749 189.658 162.664C189.53 162.578 189.38 162.532 189.226 162.532C189.021 162.532 188.825 162.614 188.679 162.758C188.534 162.903 188.451 163.1 188.45 163.305Z" fill="#661D29"/>
<path d="M72.4336 162.115C72.4336 162.269 72.4792 162.419 72.5647 162.547C72.6502 162.675 72.7717 162.775 72.9138 162.833C73.0559 162.892 73.2121 162.907 73.3628 162.877C73.5135 162.847 73.6518 162.772 73.7602 162.663C73.8685 162.554 73.9421 162.415 73.9716 162.264C74.001 162.112 73.985 161.956 73.9256 161.814C73.8661 161.672 73.766 161.551 73.6377 161.466C73.5095 161.381 73.359 161.336 73.2053 161.337C73.1036 161.337 73.0029 161.357 72.909 161.396C72.8151 161.435 72.7298 161.493 72.6581 161.565C72.5863 161.637 72.5296 161.723 72.4911 161.817C72.4526 161.912 72.433 162.013 72.4336 162.115V162.115Z" fill="#661D29"/>
<path d="M181.722 90.2098C181.722 89.8143 181.097 89.4944 180.325 89.4944C179.553 89.4944 178.923 89.8143 178.923 90.2098C178.923 90.6053 179.549 90.9253 180.325 90.9253C181.101 90.9253 181.722 90.6053 181.722 90.2098Z" fill="#82333D"/>
<path d="M176.599 75.7676C176.599 75.3721 175.974 75.0521 175.202 75.0521C174.43 75.0521 173.8 75.3721 173.8 75.7676C173.8 76.1631 174.443 76.4875 175.202 76.4875C175.96 76.4875 176.599 76.1631 176.599 75.7676Z" fill="#82333D"/>
<path d="M90.8086 90.2098C90.8086 89.8143 91.4384 89.4944 92.2101 89.4944C92.9818 89.4944 93.6116 89.8143 93.6116 90.2098C93.6116 90.6053 92.9818 90.9253 92.2101 90.9253C91.4384 90.9253 90.8086 90.6053 90.8086 90.2098Z" fill="#82333D"/>
<path d="M95.9404 75.7676C95.9404 75.3721 96.5702 75.0521 97.342 75.0521C98.1137 75.0521 98.739 75.3721 98.739 75.7676C98.739 76.1631 98.1048 76.4875 97.3331 76.4875C96.5614 76.4875 95.9404 76.1631 95.9404 75.7676Z" fill="#82333D"/>
<path d="M106.297 82.5265C106.319 83.122 106.341 85.6372 106.368 86.3082L106.439 89.2988C106.439 89.6055 106.017 89.5299 105.521 89.5299C105.121 89.5299 104.394 89.5877 103.928 89.5877C103.232 89.5877 103.259 89.4144 103.272 88.9345C103.272 88.5701 103.077 86.1527 103.046 85.3794C103.015 84.6062 103.259 81.9666 103.232 81.2734C103.205 80.5802 103.192 78.225 103.17 77.6695C103.17 77.4029 103.112 76.9985 103.099 76.6341C103.086 76.2697 103.099 75.9453 103.236 75.8653C103.306 75.823 103.386 75.8029 103.467 75.8075C103.731 75.8597 104.001 75.8791 104.27 75.8653C104.567 75.8653 104.833 75.8653 105.095 75.8653C105.406 75.8579 105.717 75.8712 106.026 75.9053C106.594 76.0208 106.683 76.6341 106.913 77.114C107.206 77.8961 108.426 79.4914 108.98 80.1624C109.898 81.1192 110.724 82.1607 111.446 83.2731C111.694 83.6375 112.178 84.2152 112.564 84.7306L113.291 85.6194C113.77 85.0639 114.214 84.544 114.622 84.0285L116.693 81.5356C117.713 80.3446 118.95 78.7538 119.62 78.025C120.223 77.2962 121.394 75.9897 121.873 75.9897C122.073 75.9897 122.139 76.0875 122.144 76.2386C122.084 76.6086 121.998 76.9739 121.886 77.3318C121.771 77.8517 121.886 81.1134 121.918 81.9355C121.949 82.7576 121.918 85.2372 121.824 85.8283C121.797 86.3211 121.797 86.8151 121.824 87.308C121.851 88.1301 121.918 89.0144 121.922 89.1655V89.2633C121.922 89.4544 121.829 89.4722 121.731 89.4544H121.665C121.465 89.4544 121.101 89.4944 120.835 89.4944C120.569 89.4944 120.596 89.3611 120.591 89.13C120.512 87.9868 120.493 86.8402 120.534 85.6949C120.614 85.1217 120.671 82.9931 120.649 82.4332C120.605 82.1488 120.649 81.42 120.649 80.6557V79.2781C120.504 79.3941 120.374 79.5286 120.263 79.6781C120.047 79.9021 119.846 80.1396 119.66 80.3891C119.31 80.8335 117.305 83.2464 116.888 83.7086C116.471 84.1707 114.347 86.8192 114.094 87.1969C113.841 87.5747 113.273 88.3657 113.14 88.3657C113.007 88.3657 112.87 88.2146 112.559 87.9213C111.958 87.2795 111.422 86.5799 110.958 85.8327C110.608 85.2728 108.337 83.0864 107.885 82.5132C107.645 82.2244 107.259 81.6867 106.944 81.2289C106.732 80.958 106.533 80.6762 106.35 80.3846L106.314 81.2289C106.301 81.6822 106.288 82.2643 106.297 82.5265Z" fill="#EF5292"/>
<path d="M127.812 78.9404C127.852 79.9758 127.701 83.2553 127.736 84.2329C127.772 85.2106 127.989 88.5878 128.109 89.0677C128.137 89.1553 128.151 89.2469 128.149 89.3388C128.149 89.5477 128.025 89.5877 127.83 89.6454C127.493 89.7163 127.148 89.7417 126.805 89.721C125.709 89.721 126.011 89.7965 125.976 88.9167C125.953 88.1879 125.922 83.6419 125.878 82.3754C125.834 81.1089 126.033 77.3895 125.918 76.9274C125.918 76.794 125.874 76.6607 125.869 76.523C125.869 76.2563 125.949 76.0253 126.379 76.0253C126.614 76.0253 127.111 76.0253 127.612 76.0253C127.874 76.0253 127.945 76.1408 127.949 76.2963C127.954 76.4519 127.896 76.603 127.9 76.7407C127.808 77.47 127.778 78.206 127.812 78.9404V78.9404Z" fill="#EF5292"/>
<path d="M148.719 89.3744C148.719 89.4144 148.755 89.45 148.759 89.4722C148.759 89.6055 148.529 89.6233 148.001 89.6233C147.371 89.6233 142.621 89.5655 141.459 89.5655C140.497 89.5655 137.379 89.6811 136.052 89.6811C135.786 89.6811 135.587 89.6811 135.489 89.6811C135.29 89.6811 135.024 89.6811 134.726 89.6811C133.893 89.6811 132.766 89.7166 132.203 89.7166C131.471 89.7166 131.635 89.5833 131.622 89.2189C131.608 88.8545 131.715 86.2282 131.697 85.7839C131.679 85.3395 131.471 84.0997 131.449 83.4642C131.484 84.3841 131.733 80.2825 131.715 79.7226L131.604 77.5584C131.604 77.3851 131.502 76.5986 131.493 76.332C131.493 76.1009 132.021 76.1986 132.318 76.1986C132.615 76.1986 132.815 76.1986 133.582 76.1986H133.879C134.012 76.1986 134.079 76.2209 134.083 76.3542C134.088 76.4875 133.977 79.8248 133.995 80.3802L134.061 83.122C134.061 83.4287 134.168 84.3307 134.19 84.8995C134.213 85.0646 134.213 85.2322 134.19 85.3973C134.174 85.5122 134.174 85.6289 134.19 85.7439C134.19 85.8016 134.19 85.8194 134.225 85.8372L135.024 85.8772C135.525 85.8772 136.154 85.9172 136.798 85.8772C137.991 85.8772 141.707 85.8416 142.936 85.8416C144.164 85.8416 147.486 85.9172 147.983 85.9172C148.285 85.9172 148.351 85.9749 148.356 86.0327C148.36 86.0905 148.294 86.166 148.294 86.2416L148.325 87.1303C148.334 87.5347 148.719 89.1656 148.719 89.3744Z" fill="#EF5292"/>
<path d="M151.496 89.5878C151.363 89.6021 151.229 89.6021 151.097 89.5878C150.928 89.5878 150.862 89.5522 150.857 89.4722C150.882 89.3711 150.924 89.2749 150.981 89.1878C151.075 88.9567 150.786 88.3613 150.769 87.9213C150.751 87.4814 150.742 82.4333 150.857 81.9178C150.909 81.2792 150.919 80.638 150.888 79.9981C150.887 79.7006 150.865 79.4036 150.822 79.1093C150.777 78.8301 150.757 78.5477 150.76 78.265C150.719 77.6368 150.752 77.0059 150.857 76.3853C150.884 76.2342 151.052 76.1942 151.216 76.1942C151.381 76.1942 151.682 76.252 151.882 76.252C152.645 76.252 153.576 76.292 154.339 76.252H154.538C155.071 76.252 154.982 76.4431 154.982 76.6386C154.982 76.8341 154.982 77.2296 155.022 77.7673C155.022 77.9006 155.022 78.2117 155.053 78.5539C155.115 79.5057 155.105 80.461 155.022 81.4112C154.989 81.6333 154.974 81.8577 154.978 82.0822C154.978 82.3133 155.026 82.5266 155.035 82.7177L155.124 83.3665L155.643 83.0421C155.936 82.8332 156.29 82.6421 156.588 82.4688C157.173 82.1622 159.182 80.8557 159.639 80.5491C159.989 80.2425 161.746 79.1315 162.655 78.5939C163.564 78.0562 165.48 76.8163 165.702 76.5808C165.885 76.393 166.129 76.2764 166.389 76.252C166.62 76.252 167.019 76.252 167.316 76.252C167.485 76.252 167.551 76.3275 167.556 76.3853C167.56 76.4431 167.458 76.5231 167.396 76.5586C167.232 76.6564 165.866 77.5007 165.347 77.7495C164.828 77.9984 161.914 80.1447 161.59 80.4158C161.364 80.5713 160.455 81.1624 159.546 81.7223L157.772 82.7932C158.18 83.0821 158.588 83.3309 158.96 83.5798C159.608 84.0241 160.353 84.4685 160.761 84.7129C161.573 85.1573 164.571 87.3037 165.196 87.6103C165.822 87.9169 167.414 89.0856 167.711 89.2589C167.782 89.3167 167.813 89.3522 167.817 89.41C167.822 89.4678 167.591 89.5655 167.259 89.5655C166.815 89.5655 163.577 89.6233 162.979 89.6233C162.51 89.6463 162.046 89.5253 161.648 89.2767C161.205 89.0678 158.854 87.2237 158.144 86.7837C157.525 86.4371 156.924 86.0589 156.344 85.6506L155.177 84.9307C155.195 85.2044 155.195 85.479 155.177 85.7528C155.177 86.1972 155.146 86.7304 155.155 86.9793C155.164 87.2281 155.155 87.8058 155.155 88.3124C155.152 88.624 155.197 88.9343 155.288 89.2322C155.313 89.2738 155.327 89.3214 155.328 89.37C155.328 89.5611 155.102 89.5611 154.884 89.5611H153.554C153.155 89.53 152.126 89.5878 151.496 89.5878Z" fill="#EF5292"/>
<path d="M80.8604 147.379H80L78.0928 151.787L78.0884 160.253H82.7631L82.7675 151.792L80.8604 147.379Z" fill="#80BFBF"/>
<g style="mix-blend-mode:overlay" opacity="0.57">
<g style="mix-blend-mode:overlay" opacity="0.57">
<path d="M82.5507 152.103L81.9563 150.618C80.8431 150.725 80.027 150.272 79.069 150.196L78.3062 152.103V159.799H82.5462L82.5507 152.103Z" fill="#E8FCFB"/>
</g>
</g>
<g style="mix-blend-mode:multiply" opacity="0.61">
<path d="M82.3639 150.854L82.0889 158.453L78.0884 159.422V160.253H82.7631L82.7675 151.792L82.3639 150.854Z" fill="#80BFBF"/>
</g>
<g style="mix-blend-mode:overlay" opacity="0.58">
<path d="M81.5614 151.743C81.5614 151.578 81.5614 151.409 81.5614 151.241C81.5614 151.072 81.5614 150.876 81.5614 150.698L80.559 148.201H79.8804L78.3857 151.907V152.512C79.3881 153.036 80.6167 152.694 81.5614 151.743Z" fill="#E8FCFB"/>
</g>
<g style="mix-blend-mode:overlay" opacity="0.58">
<path d="M78.3857 153.111V155.689C79.5655 156.315 81.3795 154.329 81.5436 152.134C80.63 153.138 79.4058 153.551 78.3857 153.111Z" fill="#E8FCFB"/>
</g>
<g style="mix-blend-mode:multiply">
<path d="M82.2797 150.663L80.8604 147.379H80L79.3613 148.85C80.3415 148.761 81.3749 149.445 82.2797 150.663Z" fill="#80BFBF"/>
</g>
<path d="M81.0867 147.028H79.7783V147.721H81.0867V147.028Z" fill="#C6E5E4"/>
<path d="M83.5484 147.379H82.6835L80.7764 151.787V160.253H85.4466L85.4511 151.792L83.5484 147.379Z" fill="#80BFBF"/>
<g style="mix-blend-mode:overlay" opacity="0.57">
<g style="mix-blend-mode:overlay" opacity="0.57">
<path d="M85.2337 152.103L84.6438 150.618C83.5306 150.725 82.7101 150.272 81.7521 150.196L80.9937 152.103V159.799H85.2382L85.2337 152.103Z" fill="#E8FCFB"/>
</g>
</g>
<g style="mix-blend-mode:multiply" opacity="0.61">
<path d="M85.0475 150.854L84.7725 158.453L80.7764 159.422V160.253H85.4466L85.4511 151.792L85.0475 150.854Z" fill="#80BFBF"/>
</g>
<g style="mix-blend-mode:overlay" opacity="0.58">
<path d="M84.2449 151.743C84.2449 151.578 84.2449 151.409 84.2449 151.241C84.2449 151.072 84.2449 150.876 84.2449 150.698L83.2425 148.201H82.5684L81.0737 151.907V152.512C82.0717 153.036 83.3046 152.694 84.2449 151.743Z" fill="#E8FCFB"/>
</g>
<g style="mix-blend-mode:overlay" opacity="0.58">
<path d="M81.0737 153.111V155.689C82.2491 156.315 84.0675 154.329 84.2316 152.134C83.3179 153.138 82.0894 153.551 81.0737 153.111Z" fill="#E8FCFB"/>
</g>
<g style="mix-blend-mode:multiply">
<path d="M84.963 150.663L83.5481 147.379H82.6611L82.0269 148.85C83.0248 148.761 84.0582 149.445 84.963 150.663Z" fill="#80BFBF"/>
</g>
<path d="M83.7703 147.028H82.4619V147.721H83.7703V147.028Z" fill="#C6E5E4"/>
<path d="M86.2315 147.379H85.371L83.4639 151.787L83.4595 160.253H88.1342V151.792L86.2315 147.379Z" fill="#80BFBF"/>
<g style="mix-blend-mode:overlay" opacity="0.57">
<g style="mix-blend-mode:overlay" opacity="0.57">
<path d="M87.9213 152.103L87.3269 150.618C86.2137 150.725 85.3932 150.272 84.4396 150.196L83.6768 152.103V159.799H87.9168L87.9213 152.103Z" fill="#E8FCFB"/>
</g>
</g>
<g style="mix-blend-mode:multiply" opacity="0.61">
<path d="M87.7306 150.854L87.46 158.453L83.4595 159.422V160.253H88.1342V151.792L87.7306 150.854Z" fill="#80BFBF"/>
</g>
<g style="mix-blend-mode:overlay" opacity="0.58">
<path d="M86.9325 151.743C86.9325 151.578 86.9325 151.409 86.9325 151.241C86.9325 151.072 86.9325 150.876 86.9325 150.698L85.9257 148.201H85.2515L83.7568 151.907V152.512C84.7548 153.036 85.9877 152.694 86.9325 151.743Z" fill="#E8FCFB"/>
</g>
<g style="mix-blend-mode:overlay" opacity="0.58">
<path d="M83.7568 153.111V155.689C84.9366 156.315 86.7506 154.329 86.9147 152.134C86.0011 153.138 84.7769 153.551 83.7568 153.111Z" fill="#E8FCFB"/>
</g>
<g style="mix-blend-mode:multiply">
<path d="M87.6508 150.663L86.2315 147.379H85.3711L84.7324 148.85C85.7126 148.761 86.746 149.445 87.6508 150.663Z" fill="#80BFBF"/>
</g>
<path d="M86.4534 147.028H85.145V147.721H86.4534V147.028Z" fill="#C6E5E4"/>
<path d="M91.8024 142.402H90.0416L86.1519 148.517L86.1431 160.253H95.6832L95.6921 148.521L91.8024 142.402Z" fill="#80BFBF"/>
<g style="mix-blend-mode:overlay" opacity="0.57">
<g style="mix-blend-mode:overlay" opacity="0.57">
<path d="M95.2484 148.957L94.042 146.895C91.7667 147.041 90.0946 146.415 88.1431 146.312L86.5908 148.979V159.644H95.2484V148.957Z" fill="#E8FCFB"/>
</g>
</g>
<g style="mix-blend-mode:multiply" opacity="0.61">
<path d="M94.8671 147.224L94.3083 157.755L86.1475 159.102L86.1431 160.253H95.6832L95.6921 148.521L94.8671 147.224Z" fill="#80BFBF"/>
</g>
<g style="mix-blend-mode:overlay" opacity="0.58">
<path d="M93.2303 148.477C93.2303 148.246 93.2303 148.032 93.2303 147.783C93.2303 147.535 93.2303 147.277 93.2303 147.028L91.1812 143.571H89.8019L86.7549 148.712V149.548C88.7906 150.254 91.3054 149.774 93.2303 148.477Z" fill="#E8FCFB"/>
</g>
<g style="mix-blend-mode:overlay" opacity="0.58">
<path d="M86.7549 150.352V153.907C89.1588 154.796 92.8666 152.018 93.2037 148.974C91.332 150.387 88.8439 150.961 86.7549 150.352Z" fill="#E8FCFB"/>
</g>
<g style="mix-blend-mode:multiply">
<path d="M94.6983 146.957L91.8021 142.402H90.028L88.7285 144.442C90.7421 144.322 92.8355 145.273 94.6983 146.957Z" fill="#80BFBF"/>
</g>
<path d="M92.2589 141.922H89.5889V142.882H92.2589V141.922Z" fill="#C6E5E4"/>
<path d="M112.275 147.379H111.415L109.508 151.787L109.503 160.253H114.178V151.792L112.275 147.379Z" fill="#80BFBF"/>
<g style="mix-blend-mode:overlay" opacity="0.57">
<g style="mix-blend-mode:overlay" opacity="0.57">
<path d="M113.965 152.103L113.371 150.618C112.258 150.725 111.437 150.272 110.484 150.196L109.721 152.103V159.799H113.961L113.965 152.103Z" fill="#E8FCFB"/>
</g>
</g>
<g style="mix-blend-mode:multiply" opacity="0.61">
<path d="M113.775 150.854L113.504 158.453L109.503 159.422V160.253H114.178V151.792L113.775 150.854Z" fill="#80BFBF"/>
</g>
<g style="mix-blend-mode:overlay" opacity="0.58">
<path d="M112.976 151.743C112.976 151.578 112.976 151.409 112.976 151.241C112.976 151.072 112.976 150.876 112.976 150.698L111.969 148.201H111.295L109.8 151.907V152.512C110.798 153.036 112.031 152.694 112.976 151.743Z" fill="#E8FCFB"/>
</g>
<g style="mix-blend-mode:overlay" opacity="0.58">
<path d="M109.8 153.111V155.689C110.98 156.315 112.794 154.329 112.958 152.134C112.045 153.138 110.82 153.551 109.8 153.111Z" fill="#E8FCFB"/>
</g>
<g style="mix-blend-mode:multiply">
<path d="M113.681 150.663L112.262 147.379H111.401L110.763 148.85C111.756 148.761 112.794 149.445 113.681 150.663Z" fill="#80BFBF"/>
</g>
<path d="M112.497 147.028H111.188V147.721H112.497V147.028Z" fill="#C6E5E4"/>
<path d="M96.5479 147.379H95.6875L93.7803 151.787L93.7759 160.253H98.4506L98.455 151.792L96.5479 147.379Z" fill="#80BFBF"/>
<g style="mix-blend-mode:overlay" opacity="0.57">
<g style="mix-blend-mode:overlay" opacity="0.57">
<path d="M98.2376 152.103L97.6433 150.618C96.5301 150.725 95.714 150.272 94.756 150.196L93.9976 152.103V159.799H98.2376V152.103Z" fill="#E8FCFB"/>
</g>
</g>
<g style="mix-blend-mode:multiply" opacity="0.61">
<path d="M98.0514 150.854L97.7764 158.453L93.7759 159.422V160.253H98.4506L98.455 151.792L98.0514 150.854Z" fill="#80BFBF"/>
</g>
<g style="mix-blend-mode:overlay" opacity="0.58">
<path d="M97.2708 151.743C97.2708 151.578 97.2708 151.409 97.2708 151.241C97.2708 151.072 97.2708 150.876 97.2708 150.698L96.2685 148.201H95.5899L94.0952 151.907V152.512C95.0754 153.036 96.304 152.694 97.2708 151.743Z" fill="#E8FCFB"/>
</g>
<g style="mix-blend-mode:overlay" opacity="0.58">
<path d="M94.0732 153.111V155.689C95.253 156.315 97.067 154.329 97.2311 152.134C96.3175 153.138 95.0933 153.551 94.0732 153.111Z" fill="#E8FCFB"/>
</g>
<g style="mix-blend-mode:multiply">
<path d="M97.9672 150.663L96.5479 147.379H95.6875L95.0532 148.845C96.029 148.761 97.0624 149.445 97.9672 150.663Z" fill="#80BFBF"/>
</g>
<path d="M96.7742 147.028H95.4658V147.721H96.7742V147.028Z" fill="#C6E5E4"/>
<path d="M209.89 101.959C209.92 101.711 210.002 101.472 210.131 101.258C210.259 101.043 210.432 100.859 210.636 100.716C210.841 100.573 211.073 100.475 211.319 100.428C211.564 100.381 211.816 100.386 212.059 100.444C212.059 100.444 210.338 98.8485 213.274 96.3778C216.21 93.907 218.197 95.1202 218.197 95.1202C218.973 93.6004 226.504 93.6404 228.607 95.5157C230.709 97.391 228.478 98.4575 228.478 98.4575C228.478 98.4575 233.565 99.5462 235.814 103.381C238.062 107.216 235.929 109.402 235.929 109.402C235.929 109.402 236.878 108.816 236.772 112.918C236.665 117.019 233.876 116.917 233.876 116.917C233.876 116.917 235.144 118.486 230.687 121.565C226.229 124.645 224.526 122.623 224.526 122.623C224.366 124.227 214.68 122.334 216.942 119.068L211.584 109.238C210.054 108.891 209.54 103.901 209.89 101.959Z" fill="#932C36"/>
<path d="M212.258 110.465C225.803 109.842 221.337 100.328 229.471 96.76C229.737 97.8532 228.478 98.4575 228.478 98.4575C228.478 98.4575 233.565 99.5463 235.814 103.381C238.062 107.216 235.929 109.403 235.929 109.403C235.929 109.403 236.878 108.816 236.772 112.918C236.665 117.019 233.876 116.917 233.876 116.917C233.876 116.917 235.144 118.486 230.687 121.565C226.229 124.645 224.526 122.623 224.526 122.623C224.366 124.227 214.68 122.334 216.942 119.068L212.258 110.465Z" fill="#77232F"/>
<path d="M221.798 110.74C226.123 110.74 223.355 116.828 230.669 121.552C226.211 124.631 224.508 122.609 224.508 122.609C224.349 124.214 214.662 122.321 216.924 119.054L216.037 117.437C217.323 114.26 218.641 110.74 221.798 110.74Z" fill="#681D2C"/>
<path d="M205.264 135.345C208.958 130.186 214.817 122.147 216.919 122.058C219.022 121.969 215.451 128.017 214.839 128.968C214.227 129.919 207.872 136.478 207.153 136.785C206.435 137.092 204.35 136.616 205.264 135.345Z" fill="#ED5167"/>
<path d="M205.49 135.043C205.754 135.235 206.055 135.371 206.375 135.44C206.694 135.51 207.024 135.512 207.344 135.447C208.062 135.163 214.245 128.311 214.853 127.36C215.243 126.751 216.849 124.049 217.399 122.209C218.343 123.134 215.403 128.115 214.853 128.968C214.245 129.915 208.062 136.767 207.344 137.056C206.625 137.345 204.363 136.612 205.277 135.345L205.49 135.043Z" fill="#D3354F"/>
<path d="M227.311 158.168L222.171 216.382H221.457C221.457 216.382 212.201 164.323 212.689 149.539C212.844 144.886 227.311 158.168 227.311 158.168Z" fill="#FFB882"/>
<path d="M220.783 186.071L221.9 216.395H221.86L219.377 185.995L216.356 184.84C214.312 170.984 212.48 156.342 212.706 149.552C212.857 144.886 227.342 158.169 227.342 158.169L224.765 187.369L220.783 186.071Z" fill="#FF9566"/>
<path d="M227.467 186.124L211.079 181.209C211.079 181.209 206.918 156.858 212.853 145.97C214.161 143.607 214.885 140.963 214.962 138.261C215.039 135.559 214.468 132.878 213.296 130.444L223.941 126.675C223.941 126.675 219.133 137.936 222.419 143.695C225.63 149.276 232.372 147.459 227.467 186.124Z" fill="#ED5167"/>
<path d="M222.667 147.686L228.349 162.861L217.771 164.154L220.92 146.175L222.667 147.686Z" fill="#D3354F"/>
<path d="M225.99 169.447C226.433 155.933 222.353 144.979 216.853 144.979C215.101 144.979 213.416 146.09 211.921 148.041C212.196 147.332 212.515 146.64 212.875 145.97C214.184 143.607 214.907 140.963 214.984 138.261C215.061 135.559 214.49 132.878 213.318 130.444L223.963 126.675C223.963 126.675 219.155 137.936 222.442 143.695C225.631 149.276 232.372 147.459 227.467 186.124L223.231 184.858C224.779 180.65 225.795 175.29 225.99 169.447Z" fill="#D3354F"/>
<path d="M225.449 122.814C225.635 125.342 223.147 134.701 222.309 135.225C221.47 135.75 210.01 134.696 210.01 133.99C210.01 133.283 215.545 122.943 216.281 122.236C217.017 121.53 225.378 121.992 225.449 122.814Z" fill="#ED5167"/>
<path d="M220.437 134.35C221.222 133.857 224.787 125.965 225.164 122.569C225.333 122.649 225.431 122.729 225.439 122.814C225.626 125.342 223.324 134.963 222.49 135.488C221.656 136.012 210 134.697 210 133.99C210.02 133.866 210.056 133.745 210.107 133.63C212.755 134.288 219.722 134.803 220.437 134.35Z" fill="#D3354F"/>
<path d="M229.729 140.744C229.201 134.523 227.036 123.858 225.44 122.814C223.843 121.77 223.861 128.702 223.901 129.813C223.941 130.924 226.651 140.536 227.081 141.127C227.511 141.718 229.857 142.278 229.729 140.744Z" fill="#ED5167"/>
<path d="M224.176 124.609C224.074 126.076 224.087 127.515 224.105 127.973C224.149 129.084 226.189 136.625 226.619 137.216C226.943 137.661 228.739 138.292 229.573 139.18C229.604 139.509 229.702 140.433 229.728 140.744C229.857 142.278 227.48 142.362 227.067 141.775C226.655 141.189 223.759 131.075 223.719 129.959C223.752 128.168 223.904 126.38 224.176 124.609V124.609Z" fill="#D3354F"/>
<path d="M230.62 140.5C231.214 141.14 229.711 144.22 228.145 143.349C227.236 142.838 225.577 139.794 226.407 139.034C227.121 138.385 230.181 140.033 230.62 140.5Z" fill="#FFEAC0"/>
<path d="M224.45 136.923L224.153 137.172C222.304 139.576 223.39 145.615 223.39 145.615L224.277 145.464C222.911 140.109 224.45 136.923 224.45 136.923Z" fill="#F92B58"/>
<path d="M216.396 133.052C220.526 134.328 228.216 138.936 228.944 139.905C229.671 140.873 229.902 141.709 228.034 141.949C226.526 142.144 216.135 133.368 216.135 133.368L216.396 133.052Z" fill="#FFB882"/>
<path d="M216.41 133.057C219 135.323 226.314 141.598 227.551 141.438C228.859 141.269 229.05 140.513 228.797 139.745C228.85 139.794 228.899 139.848 228.944 139.905C229.667 140.864 230.075 142.295 228.207 142.535C226.695 142.726 216.135 133.368 216.135 133.368L216.383 133.066L216.41 133.057Z" fill="#FF9566"/>
<path d="M224.504 122.365C222.592 125.507 219.399 129.391 216.419 129.146C213.7 128.928 215.571 124.645 216.995 122.009C218.951 121.463 222.947 121.725 224.504 122.365Z" fill="#FFB882"/>
<path d="M216.995 122.009C217.097 121.978 217.208 121.952 217.319 121.929C215.913 124.596 214.161 128.697 216.826 128.911C217.673 128.946 218.511 128.735 219.239 128.302C218.411 128.883 217.416 129.18 216.405 129.146C213.7 128.924 215.571 124.645 216.995 122.009Z" fill="#FF9566"/>
<path d="M223.714 113.464L223.328 122.049C223.328 122.049 220.574 122.796 218.835 121.814L219.683 115.539L223.714 113.464Z" fill="#FFB882"/>
<path d="M221.595 144.166L230.957 160.39L218.1 159.977L220.153 144.313L221.595 144.166Z" fill="#FFA645"/>
<path d="M220.862 217.089H226.695C226.695 217.089 222.942 215.089 222.282 215.089C221.213 215.089 220.862 217.089 220.862 217.089Z" fill="#FFEAC0"/>
<path d="M221.767 217.089H217.873C217.873 217.089 220.534 215.213 221.066 215.213C221.953 215.213 221.767 217.089 221.767 217.089Z" fill="#FFEAC0"/>
<path d="M208.413 136.39C208.475 137.332 205.122 138.363 204.599 136.363C204.315 135.279 205.264 132.27 206.289 132.421C207.167 132.546 208.369 135.727 208.413 136.39Z" fill="#FFEAC0"/>
<path d="M200.736 121.516C203.561 125.156 207.26 133.368 207.3 134.554C207.34 135.741 206.878 137.114 205.259 136.372C203.929 135.759 200.341 121.627 200.341 121.627L200.736 121.516Z" fill="#FFB882"/>
<path d="M205.095 134.803C206.382 135.394 206.94 134.634 207.091 133.71C207.194 133.982 207.264 134.266 207.3 134.554C207.344 135.723 206.878 137.114 205.259 136.372C203.929 135.759 200.341 121.627 200.341 121.627L200.571 121.561C201.534 125.218 204.031 134.31 205.095 134.803Z" fill="#FF9566"/>
<path d="M218.223 126.587L216.946 129.088L216.01 128.942L218.223 126.587Z" fill="#FF9566"/>
<path d="M229.653 145.299L231.055 160.399L221.138 159.382L221.595 144.166L229.653 145.299Z" fill="#FFC84D"/>
<path d="M224.668 137.016L225.014 137.243C227.316 139.465 227.298 145.006 227.298 145.006L226.353 144.868C226.779 139.94 224.668 137.016 224.668 137.016Z" fill="#F92B58"/>
<path d="M222.539 145.806L228.917 146.441L229.112 149.33L222.406 148.094L222.539 145.806Z" fill="#B7A63E"/>
<path d="M227.054 149.681L222.787 149.085L222.654 150.672L227.143 150.979L227.054 149.681Z" fill="#FFD878"/>
<path d="M228.753 152.041L226.3 151.778L226.22 153.378L228.802 153.334L228.753 152.041Z" fill="#B7A63E"/>
<g style="mix-blend-mode:multiply" opacity="0.6">
<path d="M218.388 128.115C213.252 127.386 215.625 122.614 216.228 122.289L216.272 122.236C216.491 122.102 216.739 122.025 216.995 122.009C217.6 121.855 218.22 121.764 218.845 121.738L219.687 115.517L223.714 113.442L223.329 122.014C223.729 122.089 224.122 122.199 224.504 122.343C224.768 122.395 225.025 122.481 225.267 122.601H225.289L225.351 122.645L225.382 122.676L225.413 122.712C225.426 122.732 225.435 122.755 225.44 122.778C225.717 123.013 225.936 123.308 226.083 123.64C224.499 123.018 223.457 128.84 218.388 128.115Z" fill="#843131"/>
</g>
<path d="M216.387 121.836C212.626 118.223 211.375 112.411 211.442 110.14C211.593 104.808 213.087 100.986 217.806 102.035C222.526 103.084 224.867 109.003 224.069 113.144C223.031 118.503 216.387 121.836 216.387 121.836Z" fill="#FFB882"/>
<path d="M224.003 115.997C221.599 107.687 211.442 104.71 214.924 101.333C214.924 101.333 221.133 97.6531 224.632 102.866C228.132 108.078 224.003 115.997 224.003 115.997Z" fill="#77232F"/>
<path d="M226.273 111.695C225.728 113.495 224.087 115.868 223.12 114.966C222.153 114.064 222.814 110.207 223.563 109.594C224.535 108.789 226.695 110.291 226.273 111.695Z" fill="#FFB882"/>
<path d="M225.515 111.864C225.187 112.953 224.185 114.388 223.608 113.842C223.031 113.295 223.422 110.962 223.87 110.593C224.464 110.105 225.768 111.016 225.515 111.864Z" fill="#EA7B59"/>
<path d="M224.77 112.9C224.562 113.611 223.914 114.544 223.533 114.188C223.151 113.833 223.413 112.313 223.706 112.073C224.087 111.758 224.939 112.349 224.77 112.9Z" fill="#FFB882"/>
<path d="M214.126 102.519C214.126 100.551 216.738 98.9641 219.625 98.9641C222.22 98.9641 224.131 100.297 224.131 101.893C224.131 103.488 222.211 105.074 219.607 105.403C216.707 105.768 214.112 104.483 214.126 102.519Z" fill="#932C36"/>
<path d="M219.275 134.981C218.059 134.537 216.281 134.808 215.655 134.354C215.168 133.999 215.292 132.346 215.655 132.217C216.019 132.088 219.062 134.194 219.062 134.194L219.275 134.981Z" fill="#FFB882"/>
<path d="M217.909 133.368C217.372 132.679 216.844 131.239 216.694 130.99C216.543 130.742 216.25 130.955 216.454 131.728C216.658 132.501 216.898 132.661 216.623 132.937C216.348 133.212 218.171 133.697 217.909 133.368Z" fill="#FFB882"/>
<path d="M215.851 132.981C215.217 132.537 213.709 131.435 213.837 131.204C213.966 130.973 216.255 132.484 216.255 132.484L215.851 132.981Z" fill="#FFB882"/>
<path d="M215.691 133.563C215.012 133.292 213.398 132.675 213.473 132.435C213.549 132.195 215.997 133.03 215.997 133.03L215.691 133.563Z" fill="#FFB882"/>
<path d="M216.104 134.523C215.385 134.412 213.682 134.163 213.722 133.923C213.762 133.683 216.299 133.923 216.299 133.923L216.104 134.523Z" fill="#FFB882"/>
<path d="M201.175 123.805C201.028 123.005 200.434 122.227 200.194 122.196C199.955 122.165 198.957 122.369 198.686 122.196C198.416 122.023 198.877 121.134 199.516 120.939C200.154 120.743 200.403 120.939 200.953 120.787C201.503 120.636 201.693 121.805 201.782 122.738C202.008 125.138 201.175 123.805 201.175 123.805Z" fill="#FFB882"/>
<path d="M198.81 122.258C198.114 122.196 196.77 121.339 196.699 121.076C196.628 120.814 198.42 121.792 198.771 121.77C199.121 121.747 198.81 122.258 198.81 122.258Z" fill="#FFB882"/>
<path d="M199.13 121.69C198.438 121.578 197.165 120.632 197.112 120.356C197.059 120.081 198.775 121.192 199.13 121.196C199.485 121.201 199.13 121.69 199.13 121.69Z" fill="#FFB882"/>
<path d="M199.88 121.37C199.201 121.21 198.008 120.17 197.977 119.899C197.946 119.628 199.569 120.854 199.92 120.881C200.27 120.907 199.88 121.37 199.88 121.37Z" fill="#FFB882"/>
<path d="M197.684 115.748H198.589L200.585 120.361V129.217H195.697L195.693 120.365L197.684 115.748Z" fill="#80BFBF"/>
<g style="mix-blend-mode:overlay" opacity="0.57">
<g style="mix-blend-mode:overlay" opacity="0.57">
<path d="M195.919 120.694L196.54 119.139C197.706 119.25 198.562 118.774 199.56 118.694L200.359 120.685V128.737H195.923L195.919 120.694Z" fill="#E8FCFB"/>
</g>
</g>
<g style="mix-blend-mode:multiply" opacity="0.61">
<path d="M196.119 119.383L196.403 127.333L200.585 128.346V129.217H195.697L195.693 120.365L196.119 119.383Z" fill="#80BFBF"/>
</g>
<g style="mix-blend-mode:overlay" opacity="0.58">
<path d="M196.952 120.312C196.952 120.139 196.952 119.965 196.952 119.788C196.952 119.61 196.952 119.405 196.952 119.219L197.999 116.61H198.708L200.27 120.485V121.116C199.227 121.663 197.95 121.307 196.952 120.312Z" fill="#E8FCFB"/>
</g>
<g style="mix-blend-mode:overlay" opacity="0.58">
<path d="M200.274 121.743V124.44C199.041 125.098 197.143 123.018 196.97 120.721C197.95 121.774 199.21 122.205 200.274 121.743Z" fill="#E8FCFB"/>
</g>
<g style="mix-blend-mode:multiply">
<path d="M196.203 119.183L197.684 115.748H198.571L199.236 117.286C198.23 117.192 197.147 117.912 196.203 119.183Z" fill="#80BFBF"/>
</g>
<path d="M197.454 116.109L198.82 116.109L198.82 115.384L197.454 115.385L197.454 116.109Z" fill="#C6E5E4"/>
<path d="M201.53 121.627C201.614 120.85 200.678 120.321 200.385 120.294C200.093 120.267 199.583 120.108 199.52 120.294C199.458 120.481 200.164 120.65 200.332 120.739C200.501 120.827 200.629 121.374 200.776 121.387C201.04 121.419 201.296 121.5 201.53 121.627V121.627Z" fill="#FFB882"/>
</svg>
