<svg width="300" height="300" viewBox="0 0 300 300" fill="none" xmlns="http://www.w3.org/2000/svg">
<path d="M137.628 76.592C137.628 76.592 135.79 66.4188 149.927 66.6277V76.592H137.628Z" fill="#FCA001"/>
<path d="M162.164 76.592C162.164 76.592 164.085 66.4188 149.928 66.6277V76.592H162.164Z" fill="#F58300"/>
<path d="M176.155 83.6736C176.155 90.1703 164.44 95.4554 149.99 95.4554C135.54 95.4554 123.805 90.1703 123.805 83.6736C123.805 77.1769 135.54 71.871 149.99 71.871C164.44 71.871 176.155 77.156 176.155 83.6736Z" fill="#FFB804"/>
<path d="M176.761 114.486C172.585 107.174 164.942 109.159 160.056 108.365C155.17 107.571 156.569 97.4816 156.569 97.4816L149.991 89.3973V132.514V159.545H170.873V132.514C172.335 138.028 181.481 122.633 176.761 114.486Z" fill="#F7A054"/>
<path d="M176.156 83.6736C176.156 77.156 164.441 71.871 149.991 71.871V95.4554C164.441 95.4554 176.156 90.1703 176.156 83.6736Z" fill="#FCA001"/>
<path d="M162.269 89.3974H162.018C162.116 88.5479 162.22 87.7332 162.332 86.9533C162.854 82.9007 164.044 72.6857 149.928 72.6857C135.812 72.6857 137.002 82.9007 137.629 86.9533C137.726 87.7332 137.831 88.5479 137.942 89.3974H137.629C135.541 87.7262 135.269 91.9041 136.167 93.3664C136.72 94.1517 137.13 95.0286 137.378 95.9567C137.712 96.9176 138.255 97.043 138.715 96.9385C138.715 97.5025 138.715 98.0039 138.861 98.3799C139.049 100.469 144.29 104.939 145.48 106.318C146.67 107.697 148.445 107.091 149.051 107.07H149.928H150.826C151.411 107.07 153.269 107.592 154.397 106.318C155.524 105.044 160.828 100.573 161.016 98.3799C161.016 98.0039 161.016 97.5025 161.162 96.9385C161.622 97.043 162.165 96.9385 162.499 95.9567C162.747 95.0286 163.157 94.1517 163.71 93.3664C164.608 91.9041 164.42 87.7262 162.269 89.3974Z" fill="#FFBA80"/>
<path d="M150.826 107.07C151.41 107.07 153.269 107.592 154.396 106.318C155.524 105.044 160.828 100.573 161.016 98.3799C161.016 98.0039 161.016 97.5025 161.162 96.9385C161.621 97.043 162.164 96.9385 162.498 95.9567C162.746 95.0286 163.156 94.1517 163.71 93.3664C164.608 91.9459 164.42 87.7889 162.269 89.3974H162.018C162.116 88.5479 162.22 87.7332 162.331 86.9533C162.853 82.9007 164.044 72.6857 149.928 72.6857V107.028L150.826 107.07Z" fill="#F7A054"/>
<path d="M149.99 182.168C149.99 182.168 146.983 184.382 146.273 202.013C145.417 223.154 144.582 232.429 144.582 232.429H130.716L129.108 202.055V159.545L149.99 158.166V182.168Z" fill="#172C57"/>
<path d="M149.991 81.5846C148.041 83.9562 145.409 85.6701 142.452 86.4937C143.096 85.787 143.586 84.9549 143.893 84.0496C142.258 85.7229 140.324 87.076 138.193 88.0395L137.817 88.2902C137.611 87.1865 137.486 86.0695 137.441 84.9478C137.253 82.462 148.466 78.3258 148.466 78.3258L150.095 80.3103L149.991 81.5846Z" fill="#693514"/>
<path d="M149.991 81.5847C151.347 83.6555 153.462 85.1109 155.88 85.6373C155.698 85.1969 155.551 84.7429 155.441 84.2794C157.415 85.832 159.584 87.1174 161.894 88.1022L162.103 88.8334C162.103 88.8334 162.395 87.0577 162.562 84.6554C162.729 82.2531 151.62 78.3885 151.62 78.3885L149.991 80.3731V81.5847Z" fill="#4F250A"/>
<path d="M137.378 85.8879C137.378 85.8879 139.466 81.2295 149.907 81.2295V71.871C149.907 71.871 137.378 71.6412 134.455 78.8899C131.531 86.1386 136.689 85.8879 136.689 85.8879H137.378Z" fill="#FFB804"/>
<path d="M162.498 85.8879C162.498 85.8879 160.41 81.2295 149.969 81.2295V71.871C149.969 71.871 162.498 71.6412 165.421 78.8899C168.345 86.1386 163.208 85.8879 163.208 85.8879H162.498Z" fill="#FCA001"/>
<path d="M149.99 182.168C149.99 182.168 152.976 184.382 153.686 202.013C154.563 223.154 155.398 232.429 155.398 232.429H169.243L170.85 202.055V159.545L149.969 158.166L149.99 182.168Z" fill="#0E1F42"/>
<path d="M170.518 231.99L171.541 208.531H162.27V231.99H170.518Z" fill="#B05D2A"/>
<path d="M154.02 231.99L152.976 208.531H162.268V231.99H154.02Z" fill="#B05D2A"/>
<path d="M153.665 234.539C153.665 232.256 154.571 230.067 156.185 228.453C157.798 226.839 159.987 225.932 162.268 225.932C164.55 225.932 166.738 226.839 168.352 228.453C169.965 230.067 170.872 232.256 170.872 234.539C170.872 234.539 170.767 235.123 169.974 235.123H154.542C154.35 235.15 154.154 235.106 153.992 234.998C153.831 234.89 153.714 234.727 153.665 234.539V234.539Z" fill="#853A0C"/>
<path d="M152.017 202.87C152.016 202.661 152.096 202.46 152.24 202.308C152.384 202.156 152.581 202.066 152.789 202.055H171.729C171.833 202.058 171.936 202.081 172.031 202.124C172.126 202.166 172.212 202.227 172.284 202.302C172.356 202.378 172.412 202.467 172.449 202.564C172.487 202.662 172.504 202.766 172.502 202.87V209.471C172.504 209.574 172.486 209.677 172.449 209.773C172.411 209.869 172.355 209.957 172.283 210.031C172.211 210.105 172.125 210.164 172.029 210.204C171.934 210.244 171.832 210.265 171.729 210.265H152.789C152.582 210.259 152.386 210.173 152.242 210.025C152.097 209.877 152.017 209.678 152.017 209.471V202.87Z" fill="#853A0C"/>
<path d="M129.464 231.99L128.42 208.531H137.712V231.99H129.464Z" fill="#B36434"/>
<path d="M145.959 231.99L146.982 208.531H137.711V231.99H145.959Z" fill="#B36434"/>
<path d="M146.315 234.539C146.315 232.256 145.408 230.067 143.795 228.453C142.182 226.839 139.993 225.932 137.712 225.932C135.43 225.932 133.242 226.839 131.628 228.453C130.015 230.067 129.108 232.256 129.108 234.539C129.158 234.727 129.274 234.89 129.436 234.998C129.597 235.106 129.793 235.15 129.985 235.123H145.417C146.21 235.123 146.315 234.539 146.315 234.539Z" fill="#964514"/>
<path d="M147.944 202.87C147.947 202.766 147.929 202.662 147.892 202.564C147.854 202.467 147.798 202.378 147.726 202.302C147.655 202.227 147.569 202.166 147.473 202.124C147.378 202.081 147.275 202.058 147.171 202.055H128.232C128.023 202.066 127.826 202.156 127.683 202.308C127.539 202.46 127.459 202.661 127.459 202.87V209.471C127.459 209.678 127.54 209.877 127.684 210.025C127.828 210.173 128.025 210.259 128.232 210.265H147.171C147.275 210.265 147.377 210.244 147.472 210.204C147.567 210.164 147.653 210.105 147.725 210.031C147.797 209.957 147.854 209.869 147.891 209.773C147.929 209.677 147.947 209.574 147.944 209.471V202.87Z" fill="#964514"/>
<path d="M129.108 159.545V133.516H131.76L131.531 108.762L137.378 108.616V133.516H149.927V159.545H129.108Z" fill="#172C57"/>
<path d="M170.768 159.545V133.516H168.116L168.345 108.762L162.498 108.616V133.516H149.928V159.545H170.768Z" fill="#0E1F42"/>
<path d="M167.114 133.475C167.114 133.918 166.938 134.343 166.624 134.656C166.311 134.97 165.886 135.146 165.443 135.146C165 135.146 164.575 134.97 164.262 134.656C163.948 134.343 163.772 133.918 163.772 133.475C163.772 133.031 163.948 132.606 164.262 132.293C164.575 131.979 165 131.803 165.443 131.803C165.886 131.803 166.311 131.979 166.624 132.293C166.938 132.606 167.114 133.031 167.114 133.475Z" fill="#747474"/>
<path d="M132.826 133.474C132.826 133.809 132.925 134.136 133.111 134.415C133.297 134.693 133.561 134.91 133.87 135.038C134.179 135.166 134.519 135.199 134.848 135.134C135.176 135.069 135.477 134.908 135.714 134.671C135.95 134.434 136.111 134.133 136.176 133.805C136.242 133.476 136.208 133.136 136.08 132.827C135.952 132.518 135.735 132.253 135.457 132.068C135.179 131.882 134.852 131.782 134.518 131.782C134.069 131.782 133.639 131.961 133.322 132.278C133.004 132.595 132.826 133.026 132.826 133.474V133.474Z" fill="#9A9A9A"/>
<path d="M156.568 97.4816C156.568 97.4816 155.274 107.592 160.056 108.365C164.838 109.138 172.585 107.174 176.761 114.486C182.676 124.995 187.197 136.231 190.209 147.909C192.172 156.265 191.357 156.787 177.408 164.328C170.476 168.026 171.039 168.047 165.401 169.196C160.306 170.219 161.1 162.615 165.401 160.192C172.376 156.286 180.019 153.299 180.457 151.607C181.355 148.787 172.271 138.07 170.789 132.555V159.545H149.907V132.514V89.3973L156.568 97.4816Z" fill="#F7A054"/>
<path d="M159.575 108.24C159.75 108.31 159.932 108.36 160.118 108.386C161.552 108.569 162.995 108.66 164.441 108.658H165.004C167.656 108.658 169.515 108.804 169.515 108.804C178.473 108.992 186.22 130.257 186.22 130.257L172.543 137.861L170.851 134.435V156.913L165.965 159.545H150.032V132.514V117.891L159.575 108.24Z" fill="#77BBE6"/>
<path d="M143.35 97.4816C143.35 97.4816 144.624 107.592 139.863 108.365C135.102 109.138 127.334 107.174 123.158 114.486C117.251 124.999 112.731 136.234 109.71 147.909C107.747 156.265 108.561 156.787 122.531 164.328C129.38 168.026 128.942 168.047 134.476 169.154C139.571 170.178 138.756 162.574 134.476 160.151C127.501 156.244 119.963 153.257 119.42 151.565C118.501 148.745 127.606 138.028 129.067 132.514V159.545H149.949V132.514V89.3973L143.35 97.4816Z" fill="#FFBA80"/>
<path d="M140.406 108.24C140.231 108.308 140.049 108.357 139.863 108.386C138.428 108.554 136.985 108.63 135.54 108.616H134.956C132.304 108.616 130.466 108.762 130.466 108.762C121.508 108.95 113.761 130.216 113.761 130.216L127.438 137.861L129.109 134.435V157.414L133.452 159.545H149.97V132.514V117.891L140.406 108.24Z" fill="#A6DAF5"/>
<path d="M119.713 155.346H160.139C160.599 155.346 160.139 155.722 160.139 156.202V163.764C160.149 163.806 160.149 163.849 160.139 163.89C160.11 164.091 160.009 164.275 159.856 164.409C159.703 164.543 159.508 164.618 159.304 164.621H119.713C119.507 164.619 119.308 164.545 119.152 164.411C118.995 164.277 118.891 164.093 118.856 163.89V156.202C118.856 155.975 118.947 155.757 119.107 155.597C119.268 155.436 119.486 155.346 119.713 155.346V155.346Z" fill="#424C57"/>
<g style="mix-blend-mode:multiply">
<path d="M118.835 163.89H160.034C160.005 164.091 159.904 164.275 159.751 164.409C159.598 164.543 159.403 164.618 159.199 164.621H119.712C119.503 164.624 119.299 164.552 119.138 164.418C118.977 164.284 118.87 164.096 118.835 163.89V163.89Z" fill="#D1D3D4"/>
</g>
<path opacity="0.2" d="M118.835 156.077H160.034C160.034 155.659 160.515 155.346 160.034 155.346H119.712C119.501 155.339 119.296 155.409 119.134 155.544C118.972 155.679 118.866 155.869 118.835 156.077V156.077Z" fill="white"/>
<path d="M140.991 156.766H121.425V163.2H140.991V156.766Z" fill="#F7F7F7"/>
<path d="M123.638 156.766H121.425V163.2H123.638V156.766Z" fill="#D1D3D4"/>
<path d="M126.352 156.766H126.102V163.2H126.352V156.766Z" fill="#D9DADC"/>
<path d="M128.941 156.766H128.69V163.2H128.941V156.766Z" fill="#D9DADC"/>
<path d="M131.531 156.766H131.28V163.2H131.531V156.766Z" fill="#D9DADC"/>
<path d="M134.1 156.766H133.85V163.2H134.1V156.766Z" fill="#D9DADC"/>
<path d="M136.689 156.766H136.438V163.2H136.689V156.766Z" fill="#D9DADC"/>
<path d="M150.554 157.414C151.065 157.397 151.57 157.534 152.003 157.806C152.436 158.078 152.779 158.473 152.986 158.941C153.193 159.409 153.256 159.928 153.167 160.431C153.077 160.935 152.839 161.401 152.484 161.769C152.128 162.136 151.671 162.389 151.17 162.496C150.67 162.602 150.149 162.556 149.675 162.364C149.201 162.172 148.795 161.843 148.509 161.419C148.223 160.995 148.07 160.495 148.069 159.983C148.069 159.316 148.328 158.675 148.792 158.195C149.256 157.716 149.888 157.436 150.554 157.414V157.414Z" fill="#E2D4A7"/>
<path d="M150.554 157.853C151.108 157.853 151.639 158.073 152.031 158.465C152.422 158.856 152.642 159.388 152.642 159.942C152.642 160.496 152.422 161.027 152.031 161.419C151.639 161.811 151.108 162.031 150.554 162.031C150 162.031 149.469 161.811 149.077 161.419C148.686 161.027 148.466 160.496 148.466 159.942C148.466 159.388 148.686 158.856 149.077 158.465C149.469 158.073 150 157.853 150.554 157.853Z" fill="#323033"/>
<path d="M177.304 164.621H159.492C159.345 164.622 159.2 164.592 159.066 164.533C158.932 164.474 158.812 164.387 158.714 164.279C158.615 164.171 158.541 164.043 158.495 163.904C158.449 163.765 158.433 163.618 158.448 163.472V156.349C158.463 156.082 158.575 155.83 158.764 155.641C158.953 155.453 159.204 155.34 159.471 155.325H177.45C177.45 155.325 177.596 155.325 177.596 155.471V155.889C177.596 155.905 177.593 155.922 177.587 155.937C177.58 155.952 177.571 155.966 177.559 155.978C177.548 155.989 177.534 155.999 177.519 156.005C177.504 156.011 177.487 156.014 177.471 156.014L166.132 156.223L167.051 163.723L177.325 163.952C177.365 163.958 177.403 163.977 177.429 164.008C177.456 164.039 177.471 164.079 177.471 164.12V164.454C177.474 164.477 177.473 164.5 177.465 164.522C177.458 164.544 177.446 164.564 177.43 164.58C177.413 164.596 177.394 164.608 177.372 164.615C177.35 164.623 177.326 164.624 177.304 164.621V164.621Z" fill="#616F80"/>
<path d="M159.429 163.18C159.429 163.639 159.993 164.036 160.431 164.036H176.886V156.077H160.327C160.141 156.071 159.957 156.122 159.8 156.223C159.644 156.323 159.521 156.469 159.45 156.641L159.429 163.18Z" fill="#F2F2F2"/>
<g style="mix-blend-mode:multiply">
<path d="M159.449 156.662H176.885V156.077H160.326C160.138 156.073 159.952 156.127 159.796 156.231C159.639 156.336 159.518 156.486 159.449 156.662Z" fill="#D6D6D6"/>
</g>
<g opacity="0.6">
<path opacity="0.6" d="M176.886 158.062H159.429V158.103H176.886V158.062Z" fill="#666666"/>
</g>
<g opacity="0.6">
<path opacity="0.6" d="M176.886 158.73H159.429V158.772H176.886V158.73Z" fill="#666666"/>
</g>
<g opacity="0.6">
<path opacity="0.6" d="M176.886 160.067H159.429V160.109H176.886V160.067Z" fill="#666666"/>
</g>
<g opacity="0.6">
<path opacity="0.6" d="M176.886 161.404H159.429V161.446H176.886V161.404Z" fill="#666666"/>
</g>
<g opacity="0.6">
<path opacity="0.6" d="M176.886 162.052H159.429V162.093H176.886V162.052Z" fill="#666666"/>
</g>
<g opacity="0.6">
<path opacity="0.6" d="M176.886 163.388H159.429V163.43H176.886V163.388Z" fill="#666666"/>
</g>
<path d="M119.461 136.754H159.888C160.347 136.754 159.888 137.13 159.888 137.611V145.173C159.897 145.214 159.897 145.257 159.888 145.298C159.862 145.501 159.763 145.688 159.609 145.822C159.455 145.957 159.257 146.031 159.052 146.029H119.461C119.254 146.031 119.053 145.958 118.896 145.824C118.738 145.69 118.635 145.503 118.604 145.298V137.611C118.604 137.383 118.695 137.166 118.855 137.005C119.016 136.844 119.234 136.754 119.461 136.754V136.754Z" fill="#F0BA32"/>
<g style="mix-blend-mode:multiply">
<path d="M118.604 145.298H159.783C159.758 145.501 159.658 145.688 159.504 145.822C159.35 145.957 159.152 146.031 158.948 146.029H119.461C119.254 146.031 119.053 145.959 118.896 145.824C118.738 145.69 118.635 145.503 118.604 145.298V145.298Z" fill="#D1D3D4"/>
</g>
<path opacity="0.2" d="M118.604 137.485H159.783C159.783 137.088 160.263 136.775 159.783 136.775H119.461C119.258 136.776 119.062 136.848 118.906 136.977C118.75 137.107 118.643 137.286 118.604 137.485V137.485Z" fill="white"/>
<path d="M140.74 138.175H121.174V144.609H140.74V138.175Z" fill="#F7F7F7"/>
<path d="M123.387 138.175H121.174V144.609H123.387V138.175Z" fill="#FEF08F"/>
<path d="M126.102 138.175H125.852V144.609H126.102V138.175Z" fill="#D9DADC"/>
<path d="M128.691 138.175H128.44V144.609H128.691V138.175Z" fill="#D9DADC"/>
<path d="M131.28 138.175H131.029V144.609H131.28V138.175Z" fill="#D9DADC"/>
<path d="M133.849 138.175H133.599V144.609H133.849V138.175Z" fill="#D9DADC"/>
<path d="M136.438 138.175H136.188V144.609H136.438V138.175Z" fill="#D9DADC"/>
<path d="M150.305 138.822C150.813 138.822 151.309 138.973 151.732 139.255C152.154 139.538 152.483 139.939 152.678 140.408C152.872 140.878 152.923 141.395 152.824 141.893C152.725 142.391 152.48 142.849 152.121 143.209C151.762 143.568 151.304 143.813 150.806 143.912C150.308 144.011 149.791 143.96 149.322 143.766C148.853 143.571 148.451 143.242 148.169 142.819C147.887 142.397 147.736 141.9 147.736 141.392C147.736 140.71 148.007 140.057 148.489 139.575C148.97 139.093 149.624 138.822 150.305 138.822V138.822Z" fill="#E2D4A7"/>
<path d="M150.304 139.282C150.717 139.282 151.121 139.404 151.464 139.634C151.808 139.863 152.075 140.19 152.233 140.571C152.391 140.953 152.433 141.373 152.352 141.778C152.271 142.184 152.073 142.556 151.781 142.848C151.489 143.14 151.116 143.339 150.711 143.42C150.306 143.5 149.886 143.459 149.505 143.301C149.123 143.143 148.797 142.875 148.568 142.531C148.338 142.188 148.216 141.784 148.216 141.371C148.216 140.817 148.436 140.285 148.827 139.894C149.219 139.502 149.75 139.282 150.304 139.282Z" fill="#323033"/>
<path d="M177.053 146.05H159.241C159.093 146.048 158.948 146.015 158.814 145.954C158.68 145.893 158.56 145.804 158.462 145.694C158.364 145.584 158.29 145.455 158.244 145.315C158.198 145.175 158.182 145.027 158.197 144.88V137.757C158.212 137.489 158.329 137.237 158.522 137.051C158.716 136.865 158.972 136.759 159.241 136.754H177.303C177.324 136.754 177.345 136.758 177.364 136.767C177.384 136.775 177.401 136.788 177.415 136.804C177.429 136.82 177.439 136.839 177.445 136.859C177.451 136.879 177.452 136.9 177.449 136.921V137.318C177.444 137.352 177.429 137.383 177.407 137.408C177.385 137.434 177.356 137.454 177.324 137.464L165.985 137.652L166.862 145.173L177.136 145.402C177.177 145.408 177.214 145.427 177.241 145.458C177.268 145.489 177.283 145.529 177.282 145.57V145.904C177.282 145.904 177.136 146.029 177.053 146.05Z" fill="#FFD15F"/>
<path d="M159.178 138.196V144.588C159.178 145.047 159.742 145.444 160.18 145.444H176.635V137.506H160.076C159.7 137.527 159.199 137.861 159.178 138.196Z" fill="#F2F2F2"/>
<path d="M159.178 144.588C159.178 145.047 159.742 145.444 160.18 145.444H176.635V137.506H160.076C159.888 137.505 159.704 137.56 159.547 137.664C159.391 137.768 159.27 137.917 159.199 138.091L159.178 144.588Z" fill="#F2F2F2"/>
<g style="mix-blend-mode:multiply">
<path d="M159.2 138.091H176.636V137.485H160.077C159.887 137.486 159.701 137.544 159.545 137.652C159.388 137.76 159.268 137.913 159.2 138.091V138.091Z" fill="#D6D6D6"/>
</g>
<g opacity="0.6">
<path opacity="0.6" d="M176.636 139.47H159.179V139.512H176.636V139.47Z" fill="#666666"/>
</g>
<g opacity="0.6">
<path opacity="0.6" d="M176.636 140.138H159.179V140.18H176.636V140.138Z" fill="#666666"/>
</g>
<g opacity="0.6">
<path opacity="0.6" d="M176.636 141.475H159.179V141.517H176.636V141.475Z" fill="#666666"/>
</g>
<g opacity="0.6">
<path opacity="0.6" d="M176.636 142.812H159.179V142.854H176.636V142.812Z" fill="#666666"/>
</g>
<g opacity="0.6">
<path opacity="0.6" d="M176.636 143.481H159.179V143.522H176.636V143.481Z" fill="#666666"/>
</g>
<g opacity="0.6">
<path opacity="0.6" d="M176.636 144.797H159.179V144.838H176.636V144.797Z" fill="#666666"/>
</g>
<path d="M116.977 146.05H157.404C157.864 146.05 157.404 146.426 157.404 146.906V154.573C157.404 154.573 157.404 154.573 157.404 154.698C157.374 154.9 157.274 155.084 157.121 155.218C156.968 155.352 156.772 155.427 156.569 155.429H116.977C116.865 155.429 116.753 155.407 116.65 155.364C116.546 155.321 116.451 155.258 116.372 155.179C116.292 155.099 116.229 155.005 116.186 154.901C116.143 154.797 116.121 154.685 116.121 154.573V146.906C116.121 146.679 116.211 146.461 116.372 146.301C116.532 146.14 116.75 146.05 116.977 146.05V146.05Z" fill="#E96F24"/>
<g style="mix-blend-mode:multiply">
<path d="M116.121 154.573H157.3C157.27 154.774 157.17 154.958 157.017 155.092C156.864 155.226 156.668 155.301 156.464 155.304H116.977C116.77 155.306 116.57 155.233 116.412 155.099C116.255 154.965 116.151 154.778 116.121 154.573V154.573Z" fill="#D1D3D4"/>
</g>
<path opacity="0.2" d="M116.121 146.781H157.3C157.3 146.363 157.78 146.05 157.3 146.05H116.977C116.77 146.048 116.57 146.121 116.412 146.255C116.255 146.389 116.151 146.576 116.121 146.781V146.781Z" fill="white"/>
<path d="M138.255 147.471H118.688V153.905H138.255V147.471Z" fill="#F7F7F7"/>
<path d="M120.902 147.471H118.688V153.905H120.902V147.471Z" fill="#FFE0B9"/>
<path d="M123.618 147.471H123.367V153.905H123.618V147.471Z" fill="#D9DADC"/>
<path d="M126.207 147.471H125.956V153.905H126.207V147.471Z" fill="#D9DADC"/>
<path d="M128.795 147.471H128.545V153.905H128.795V147.471Z" fill="#D9DADC"/>
<path d="M131.364 147.471H131.113V153.905H131.364V147.471Z" fill="#D9DADC"/>
<path d="M133.953 147.471H133.702V153.905H133.953V147.471Z" fill="#D9DADC"/>
<path d="M147.819 148.118C148.327 148.118 148.824 148.269 149.246 148.551C149.669 148.834 149.998 149.235 150.192 149.704C150.387 150.174 150.438 150.69 150.339 151.189C150.239 151.687 149.995 152.145 149.636 152.504C149.276 152.864 148.819 153.109 148.32 153.208C147.822 153.307 147.306 153.256 146.837 153.061C146.367 152.867 145.966 152.538 145.684 152.115C145.402 151.693 145.251 151.196 145.251 150.688C145.251 150.006 145.522 149.353 146.003 148.871C146.485 148.389 147.138 148.118 147.819 148.118Z" fill="#E2D4A7"/>
<path d="M147.819 148.578C148.232 148.578 148.635 148.7 148.979 148.93C149.322 149.159 149.59 149.486 149.748 149.867C149.906 150.249 149.947 150.669 149.867 151.074C149.786 151.479 149.587 151.852 149.295 152.144C149.003 152.436 148.631 152.635 148.226 152.715C147.821 152.796 147.401 152.755 147.02 152.597C146.638 152.438 146.312 152.171 146.082 151.827C145.853 151.484 145.73 151.08 145.73 150.667C145.73 150.113 145.95 149.581 146.342 149.19C146.734 148.798 147.265 148.578 147.819 148.578Z" fill="#323033"/>
<path d="M155.691 154.176C155.679 154.324 155.698 154.472 155.746 154.613C155.794 154.753 155.871 154.882 155.971 154.991C156.07 155.101 156.191 155.189 156.326 155.25C156.461 155.311 156.608 155.343 156.756 155.346H174.568C174.603 155.336 174.635 155.318 174.66 155.292C174.686 155.267 174.704 155.235 174.714 155.2V154.865C174.714 154.824 174.7 154.785 174.673 154.754C174.646 154.723 174.608 154.703 174.568 154.698H174.129L164.315 154.573L163.626 148.891L163.396 147.074L173.962 146.886H174.735C174.768 146.886 174.8 146.872 174.823 146.849C174.847 146.825 174.86 146.793 174.86 146.76V146.363C174.863 146.342 174.862 146.321 174.856 146.301C174.85 146.281 174.839 146.262 174.825 146.246C174.812 146.23 174.794 146.218 174.775 146.209C174.756 146.2 174.735 146.196 174.714 146.196H156.777C156.51 146.201 156.256 146.308 156.066 146.494C155.876 146.681 155.764 146.933 155.753 147.199L155.691 154.176Z" fill="#F28541"/>
<path d="M156.692 147.47V153.884C156.692 154.343 157.256 154.74 157.695 154.74H174.149V146.781H157.59C157.214 146.823 156.713 147.074 156.692 147.47Z" fill="#F2F2F2"/>
<path d="M156.692 153.884C156.692 154.343 157.256 154.74 157.695 154.74H174.149V146.802H157.59C157.402 146.798 157.216 146.851 157.06 146.956C156.903 147.061 156.782 147.211 156.713 147.387L156.692 153.884Z" fill="#F2F2F2"/>
<g style="mix-blend-mode:multiply">
<path d="M156.715 147.387H174.151V146.781H157.592C157.401 146.778 157.214 146.835 157.057 146.944C156.899 147.052 156.78 147.207 156.715 147.387V147.387Z" fill="#D6D6D6"/>
</g>
<g opacity="0.6">
<path opacity="0.6" d="M174.15 148.766H156.693V148.808H174.15V148.766Z" fill="#666666"/>
</g>
<g opacity="0.6">
<path opacity="0.6" d="M174.15 149.434H156.693V149.476H174.15V149.434Z" fill="#666666"/>
</g>
<g opacity="0.6">
<path opacity="0.6" d="M174.15 150.771H156.693V150.813H174.15V150.771Z" fill="#666666"/>
</g>
<g opacity="0.6">
<path opacity="0.6" d="M174.15 152.108H156.693V152.15H174.15V152.108Z" fill="#666666"/>
</g>
<g opacity="0.6">
<path opacity="0.6" d="M174.15 152.776H156.693V152.818H174.15V152.776Z" fill="#666666"/>
</g>
<g opacity="0.6">
<path opacity="0.6" d="M174.15 154.093H156.693V154.134H174.15V154.093Z" fill="#666666"/>
</g>
<g style="mix-blend-mode:multiply">
<path d="M158.175 146.05L158.697 146.802L160.075 148.766H174.149V146.677H174.734C174.75 146.677 174.767 146.673 174.782 146.667C174.797 146.661 174.811 146.652 174.823 146.64C174.834 146.628 174.843 146.615 174.85 146.599C174.856 146.584 174.859 146.568 174.859 146.551V146.154C174.862 146.134 174.861 146.112 174.855 146.092C174.849 146.072 174.838 146.053 174.825 146.037C174.811 146.021 174.794 146.009 174.774 146C174.755 145.992 174.734 145.987 174.713 145.987H158.175V146.05Z" fill="#D6D6D6"/>
</g>
<g style="mix-blend-mode:multiply">
<path d="M176.887 159.607H118.856V163.409H176.887V159.607Z" fill="#CCCCCC"/>
</g>
<path d="M165.214 133.683L175.216 132.158C174.569 131.532 173.629 131.615 172.418 131.49L165.214 133.683Z" fill="#B2B2B2"/>
<path d="M172.104 119.061L175.904 118.831C175.756 118.641 175.57 118.483 175.358 118.368C175.146 118.253 174.912 118.183 174.672 118.162C174.348 118.094 174.02 118.045 173.691 118.016L172.104 119.061Z" fill="#B2B2B2"/>
<path d="M169.452 128.294L172.814 128.022L175.299 127.813C175.125 127.566 174.887 127.371 174.61 127.249C174.109 127.057 173.58 126.951 173.044 126.936L172.668 127.082L169.452 128.294Z" fill="#B2B2B2"/>
<path d="M123.157 132.493C123.461 131.729 123.891 131.023 124.431 130.404L132.345 132.138L123.992 133.057L123.157 132.493Z" fill="#B2B2B2"/>
<path d="M123.011 122.152C125.179 120.739 127.645 119.846 130.215 119.541L146.92 121.066L123.95 122.8L123.011 122.152Z" fill="#B2B2B2"/>
<path d="M163.542 113.525C163.542 115.906 164.023 134.415 164.064 136.775H175.215V132.179C173.774 132.179 167.134 133.328 166.382 133.495C167.134 133.286 173.941 131.866 175.215 131.741C175.215 130.383 175.215 129.088 175.341 127.813C173.874 127.699 172.399 127.783 170.955 128.064C172.146 127.813 173.691 127.354 175.361 127.145C175.487 124.388 175.675 121.672 175.967 118.894C175.967 118.894 175.967 118.894 175.967 118.789C174.933 118.533 173.849 118.569 172.835 118.894C173.813 118.255 174.967 117.94 176.134 117.995C176.186 116.487 176.396 114.989 176.761 113.525C175.528 113.567 163.459 113.525 163.542 113.525Z" fill="#CFD9E9"/>
<path d="M163.542 113.546H122.009C122.364 116.721 122.74 118.016 122.907 120.586C129.621 120.328 136.344 120.495 143.037 121.087C130.675 120.356 123.825 121.442 122.907 122.173C123.053 125.014 123.136 128.001 123.157 131.093C125.931 131.142 128.69 131.499 131.385 132.158C126.853 131.427 123.7 132.033 123.157 132.514C123.157 133.454 122.907 135.772 122.907 136.817H164.064L163.542 113.546Z" fill="#F5F9FD"/>
<path d="M169.265 121.609C167.375 122.237 165.527 122.984 163.731 123.844C163.731 123.427 163.731 123.427 163.731 123.155C165.527 122.821 167.073 122.027 169.265 121.609Z" fill="#B2B2B2"/>
<path d="M167.887 130.069C166.507 130.557 165.178 131.18 163.92 131.929C160.39 131.236 156.819 130.775 153.229 130.55C156.791 130.508 160.351 130.739 163.878 131.239C165.716 130.905 165.695 130.487 167.887 130.069Z" fill="#B2B2B2"/>
<path d="M175.487 116.554C171.717 117.028 168.025 117.99 164.503 119.416C169.515 117.891 170.851 117.661 175.487 116.554Z" fill="#B2B2B2"/>
<path d="M147.923 127.417C142.005 126.256 135.962 125.87 129.944 126.268C138.255 126.351 140.385 126.665 147.923 127.417Z" fill="#B2B2B2"/>
<path d="M174.066 124.137C171.093 124.528 168.182 125.293 165.4 126.414C169.368 125.202 170.412 125.014 174.066 124.137Z" fill="#B2B2B2"/>
<path d="M161.956 119.061C159.114 121.502 156.955 124.641 155.691 128.169C144.332 121.672 137.336 118.434 124.118 115.948L161.956 119.061Z" fill="#B2B2B2"/>
<path d="M161.955 119.061C159.161 121.239 156.998 124.123 155.691 127.416C145.988 121.556 135.235 117.646 124.034 115.906L161.955 119.061Z" fill="white"/>
<g style="mix-blend-mode:multiply">
<path d="M157.947 136.796L163.439 138.822L175.175 136.817L157.947 136.796Z" fill="#CCCCCC"/>
</g>
</svg>
