<svg width="300" height="250" viewBox="0 0 300 250" fill="none" xmlns="http://www.w3.org/2000/svg">
<path d="M131.399 31.5568C131.399 31.5568 128.621 18.7408 149.992 19.004V31.5568H131.399Z" fill="#FCA001"/>
<path d="M168.491 31.5568C168.491 31.5568 171.395 18.7408 149.992 19.004V31.5568H168.491Z" fill="#F58300"/>
<path d="M189.641 40.4778C189.641 48.6621 171.932 55.3201 150.087 55.3201C128.243 55.3201 110.502 48.6621 110.502 40.4778C110.502 32.2935 128.243 25.6093 150.087 25.6093C171.932 25.6093 189.641 32.2672 189.641 40.4778Z" fill="#FFB804"/>
<path d="M190.558 79.2941C184.245 70.0835 172.691 72.5835 165.304 71.5835C157.918 70.5835 160.033 57.8728 160.033 57.8728L150.089 47.6885V102.005V136.058H181.656V102.005C183.866 108.952 197.692 89.5574 190.558 79.2941Z" fill="#F7A054"/>
<path d="M189.643 40.4778C189.643 32.2672 171.933 25.6093 150.089 25.6093V55.3201C171.933 55.3201 189.643 48.6621 189.643 40.4778Z" fill="#FCA001"/>
<path d="M168.649 47.6885H168.27C168.417 46.6183 168.575 45.592 168.743 44.6095C169.533 39.5042 171.332 26.6356 149.993 26.6356C128.653 26.6356 130.452 39.5042 131.399 44.6095C131.547 45.592 131.705 46.6183 131.873 47.6885H131.399C128.243 45.5832 127.832 50.8464 129.19 52.6885C130.026 53.6778 130.646 54.7825 131.021 55.9517C131.526 57.1623 132.346 57.3202 133.041 57.1886C133.041 57.8991 133.041 58.5307 133.262 59.0044C133.546 61.636 141.469 67.2676 143.269 69.0045C145.068 70.7414 147.751 69.9782 148.667 69.9519H149.993H151.35C152.234 69.9519 155.043 70.6098 156.748 69.0045C158.453 67.3992 166.471 61.7676 166.755 59.0044C166.755 58.5307 166.755 57.8991 166.976 57.1886C167.67 57.3202 168.491 57.1886 168.996 55.9517C169.371 54.7825 169.991 53.6778 170.827 52.6885C172.184 50.8464 171.9 45.5832 168.649 47.6885Z" fill="#FFBA80"/>
<path d="M151.35 69.9519C152.233 69.9519 155.043 70.6098 156.748 69.0045C158.452 67.3992 166.47 61.7676 166.754 59.0044C166.754 58.5307 166.754 57.8991 166.975 57.1886C167.67 57.3202 168.491 57.1886 168.996 55.9517C169.37 54.7825 169.99 53.6778 170.827 52.6885C172.184 50.899 171.9 45.6621 168.648 47.6885H168.27C168.417 46.6183 168.575 45.592 168.743 44.6095C169.532 39.5042 171.332 26.6356 149.992 26.6356V69.8993L151.35 69.9519Z" fill="#F7A054"/>
<path d="M150.087 164.558C150.087 164.558 145.541 167.348 144.468 189.558C143.174 216.19 141.911 227.875 141.911 227.875H120.95L118.52 189.611V136.058L150.087 134.321V164.558Z" fill="#172C57"/>
<path d="M150.088 37.8462C147.141 40.8338 143.162 42.993 138.692 44.0304C139.665 43.1402 140.406 42.0919 140.87 40.9515C138.398 43.0594 135.475 44.7641 132.252 45.9778L131.684 46.2936C131.374 44.9033 131.184 43.4961 131.116 42.083C130.832 38.9514 147.783 33.7408 147.783 33.7408L150.246 36.2409L150.088 37.8462Z" fill="#693514"/>
<path d="M150.089 37.8462C152.139 40.4551 155.335 42.2884 158.991 42.9516C158.716 42.3969 158.494 41.8249 158.328 41.241C161.311 43.1969 164.591 44.8162 168.082 46.0569L168.398 46.9779C168.398 46.9779 168.84 44.7411 169.092 41.7147C169.345 38.6884 152.551 33.8199 152.551 33.8199L150.089 36.3199V37.8462Z" fill="#4F250A"/>
<path d="M131.021 43.2675C131.021 43.2675 134.177 37.399 149.961 37.399V25.6094C149.961 25.6094 131.021 25.3199 126.601 34.4516C122.182 43.5833 129.979 43.2675 129.979 43.2675H131.021Z" fill="#FFB804"/>
<path d="M168.995 43.2675C168.995 43.2675 165.838 37.399 150.055 37.399V25.6094C150.055 25.6094 168.995 25.3199 173.414 34.4516C177.834 43.5833 170.068 43.2675 170.068 43.2675H168.995Z" fill="#FCA001"/>
<path d="M150.086 164.558C150.086 164.558 154.6 167.348 155.674 189.558C156.999 216.19 158.262 227.875 158.262 227.875H179.191L181.622 189.611V136.058L150.055 134.321L150.086 164.558Z" fill="#0E1F42"/>
<path d="M181.118 227.322L182.665 197.769H168.649V227.322H181.118Z" fill="#B05D2A"/>
<path d="M156.178 227.322L154.6 197.769H168.647V227.322H156.178Z" fill="#B05D2A"/>
<path d="M155.643 230.533C155.643 227.657 157.013 224.899 159.452 222.866C161.891 220.833 165.199 219.69 168.648 219.69C172.098 219.69 175.406 220.833 177.845 222.866C180.284 224.899 181.654 227.657 181.654 230.533C181.654 230.533 181.496 231.269 180.297 231.269H156.968C156.678 231.303 156.382 231.247 156.138 231.111C155.893 230.975 155.717 230.769 155.643 230.533V230.533Z" fill="#853A0C"/>
<path d="M153.15 190.637C153.15 190.374 153.271 190.121 153.488 189.93C153.706 189.739 154.003 189.625 154.318 189.611H182.95C183.107 189.615 183.263 189.644 183.407 189.697C183.551 189.751 183.68 189.827 183.789 189.923C183.897 190.018 183.982 190.13 184.039 190.253C184.095 190.375 184.122 190.506 184.118 190.637V198.953C184.122 199.083 184.095 199.213 184.038 199.334C183.981 199.455 183.896 199.566 183.787 199.659C183.678 199.752 183.548 199.826 183.404 199.877C183.26 199.927 183.106 199.953 182.95 199.953H154.318C154.006 199.947 153.709 199.838 153.491 199.651C153.272 199.465 153.15 199.214 153.15 198.953V190.637Z" fill="#853A0C"/>
<path d="M119.057 227.322L117.479 197.769H131.526V227.322H119.057Z" fill="#B36434"/>
<path d="M143.993 227.322L145.54 197.769H131.524V227.322H143.993Z" fill="#B36434"/>
<path d="M144.531 230.533C144.531 227.657 143.161 224.899 140.722 222.866C138.283 220.833 134.975 219.69 131.525 219.69C128.076 219.69 124.768 220.833 122.329 222.866C119.89 224.899 118.52 227.657 118.52 230.533C118.594 230.769 118.77 230.975 119.014 231.111C119.259 231.247 119.554 231.303 119.845 231.269H143.174C144.373 231.269 144.531 230.533 144.531 230.533Z" fill="#964514"/>
<path d="M146.994 190.637C146.998 190.506 146.971 190.375 146.915 190.253C146.858 190.13 146.773 190.018 146.665 189.923C146.556 189.827 146.427 189.751 146.283 189.697C146.139 189.644 145.983 189.615 145.826 189.611H117.194C116.879 189.625 116.582 189.739 116.364 189.93C116.147 190.121 116.026 190.374 116.026 190.637V198.953C116.026 199.214 116.148 199.465 116.366 199.651C116.585 199.838 116.882 199.947 117.194 199.953H145.826C145.982 199.953 146.136 199.927 146.28 199.877C146.424 199.826 146.554 199.752 146.663 199.659C146.772 199.566 146.857 199.455 146.914 199.334C146.971 199.213 146.998 199.083 146.994 198.953V190.637Z" fill="#964514"/>
<path d="M118.52 136.058V103.268H122.529L122.181 72.0834L131.02 71.8992V103.268H149.992V136.058H118.52Z" fill="#172C57"/>
<path d="M181.496 136.058V103.268H177.487L177.834 72.0834L168.996 71.8992V103.268H149.992V136.058H181.496Z" fill="#0E1F42"/>
<path d="M175.973 103.215C175.973 103.774 175.707 104.309 175.233 104.704C174.759 105.099 174.117 105.321 173.447 105.321C172.777 105.321 172.135 105.099 171.662 104.704C171.188 104.309 170.922 103.774 170.922 103.215C170.922 102.657 171.188 102.122 171.662 101.727C172.135 101.332 172.777 101.11 173.447 101.11C174.117 101.11 174.759 101.332 175.233 101.727C175.707 102.122 175.973 102.657 175.973 103.215Z" fill="#747474"/>
<path d="M124.14 103.215C124.14 103.637 124.29 104.049 124.571 104.4C124.852 104.75 125.251 105.023 125.718 105.185C126.185 105.346 126.699 105.388 127.195 105.306C127.691 105.224 128.147 105.021 128.505 104.723C128.862 104.425 129.106 104.045 129.204 103.631C129.303 103.218 129.252 102.789 129.059 102.4C128.865 102.01 128.538 101.677 128.117 101.443C127.697 101.209 127.202 101.084 126.697 101.084C126.018 101.084 125.368 101.308 124.889 101.708C124.409 102.108 124.14 102.65 124.14 103.215V103.215Z" fill="#9A9A9A"/>
<path d="M160.032 57.8728C160.032 57.8728 158.075 70.6098 165.304 71.5835C172.532 72.5572 184.244 70.0835 190.557 79.2941C199.499 92.5335 206.333 106.688 210.887 121.4C213.854 131.926 212.623 132.584 191.536 142.084C181.056 146.742 181.908 146.769 173.385 148.216C165.682 149.505 166.882 139.926 173.385 136.874C183.928 131.953 195.482 128.189 196.145 126.058C197.502 122.505 183.77 109.005 181.529 102.057V136.058H149.962V102.005V47.6885L160.032 57.8728Z" fill="#F7A054"/>
<path d="M164.577 71.4255C164.84 71.5145 165.116 71.5763 165.397 71.6097C167.564 71.8403 169.747 71.9546 171.932 71.9519H172.784C176.793 71.9519 179.603 72.1361 179.603 72.1361C193.145 72.3729 204.856 99.1627 204.856 99.1627L184.18 108.742L181.623 104.426V132.742L174.236 136.058H150.15V102.005V83.5836L164.577 71.4255Z" fill="#77BBE6"/>
<path d="M140.049 57.8728C140.049 57.8728 141.975 70.6098 134.777 71.5835C127.58 72.5572 115.837 70.0835 109.524 79.2941C100.595 92.5388 93.7617 106.692 89.1943 121.4C86.227 131.926 87.4581 132.584 108.577 142.084C118.931 146.742 118.268 146.769 126.633 148.163C134.335 149.453 133.104 139.874 126.633 136.821C116.09 131.9 104.694 128.137 103.873 126.005C102.484 122.452 116.247 108.952 118.457 102.005V136.058H150.024V102.005V47.6885L140.049 57.8728Z" fill="#FFBA80"/>
<path d="M135.598 71.4255C135.333 71.5114 135.058 71.5732 134.777 71.6097C132.609 71.821 130.426 71.9177 128.243 71.8992H127.359C123.35 71.8992 120.572 72.0834 120.572 72.0834C107.03 72.3203 95.3184 99.1101 95.3184 99.1101L115.995 108.742L118.52 104.426V133.374L125.086 136.058H150.056V102.005V83.5836L135.598 71.4255Z" fill="#A6DAF5"/>
<path d="M104.316 130.768H165.43C166.124 130.768 165.43 131.242 165.43 131.847V141.374C165.445 141.426 165.445 141.48 165.43 141.532C165.385 141.785 165.233 142.017 165.002 142.186C164.77 142.355 164.475 142.449 164.167 142.453H104.316C104.005 142.45 103.705 142.357 103.468 142.188C103.231 142.02 103.073 141.787 103.021 141.532V131.847C103.021 131.561 103.158 131.287 103.401 131.084C103.643 130.882 103.972 130.768 104.316 130.768V130.768Z" fill="#424C57"/>
<g style="mix-blend-mode:multiply">
<path d="M102.989 141.532H165.271C165.226 141.785 165.075 142.017 164.843 142.186C164.612 142.355 164.316 142.449 164.009 142.453H104.315C103.999 142.456 103.691 142.366 103.448 142.197C103.205 142.028 103.042 141.792 102.989 141.532V141.532Z" fill="#D1D3D4"/>
</g>
<path opacity="0.2" d="M102.989 131.689H165.271C165.271 131.163 165.997 130.768 165.271 130.768H104.315C103.997 130.759 103.686 130.848 103.441 131.018C103.197 131.188 103.036 131.427 102.989 131.689V131.689Z" fill="white"/>
<path d="M136.483 132.558H106.904V140.663H136.483V132.558Z" fill="#F7F7F7"/>
<path d="M110.25 132.558H106.904V140.663H110.25V132.558Z" fill="#D1D3D4"/>
<path d="M114.352 132.558H113.974V140.663H114.352V132.558Z" fill="#D9DADC"/>
<path d="M118.266 132.558H117.888V140.663H118.266V132.558Z" fill="#D9DADC"/>
<path d="M122.182 132.558H121.803V140.663H122.182V132.558Z" fill="#D9DADC"/>
<path d="M126.065 132.558H125.687V140.663H126.065V132.558Z" fill="#D9DADC"/>
<path d="M129.979 132.558H129.601V140.663H129.979V132.558Z" fill="#D9DADC"/>
<path d="M150.94 133.374C151.713 133.353 152.476 133.525 153.131 133.867C153.785 134.21 154.303 134.708 154.616 135.297C154.929 135.886 155.025 136.54 154.889 137.175C154.754 137.81 154.395 138.396 153.857 138.859C153.319 139.323 152.628 139.642 151.871 139.775C151.115 139.909 150.328 139.851 149.611 139.61C148.894 139.368 148.28 138.954 147.848 138.419C147.415 137.885 147.184 137.255 147.184 136.61C147.183 135.77 147.575 134.962 148.276 134.358C148.977 133.754 149.932 133.401 150.94 133.374V133.374Z" fill="#E2D4A7"/>
<path d="M150.939 133.926C151.776 133.926 152.579 134.204 153.171 134.697C153.763 135.191 154.096 135.86 154.096 136.558C154.096 137.256 153.763 137.925 153.171 138.419C152.579 138.912 151.776 139.19 150.939 139.19C150.102 139.19 149.299 138.912 148.707 138.419C148.115 137.925 147.782 137.256 147.782 136.558C147.782 135.86 148.115 135.191 148.707 134.697C149.299 134.204 150.102 133.926 150.939 133.926Z" fill="#323033"/>
<path d="M191.377 142.453H164.451C164.229 142.454 164.01 142.416 163.808 142.341C163.605 142.267 163.424 142.158 163.275 142.022C163.126 141.885 163.013 141.724 162.944 141.549C162.874 141.374 162.85 141.189 162.872 141.005V132.031C162.895 131.696 163.065 131.378 163.35 131.141C163.636 130.903 164.016 130.761 164.419 130.742H191.598C191.598 130.742 191.819 130.742 191.819 130.926V131.452C191.819 131.473 191.814 131.494 191.805 131.513C191.795 131.532 191.781 131.549 191.764 131.564C191.746 131.579 191.725 131.59 191.702 131.598C191.679 131.606 191.655 131.61 191.63 131.61L174.489 131.874L175.878 141.321L191.409 141.61C191.47 141.617 191.527 141.642 191.567 141.681C191.608 141.72 191.63 141.769 191.63 141.821V142.242C191.635 142.271 191.632 142.3 191.622 142.328C191.611 142.355 191.592 142.38 191.568 142.401C191.543 142.421 191.513 142.437 191.48 142.446C191.447 142.455 191.412 142.457 191.377 142.453V142.453Z" fill="#616F80"/>
<path d="M164.355 140.637C164.355 141.216 165.208 141.716 165.871 141.716H190.746V131.689H165.713C165.432 131.682 165.154 131.746 164.917 131.873C164.681 132 164.496 132.183 164.387 132.4L164.355 140.637Z" fill="#F2F2F2"/>
<g style="mix-blend-mode:multiply">
<path d="M164.387 132.426H190.745V131.689H165.713C165.428 131.684 165.147 131.752 164.91 131.883C164.673 132.015 164.49 132.205 164.387 132.426Z" fill="#D6D6D6"/>
</g>
<g opacity="0.6">
<path opacity="0.6" d="M190.746 134.189H164.355V134.242H190.746V134.189Z" fill="#666666"/>
</g>
<g opacity="0.6">
<path opacity="0.6" d="M190.746 135.032H164.355V135.084H190.746V135.032Z" fill="#666666"/>
</g>
<g opacity="0.6">
<path opacity="0.6" d="M190.746 136.716H164.355V136.768H190.746V136.716Z" fill="#666666"/>
</g>
<g opacity="0.6">
<path opacity="0.6" d="M190.746 138.4H164.355V138.453H190.746V138.4Z" fill="#666666"/>
</g>
<g opacity="0.6">
<path opacity="0.6" d="M190.746 139.216H164.355V139.268H190.746V139.216Z" fill="#666666"/>
</g>
<g opacity="0.6">
<path opacity="0.6" d="M190.746 140.9H164.355V140.953H190.746V140.9Z" fill="#666666"/>
</g>
<path d="M103.935 107.347H165.049C165.744 107.347 165.049 107.821 165.049 108.426V117.952C165.064 118.004 165.064 118.058 165.049 118.11C165.01 118.366 164.86 118.601 164.628 118.771C164.395 118.941 164.096 119.033 163.786 119.031H103.935C103.622 119.034 103.319 118.942 103.081 118.773C102.843 118.604 102.686 118.368 102.641 118.11V108.426C102.641 108.14 102.777 107.865 103.02 107.663C103.262 107.461 103.592 107.347 103.935 107.347V107.347Z" fill="#F0BA32"/>
<g style="mix-blend-mode:multiply">
<path d="M102.641 118.11H164.891C164.853 118.366 164.703 118.601 164.47 118.771C164.237 118.941 163.938 119.033 163.629 119.031H103.935C103.622 119.034 103.319 118.942 103.081 118.773C102.843 118.604 102.686 118.368 102.641 118.11V118.11Z" fill="#D1D3D4"/>
</g>
<path opacity="0.2" d="M102.641 108.268H164.891C164.891 107.768 165.617 107.373 164.891 107.373H103.935C103.628 107.375 103.332 107.465 103.096 107.628C102.86 107.791 102.699 108.017 102.641 108.268V108.268Z" fill="white"/>
<path d="M136.103 109.137H106.524V117.242H136.103V109.137Z" fill="#F7F7F7"/>
<path d="M109.871 109.137H106.524V117.242H109.871V109.137Z" fill="#FEF08F"/>
<path d="M113.975 109.137H113.596V117.242H113.975V109.137Z" fill="#D9DADC"/>
<path d="M117.889 109.137H117.51V117.242H117.889V109.137Z" fill="#D9DADC"/>
<path d="M121.803 109.137H121.424V117.242H121.803V109.137Z" fill="#D9DADC"/>
<path d="M125.686 109.137H125.308V117.242H125.686V109.137Z" fill="#D9DADC"/>
<path d="M129.6 109.137H129.221V117.242H129.6V109.137Z" fill="#D9DADC"/>
<path d="M150.562 109.952C151.33 109.952 152.081 110.142 152.72 110.498C153.358 110.854 153.856 111.359 154.15 111.951C154.444 112.542 154.52 113.193 154.371 113.821C154.221 114.449 153.851 115.025 153.308 115.478C152.765 115.931 152.073 116.239 151.32 116.364C150.567 116.489 149.786 116.425 149.077 116.18C148.367 115.935 147.761 115.52 147.334 114.988C146.907 114.455 146.68 113.829 146.68 113.189C146.68 112.331 147.089 111.507 147.817 110.9C148.545 110.293 149.533 109.952 150.562 109.952V109.952Z" fill="#E2D4A7"/>
<path d="M150.561 110.531C151.185 110.531 151.796 110.686 152.315 110.975C152.834 111.264 153.239 111.675 153.477 112.156C153.716 112.637 153.779 113.166 153.657 113.676C153.535 114.187 153.235 114.656 152.793 115.024C152.352 115.392 151.789 115.642 151.177 115.744C150.565 115.845 149.93 115.793 149.353 115.594C148.776 115.395 148.283 115.058 147.936 114.625C147.589 114.192 147.404 113.683 147.404 113.163C147.404 112.465 147.737 111.796 148.329 111.302C148.921 110.809 149.724 110.531 150.561 110.531Z" fill="#323033"/>
<path d="M190.998 119.058H164.071C163.849 119.055 163.629 119.014 163.427 118.936C163.224 118.859 163.043 118.748 162.894 118.609C162.746 118.471 162.634 118.308 162.565 118.132C162.496 117.955 162.471 117.769 162.493 117.584V108.61C162.517 108.273 162.693 107.955 162.985 107.721C163.278 107.486 163.666 107.353 164.071 107.347H191.377C191.409 107.347 191.441 107.352 191.47 107.363C191.499 107.374 191.525 107.39 191.546 107.41C191.567 107.43 191.582 107.453 191.591 107.479C191.6 107.504 191.603 107.531 191.598 107.557V108.057C191.589 108.1 191.567 108.139 191.534 108.171C191.501 108.204 191.457 108.228 191.409 108.242L174.268 108.479L175.594 117.952L191.125 118.242C191.186 118.248 191.242 118.273 191.283 118.312C191.324 118.351 191.346 118.401 191.346 118.452V118.873C191.346 118.873 191.125 119.031 190.998 119.058Z" fill="#FFD15F"/>
<path d="M163.976 109.163V117.216C163.976 117.795 164.828 118.295 165.491 118.295H190.366V108.294H165.333C164.765 108.321 164.007 108.742 163.976 109.163Z" fill="#F2F2F2"/>
<path d="M163.976 117.216C163.976 117.795 164.828 118.295 165.491 118.295H190.366V108.294H165.333C165.049 108.293 164.771 108.362 164.534 108.493C164.298 108.625 164.114 108.812 164.007 109.031L163.976 117.216Z" fill="#F2F2F2"/>
<g style="mix-blend-mode:multiply">
<path d="M164.01 109.031H190.368V108.268H165.336C165.048 108.268 164.767 108.341 164.53 108.478C164.294 108.614 164.112 108.807 164.01 109.031V109.031Z" fill="#D6D6D6"/>
</g>
<g opacity="0.6">
<path opacity="0.6" d="M190.368 110.768H163.978V110.821H190.368V110.768Z" fill="#666666"/>
</g>
<g opacity="0.6">
<path opacity="0.6" d="M190.368 111.61H163.978V111.663H190.368V111.61Z" fill="#666666"/>
</g>
<g opacity="0.6">
<path opacity="0.6" d="M190.368 113.294H163.978V113.347H190.368V113.294Z" fill="#666666"/>
</g>
<g opacity="0.6">
<path opacity="0.6" d="M190.368 114.979H163.978V115.031H190.368V114.979Z" fill="#666666"/>
</g>
<g opacity="0.6">
<path opacity="0.6" d="M190.368 115.821H163.978V115.873H190.368V115.821Z" fill="#666666"/>
</g>
<g opacity="0.6">
<path opacity="0.6" d="M190.368 117.479H163.978V117.531H190.368V117.479Z" fill="#666666"/>
</g>
<path d="M100.181 119.058H161.295C161.99 119.058 161.295 119.531 161.295 120.137V129.795C161.295 129.795 161.295 129.795 161.295 129.952C161.25 130.206 161.098 130.438 160.867 130.607C160.636 130.775 160.34 130.87 160.032 130.874H100.181C100.011 130.874 99.8427 130.846 99.6857 130.791C99.5287 130.737 99.386 130.658 99.2658 130.558C99.1456 130.457 99.0503 130.338 98.9852 130.207C98.9202 130.077 98.8867 129.936 98.8867 129.795V120.137C98.8867 119.85 99.0231 119.576 99.2658 119.374C99.5085 119.171 99.8377 119.058 100.181 119.058V119.058Z" fill="#E96F24"/>
<g style="mix-blend-mode:multiply">
<path d="M98.8867 129.795H161.137C161.092 130.048 160.941 130.28 160.709 130.449C160.478 130.618 160.182 130.712 159.875 130.716H100.181C99.8681 130.718 99.5647 130.627 99.3267 130.457C99.0888 130.288 98.9325 130.053 98.8867 129.795V129.795Z" fill="#D1D3D4"/>
</g>
<path opacity="0.2" d="M98.8867 119.979H161.137C161.137 119.452 161.863 119.058 161.137 119.058H100.181C99.8681 119.055 99.5647 119.147 99.3267 119.316C99.0888 119.485 98.9325 119.721 98.8867 119.979V119.979Z" fill="white"/>
<path d="M132.346 120.847H102.768V128.952H132.346V120.847Z" fill="#F7F7F7"/>
<path d="M106.114 120.847H102.768V128.952H106.114V120.847Z" fill="#FFE0B9"/>
<path d="M110.22 120.847H109.841V128.952H110.22V120.847Z" fill="#D9DADC"/>
<path d="M114.133 120.847H113.754V128.952H114.133V120.847Z" fill="#D9DADC"/>
<path d="M118.047 120.847H117.668V128.952H118.047V120.847Z" fill="#D9DADC"/>
<path d="M121.93 120.847H121.551V128.952H121.93V120.847Z" fill="#D9DADC"/>
<path d="M125.843 120.847H125.464V128.952H125.843V120.847Z" fill="#D9DADC"/>
<path d="M146.806 121.663C147.574 121.663 148.324 121.853 148.963 122.209C149.601 122.564 150.099 123.07 150.393 123.661C150.687 124.253 150.764 124.904 150.614 125.531C150.464 126.159 150.094 126.736 149.551 127.189C149.008 127.641 148.316 127.95 147.563 128.075C146.81 128.2 146.029 128.135 145.32 127.89C144.61 127.645 144.004 127.231 143.577 126.698C143.151 126.166 142.923 125.54 142.923 124.9C142.923 124.041 143.332 123.218 144.06 122.611C144.788 122.004 145.776 121.663 146.806 121.663Z" fill="#E2D4A7"/>
<path d="M146.804 122.242C147.429 122.242 148.039 122.396 148.558 122.685C149.077 122.975 149.482 123.386 149.721 123.866C149.96 124.347 150.022 124.876 149.9 125.387C149.778 125.897 149.478 126.366 149.036 126.734C148.595 127.102 148.032 127.353 147.42 127.455C146.808 127.556 146.173 127.504 145.596 127.305C145.019 127.106 144.526 126.768 144.179 126.336C143.833 125.903 143.647 125.394 143.647 124.874C143.647 124.176 143.98 123.506 144.572 123.013C145.164 122.519 145.967 122.242 146.804 122.242Z" fill="#323033"/>
<path d="M158.704 129.295C158.687 129.481 158.715 129.668 158.788 129.844C158.861 130.021 158.976 130.183 159.127 130.321C159.278 130.459 159.461 130.57 159.665 130.647C159.869 130.724 160.09 130.765 160.314 130.768H187.241C187.294 130.756 187.342 130.733 187.381 130.701C187.419 130.668 187.447 130.628 187.462 130.584V130.163C187.462 130.111 187.44 130.062 187.399 130.023C187.359 129.984 187.302 129.959 187.241 129.952H186.578L171.741 129.795L170.7 122.637L170.352 120.347L186.325 120.11H187.493C187.544 120.11 187.592 120.094 187.627 120.064C187.663 120.034 187.683 119.994 187.683 119.952V119.452C187.687 119.426 187.685 119.399 187.676 119.374C187.667 119.348 187.651 119.325 187.63 119.305C187.609 119.285 187.583 119.269 187.554 119.258C187.525 119.247 187.494 119.242 187.462 119.242H160.346C159.943 119.248 159.559 119.383 159.271 119.617C158.984 119.852 158.815 120.17 158.799 120.505L158.704 129.295Z" fill="#F28541"/>
<path d="M160.219 120.847V128.926C160.219 129.505 161.071 130.005 161.734 130.005H186.609V119.979H161.576C161.008 120.031 160.25 120.347 160.219 120.847Z" fill="#F2F2F2"/>
<path d="M160.219 128.926C160.219 129.505 161.071 130.005 161.734 130.005H186.609V120.005H161.576C161.291 119.999 161.011 120.067 160.774 120.199C160.537 120.331 160.354 120.52 160.25 120.742L160.219 128.926Z" fill="#F2F2F2"/>
<g style="mix-blend-mode:multiply">
<path d="M160.253 120.742H186.612V119.979H161.579C161.29 119.975 161.007 120.047 160.77 120.184C160.532 120.32 160.351 120.516 160.253 120.742V120.742Z" fill="#D6D6D6"/>
</g>
<g opacity="0.6">
<path opacity="0.6" d="M186.61 122.479H160.22V122.531H186.61V122.479Z" fill="#666666"/>
</g>
<g opacity="0.6">
<path opacity="0.6" d="M186.61 123.321H160.22V123.373H186.61V123.321Z" fill="#666666"/>
</g>
<g opacity="0.6">
<path opacity="0.6" d="M186.61 125.005H160.22V125.058H186.61V125.005Z" fill="#666666"/>
</g>
<g opacity="0.6">
<path opacity="0.6" d="M186.61 126.689H160.22V126.742H186.61V126.689Z" fill="#666666"/>
</g>
<g opacity="0.6">
<path opacity="0.6" d="M186.61 127.531H160.22V127.584H186.61V127.531Z" fill="#666666"/>
</g>
<g opacity="0.6">
<path opacity="0.6" d="M186.61 129.189H160.22V129.242H186.61V129.189Z" fill="#666666"/>
</g>
<g style="mix-blend-mode:multiply">
<path d="M162.46 119.058L163.249 120.005L165.333 122.479H186.609V119.847H187.493C187.518 119.847 187.542 119.843 187.565 119.835C187.588 119.827 187.609 119.816 187.627 119.801C187.644 119.786 187.658 119.769 187.668 119.75C187.677 119.731 187.682 119.71 187.682 119.689V119.189C187.687 119.163 187.684 119.136 187.675 119.111C187.666 119.085 187.651 119.062 187.63 119.042C187.609 119.022 187.583 119.006 187.554 118.995C187.525 118.984 187.493 118.978 187.461 118.979H162.46V119.058Z" fill="#D6D6D6"/>
</g>
<g style="mix-blend-mode:multiply">
<path d="M190.747 136.137H103.021V140.926H190.747V136.137Z" fill="#CCCCCC"/>
</g>
<path d="M173.101 103.479L188.221 101.558C187.243 100.768 185.822 100.873 183.991 100.715L173.101 103.479Z" fill="#B2B2B2"/>
<path d="M183.516 85.0573L189.261 84.7678C189.037 84.5283 188.755 84.3299 188.435 84.185C188.114 84.0401 187.762 83.9518 187.398 83.9257C186.909 83.8399 186.413 83.7784 185.915 83.7415L183.516 85.0573Z" fill="#B2B2B2"/>
<path d="M179.508 96.689L184.59 96.3469L188.347 96.0837C188.084 95.7718 187.724 95.526 187.305 95.3732C186.548 95.1309 185.748 94.9975 184.937 94.9785L184.369 95.1627L179.508 96.689Z" fill="#B2B2B2"/>
<path d="M109.523 101.979C109.982 101.017 110.633 100.127 111.449 99.3469L123.413 101.531L110.786 102.689L109.523 101.979Z" fill="#B2B2B2"/>
<path d="M109.302 88.9521C112.58 87.1721 116.307 86.0465 120.192 85.6626L145.446 87.5837L110.722 89.7679L109.302 88.9521Z" fill="#B2B2B2"/>
<path d="M170.574 78.0835C170.574 81.0835 171.3 104.4 171.363 107.373H188.22V101.584C186.042 101.584 176.003 103.031 174.867 103.242C176.003 102.979 186.294 101.189 188.22 101.031C188.22 99.3206 188.22 97.689 188.409 96.0837C186.193 95.9393 183.963 96.0455 181.78 96.3995C183.58 96.0837 185.916 95.5047 188.441 95.2416C188.63 91.7679 188.914 88.3468 189.356 84.8467C189.356 84.8467 189.356 84.8467 189.356 84.7152C187.794 84.3922 186.155 84.4377 184.621 84.8467C186.1 84.0417 187.845 83.6457 189.609 83.7151C189.687 81.8154 190.004 79.9278 190.556 78.0835C188.693 78.1361 170.448 78.0835 170.574 78.0835Z" fill="#CFD9E9"/>
<path d="M170.574 78.1098H107.787C108.324 82.1098 108.892 83.7414 109.145 86.9783C119.294 86.6537 129.458 86.8646 139.575 87.6099C120.888 86.6888 110.533 88.0573 109.145 88.9783C109.365 92.5573 109.492 96.3205 109.523 100.215C113.716 100.276 117.888 100.726 121.961 101.557C115.111 100.636 110.344 101.4 109.523 102.005C109.523 103.189 109.145 106.11 109.145 107.426H171.364L170.574 78.1098Z" fill="#F5F9FD"/>
<path d="M179.226 88.2679C176.369 89.059 173.575 89.9995 170.86 91.0837C170.86 90.5574 170.86 90.5574 170.86 90.2153C173.575 89.7942 175.911 88.7942 179.226 88.2679Z" fill="#B2B2B2"/>
<path d="M177.143 98.9259C175.056 99.5403 173.047 100.325 171.145 101.268C165.809 100.395 160.41 99.815 154.982 99.5312C160.368 99.4788 165.75 99.7691 171.082 100.4C173.86 99.9786 173.828 99.4522 177.143 98.9259Z" fill="#B2B2B2"/>
<path d="M188.631 81.8993C182.932 82.4963 177.35 83.7082 172.026 85.5046C179.603 83.5835 181.623 83.294 188.631 81.8993Z" fill="#B2B2B2"/>
<path d="M146.963 95.5838C138.016 94.1217 128.88 93.6352 119.783 94.1364C132.347 94.2417 135.567 94.6364 146.963 95.5838Z" fill="#B2B2B2"/>
<path d="M186.483 91.4521C181.989 91.9451 177.588 92.9089 173.383 94.3206C179.381 92.7943 180.959 92.5574 186.483 91.4521Z" fill="#B2B2B2"/>
<path d="M168.175 85.0573C163.879 88.1331 160.616 92.087 158.705 96.5311C141.533 88.3468 130.958 84.2678 110.976 81.1362L168.175 85.0573Z" fill="#B2B2B2"/>
<path d="M168.175 85.0573C163.95 87.801 160.681 91.4348 158.705 95.5838C144.036 88.2005 127.78 83.2751 110.849 81.0836L168.175 85.0573Z" fill="white"/>
<g style="mix-blend-mode:multiply">
<path d="M162.116 107.4L170.418 109.952L188.159 107.426L162.116 107.4Z" fill="#CCCCCC"/>
</g>
</svg>
