<svg width="300" height="300" viewBox="0 0 300 300" fill="none" xmlns="http://www.w3.org/2000/svg">
<path d="M140.709 138.227C140.709 138.227 131.857 155.045 129.275 156.245C126.693 157.446 114.866 151.145 113.062 149.633C111.259 148.121 109.173 147.536 107.789 147.318C106.405 147.099 103.918 147.56 103.825 143.309C103.731 139.057 103.456 136.011 106.316 136.749C109.177 137.488 109.543 137.396 110.189 138.042C110.834 138.689 111.253 141.246 112.407 141.646C120.025 144.311 121.073 144.511 123.193 145.527C125.312 146.543 128.099 136.659 130.816 134.348C131.868 133.45 140.709 138.227 140.709 138.227Z" fill="#F7A054"/>
<path d="M172.087 86.1579C172.087 86.1579 173.848 76.823 160.894 77.0026V86.1579H172.087Z" fill="#FCA001"/>
<path d="M149.705 86.1579C149.705 86.1579 147.945 76.823 160.9 77.0026V86.1579H149.705Z" fill="#F58300"/>
<path d="M136.881 92.6401C136.881 98.6177 147.616 103.465 160.854 103.465C174.092 103.465 184.825 98.6177 184.825 92.6401C184.825 86.6625 174.094 81.8171 160.854 81.8171C147.614 81.8171 136.881 86.6608 136.881 92.6401Z" fill="#FFB804"/>
<path d="M166.94 105.314C166.94 105.314 165.76 114.597 170.136 115.31C174.561 116.029 181.57 114.219 185.378 120.915C189.634 128.394 197.205 140.676 197.918 152.498C197.983 153.586 198.898 156.001 198.877 157.058C198.631 169.612 196.945 168.654 198.169 172.651C199.393 176.648 199.546 180.518 194.479 181.536C189.803 182.466 189.434 181.758 190.295 175.345C190.907 170.776 187.837 160.26 188.822 154.932C189.789 149.679 181.323 142.518 179.97 137.468V162.267H160.9V137.468H160.857V97.8925L166.94 105.314Z" fill="#FFBA80"/>
<path d="M136.334 120.915C140.146 114.219 147.152 116.029 151.579 115.31C155.953 114.597 154.773 105.314 154.773 105.314L160.857 97.8925V137.468H160.9V162.267H141.829V137.468H141.742C140.39 142.518 132.077 128.394 136.334 120.915Z" fill="#F7A054"/>
<path d="M136.881 92.6401C136.881 86.6539 147.616 81.8171 160.854 81.8171V103.465C147.616 103.465 136.881 98.6177 136.881 92.6401Z" fill="#FCA001"/>
<path d="M149.604 97.8925H149.831C149.736 97.1229 149.637 96.3652 149.548 95.6486C149.063 91.9355 147.973 82.568 160.9 82.568C173.828 82.568 172.739 91.9355 172.258 95.6486C172.166 96.3652 172.072 97.1229 171.975 97.8925H172.196C174.164 96.4336 174.331 100.243 173.511 101.544C172.828 102.623 172.816 102.741 172.408 103.925C172.103 104.799 171.603 104.917 171.183 104.821C171.128 105.334 171.084 105.789 171.051 106.15C170.869 108.155 166.068 112.164 164.983 113.417C163.959 114.594 162.252 114.134 161.718 114.11L160.904 114.071L160.092 114.11C159.547 114.134 157.844 114.594 156.827 113.417C155.74 112.164 150.939 108.155 150.756 106.15C150.726 105.789 150.678 105.339 150.625 104.821C150.207 104.917 149.705 104.799 149.403 103.925C148.993 102.736 148.978 102.623 148.295 101.544C147.473 100.249 147.64 96.4336 149.604 97.8925Z" fill="#FFBA80"/>
<path d="M160.088 114.103C159.544 114.127 157.84 114.587 156.823 113.41C155.736 112.157 150.936 108.148 150.753 106.143C150.722 105.782 150.674 105.332 150.621 104.814C150.203 104.91 149.702 104.792 149.4 103.918C148.99 102.729 148.975 102.616 148.292 101.537C147.473 100.236 147.64 96.4268 149.604 97.8857H149.831C149.736 97.116 149.637 96.3584 149.548 95.6417C149.063 91.9286 147.973 82.5612 160.9 82.5612V114.071L160.088 114.103Z" fill="#F7A054"/>
<path d="M160.858 183.012C160.858 183.012 163.6 185.054 164.259 201.232C165.044 220.614 165.805 229.128 165.805 229.128H178.494L179.97 201.273V162.262L160.856 160.995L160.858 183.012Z" fill="#172C57"/>
<path d="M160.854 90.7399C160.854 90.7399 163.344 94.0665 167.752 95.2364C167.752 95.2364 166.615 93.8185 166.537 92.9873C166.537 92.9873 169.428 95.9342 171.756 96.6628L172.097 96.892C172.097 96.892 172.29 96.0915 172.45 93.8134C172.611 91.5352 162.346 87.7349 162.346 87.7349L160.857 89.5649L160.854 90.7399Z" fill="#693514"/>
<path d="M160.854 90.7399C160.854 90.7399 159.699 93.0796 155.456 94.3863C155.623 93.9826 155.757 93.5662 155.857 93.1412C155.857 93.1412 152.273 95.9342 149.951 96.6628L149.758 97.3281C149.758 97.3281 149.49 95.7033 149.33 93.4268C149.169 91.1504 159.364 87.7383 159.364 87.7383L160.854 89.5683V90.7399Z" fill="#4F250A"/>
<path d="M172.396 94.6805C172.396 94.6805 170.536 90.4132 160.9 90.4132V81.8171C160.9 81.8171 172.287 81.6153 175.053 88.248C177.82 94.8806 173.026 94.6805 173.026 94.6805H172.396Z" fill="#FFB804"/>
<path d="M149.403 94.6805C149.403 94.6805 151.265 90.4132 160.9 90.4132V81.8171C160.9 81.8171 149.514 81.6153 146.746 88.248C143.978 94.8806 148.777 94.6805 148.777 94.6805H149.403Z" fill="#FCA001"/>
<path d="M160.858 183.012C160.858 183.012 158.114 185.054 157.455 201.232C156.67 220.614 155.909 229.128 155.909 229.128H143.22L141.742 201.273V162.262L160.856 160.995L160.858 183.012Z" fill="#0E1F42"/>
<path d="M142.053 228.733L141.109 207.2H149.611V228.733H142.053Z" fill="#B05D2A"/>
<path d="M157.168 228.733L158.114 207.2H149.611V228.733H157.168Z" fill="#B05D2A"/>
<path d="M157.492 231.06C157.492 226.519 153.963 222.835 149.611 222.835C145.259 222.835 141.73 226.519 141.73 231.06C141.73 231.06 141.827 231.604 142.544 231.604H156.68C157.395 231.604 157.494 231.06 157.494 231.06H157.492Z" fill="#853A0C"/>
<path d="M158.996 202.014C158.999 201.822 158.927 201.636 158.795 201.498C158.662 201.359 158.481 201.278 158.289 201.273H140.935C140.743 201.278 140.561 201.359 140.428 201.497C140.295 201.636 140.222 201.822 140.225 202.014V208.061C140.222 208.253 140.296 208.439 140.428 208.577C140.561 208.715 140.743 208.795 140.935 208.8H158.289C158.48 208.795 158.662 208.715 158.794 208.577C158.926 208.438 158.999 208.253 158.996 208.061V202.014Z" fill="#853A0C"/>
<path d="M169.633 115.18C169.796 115.24 169.964 115.285 170.135 115.316C171.304 115.507 172.662 115.523 174.085 115.562C174.263 115.546 174.442 115.54 174.621 115.543C177.048 115.582 178.739 115.665 178.739 115.665C186.945 115.851 194.044 135.349 194.044 135.349L181.506 142.361L179.97 139.221V162.259H160.9L160.857 137.459V123.975L169.633 115.18Z" fill="#A6DAF5"/>
<path d="M152.081 115.18C151.919 115.24 151.752 115.285 151.582 115.316C150.41 115.507 149.051 115.523 147.628 115.562C147.451 115.546 147.272 115.54 147.094 115.543C144.665 115.582 142.976 115.665 142.976 115.665C134.769 115.851 127.669 135.349 127.669 135.349L140.21 142.361L141.745 139.221V162.259H160.813L160.858 137.459V123.975L152.081 115.18Z" fill="#77BBE6"/>
<path d="M179.659 228.733L180.601 207.2H172.101V228.733H179.659Z" fill="#B36434"/>
<path d="M164.544 228.733L163.6 207.2H172.101V228.733H164.544Z" fill="#B36434"/>
<path d="M164.22 231.06C164.22 226.519 167.751 222.835 172.101 222.835C176.451 222.835 179.984 226.519 179.984 231.06C179.984 231.06 179.885 231.604 179.168 231.604H165.034C164.317 231.604 164.22 231.06 164.22 231.06V231.06Z" fill="#964514"/>
<path d="M162.718 202.014C162.714 201.822 162.786 201.636 162.918 201.497C163.051 201.358 163.233 201.278 163.424 201.273H180.779C180.971 201.278 181.152 201.359 181.285 201.497C181.418 201.636 181.49 201.822 181.487 202.014V208.061C181.49 208.253 181.417 208.438 181.285 208.577C181.152 208.715 180.97 208.795 180.779 208.8H163.424C163.233 208.796 163.051 208.716 162.919 208.577C162.787 208.439 162.714 208.253 162.718 208.061V202.014Z" fill="#964514"/>
<path d="M179.97 162.262V138.371H177.552L177.757 115.661L172.41 115.538V138.371H160.9V162.262H179.97Z" fill="#172C57"/>
<path d="M141.829 162.262V138.371H144.249L144.044 115.661L149.389 115.538V138.371H160.9V162.262H141.829Z" fill="#0E1F42"/>
<path d="M106.321 136.749C107.954 137.174 108.332 137.242 108.808 137.765C109.526 138.554 109.07 146.575 107.794 146.762C106.41 146.96 103.923 147.56 103.83 143.308C103.736 139.057 103.461 136.011 106.321 136.749Z" fill="#ED8E3B"/>
<path d="M145.162 138.338C145.162 138.643 145.252 138.94 145.421 139.194C145.59 139.447 145.83 139.644 146.11 139.76C146.391 139.877 146.7 139.907 146.998 139.848C147.296 139.789 147.569 139.642 147.784 139.427C147.999 139.212 148.145 138.937 148.204 138.639C148.264 138.34 148.233 138.031 148.117 137.749C148.001 137.468 147.804 137.228 147.551 137.058C147.299 136.889 147.002 136.799 146.698 136.799C146.291 136.799 145.9 136.961 145.612 137.25C145.324 137.539 145.162 137.93 145.162 138.338Z" fill="#747474"/>
<path d="M176.564 138.338C176.564 138.643 176.474 138.94 176.305 139.194C176.136 139.447 175.896 139.644 175.615 139.76C175.335 139.877 175.026 139.907 174.728 139.848C174.43 139.789 174.156 139.642 173.942 139.427C173.727 139.212 173.58 138.937 173.521 138.639C173.462 138.34 173.492 138.031 173.609 137.749C173.725 137.468 173.922 137.228 174.174 137.058C174.427 136.889 174.724 136.799 175.028 136.799C175.435 136.799 175.826 136.961 176.114 137.25C176.402 137.539 176.564 137.93 176.564 138.338Z" fill="#9A9A9A"/>
<path d="M189.723 179.983L149.959 147.641L153.714 143.004L190.347 172.796C190.347 172.796 191.001 181.021 189.723 179.983Z" fill="#404259"/>
<g opacity="0.52">
<path opacity="0.52" d="M130.42 156.009C145.902 156.009 158.453 143.431 158.453 127.916C158.453 112.4 145.902 99.8218 130.42 99.8218C114.938 99.8218 102.388 112.4 102.388 127.916C102.388 143.431 114.938 156.009 130.42 156.009Z" fill="#BBD8F8"/>
</g>
<path d="M153.279 146.502C143.051 159.133 124.473 161.07 111.875 150.822C99.2766 140.574 97.3379 121.959 107.562 109.328C117.786 96.697 136.363 94.7592 148.966 105.007C161.569 115.256 163.505 133.871 153.279 146.502ZM109.74 111.098C100.487 122.526 102.231 139.368 113.641 148.641C125.051 157.915 141.848 156.167 151.101 144.732C160.354 133.296 158.61 116.462 147.2 107.19C135.789 97.9182 118.993 99.6696 109.74 111.098V111.098Z" fill="#869FBA"/>
</svg>
