<svg width="300" height="250" viewBox="0 0 300 250" fill="none" xmlns="http://www.w3.org/2000/svg">
<path d="M137.767 102.444C137.767 102.444 125.558 125.639 121.997 127.295C118.436 128.951 102.124 120.261 99.6364 118.176C97.1485 116.091 94.2722 115.284 92.3633 114.982C90.4544 114.68 87.025 115.317 86.8955 109.453C86.7661 103.588 86.3871 99.3873 90.332 100.406C94.2769 101.425 94.783 101.298 95.6727 102.19C96.5624 103.081 97.1414 106.608 98.7325 107.16C109.24 110.835 110.685 111.111 113.608 112.512C116.532 113.913 120.375 100.281 124.122 97.0945C125.572 95.8561 137.767 102.444 137.767 102.444Z" fill="#F7A054"/>
<path d="M181.043 30.6306C181.043 30.6306 183.472 17.7558 165.605 18.0035V30.6306H181.043Z" fill="#FCA001"/>
<path d="M150.174 30.6306C150.174 30.6306 147.747 17.7558 165.614 18.0035V30.6306H150.174Z" fill="#F58300"/>
<path d="M132.487 39.5708C132.487 47.8151 147.292 54.5002 165.55 54.5002C183.808 54.5002 198.611 47.8151 198.611 39.5708C198.611 31.3265 183.811 24.6438 165.55 24.6438C147.29 24.6438 132.487 31.3242 132.487 39.5708Z" fill="#FFB804"/>
<path d="M173.944 57.0501C173.944 57.0501 172.317 69.8541 178.352 70.8377C184.456 71.8285 194.123 69.3328 199.374 78.5678C205.244 88.8832 215.685 105.822 216.669 122.127C216.759 123.627 218.02 126.958 217.992 128.416C217.653 145.73 215.328 144.409 217.015 149.922C218.703 155.434 218.915 160.773 211.926 162.176C205.477 163.459 204.969 162.483 206.155 153.637C207 147.336 202.766 132.832 204.124 125.484C205.458 118.24 193.781 108.363 191.915 101.397V135.601H165.614V101.397H165.555V46.8149L173.944 57.0501Z" fill="#FFBA80"/>
<path d="M131.732 78.5678C136.99 69.3328 146.653 71.8285 152.758 70.8377C158.791 69.8541 157.164 57.0501 157.164 57.0501L165.555 46.8149V101.397H165.614V135.601H139.311V101.397H139.191C137.327 108.363 125.862 88.8832 131.732 78.5678Z" fill="#F7A054"/>
<path d="M132.487 39.5708C132.487 31.3147 147.292 24.6438 165.55 24.6438V54.5002C147.292 54.5002 132.487 47.8151 132.487 39.5708Z" fill="#FCA001"/>
<path d="M150.035 46.815H150.348C150.217 45.7535 150.08 44.7085 149.958 43.7201C149.289 38.599 147.785 25.6794 165.615 25.6794C183.444 25.6794 181.943 38.599 181.279 43.7201C181.152 44.7085 181.022 45.7535 180.888 46.815H181.194C183.908 44.8029 184.139 50.0561 183.007 51.8512C182.065 53.3397 182.049 53.5024 181.486 55.1348C181.065 56.3401 180.375 56.5029 179.796 56.3708C179.721 57.0785 179.66 57.7059 179.615 58.2037C179.363 60.9683 172.742 66.4975 171.245 68.2266C169.833 69.8495 167.479 69.2149 166.742 69.1819L165.619 69.1277L164.499 69.1819C163.748 69.2149 161.399 69.8495 159.996 68.2266C158.497 66.4975 151.876 60.9683 151.624 58.2037C151.582 57.7059 151.516 57.0856 151.443 56.3708C150.866 56.5029 150.174 56.3401 149.758 55.1348C149.193 53.4953 149.171 53.3397 148.23 51.8512C147.095 50.0655 147.326 44.8029 150.035 46.815Z" fill="#FFBA80"/>
<path d="M164.494 69.1725C163.743 69.2055 161.394 69.84 159.991 68.2171C158.492 66.488 151.871 60.9588 151.619 58.1942C151.577 57.6965 151.511 57.0761 151.438 56.3614C150.861 56.4935 150.169 56.3307 149.753 55.1253C149.188 53.4859 149.167 53.3302 148.225 51.8417C147.095 50.0466 147.326 44.7934 150.035 46.8055H150.348C150.216 45.744 150.08 44.699 149.957 43.7107C149.289 38.5895 147.785 25.6699 165.614 25.6699V69.1276L164.494 69.1725Z" fill="#F7A054"/>
<path d="M165.556 164.212C165.556 164.212 169.338 167.028 170.247 189.341C171.329 216.072 172.379 227.814 172.379 227.814H189.879L191.915 189.398V135.594L165.553 133.846L165.556 164.212Z" fill="#172C57"/>
<path d="M165.551 36.9501C165.551 36.9501 168.985 41.5381 175.065 43.1516C175.065 43.1516 173.497 41.1961 173.389 40.0497C173.389 40.0497 177.376 44.114 180.587 45.1189L181.057 45.435C181.057 45.435 181.323 44.331 181.544 41.189C181.766 38.047 167.608 32.8055 167.608 32.8055L165.555 35.3295L165.551 36.9501Z" fill="#693514"/>
<path d="M165.551 36.9501C165.551 36.9501 163.957 40.177 158.106 41.9792C158.335 41.4223 158.52 40.8481 158.659 40.262C158.659 40.262 153.716 44.114 150.513 45.1189L150.247 46.0365C150.247 46.0365 149.877 43.7956 149.656 40.6559C149.435 37.5162 163.496 32.8102 163.496 32.8102L165.551 35.3342V36.9501Z" fill="#4F250A"/>
<path d="M181.47 42.385C181.47 42.385 178.904 36.4995 165.615 36.4995V24.6438C165.615 24.6438 181.319 24.3655 185.134 33.5132C188.95 42.661 182.338 42.385 182.338 42.385H181.47Z" fill="#FFB804"/>
<path d="M149.757 42.385C149.757 42.385 152.325 36.4995 165.614 36.4995V24.6438C165.614 24.6438 149.91 24.3655 146.093 33.5132C142.275 42.661 148.893 42.385 148.893 42.385H149.757Z" fill="#FCA001"/>
<path d="M165.556 164.212C165.556 164.212 161.771 167.028 160.862 189.341C159.78 216.072 158.73 227.814 158.73 227.814H141.23L139.191 189.398V135.594L165.553 133.846L165.556 164.212Z" fill="#0E1F42"/>
<path d="M139.62 227.27L138.318 197.571H150.045V227.27H139.62Z" fill="#B05D2A"/>
<path d="M160.467 227.27L161.771 197.571H150.045V227.27H160.467Z" fill="#B05D2A"/>
<path d="M160.914 230.48C160.914 224.217 156.046 219.136 150.044 219.136C144.042 219.136 139.175 224.217 139.175 230.48C139.175 230.48 139.309 231.23 140.298 231.23H159.794C160.78 231.23 160.916 230.48 160.916 230.48H160.914Z" fill="#853A0C"/>
<path d="M162.988 190.419C162.993 190.154 162.893 189.898 162.71 189.707C162.528 189.516 162.277 189.404 162.013 189.398H138.078C137.813 189.404 137.562 189.515 137.379 189.707C137.196 189.898 137.095 190.154 137.099 190.419V198.76C137.096 199.025 137.197 199.28 137.38 199.471C137.563 199.661 137.814 199.772 138.078 199.779H162.013C162.277 199.772 162.527 199.661 162.71 199.47C162.892 199.28 162.992 199.024 162.988 198.76V190.419Z" fill="#853A0C"/>
<path d="M177.658 70.6585C177.883 70.74 178.115 70.8023 178.35 70.8449C179.962 71.1091 181.836 71.1303 183.799 71.1845C184.045 71.1632 184.291 71.1545 184.538 71.1586C187.885 71.2129 190.218 71.3261 190.218 71.3261C201.535 71.5832 211.326 98.4745 211.326 98.4745L194.033 108.146L191.915 103.815V135.589H165.614L165.555 101.385V82.7879L177.658 70.6585Z" fill="#A6DAF5"/>
<path d="M153.45 70.6585C153.227 70.74 152.997 70.8023 152.763 70.8449C151.146 71.1091 149.272 71.1303 147.309 71.1845C147.064 71.1632 146.818 71.1546 146.573 71.1586C143.223 71.2129 140.893 71.3261 140.893 71.3261C129.574 71.5832 119.782 98.4745 119.782 98.4745L137.078 108.146L139.196 103.815V135.589H165.494L165.556 101.385V82.7879L153.45 70.6585Z" fill="#77BBE6"/>
<path d="M191.487 227.27L192.786 197.571H181.062V227.27H191.487Z" fill="#B36434"/>
<path d="M170.64 227.27L169.338 197.571H181.062V227.27H170.64Z" fill="#B36434"/>
<path d="M170.192 230.48C170.192 224.217 175.062 219.136 181.062 219.136C187.062 219.136 191.934 224.217 191.934 230.48C191.934 230.48 191.797 231.23 190.809 231.23H171.315C170.327 231.23 170.192 230.48 170.192 230.48V230.48Z" fill="#964514"/>
<path d="M168.121 190.419C168.116 190.154 168.215 189.898 168.398 189.706C168.58 189.515 168.831 189.404 169.096 189.398H193.031C193.295 189.404 193.546 189.515 193.729 189.707C193.912 189.898 194.012 190.154 194.008 190.419V198.76C194.012 199.024 193.911 199.28 193.728 199.471C193.545 199.661 193.295 199.772 193.031 199.779H169.096C168.832 199.773 168.581 199.662 168.399 199.471C168.216 199.28 168.116 199.024 168.121 198.76V190.419Z" fill="#964514"/>
<path d="M191.916 135.594V102.643H188.58L188.863 71.3214L181.488 71.1516V102.643H165.615V135.594H191.916Z" fill="#172C57"/>
<path d="M139.312 135.594V102.643H142.649L142.367 71.3214L149.739 71.1516V102.643H165.615V135.594H139.312Z" fill="#0E1F42"/>
<path d="M90.3389 100.406C92.5914 100.991 93.1116 101.086 93.7683 101.807C94.7592 102.895 94.1307 113.958 92.3701 114.215C90.4612 114.489 87.0318 115.317 86.9024 109.453C86.7729 103.588 86.394 99.3872 90.3389 100.406Z" fill="#ED8E3B"/>
<path d="M143.908 102.598C143.908 103.018 144.032 103.428 144.265 103.777C144.498 104.126 144.829 104.399 145.216 104.559C145.603 104.72 146.029 104.762 146.44 104.68C146.851 104.598 147.228 104.396 147.524 104.099C147.821 103.802 148.023 103.424 148.104 103.012C148.186 102.6 148.144 102.173 147.984 101.785C147.823 101.397 147.552 101.066 147.203 100.833C146.855 100.599 146.446 100.475 146.027 100.475C145.465 100.475 144.926 100.699 144.529 101.097C144.131 101.495 143.908 102.035 143.908 102.598Z" fill="#747474"/>
<path d="M187.217 102.598C187.217 103.018 187.093 103.428 186.86 103.777C186.627 104.126 186.297 104.399 185.909 104.559C185.522 104.72 185.096 104.762 184.686 104.68C184.275 104.598 183.897 104.396 183.601 104.099C183.305 103.802 183.103 103.424 183.021 103.012C182.939 102.6 182.981 102.173 183.142 101.785C183.302 101.397 183.574 101.066 183.922 100.833C184.27 100.599 184.68 100.475 185.099 100.475C185.661 100.475 186.199 100.699 186.597 101.097C186.994 101.495 187.217 102.035 187.217 102.598Z" fill="#9A9A9A"/>
<path d="M205.367 160.034L150.524 115.428L155.703 109.033L206.228 150.122C206.228 150.122 207.13 161.466 205.367 160.034Z" fill="#404259"/>
<g opacity="0.52">
<path opacity="0.52" d="M123.577 126.97C144.929 126.97 162.239 109.622 162.239 88.2228C162.239 66.8234 144.929 49.4758 123.577 49.4758C102.224 49.4758 84.9141 66.8234 84.9141 88.2228C84.9141 109.622 102.224 126.97 123.577 126.97Z" fill="#BBD8F8"/>
</g>
<path d="M155.103 113.857C140.997 131.277 115.374 133.95 97.9984 119.815C80.6231 105.681 77.9492 80.0068 92.0505 62.5865C106.152 45.1661 131.772 42.4935 149.155 56.6279C166.537 70.7624 169.206 96.4364 155.103 113.857ZM95.0539 65.0279C82.2919 80.79 84.6974 104.018 100.435 116.808C116.172 129.598 139.337 127.187 152.099 111.415C164.861 95.6439 162.456 72.4254 146.719 59.6379C130.982 46.8503 107.816 49.2658 95.0539 65.0279V65.0279Z" fill="#869FBA"/>
</svg>
