<svg width="300" height="300" viewBox="0 0 300 300" fill="none" xmlns="http://www.w3.org/2000/svg">
<path d="M110.134 199.015C109.14 195.372 106.914 192.769 104.926 192.769H103.002H102.549C100.388 193.355 99.6095 197.106 100.69 201.01C101.641 204.545 103.759 207.103 105.704 207.233H107.562C107.77 207.267 107.982 207.267 108.189 207.233C110.35 206.67 111.193 202.983 110.134 199.015Z" fill="#492E34"/>
<path d="M195.584 199.015C194.612 195.372 192.364 192.769 190.376 192.769H188.474H188.02C185.859 193.355 185.081 197.106 186.14 201.01C187.091 204.545 189.231 207.103 191.176 207.233H193.077C193.292 207.266 193.511 207.266 193.726 207.233C195.822 206.67 196.665 202.983 195.584 199.015Z" fill="#492E34"/>
<path d="M203.494 200.619H53.2113L52.8223 194.895L204.639 197.562L203.494 200.619Z" fill="#82525B"/>
<path d="M205.979 194.569H163.643V199.969H203.645L205.979 194.569Z" fill="#492E34"/>
<path d="M164.68 196.868L51.979 194.895L53.2108 201.4L163.967 200.619L164.68 196.868Z" fill="#492E34"/>
<path d="M60.8183 108.435H171.92L186.378 117.782L199.69 176.332L210.712 184.356L206.541 198.906H51.6769C49.2132 184.421 36.2466 127.714 60.8183 108.435Z" fill="#FCF2C3"/>
<path d="M157.419 176.354H199.128L210.042 184.399H157.419V176.354Z" fill="#FFF8D9"/>
<path d="M167.339 198.516L172.547 184.399L159.58 176.375L155.971 117.825L144.647 108.479H60.8183C34.8852 128.689 48.1543 192.553 51.6769 198.95H167.166L167.339 198.516Z" fill="#F2E4A7"/>
<path d="M159.537 176.375L155.928 117.782L144.604 108.435H144.388L155.193 118.15L159.018 177.069L170.45 184.811L165.307 198.906H167.166L167.339 198.516L172.547 184.399L159.537 176.375Z" fill="#E2C888"/>
<path d="M114.716 118.454C124.352 114.82 134.288 112.041 144.409 110.148L143.285 109.238H61.7472C47.0518 120.774 45.2797 146.905 47.0518 167.81C59.5429 148.575 83.7904 130.012 114.716 118.454Z" fill="#F7EDC4"/>
<path d="M83.056 188.432C73.6334 192.071 63.9059 194.857 53.9893 196.759L55.0698 197.692H135.03C149.51 186.155 151.174 160.025 149.38 139.142C137.105 158.355 113.29 176.896 83.056 188.432Z" fill="#F7EDC4"/>
<path d="M157.203 175.811H128.417L129.173 118.736H152.513L157.203 175.811Z" fill="#5DA1A8"/>
<path d="M153.011 152.088L151.757 119.256H129.541L129.39 144.043L153.011 152.088Z" fill="#68B6BA"/>
<path d="M138.488 196.131H127.683V195.827L128.439 118.432H152.773V118.714L157.484 175.898L148.84 187.868H148.645C147.534 187.34 146.308 187.101 145.081 187.173C143.854 187.245 142.664 187.626 141.622 188.28C140.545 189.201 139.703 190.365 139.165 191.678C138.628 192.991 138.41 194.413 138.531 195.827L138.488 196.131ZM128.201 195.545H137.926C137.836 194.086 138.09 192.627 138.669 191.285C139.247 189.943 140.133 188.758 141.254 187.825C142.339 187.123 143.581 186.704 144.868 186.606C146.155 186.508 147.445 186.733 148.624 187.261L156.944 175.725L152.254 119.039H129.455L128.201 195.545Z" fill="#82525B"/>
<path d="M185.643 118.302H156.835L160.747 175.573H197.767L185.643 118.302Z" fill="#89C4CE"/>
<path d="M157.052 175.421H128.028V176.094H157.052V175.421Z" fill="#82525B"/>
<path d="M70.2621 199.557C70.1959 199.234 70.1092 198.915 70.0028 198.603C68.2307 193.073 63.9517 189.235 60.4508 189.929C57.382 190.622 55.9341 194.699 56.8633 199.47L70.2621 199.557Z" fill="#492E34"/>
<path d="M152.233 199.557C152.166 199.234 152.08 198.915 151.973 198.603C150.244 193.073 146.095 189.235 142.702 189.929C139.698 190.622 138.38 194.699 139.201 199.47L152.233 199.557Z" fill="#492E34"/>
<path d="M150.504 199.015C149.423 195.025 146.851 192.271 144.755 192.834C142.659 193.398 141.816 197.171 142.897 201.075C143.977 204.978 146.462 207.797 148.624 207.233C150.785 206.67 151.563 202.983 150.504 199.015Z" fill="#6D414A"/>
<path d="M148.364 205.108H146.074V207.299H147.997L148.364 205.108Z" fill="#6D414A"/>
<path d="M145.295 192.769H143.372V194.981H144.971L145.295 192.769Z" fill="#6D414A"/>
<path d="M148.623 199.015C147.564 195.046 144.993 192.271 142.896 192.834C140.8 193.398 139.957 197.172 141.038 201.075C142.118 204.978 144.668 207.819 146.765 207.233C148.861 206.648 149.725 202.983 148.623 199.015Z" fill="#82525B"/>
<path d="M146.808 199.514C146.268 197.345 144.928 196.044 143.847 196.326C142.767 196.608 142.335 198.494 142.897 200.663C143.458 202.831 144.755 204.132 145.857 203.851C146.959 203.569 147.37 201.552 146.808 199.514Z" fill="#6D414A"/>
<path d="M146.117 199.752C145.879 198.819 145.274 198.169 144.777 198.299C144.28 198.429 144.085 199.297 144.344 200.229C144.604 201.161 145.187 201.812 145.684 201.682C146.181 201.552 146.462 200.684 146.117 199.752Z" fill="#EADCA2"/>
<path d="M68.382 199.015C67.323 194.938 64.7513 192.271 62.6551 192.769C60.5588 193.268 59.716 197.106 60.7965 201.01C61.8771 204.913 64.3407 207.797 66.5018 207.233C68.6629 206.67 69.4625 202.983 68.382 199.015Z" fill="#6D414A"/>
<path d="M66.2424 205.108H63.9517V207.299H65.875L66.2424 205.108Z" fill="#6D414A"/>
<path d="M63.1737 192.769H61.272V194.981H62.8712L63.1737 192.769Z" fill="#6D414A"/>
<path d="M66.5017 199.015C65.4211 195.046 62.8711 192.271 60.7748 192.834C58.6785 193.398 57.8573 197.106 58.9379 201.075C60.0184 205.043 62.5685 207.819 64.6864 207.233C66.8042 206.648 67.6038 202.983 66.5017 199.015Z" fill="#82525B"/>
<path d="M64.7083 199.514C64.1464 197.345 62.8281 196.044 61.7476 196.326C60.667 196.608 60.2348 198.494 60.7751 200.663C61.3153 202.831 62.6552 204.132 63.7358 203.851C64.8163 203.569 65.2485 201.552 64.7083 199.514Z" fill="#6D414A"/>
<path d="M64.0164 199.752C63.7571 198.819 63.152 198.169 62.6765 198.299C62.2011 198.429 61.985 199.297 62.2227 200.229C62.4604 201.161 63.0871 201.812 63.5842 201.682C64.0812 201.552 64.3406 200.684 64.0164 199.752Z" fill="#EADCA2"/>
<path d="M167.879 195.567H158.824C158.471 195.566 158.126 195.679 157.842 195.89C157.558 196.101 157.349 196.398 157.246 196.738L156.922 197.822C156.87 197.997 156.858 198.182 156.888 198.363C156.918 198.543 156.989 198.714 157.095 198.863C157.207 199.01 157.351 199.129 157.516 199.212C157.68 199.295 157.862 199.338 158.046 199.34H166.69L167.879 195.567Z" fill="#658E8A"/>
<path d="M208.809 196.499C208.867 196.404 208.897 196.296 208.897 196.185C208.897 196.074 208.867 195.965 208.809 195.87C208.745 195.775 208.658 195.698 208.556 195.645C208.454 195.592 208.341 195.565 208.226 195.567H166.841L165.717 199.275H207.189C207.412 199.279 207.631 199.209 207.81 199.076C207.99 198.942 208.121 198.753 208.183 198.538L208.809 196.499Z" fill="#83A8A5"/>
<path d="M207.73 196.326C207.667 196.242 207.585 196.175 207.491 196.129C207.397 196.084 207.294 196.062 207.189 196.066H183.201L182.704 197.714H207.6L207.838 196.933C207.869 196.83 207.876 196.722 207.857 196.616C207.838 196.511 207.795 196.411 207.73 196.326V196.326Z" fill="#AECECB"/>
<path d="M179.678 196.066H171.682L171.466 196.825C171.419 196.919 171.394 197.023 171.394 197.128C171.394 197.234 171.419 197.338 171.466 197.432C171.53 197.516 171.611 197.585 171.705 197.633C171.798 197.682 171.901 197.71 172.007 197.714H179.117L179.678 196.066Z" fill="#AECECB"/>
<path d="M197.767 175.573L196.859 171.323L197.205 175.573H197.767Z" fill="#5DA1A8"/>
<path d="M160.661 175.573H168.83L169.759 119.018H185.794L185.665 118.432H156.857L160.661 175.573Z" fill="#5DA1A8"/>
<path d="M152.125 117.933H150.655V176.744H152.125V117.933Z" fill="#EADCA2"/>
<path d="M185.211 118.692H184.087V175.508H185.211V118.692Z" fill="#5DA1A8"/>
<path d="M197.378 174.445H161.18V175.573H197.378V174.445Z" fill="#5DA1A8"/>
<g style="mix-blend-mode:overlay">
<path d="M184.995 118.974H157.484L161.201 173.751L184.995 118.974Z" fill="#A3DCE2"/>
</g>
<path d="M200.36 186.459H183.634L180.5 195.068H197.248L200.36 186.459Z" fill="#82525B"/>
<path d="M199.474 187.109H184.238L181.407 194.591H196.643L199.474 187.109Z" fill="#492E34"/>
<path d="M197.464 193.485H181.623L181.407 194.005H197.248L197.464 193.485Z" fill="#82525B"/>
<path d="M197.896 192.357H182.056L181.818 192.856H197.68L197.896 192.357Z" fill="#82525B"/>
<path d="M198.329 191.208H182.466L182.25 191.728H198.091L198.329 191.208Z" fill="#82525B"/>
<path d="M198.739 190.059H182.898L182.682 190.579H198.523L198.739 190.059Z" fill="#82525B"/>
<path d="M199.172 188.909H183.331L183.115 189.43H198.956L199.172 188.909Z" fill="#82525B"/>
<path d="M199.604 187.76H183.763L183.547 188.281H199.388L199.604 187.76Z" fill="#82525B"/>
<path d="M172.222 185.049L210.042 184.399H170.104L172.222 185.049Z" fill="#E2C888"/>
<path d="M159.278 176.896L197.529 176.289L158.737 175.92L159.278 176.896Z" fill="#E2C888"/>
<path d="M135.073 177.134H129.26V178.999H133.56L135.073 177.134Z" fill="#82525B"/>
<path d="M134.144 176.787H129.13V178.392H132.847L134.144 176.787Z" fill="#EADCA2"/>
<path d="M177.863 189.799C178.403 187.847 177.539 186.242 175.918 186.242C174.985 186.37 174.111 186.778 173.413 187.412C172.715 188.047 172.225 188.879 172.006 189.799C171.445 191.772 172.309 193.355 173.93 193.355C174.866 193.229 175.743 192.822 176.444 192.187C177.146 191.552 177.641 190.72 177.863 189.799Z" fill="#83A8A5"/>
<path d="M208.205 189.799C208.745 187.847 207.881 186.242 206.26 186.242C205.327 186.37 204.453 186.778 203.755 187.412C203.057 188.047 202.567 188.879 202.349 189.799C201.787 191.772 202.673 193.355 204.272 193.355C205.209 193.232 206.087 192.825 206.79 192.19C207.492 191.555 207.986 190.721 208.205 189.799Z" fill="#83A8A5"/>
<path d="M176.718 189.755C177.107 188.346 176.48 187.218 175.335 187.218C174.665 187.305 174.038 187.594 173.536 188.048C173.034 188.501 172.682 189.096 172.525 189.755C172.136 191.165 172.763 192.292 173.908 192.292C174.578 192.205 175.205 191.916 175.707 191.463C176.209 191.01 176.561 190.414 176.718 189.755V189.755Z" fill="#FFF8D9"/>
<path d="M175.226 187.695C175.105 187.674 174.98 187.674 174.859 187.695C174.774 187.87 174.702 188.051 174.643 188.237C174.319 189.386 174.837 190.297 175.767 190.297C175.881 190.32 175.998 190.32 176.112 190.297C176.213 190.127 176.293 189.945 176.35 189.755C176.717 188.606 176.156 187.695 175.226 187.695Z" fill="#89C4CE"/>
<path d="M206.973 189.755C207.362 188.346 206.757 187.218 205.59 187.218C204.924 187.309 204.302 187.6 203.804 188.053C203.307 188.506 202.957 189.099 202.802 189.755C202.413 191.165 203.018 192.292 204.185 192.292C204.851 192.201 205.473 191.91 205.971 191.457C206.469 191.004 206.818 190.411 206.973 189.755V189.755Z" fill="#FFF8D9"/>
<path d="M205.547 187.695C205.433 187.674 205.316 187.674 205.201 187.695C205.107 187.866 205.035 188.048 204.985 188.237C204.661 189.386 205.158 190.297 206.109 190.297C206.223 190.317 206.34 190.317 206.455 190.297C206.549 190.126 206.621 189.944 206.671 189.755C206.973 188.606 206.498 187.695 205.547 187.695Z" fill="#89C4CE"/>
<path d="M58.2247 148.184C58.2247 149.16 58.2247 153.324 58.2247 154.451V159.396C58.2247 159.916 57.8141 159.786 57.3386 159.786C56.8632 159.786 56.2581 159.786 55.8043 159.786C55.3504 159.786 55.1776 159.504 55.2208 158.702C55.264 157.899 55.2208 154.104 55.2208 152.803C55.2208 151.502 55.5449 147.143 55.5449 145.994C55.5449 144.845 55.5449 140.942 55.5449 140.031C55.5449 139.575 55.5449 138.903 55.5449 138.318C55.499 137.883 55.5583 137.444 55.7178 137.038C55.7517 137.023 55.7886 137.014 55.8259 137.014C55.8632 137.014 55.9 137.023 55.9339 137.038C56.1835 137.09 56.4408 137.09 56.6903 137.038C56.9564 137.017 57.2238 137.017 57.4899 137.038C57.7844 137.005 58.0815 137.005 58.376 137.038C58.9162 137.233 58.9811 138.253 59.154 139.055C59.6374 140.789 60.2664 142.48 61.0341 144.108C61.882 145.764 62.6044 147.482 63.1952 149.247C63.4113 149.854 63.8651 150.808 64.2109 151.654L64.8809 153.15C65.3563 152.24 65.7885 151.372 66.1991 150.526L68.2522 146.385C69.2679 144.411 70.4133 141.787 71.1696 140.573C71.926 139.358 72.9417 137.212 73.3307 137.212C73.7197 137.212 73.5685 137.363 73.5685 137.624C73.5685 137.884 73.3523 138.86 73.2875 139.424C73.2227 139.987 73.1579 145.691 73.1579 147.057C73.1579 148.423 73.0498 152.521 72.9417 153.562C72.9417 153.996 72.9417 154.994 72.9417 156.013C72.9417 157.379 72.9417 158.854 72.9417 159.092V159.266C72.9417 159.569 72.8337 159.613 72.7472 159.569H71.9476C71.7748 159.569 71.7315 159.352 71.7315 158.984C71.7315 160.372 71.7315 154.451 71.7315 153.28C71.7315 152.109 71.9476 148.813 71.9476 147.881C71.9476 147.404 71.9476 146.189 71.9476 144.953V142.785C71.7961 142.992 71.6726 143.218 71.5803 143.457C71.3492 143.831 71.1469 144.223 70.9751 144.628C70.8239 145.322 68.6628 149.399 68.2954 150.114C67.928 150.83 65.7669 155.297 65.5076 155.904C65.2717 156.585 64.9523 157.233 64.5567 157.834C64.427 157.834 64.319 157.596 64.0164 157.119C63.4555 155.997 62.9717 154.837 62.5685 153.649C62.2443 152.717 60.1697 149.095 59.7591 148.141C59.5214 147.664 59.1756 146.775 58.8946 145.972C58.6886 145.52 58.5082 145.057 58.3544 144.585V145.972C58.2679 146.775 58.2247 147.707 58.2247 148.184Z" fill="#EF5292"/>
<path d="M78.885 142.243C78.885 143.956 78.6256 149.399 78.6256 150.917C78.6256 152.435 78.6256 158.138 78.8201 158.94C78.8299 159.085 78.8299 159.23 78.8201 159.374C78.8332 159.482 78.8107 159.591 78.756 159.685C78.7014 159.779 78.6177 159.853 78.5176 159.894C78.1894 159.959 77.8517 159.959 77.5235 159.894C76.4862 159.894 76.7671 160.025 76.7671 158.572C76.7671 157.119 76.8968 149.898 76.8968 147.729C76.8968 145.561 77.2209 139.467 77.1129 138.708C77.1129 138.491 77.1129 138.253 77.1129 138.036C77.1129 137.819 77.1129 137.212 77.6099 137.212H78.7769C79.0363 137.212 79.1011 137.385 79.1011 137.645C79.1011 137.906 79.1011 138.166 79.1011 138.404C78.9498 139.293 78.9066 140.486 78.885 142.243Z" fill="#EF5292"/>
<path d="M98.4862 159.526C98.483 159.576 98.483 159.627 98.4862 159.678C98.4862 159.916 98.27 159.938 97.773 159.938H91.5274C90.6198 159.938 87.6375 160.133 86.3624 160.133H85.8222H85.109H82.6886C81.997 160.133 82.1483 159.894 82.1483 159.287C82.1483 158.68 82.3428 154.343 82.3428 153.606C82.3428 152.868 82.1915 150.808 82.1915 149.767C82.1915 151.285 82.5589 144.476 82.5589 143.565V139.879C82.5589 139.597 82.5589 138.296 82.5589 137.862C82.5589 137.494 83.0559 137.645 83.3585 137.645H84.828C84.9577 137.645 85.0225 137.645 85.0225 137.906C85.0225 138.166 84.8064 143.652 84.8064 144.585V149.117C84.8064 149.637 84.8064 151.134 84.8064 152.088C84.8202 152.362 84.8202 152.637 84.8064 152.912C84.7838 153.099 84.7838 153.288 84.8064 153.476C84.8064 153.584 84.8064 153.606 84.8064 153.627H85.5844C86.1386 153.662 86.6943 153.662 87.2485 153.627H93.105C94.3152 153.627 97.4272 153.758 97.9243 153.758C98.4213 153.758 98.2701 153.758 98.2701 153.953C98.2701 154.148 98.2701 154.17 98.2701 154.3V155.753C98.162 156.468 98.4862 159.179 98.4862 159.526Z" fill="#EF5292"/>
<path d="M101.079 159.873H100.69C100.539 159.873 100.474 159.873 100.474 159.678C100.5 159.514 100.544 159.354 100.604 159.201C100.604 158.81 100.431 157.834 100.431 157.032C100.431 156.23 100.604 147.946 100.734 147.1C100.863 146.254 100.734 145.083 100.734 143.912C100.761 143.414 100.761 142.915 100.734 142.416C100.734 142.156 100.734 141.657 100.734 141.093C100.719 140.05 100.769 139.007 100.885 137.971C100.885 137.71 101.079 137.645 101.231 137.645C101.382 137.645 101.685 137.645 101.879 137.645C102.592 137.645 103.5 137.645 104.213 137.645H104.408C104.905 137.645 104.818 137.971 104.818 138.274C104.818 138.578 104.818 139.272 104.818 140.161V141.462C104.818 142.958 104.818 145.17 104.689 146.189C104.689 146.536 104.689 146.927 104.689 147.317C104.689 147.707 104.689 148.033 104.689 148.358V149.442L105.186 148.9C105.473 148.561 105.784 148.242 106.115 147.946C106.677 147.447 108.643 145.279 109.076 144.758C109.508 144.238 111.237 142.416 112.036 141.527C112.836 140.638 114.781 138.578 114.997 138.188C115.213 137.797 115.451 137.689 115.667 137.645H116.553C116.726 137.645 116.769 137.775 116.769 137.862C116.756 137.978 116.702 138.085 116.618 138.166C116.466 138.318 115.127 139.705 114.63 140.118C114.132 140.53 111.258 144.108 110.956 144.585C110.653 145.062 109.854 145.821 108.967 146.753L107.239 148.531C107.628 149.008 108.017 149.42 108.362 149.833C108.708 150.245 109.659 151.329 110.026 151.719C110.783 152.478 113.571 156.056 114.176 156.512C114.781 156.967 116.337 158.962 116.531 159.244C116.557 159.329 116.557 159.419 116.531 159.504C116.531 159.656 116.315 159.764 115.991 159.764H111.907C111.672 159.773 111.438 159.726 111.224 159.628C111.01 159.531 110.822 159.384 110.675 159.201C110.264 158.854 108.081 155.796 107.411 155.059C107.044 154.712 106.331 153.909 105.726 153.194L104.602 151.893C104.602 152.37 104.602 152.847 104.602 153.259C104.602 153.671 104.602 154.864 104.602 155.276C104.602 155.688 104.602 156.642 104.602 157.444C104.555 157.949 104.555 158.457 104.602 158.962C104.62 159.033 104.62 159.108 104.602 159.179C104.602 159.504 104.364 159.504 104.148 159.504H102.895C102.7 159.786 101.728 159.873 101.079 159.873Z" fill="#EF5292"/>
<path d="M125.154 196.911H71.2563V197.909H125.154V196.911Z" fill="#82525B"/>
<path d="M147.607 114.377H59.3052V115.375H147.607V114.377Z" fill="#82525B"/>
<path d="M171.942 109.628L156.382 114.182L159.645 116.242H181.904L171.942 109.628Z" fill="#FFF8D9"/>
<path d="M213.673 103.144C213.673 103.144 214.818 112.1 210.604 112.794C206.39 113.488 199.582 111.731 195.909 118.194C190.91 126.352 187.145 135.209 184.736 144.476C183.007 151.914 194.482 149.204 194.007 147.707C193.186 145.214 199.82 139.033 201.117 134.176V158.073H219.486V134.219V95.9879L213.673 103.144Z" fill="#FFBA80"/>
<path d="M225.299 103.144C225.299 103.144 224.262 112.1 228.368 112.794C232.474 113.488 239.389 111.731 243.063 118.194C248.052 126.357 251.817 135.213 254.236 144.476C255.965 151.914 244.489 149.204 244.965 147.707C245.764 145.214 239.151 139.033 237.855 134.176V158.073H219.464V134.219V95.9879L225.299 103.144Z" fill="#F7A054"/>
<path d="M243.107 118.194C239.433 111.688 232.69 113.488 228.433 112.794C224.175 112.1 225.342 103.144 225.342 103.144L219.486 95.9879V134.219V158.073H237.855V134.219C239.195 139.033 247.213 125.415 243.107 118.194Z" fill="#F7A054"/>
<path d="M230.335 95.988H230.097C230.097 95.2507 230.291 94.5134 230.378 93.8195C230.853 90.2414 231.891 81.1986 219.443 81.1986C206.995 81.1986 208.032 90.2414 208.508 93.8195C208.508 94.5134 208.68 95.2507 208.767 95.988H208.551C206.671 94.5784 206.39 98.2649 207.297 99.501C207.771 100.205 208.129 100.981 208.356 101.8C208.659 102.645 209.134 102.754 209.545 102.667C209.545 103.166 209.545 103.6 209.545 103.946C209.739 105.898 214.364 109.758 215.401 110.973C216.439 112.187 218.016 111.666 218.557 111.623H220.113C220.631 111.623 222.274 112.1 223.268 110.973C224.262 109.845 228.93 105.898 229.103 103.946C229.103 103.6 229.103 103.166 229.232 102.667C229.643 102.667 230.118 102.667 230.421 101.8C230.684 100.982 231.078 100.213 231.588 99.5227C232.388 98.2649 232.215 94.5784 230.335 95.988Z" fill="#FFBA80"/>
<path d="M220.22 111.623C220.739 111.623 222.381 112.1 223.376 110.972C224.37 109.845 229.038 105.898 229.211 103.946C229.211 103.599 229.211 103.166 229.34 102.667C229.751 102.667 230.226 102.667 230.529 101.8C230.758 100.989 231.116 100.22 231.588 99.5226C232.387 98.2865 232.214 94.6 230.334 96.0096H230.097C230.097 95.2723 230.291 94.535 230.378 93.8411C230.853 90.263 231.89 81.2202 219.442 81.2202V111.58L220.22 111.623Z" fill="#F7A054"/>
<path d="M219.486 178.11C219.486 178.11 216.828 180.084 216.201 195.697C215.445 214.39 214.71 222.608 214.71 222.608H202.478L201.073 195.74V158.073L219.486 156.837V178.11Z" fill="#172C57"/>
<path d="M219.486 89.0921C217.762 91.1874 215.438 92.7013 212.829 93.4292C213.364 92.7921 213.768 92.0551 214.018 91.2606C212.578 92.7487 210.869 93.9482 208.983 94.7953L208.659 95.0122C208.469 94.0394 208.353 93.0534 208.313 92.063C208.161 89.8945 218.059 86.1863 218.059 86.1863L219.486 87.9645V89.0921Z" fill="#693514"/>
<path d="M219.486 89.0921C220.7 90.8987 222.568 92.159 224.694 92.6051C224.529 92.2199 224.399 91.8208 224.305 91.4124C226.04 92.7902 227.952 93.928 229.989 94.7953L230.183 95.4459C230.183 95.4459 230.443 93.8846 230.594 91.6727C230.745 89.4608 220.912 86.1863 220.912 86.1863L219.486 87.9645V89.0921Z" fill="#4F250A"/>
<path d="M219.486 178.11C219.486 178.11 222.122 180.084 222.749 195.697C223.527 214.39 224.262 222.608 224.262 222.608H236.472L237.898 195.74V158.073L219.486 156.837V178.11Z" fill="#0E1F42"/>
<path d="M237.595 222.218L238.503 201.444H230.312V222.218H237.595Z" fill="#B05D2A"/>
<path d="M223.03 222.218L222.123 201.444H230.313V222.218H223.03Z" fill="#B05D2A"/>
<path d="M222.727 224.473C222.614 223.408 222.725 222.331 223.053 221.312C223.381 220.293 223.92 219.355 224.633 218.559C225.347 217.762 226.219 217.125 227.194 216.689C228.169 216.253 229.224 216.027 230.291 216.027C231.359 216.027 232.414 216.253 233.389 216.689C234.363 217.125 235.236 217.762 235.949 218.559C236.663 219.355 237.201 220.293 237.529 221.312C237.858 222.331 237.969 223.408 237.855 224.473C237.805 224.641 237.697 224.786 237.551 224.881C237.404 224.977 237.229 225.016 237.055 224.994H223.441C223.27 225.015 223.098 224.975 222.955 224.879C222.812 224.784 222.708 224.639 222.663 224.473H222.727Z" fill="#853A0C"/>
<path d="M221.28 196.434C221.277 196.344 221.292 196.254 221.324 196.17C221.357 196.086 221.406 196.01 221.468 195.945C221.531 195.88 221.605 195.829 221.688 195.794C221.771 195.758 221.86 195.74 221.95 195.74H238.676C238.86 195.74 239.036 195.813 239.165 195.944C239.295 196.074 239.368 196.25 239.368 196.434V202.268C239.371 202.361 239.355 202.453 239.322 202.54C239.288 202.627 239.238 202.706 239.173 202.772C239.109 202.839 239.032 202.892 238.946 202.928C238.861 202.965 238.769 202.983 238.676 202.983H221.95C221.859 202.98 221.769 202.96 221.687 202.922C221.604 202.885 221.529 202.831 221.467 202.765C221.405 202.698 221.356 202.62 221.324 202.535C221.292 202.45 221.277 202.359 221.28 202.268V196.434Z" fill="#853A0C"/>
<path d="M211.036 112.664C210.881 112.72 210.722 112.764 210.56 112.794C209.298 112.946 208.028 113.025 206.757 113.032H206.238L202.262 113.141C194.33 113.314 187.523 132.05 187.523 132.05L199.603 138.838L201.095 135.802V158.073H219.464V134.219V121.208L211.036 112.664Z" fill="#A6DAF5"/>
<path d="M227.935 112.664C228.098 112.72 228.264 112.763 228.433 112.794C229.695 112.946 230.965 113.026 232.236 113.032H232.755L236.71 113.141C244.619 113.336 251.47 132.137 251.47 132.137L239.389 138.903L237.898 135.867V158.073H219.529V134.219V121.208L227.935 112.664Z" fill="#77BBE6"/>
<path d="M201.376 222.218L200.447 201.444H208.637V222.218H201.376Z" fill="#B36434"/>
<path d="M215.92 222.218L216.828 201.444H208.637V222.218H215.92Z" fill="#B36434"/>
<path d="M216.244 224.473C216.358 223.408 216.247 222.331 215.918 221.312C215.59 220.293 215.052 219.355 214.338 218.559C213.625 217.762 212.753 217.125 211.778 216.689C210.803 216.253 209.748 216.027 208.68 216.027C207.613 216.027 206.558 216.253 205.583 216.689C204.608 217.125 203.736 217.762 203.022 218.559C202.309 219.355 201.771 220.293 201.442 221.312C201.114 222.331 201.003 223.408 201.116 224.473C201.162 224.639 201.266 224.784 201.409 224.879C201.552 224.975 201.724 225.015 201.894 224.994H215.531C215.701 225.015 215.874 224.975 216.017 224.879C216.16 224.784 216.263 224.639 216.309 224.473H216.244Z" fill="#964514"/>
<path d="M217.779 196.434C217.779 196.25 217.706 196.074 217.576 195.944C217.446 195.813 217.271 195.74 217.087 195.74H200.295C200.112 195.74 199.936 195.813 199.806 195.944C199.677 196.074 199.604 196.25 199.604 196.434V202.268C199.601 202.361 199.617 202.453 199.65 202.54C199.684 202.627 199.734 202.706 199.799 202.772C199.863 202.839 199.94 202.892 200.026 202.928C200.111 202.965 200.203 202.983 200.295 202.983H217.001C217.093 202.983 217.185 202.965 217.27 202.928C217.356 202.892 217.433 202.839 217.497 202.772C217.562 202.706 217.612 202.627 217.646 202.54C217.679 202.453 217.695 202.361 217.692 202.268L217.779 196.434Z" fill="#964514"/>
<path d="M201.073 158.095V135.043H203.386L203.191 113.119L208.356 113.011V135.043H219.443V158.095H201.073Z" fill="#172C57"/>
<path d="M237.812 158.095V135.043H235.478L235.672 113.119L230.529 113.011V135.043H219.442V158.095H237.812Z" fill="#0E1F42"/>
<path d="M244.965 146.992C244.965 146.992 243.387 152.131 241.377 156.858C239.367 161.586 236.904 164.058 234.613 164.817C232.322 165.576 227.309 164.817 227.309 166.075C227.309 169.566 235.499 171.67 237.984 169.219C240.47 166.769 241.334 166.877 243.43 164.882C245.894 162.583 252.723 156.577 254.43 146.97L244.965 146.992Z" fill="#F7A054"/>
<path d="M194.006 146.992C194.006 146.992 195.562 152.131 197.594 156.858C199.625 161.586 202.067 164.058 204.358 164.817C206.649 165.576 211.662 164.817 211.662 166.075C211.662 169.566 203.472 171.67 200.857 169.219C198.242 166.769 197.529 166.877 195.433 164.882C192.969 162.583 186.14 156.577 184.433 146.97L194.006 146.992Z" fill="#FFBA80"/>
<path d="M238.893 87.6392C238.893 90.2848 231.242 92.887 219.205 92.887C207.168 92.887 199.539 90.2848 199.539 87.6392C199.539 84.9936 207.168 83.3021 219.205 83.3021C231.242 83.3021 238.893 84.9936 238.893 87.6392Z" fill="#FFB804"/>
<path d="M228.325 76.97H210.647L208.162 84.7116C211.852 85.7357 215.657 86.2823 219.486 86.338C223.292 86.2767 227.076 85.7302 230.745 84.7116L228.325 76.97Z" fill="#FCA001"/>
<path d="M228.325 76.9699C228.325 77.9241 224.37 78.7048 219.486 78.7048C214.602 78.7048 210.647 77.8373 210.647 76.9699C210.647 76.1025 214.602 75.2351 219.486 75.2351C224.37 75.2351 228.325 75.9941 228.325 76.9699Z" fill="#FFB804"/>
<path d="M219.486 83.2803V92.8652C231.372 92.8652 238.936 90.2629 238.936 87.639C238.936 85.0151 231.372 83.302 219.486 83.2803Z" fill="#FCA001"/>
<path d="M219.486 86.338C223.293 86.2779 227.076 85.7314 230.745 84.7116L228.325 76.97H219.486V86.338Z" fill="#F58300"/>
<path d="M219.486 75.2351V78.7048C224.37 78.7048 228.325 77.9241 228.325 76.9699C228.325 76.0158 224.37 75.2351 219.486 75.2351Z" fill="#FCA001"/>
<path d="M214.278 143.891C214.26 142.044 213.839 140.223 213.046 138.556C212.473 137.512 211.744 136.561 210.885 135.737C210.647 135.477 210.409 135.238 210.215 135C209.773 134.081 209.558 133.07 209.588 132.05C209.531 130.909 209.531 129.766 209.588 128.624C209.599 128.476 209.577 128.328 209.525 128.19C209.473 128.051 209.391 127.925 209.286 127.822C209.079 127.614 208.8 127.497 208.508 127.497H204.185C204.04 127.496 203.896 127.526 203.762 127.583C203.628 127.64 203.507 127.724 203.406 127.829C203.305 127.935 203.226 128.059 203.174 128.196C203.123 128.333 203.099 128.478 203.105 128.624C203.162 129.766 203.162 130.909 203.105 132.05C203.127 133.049 202.889 134.036 202.413 134.913C202.209 135.175 201.985 135.422 201.743 135.65C200.884 136.474 200.156 137.425 199.582 138.469C198.784 140.141 198.37 141.972 198.372 143.826C198.242 147.859 198.372 157.813 198.372 162.518C198.383 163.161 198.646 163.773 199.102 164.223C199.559 164.673 200.174 164.925 200.814 164.925H212.052C212.37 164.928 212.685 164.868 212.98 164.749C213.274 164.629 213.543 164.453 213.77 164.229C213.996 164.006 214.177 163.74 214.301 163.446C214.426 163.153 214.491 162.837 214.494 162.518C214.343 157.878 214.407 147.924 214.278 143.891Z" fill="#FDFEFF"/>
<path d="M211.836 165.251H200.598C199.889 165.251 199.208 164.971 198.703 164.472C198.197 163.973 197.908 163.295 197.896 162.583C197.896 157.878 197.896 147.924 197.896 143.869C197.901 141.976 198.329 140.109 199.15 138.404C199.719 137.344 200.448 136.378 201.311 135.542C201.549 135.282 201.786 135.043 201.959 134.826C202.408 133.97 202.645 133.018 202.651 132.051C202.72 130.924 202.72 129.794 202.651 128.668C202.665 128.305 202.82 127.963 203.083 127.714C203.206 127.584 203.353 127.481 203.517 127.41C203.68 127.339 203.856 127.302 204.034 127.302H208.356C208.536 127.301 208.714 127.338 208.879 127.408C209.045 127.478 209.194 127.581 209.319 127.711C209.444 127.84 209.542 127.993 209.607 128.162C209.671 128.33 209.702 128.509 209.696 128.689C209.638 129.816 209.638 130.945 209.696 132.072C209.685 133.027 209.9 133.971 210.323 134.826L210.993 135.542C211.85 136.384 212.578 137.349 213.154 138.404C213.955 140.115 214.375 141.979 214.386 143.869V143.869C214.515 147.924 214.386 157.878 214.386 162.583C214.376 163.269 214.107 163.926 213.634 164.421C213.161 164.916 212.518 165.212 211.836 165.251V165.251ZM204.034 127.822C203.924 127.821 203.815 127.844 203.714 127.889C203.614 127.934 203.524 128 203.45 128.082C203.366 128.157 203.3 128.251 203.259 128.357C203.217 128.463 203.202 128.577 203.213 128.689C203.231 129.811 203.195 130.933 203.105 132.051C203.104 133.096 202.844 134.124 202.348 135.043L201.678 135.802C200.812 136.594 200.081 137.525 199.517 138.556C198.725 140.222 198.319 142.045 198.329 143.891C198.199 147.924 198.329 157.878 198.329 162.583C198.329 163.159 198.556 163.71 198.962 164.117C199.367 164.524 199.917 164.752 200.49 164.752H211.727C212.301 164.752 212.85 164.524 213.256 164.117C213.661 163.71 213.889 163.159 213.889 162.583C213.889 157.878 213.889 147.924 213.889 143.891C213.938 142.055 213.576 140.232 212.83 138.556C212.29 137.545 211.597 136.623 210.777 135.824L210.085 135.043C209.59 134.125 209.338 133.095 209.35 132.051C209.271 130.903 209.271 129.751 209.35 128.603C209.353 128.491 209.333 128.379 209.292 128.275C209.251 128.171 209.19 128.076 209.113 127.995C209.035 127.913 208.941 127.847 208.837 127.802C208.733 127.757 208.621 127.734 208.507 127.735L204.034 127.822Z" fill="#2D1A16"/>
<path d="M213.175 143.912C213.196 142.344 212.871 140.791 212.225 139.363C211.579 137.935 210.627 136.667 209.437 135.65C208.226 134.154 208.399 128.646 208.399 128.646H204.077C204.077 128.646 204.25 134.154 203.04 135.65C201.85 136.667 200.898 137.935 200.252 139.363C199.605 140.791 199.281 142.344 199.301 143.912C199.15 148.25 199.301 159.092 199.301 162.562C199.301 162.74 199.336 162.917 199.405 163.081C199.474 163.246 199.574 163.395 199.701 163.52C199.828 163.645 199.978 163.744 200.143 163.81C200.308 163.877 200.485 163.909 200.663 163.906H211.9C212.078 163.909 212.255 163.877 212.42 163.81C212.585 163.744 212.735 163.645 212.862 163.52C212.988 163.395 213.089 163.246 213.158 163.081C213.226 162.917 213.262 162.74 213.262 162.562C213.24 159.049 213.327 148.25 213.175 143.912Z" fill="#DAE9F2"/>
<path d="M200.317 142.893C200.187 147.23 200.187 158.073 200.317 161.412C200.311 161.745 200.434 162.066 200.66 162.309C200.886 162.552 201.197 162.697 201.527 162.714H211.295C211.46 162.708 211.622 162.67 211.772 162.601C211.922 162.533 212.057 162.436 212.169 162.315C212.282 162.194 212.369 162.052 212.427 161.897C212.485 161.742 212.511 161.578 212.506 161.412C212.506 158.073 212.506 147.295 212.506 142.958L200.317 142.893Z" fill="#E9EFF4"/>
<path d="M206.216 127.583C208.305 127.583 209.998 127.263 209.998 126.868C209.998 126.472 208.305 126.152 206.216 126.152C204.128 126.152 202.435 126.472 202.435 126.868C202.435 127.263 204.128 127.583 206.216 127.583Z" fill="#D0DBE2"/>
<path d="M206.216 127.822C205.304 127.826 204.393 127.753 203.493 127.605C202.586 127.432 202.197 127.215 202.197 126.868C202.197 126.521 202.586 126.282 203.493 126.109C204.393 125.96 205.304 125.888 206.216 125.892C207.129 125.887 208.039 125.96 208.939 126.109C209.847 126.282 210.258 126.521 210.258 126.868C210.258 127.215 209.847 127.432 208.939 127.605C208.039 127.754 207.129 127.827 206.216 127.822V127.822ZM202.759 126.868C203.874 127.228 205.047 127.375 206.216 127.302C207.393 127.374 208.573 127.227 209.696 126.868C208.578 126.485 207.395 126.33 206.216 126.412C205.045 126.327 203.868 126.482 202.759 126.868V126.868Z" fill="#2D1A16"/>
<path d="M203.299 123.984L204.358 129.882C204.409 130.15 204.551 130.392 204.76 130.566C204.969 130.74 205.232 130.836 205.504 130.836H206.973C207.242 130.837 207.503 130.744 207.711 130.575C207.92 130.405 208.064 130.168 208.119 129.904L209.134 123.984H203.299Z" fill="#B57E37"/>
<path d="M203.299 123.984L203.559 125.437C204.187 125.539 204.823 125.59 205.46 125.588C206.995 125.588 208.27 125.328 208.378 124.981L207.276 130.684C207.467 130.619 207.637 130.505 207.77 130.353C207.903 130.2 207.993 130.016 208.032 129.817L209.134 123.984H203.299Z" fill="#9E662A"/>
<path d="M206.973 131.01H205.59C205.259 131.009 204.939 130.892 204.686 130.678C204.433 130.463 204.263 130.166 204.207 129.839L203.127 124.049C203.108 124.016 203.098 123.978 203.098 123.94C203.098 123.902 203.108 123.865 203.127 123.832C203.157 123.817 203.19 123.809 203.224 123.809C203.258 123.809 203.291 123.817 203.321 123.832H209.134C209.165 123.818 209.198 123.811 209.232 123.811C209.265 123.811 209.298 123.818 209.329 123.832C209.344 123.866 209.353 123.903 209.353 123.94C209.353 123.978 209.344 124.015 209.329 124.049L208.292 129.882C208.222 130.188 208.057 130.462 207.819 130.666C207.582 130.869 207.285 130.989 206.973 131.01V131.01ZM203.602 124.244L204.618 129.752C204.654 129.961 204.763 130.15 204.925 130.285C205.088 130.42 205.293 130.492 205.504 130.489H206.973C207.187 130.493 207.395 130.421 207.561 130.287C207.727 130.152 207.84 129.962 207.881 129.752L208.94 124.244H203.602Z" fill="#2D1A16"/>
<path d="M204.164 128.689L204.38 129.795C204.425 130.062 204.563 130.303 204.769 130.478C204.974 130.652 205.234 130.748 205.503 130.75H206.973C207.222 130.74 207.461 130.65 207.655 130.494C207.85 130.338 207.989 130.123 208.054 129.882L208.27 128.711C207.553 128.8 206.831 128.844 206.109 128.841C205.458 128.829 204.808 128.778 204.164 128.689V128.689Z" fill="#9E662A"/>
<path d="M206.973 131.01H205.568C205.238 131.005 204.92 130.886 204.668 130.672C204.415 130.459 204.245 130.164 204.185 129.839L203.99 128.733C203.971 128.7 203.961 128.662 203.961 128.624C203.961 128.586 203.971 128.549 203.99 128.516C204.024 128.5 204.061 128.492 204.098 128.492C204.136 128.492 204.173 128.5 204.206 128.516C204.809 128.588 205.415 128.624 206.022 128.624C206.745 128.621 207.467 128.57 208.183 128.472C208.259 128.442 208.344 128.442 208.421 128.472C208.442 128.543 208.442 128.619 208.421 128.689L208.183 129.86C208.127 130.155 207.98 130.425 207.762 130.631C207.545 130.837 207.269 130.97 206.973 131.01V131.01ZM204.552 128.971L204.682 129.752C204.722 129.959 204.832 130.145 204.994 130.28C205.155 130.414 205.358 130.488 205.568 130.489H206.973C207.183 130.488 207.386 130.414 207.547 130.28C207.709 130.145 207.819 129.959 207.859 129.752L208.032 128.928C207.384 128.963 206.734 128.963 206.087 128.928C205.482 129.036 204.963 129.015 204.487 128.971H204.552Z" fill="#2D1A16"/>
<path d="M206.216 124.634C207.84 124.634 209.156 124.343 209.156 123.984C209.156 123.624 207.84 123.333 206.216 123.333C204.593 123.333 203.277 123.624 203.277 123.984C203.277 124.343 204.593 124.634 206.216 124.634Z" fill="#D59C47"/>
<path d="M206.216 124.916C205.892 124.916 203.04 124.916 203.04 123.984C203.04 123.051 205.892 123.073 206.216 123.073C206.541 123.073 209.415 123.073 209.415 123.984C209.415 124.894 206.541 124.916 206.216 124.916ZM203.58 123.984C205.295 124.535 207.138 124.535 208.853 123.984C207.134 123.463 205.299 123.463 203.58 123.984Z" fill="#2D1A16"/>
<path d="M206.216 127.562C204.055 127.562 202.435 127.258 202.435 126.868V128.082C202.435 128.473 204.142 128.776 206.216 128.776C208.291 128.776 209.998 128.473 209.998 128.082V126.868C209.998 127.258 208.313 127.562 206.216 127.562Z" fill="#E9EFF4"/>
<path d="M206.216 129.036C205.304 129.051 204.392 128.979 203.493 128.819C202.586 128.646 202.197 128.429 202.197 128.082V126.868C202.194 126.835 202.198 126.801 202.208 126.77C202.219 126.738 202.236 126.709 202.258 126.685C202.281 126.66 202.308 126.641 202.338 126.628C202.369 126.614 202.401 126.607 202.435 126.608C202.496 126.607 202.557 126.628 202.604 126.668C202.652 126.708 202.684 126.763 202.694 126.824C203.819 127.24 205.022 127.402 206.216 127.301C207.411 127.405 208.614 127.242 209.739 126.824C209.749 126.763 209.781 126.708 209.829 126.668C209.876 126.628 209.936 126.607 209.998 126.608C210.067 126.608 210.133 126.635 210.182 126.684C210.23 126.733 210.258 126.799 210.258 126.868V128.082C210.258 128.429 209.847 128.646 208.939 128.819C208.041 128.98 207.129 129.052 206.216 129.036V129.036ZM202.651 128.039C203.774 128.465 204.977 128.635 206.173 128.538C207.37 128.638 208.574 128.468 209.696 128.039V127.388C209.437 127.487 209.169 127.56 208.896 127.605C207.996 127.754 207.085 127.827 206.173 127.822C205.261 127.826 204.35 127.753 203.45 127.605C203.178 127.557 202.91 127.484 202.651 127.388V128.039Z" fill="#2D1A16"/>
<path d="M206.411 144.281C209.777 144.281 212.505 143.718 212.505 143.023C212.505 142.329 209.777 141.766 206.411 141.766C203.045 141.766 200.317 142.329 200.317 143.023C200.317 143.718 203.045 144.281 206.411 144.281Z" fill="white"/>
<g opacity="0.8">
<path opacity="0.8" d="M210.237 160.176C210.905 160.176 211.447 155.429 211.447 149.572C211.447 143.716 210.905 138.968 210.237 138.968C209.568 138.968 209.026 143.716 209.026 149.572C209.026 155.429 209.568 160.176 210.237 160.176Z" fill="white"/>
</g>
<path d="M210.885 161.434C210.885 161.567 210.846 161.697 210.772 161.808C210.698 161.918 210.594 162.004 210.471 162.055C210.349 162.106 210.214 162.119 210.084 162.094C209.954 162.068 209.835 162.004 209.741 161.91C209.647 161.816 209.584 161.696 209.558 161.565C209.532 161.435 209.545 161.3 209.596 161.177C209.647 161.054 209.732 160.949 209.843 160.875C209.953 160.801 210.082 160.762 210.215 160.762C210.393 160.762 210.563 160.833 210.689 160.959C210.814 161.085 210.885 161.256 210.885 161.434V161.434Z" fill="white"/>
<path d="M240.297 143.696C240.289 141.843 239.876 140.014 239.087 138.339C238.505 137.307 237.777 136.365 236.926 135.542C236.689 135.301 236.465 135.048 236.256 134.783C235.78 133.906 235.542 132.919 235.564 131.92C235.46 130.782 235.424 129.637 235.456 128.494C235.459 128.205 235.351 127.925 235.154 127.714C234.95 127.5 234.67 127.375 234.376 127.367H230.053C229.907 127.366 229.761 127.396 229.627 127.456C229.493 127.516 229.373 127.604 229.275 127.714C229.171 127.814 229.088 127.936 229.033 128.07C228.977 128.204 228.949 128.349 228.951 128.494C228.995 129.637 228.959 130.782 228.843 131.92C228.852 132.915 228.622 133.896 228.173 134.783L227.503 135.542C226.639 136.353 225.91 137.297 225.342 138.339C224.588 140.022 224.219 141.852 224.262 143.696C224.132 147.729 224.262 157.683 224.262 162.388C224.273 163.033 224.535 163.647 224.991 164.101C225.447 164.555 226.062 164.812 226.704 164.817H237.877C238.517 164.817 239.132 164.565 239.588 164.115C240.045 163.665 240.307 163.052 240.319 162.41C240.362 157.683 240.427 147.729 240.297 143.696Z" fill="#FDFEFF"/>
<path d="M237.877 165.056H226.617C225.914 165.056 225.239 164.778 224.738 164.283C224.236 163.788 223.949 163.116 223.938 162.41C223.938 157.704 223.808 147.751 223.938 143.696C223.963 141.805 224.39 139.942 225.191 138.231C225.761 137.178 226.49 136.219 227.352 135.39L228 134.653C228 134.653 228.433 134.024 228.649 131.92C228.706 130.786 228.706 129.65 228.649 128.516C228.638 128.155 228.77 127.804 229.016 127.54C229.144 127.414 229.297 127.314 229.463 127.247C229.63 127.18 229.809 127.147 229.989 127.15H234.311C234.487 127.146 234.663 127.179 234.826 127.246C234.99 127.313 235.138 127.413 235.262 127.54C235.517 127.808 235.657 128.167 235.651 128.538C235.572 129.664 235.572 130.794 235.651 131.92C235.637 132.869 235.852 133.806 236.277 134.653C236.45 134.87 236.688 135.108 236.926 135.368C237.789 136.205 238.518 137.17 239.087 138.231C239.908 139.935 240.336 141.803 240.34 143.696V143.696C240.47 147.751 240.34 157.704 240.34 162.41C240.327 163.078 240.068 163.718 239.613 164.206C239.158 164.694 238.54 164.997 237.877 165.056V165.056ZM230.075 127.713C229.961 127.71 229.848 127.731 229.744 127.776C229.639 127.821 229.546 127.889 229.47 127.974C229.392 128.054 229.331 128.149 229.29 128.253C229.25 128.358 229.23 128.469 229.232 128.581C229.3 129.729 229.3 130.881 229.232 132.029C229.242 133.079 228.989 134.116 228.497 135.043C228.303 135.282 228.065 135.52 227.806 135.802C226.952 136.598 226.224 137.519 225.645 138.534C224.866 140.174 224.46 141.966 224.456 143.782C224.327 147.816 224.456 157.769 224.456 162.475C224.456 163.05 224.684 163.602 225.089 164.008C225.494 164.415 226.044 164.644 226.617 164.644H237.877C238.45 164.644 238.999 164.415 239.405 164.008C239.81 163.602 240.038 163.05 240.038 162.475C240.038 157.769 240.038 147.816 240.038 143.782C240.031 141.974 239.625 140.189 238.849 138.556C238.278 137.536 237.548 136.614 236.688 135.824C236.451 135.583 236.228 135.33 236.018 135.065C235.55 134.132 235.327 133.094 235.37 132.051C235.312 130.902 235.312 129.751 235.37 128.603C235.372 128.491 235.352 128.379 235.312 128.275C235.271 128.171 235.21 128.076 235.132 127.995C235.059 127.913 234.969 127.847 234.868 127.802C234.767 127.758 234.659 127.735 234.548 127.735L230.075 127.713Z" fill="#2D1A16"/>
<path d="M239.217 143.717C239.239 142.15 238.913 140.597 238.262 139.172C237.612 137.746 236.653 136.484 235.456 135.477C234.268 133.959 234.441 128.472 234.441 128.472H230.118C230.118 128.472 230.291 133.959 229.081 135.477C227.884 136.484 226.926 137.746 226.275 139.172C225.625 140.597 225.299 142.15 225.321 143.717C225.191 148.054 225.321 158.897 225.321 162.367C225.321 162.723 225.462 163.065 225.713 163.317C225.965 163.569 226.305 163.711 226.661 163.711H237.877C238.234 163.711 238.577 163.57 238.832 163.319C239.087 163.067 239.233 162.725 239.238 162.367C239.26 158.854 239.39 148.054 239.217 143.717Z" fill="#DAE9F2"/>
<path d="M226.423 142.763C226.423 147.1 226.293 157.943 226.423 161.282C226.414 161.447 226.438 161.611 226.493 161.765C226.549 161.92 226.634 162.062 226.745 162.183C226.856 162.305 226.989 162.402 227.138 162.471C227.287 162.54 227.448 162.578 227.611 162.584H237.596C237.926 162.567 238.237 162.422 238.463 162.179C238.689 161.936 238.812 161.615 238.806 161.282C238.806 157.943 238.806 147.165 238.698 142.85L226.423 142.763Z" fill="#E9EFF4"/>
<path d="M232.258 127.388C234.346 127.388 236.039 127.068 236.039 126.673C236.039 126.277 234.346 125.957 232.258 125.957C230.169 125.957 228.476 126.277 228.476 126.673C228.476 127.068 230.169 127.388 232.258 127.388Z" fill="#D0DBE2"/>
<path d="M232.258 127.713C231.345 127.729 230.433 127.657 229.535 127.497C228.627 127.345 228.216 127.106 228.216 126.759C228.216 126.412 228.627 126.174 229.535 126C230.435 125.859 231.346 125.794 232.258 125.805C233.162 125.794 234.066 125.859 234.959 126C235.867 126.174 236.277 126.412 236.277 126.759C236.277 127.106 235.867 127.345 234.959 127.497C234.068 127.657 233.163 127.729 232.258 127.713ZM228.778 126.759C229.899 127.131 231.079 127.285 232.258 127.215C233.429 127.286 234.602 127.132 235.715 126.759C234.602 126.387 233.429 126.232 232.258 126.304C231.085 126.205 229.904 126.33 228.778 126.673V126.759Z" fill="#2D1A16"/>
<path d="M229.319 123.81L230.399 129.6C230.441 129.868 230.577 130.112 230.784 130.288C230.99 130.463 231.253 130.558 231.523 130.554H232.906C233.175 130.555 233.436 130.463 233.644 130.293C233.853 130.123 233.997 129.886 234.052 129.622L235.154 123.81H229.319Z" fill="#B57E37"/>
<path d="M229.319 123.81L229.578 125.241C230.207 125.343 230.843 125.394 231.48 125.393C233.036 125.393 234.289 125.133 234.419 124.786L233.317 130.489C233.506 130.421 233.674 130.305 233.806 130.153C233.939 130.002 234.031 129.819 234.073 129.622L235.175 123.81H229.319Z" fill="#9E662A"/>
<path d="M232.906 130.815H231.501C231.174 130.811 230.859 130.695 230.607 130.486C230.355 130.277 230.183 129.987 230.118 129.665L229.059 123.854C229.044 123.82 229.036 123.783 229.036 123.745C229.036 123.708 229.044 123.671 229.059 123.637C229.09 123.623 229.123 123.616 229.156 123.616C229.19 123.616 229.223 123.623 229.254 123.637H235.11C235.14 123.621 235.174 123.614 235.208 123.614C235.241 123.614 235.275 123.621 235.305 123.637C235.32 123.671 235.328 123.708 235.328 123.745C235.328 123.783 235.32 123.82 235.305 123.854L234.181 129.665C234.125 129.971 233.969 130.25 233.738 130.458C233.508 130.666 233.215 130.791 232.906 130.815V130.815ZM229.6 124.049L230.745 129.557C230.785 129.764 230.895 129.95 231.057 130.084C231.218 130.219 231.421 130.293 231.631 130.294H232.906C233.113 130.294 233.313 130.223 233.475 130.093C233.636 129.963 233.748 129.781 233.792 129.578L234.851 124.049H229.6Z" fill="#2D1A16"/>
<path d="M230.205 128.494L230.399 129.6C230.449 129.868 230.591 130.11 230.8 130.284C231.01 130.458 231.273 130.554 231.544 130.554H232.906C233.172 130.554 233.43 130.461 233.635 130.291C233.84 130.121 233.98 129.884 234.03 129.622L234.267 128.451C233.515 128.543 232.757 128.587 231.998 128.581C231.399 128.586 230.8 128.557 230.205 128.494V128.494Z" fill="#9E662A"/>
<path d="M232.906 130.815H231.501C231.173 130.815 230.856 130.701 230.603 130.491C230.35 130.281 230.179 129.989 230.118 129.665L229.902 128.538C229.883 128.467 229.883 128.392 229.902 128.321C229.936 128.305 229.973 128.297 230.01 128.297C230.048 128.297 230.084 128.305 230.118 128.321C230.68 128.321 231.307 128.321 231.934 128.321C232.657 128.327 233.379 128.276 234.095 128.169C234.129 128.155 234.166 128.147 234.203 128.147C234.24 128.147 234.277 128.155 234.311 128.169C234.33 128.202 234.34 128.239 234.34 128.277C234.34 128.315 234.33 128.353 234.311 128.386L234.095 129.557C234.064 129.869 233.931 130.163 233.716 130.391C233.5 130.618 233.216 130.768 232.906 130.815V130.815ZM230.464 128.776L230.615 129.557C230.651 129.765 230.76 129.954 230.923 130.089C231.085 130.225 231.29 130.297 231.501 130.294H232.906C233.113 130.294 233.314 130.223 233.475 130.093C233.636 129.963 233.748 129.781 233.792 129.578L233.943 128.754C233.296 128.789 232.646 128.789 231.998 128.754C231.523 128.841 231.004 128.819 230.507 128.776H230.464Z" fill="#2D1A16"/>
<path d="M235.175 123.81C235.175 124.157 233.879 124.461 232.258 124.461C230.637 124.461 229.319 124.157 229.319 123.81C229.319 123.463 230.637 123.138 232.258 123.138C233.879 123.138 235.175 123.376 235.175 123.81Z" fill="#D59C47"/>
<path d="M232.258 124.721C231.934 124.721 229.06 124.721 229.06 123.81C229.06 122.899 231.934 122.878 232.258 122.878C232.582 122.878 235.435 122.878 235.435 123.81C235.435 124.743 232.582 124.721 232.258 124.721ZM229.6 123.81C230.448 124.13 231.354 124.263 232.258 124.2C233.155 124.264 234.054 124.131 234.895 123.81C234.062 123.458 233.159 123.31 232.258 123.376C231.35 123.311 230.44 123.46 229.6 123.81V123.81Z" fill="#2D1A16"/>
<path d="M232.257 127.367C230.096 127.367 228.476 127.063 228.476 126.673V127.887C228.476 128.277 230.161 128.581 232.257 128.581C234.354 128.581 236.018 128.277 236.018 127.887V126.673C236.018 127.063 234.332 127.367 232.257 127.367Z" fill="#E9EFF4"/>
<path d="M232.258 128.841C231.345 128.857 230.433 128.784 229.535 128.624C228.627 128.473 228.216 128.234 228.216 127.887V126.673C228.212 126.627 228.22 126.581 228.239 126.54C228.258 126.498 228.288 126.462 228.325 126.436C228.362 126.41 228.406 126.393 228.451 126.389C228.497 126.385 228.542 126.393 228.584 126.412C228.614 126.409 228.644 126.413 228.673 126.422C228.702 126.432 228.728 126.447 228.751 126.468C228.773 126.488 228.791 126.513 228.803 126.541C228.815 126.569 228.822 126.599 228.822 126.629C229.952 127.056 231.162 127.227 232.366 127.128C233.562 127.229 234.766 127.058 235.888 126.629C235.904 126.576 235.937 126.529 235.982 126.495C236.027 126.462 236.081 126.443 236.137 126.443C236.193 126.443 236.247 126.462 236.292 126.495C236.337 126.529 236.369 126.576 236.385 126.629V127.844C236.385 128.191 235.975 128.429 235.067 128.581C234.142 128.763 233.201 128.85 232.258 128.841ZM228.735 127.844C229.857 128.273 231.061 128.443 232.258 128.342C233.454 128.44 234.657 128.27 235.78 127.844V127.193C235.514 127.292 235.239 127.365 234.959 127.41C234.068 127.57 233.163 127.643 232.258 127.627C231.345 127.643 230.433 127.57 229.535 127.41C229.261 127.368 228.993 127.295 228.735 127.193V127.844Z" fill="#2D1A16"/>
<path d="M238.525 142.893C238.525 143.587 235.802 144.151 232.431 144.151C229.059 144.151 226.423 143.544 226.423 142.893C226.423 142.243 229.146 141.635 232.517 141.635C235.888 141.635 238.525 142.156 238.525 142.893Z" fill="white"/>
<g opacity="0.8">
<path opacity="0.8" d="M236.278 159.981C236.946 159.981 237.488 155.234 237.488 149.377C237.488 143.521 236.946 138.773 236.278 138.773C235.609 138.773 235.067 143.521 235.067 149.377C235.067 155.234 235.609 159.981 236.278 159.981Z" fill="white"/>
</g>
<path d="M236.904 161.239C236.904 161.372 236.865 161.502 236.791 161.612C236.718 161.723 236.613 161.809 236.491 161.86C236.368 161.911 236.234 161.924 236.104 161.898C235.974 161.872 235.854 161.808 235.761 161.714C235.667 161.62 235.603 161.5 235.577 161.37C235.551 161.24 235.565 161.104 235.615 160.982C235.666 160.859 235.752 160.754 235.862 160.68C235.972 160.606 236.102 160.567 236.234 160.567C236.412 160.567 236.582 160.637 236.708 160.764C236.834 160.89 236.904 161.061 236.904 161.239V161.239Z" fill="white"/>
<path d="M227.871 143.891C227.86 142.045 227.447 140.225 226.661 138.556C226.072 137.522 225.345 136.573 224.5 135.737C224.258 135.508 224.035 135.262 223.83 135C223.362 134.09 223.146 133.072 223.203 132.05C223.099 130.912 223.062 129.767 223.095 128.624C223.101 128.478 223.077 128.333 223.026 128.196C222.974 128.059 222.895 127.935 222.794 127.829C222.693 127.724 222.572 127.64 222.438 127.583C222.304 127.526 222.16 127.496 222.014 127.497H217.692C217.546 127.497 217.401 127.526 217.265 127.583C217.13 127.64 217.008 127.723 216.905 127.828C216.803 127.933 216.722 128.058 216.668 128.194C216.614 128.331 216.587 128.477 216.59 128.624C216.619 129.768 216.569 130.913 216.439 132.05C216.447 133.045 216.218 134.026 215.769 134.913C215.574 135.151 215.337 135.39 215.099 135.65C214.24 136.474 213.511 137.425 212.938 138.469C212.132 140.139 211.711 141.97 211.706 143.826C211.576 147.859 211.706 157.813 211.706 162.518C211.723 163.159 211.987 163.768 212.442 164.217C212.898 164.666 213.51 164.92 214.148 164.925H225.407C226.046 164.92 226.658 164.666 227.113 164.217C227.569 163.768 227.833 163.159 227.849 162.518C227.936 157.878 228.001 147.924 227.871 143.891Z" fill="#FDFEFF"/>
<path d="M225.45 165.251H214.191C213.484 165.251 212.806 164.97 212.304 164.471C211.802 163.971 211.517 163.293 211.511 162.583C211.511 157.878 211.382 147.924 211.511 143.869C211.536 141.979 211.964 140.116 212.765 138.404C213.341 137.349 214.069 136.384 214.926 135.542C215.163 135.282 215.401 135.043 215.574 134.826C216.012 133.976 216.235 133.03 216.222 132.072C216.28 130.945 216.28 129.816 216.222 128.689C216.217 128.509 216.247 128.33 216.312 128.162C216.376 127.993 216.474 127.84 216.599 127.711C216.724 127.581 216.874 127.478 217.039 127.408C217.205 127.338 217.383 127.301 217.562 127.302H221.884C222.243 127.308 222.585 127.456 222.835 127.714C223.088 127.975 223.227 128.325 223.224 128.689C223.145 129.816 223.145 130.946 223.224 132.072C223.214 133.027 223.429 133.971 223.851 134.826C224.024 135.043 224.262 135.282 224.499 135.542C225.356 136.384 226.084 137.349 226.661 138.404C227.481 140.109 227.91 141.976 227.914 143.869C228.044 147.924 227.914 157.878 227.914 162.583C227.906 163.255 227.649 163.9 227.194 164.393C226.739 164.886 226.117 165.192 225.45 165.251V165.251ZM217.649 127.822C217.535 127.818 217.422 127.84 217.317 127.885C217.213 127.93 217.119 127.997 217.044 128.082C216.966 128.163 216.905 128.258 216.864 128.362C216.823 128.466 216.804 128.577 216.806 128.689C216.874 129.838 216.874 130.989 216.806 132.137C216.819 133.181 216.566 134.211 216.071 135.13C215.877 135.368 215.639 135.629 215.38 135.889C214.52 136.687 213.79 137.617 213.219 138.643C212.44 140.282 212.034 142.075 212.03 143.891C211.9 147.924 212.03 157.878 212.03 162.583C212.03 163.159 212.258 163.71 212.663 164.117C213.068 164.524 213.618 164.752 214.191 164.752H225.45C226.023 164.752 226.573 164.524 226.978 164.117C227.384 163.71 227.611 163.159 227.611 162.583C227.611 157.878 227.611 147.924 227.611 143.891C227.621 142.045 227.214 140.222 226.423 138.556C225.857 137.532 225.127 136.609 224.262 135.824L223.57 135.043C223.127 134.11 222.912 133.084 222.943 132.051C222.886 130.902 222.886 129.751 222.943 128.603C222.946 128.491 222.926 128.379 222.885 128.275C222.844 128.171 222.783 128.076 222.706 127.995C222.632 127.913 222.542 127.847 222.442 127.802C222.341 127.758 222.232 127.735 222.122 127.735L217.649 127.822Z" fill="#2D1A16"/>
<path d="M226.79 143.912C226.808 142.342 226.48 140.788 225.83 139.36C225.18 137.932 224.224 136.665 223.03 135.65C221.841 134.219 222.101 128.646 222.101 128.646H217.778C217.778 128.646 217.778 134.219 216.611 135.65C215.417 136.665 214.461 137.932 213.811 139.36C213.161 140.788 212.833 142.342 212.851 143.912C212.721 148.25 212.851 159.092 212.851 162.562C212.851 162.738 212.886 162.913 212.953 163.076C213.02 163.239 213.119 163.388 213.244 163.512C213.368 163.637 213.516 163.736 213.678 163.804C213.841 163.872 214.015 163.906 214.191 163.906H225.45C225.808 163.906 226.151 163.765 226.405 163.514C226.66 163.262 226.806 162.92 226.812 162.562C226.833 159.049 226.92 148.25 226.79 143.912Z" fill="#DAE9F2"/>
<path d="M213.91 142.893C213.91 147.23 213.781 158.073 213.91 161.412C213.898 161.742 214.016 162.064 214.239 162.307C214.461 162.551 214.77 162.697 215.099 162.714H225.083C225.412 162.697 225.721 162.551 225.943 162.307C226.165 162.064 226.283 161.742 226.272 161.412C226.272 158.073 226.272 147.295 226.272 142.958L213.91 142.893Z" fill="#E9EFF4"/>
<path d="M219.831 127.583C221.92 127.583 223.613 127.263 223.613 126.868C223.613 126.472 221.92 126.152 219.831 126.152C217.743 126.152 216.049 126.472 216.049 126.868C216.049 127.263 217.743 127.583 219.831 127.583Z" fill="#D0DBE2"/>
<path d="M219.94 127.822C219.028 127.827 218.117 127.754 217.217 127.605C216.309 127.432 215.898 127.215 215.898 126.868C215.898 126.521 216.309 126.282 217.217 126.109C218.117 125.96 219.028 125.887 219.94 125.892C220.845 125.887 221.748 125.959 222.641 126.109C223.549 126.282 223.959 126.521 223.959 126.868C223.959 127.215 223.549 127.432 222.641 127.605C221.748 127.754 220.845 127.827 219.94 127.822V127.822ZM216.46 126.868C217.584 127.227 218.763 127.374 219.94 127.302C221.109 127.375 222.282 127.228 223.397 126.868C222.288 126.482 221.111 126.327 219.94 126.412C218.725 126.315 217.504 126.47 216.352 126.868H216.46Z" fill="#2D1A16"/>
<path d="M216.892 123.984L217.973 129.795C218.014 130.063 218.151 130.307 218.357 130.483C218.564 130.658 218.826 130.753 219.096 130.749H220.501C220.77 130.75 221.031 130.658 221.239 130.488C221.448 130.318 221.592 130.081 221.647 129.817L222.749 123.984H216.892Z" fill="#B57E37"/>
<path d="M216.892 123.984L217.151 125.437C217.78 125.538 218.416 125.589 219.053 125.588C220.609 125.588 221.863 125.328 221.992 124.981L220.89 130.684C221.079 130.616 221.247 130.5 221.38 130.348C221.512 130.197 221.604 130.014 221.647 129.817L222.749 123.984H216.892Z" fill="#9E662A"/>
<path d="M220.502 131.01H219.097C218.784 130.993 218.486 130.873 218.248 130.67C218.01 130.466 217.845 130.189 217.779 129.882L216.72 124.092C216.704 124.058 216.696 124.021 216.696 123.984C216.696 123.946 216.704 123.909 216.72 123.875C216.75 123.861 216.784 123.854 216.817 123.854C216.851 123.854 216.884 123.861 216.914 123.875H222.749C222.78 123.86 222.813 123.852 222.847 123.852C222.88 123.852 222.914 123.86 222.944 123.875C222.959 123.909 222.967 123.946 222.967 123.984C222.967 124.021 222.959 124.058 222.944 124.092L221.885 129.882C221.816 130.2 221.642 130.484 221.39 130.689C221.139 130.894 220.826 131.007 220.502 131.01V131.01ZM217.195 124.244L218.211 129.752C218.251 129.959 218.361 130.145 218.523 130.279C218.684 130.414 218.887 130.488 219.097 130.489H220.502C220.712 130.488 220.915 130.414 221.076 130.279C221.238 130.145 221.348 129.959 221.388 129.752L222.447 124.244H217.195Z" fill="#2D1A16"/>
<path d="M217.778 128.689L217.973 129.795C218.023 130.063 218.165 130.305 218.374 130.479C218.583 130.654 218.846 130.749 219.118 130.749H220.523C220.789 130.749 221.047 130.656 221.252 130.486C221.457 130.316 221.596 130.079 221.647 129.817L221.884 128.646C221.132 128.738 220.374 128.782 219.615 128.776C219.002 128.783 218.388 128.754 217.778 128.689V128.689Z" fill="#9E662A"/>
<path d="M220.524 131.01H219.119C218.801 131.001 218.496 130.885 218.253 130.681C218.009 130.476 217.842 130.194 217.779 129.882L217.563 128.776C217.544 128.705 217.544 128.63 217.563 128.559C217.597 128.545 217.634 128.538 217.671 128.538C217.708 128.538 217.745 128.545 217.779 128.559C218.382 128.63 218.988 128.666 219.594 128.668C220.317 128.664 221.039 128.613 221.755 128.516C221.79 128.502 221.826 128.494 221.863 128.494C221.9 128.494 221.937 128.502 221.971 128.516C221.99 128.549 222 128.586 222 128.624C222 128.662 221.99 128.7 221.971 128.733L221.755 129.904C221.69 130.194 221.536 130.456 221.315 130.654C221.095 130.852 220.818 130.977 220.524 131.01ZM218.081 128.971L218.233 129.752C218.269 129.961 218.378 130.15 218.54 130.285C218.703 130.42 218.908 130.492 219.119 130.489H220.524C220.733 130.488 220.936 130.414 221.098 130.28C221.259 130.145 221.37 129.959 221.41 129.752L221.561 128.928C220.913 128.963 220.264 128.963 219.616 128.928C219.097 129.036 218.557 129.015 218.081 128.971V128.971Z" fill="#2D1A16"/>
<path d="M219.831 124.634C221.454 124.634 222.77 124.343 222.77 123.984C222.77 123.624 221.454 123.333 219.831 123.333C218.208 123.333 216.892 123.624 216.892 123.984C216.892 124.343 218.208 124.634 219.831 124.634Z" fill="#D59C47"/>
<path d="M219.94 124.916C219.615 124.916 216.741 124.916 216.741 123.984C216.741 123.051 219.615 123.073 219.94 123.073C220.264 123.073 223.116 123.073 223.116 123.984C223.116 124.894 220.156 124.916 219.94 124.916ZM217.281 123.984C218.123 124.327 219.034 124.468 219.94 124.396C220.839 124.469 221.742 124.328 222.576 123.984C221.736 123.663 220.836 123.529 219.94 123.593C219 123.515 218.055 123.648 217.173 123.984H217.281Z" fill="#2D1A16"/>
<path d="M219.94 127.562C217.779 127.562 216.158 127.258 216.158 126.868V128.082C216.158 128.473 217.843 128.776 219.94 128.776C222.036 128.776 223.7 128.473 223.7 128.082V126.868C223.592 127.258 221.906 127.562 219.94 127.562Z" fill="#E9EFF4"/>
<path d="M219.94 129.036C219.027 129.052 218.115 128.979 217.217 128.819C216.309 128.646 215.898 128.429 215.898 128.082V126.868C215.898 126.799 215.926 126.733 215.974 126.684C216.023 126.635 216.089 126.608 216.158 126.608C216.188 126.604 216.218 126.608 216.247 126.617C216.276 126.627 216.302 126.642 216.325 126.663C216.347 126.683 216.365 126.708 216.377 126.736C216.389 126.764 216.396 126.794 216.395 126.824C217.529 127.238 218.738 127.401 219.94 127.301C221.135 127.402 222.337 127.24 223.462 126.824C223.478 126.771 223.511 126.724 223.556 126.69C223.601 126.657 223.655 126.638 223.711 126.638C223.767 126.638 223.821 126.657 223.866 126.69C223.911 126.724 223.943 126.771 223.959 126.824V128.039C223.959 128.386 223.549 128.603 222.641 128.776C221.751 128.951 220.846 129.038 219.94 129.036ZM216.417 128.039C217.539 128.468 218.743 128.638 219.94 128.538C221.136 128.635 222.339 128.465 223.462 128.039V127.388C223.196 127.487 222.921 127.56 222.641 127.605C221.748 127.754 220.845 127.827 219.94 127.822C219.028 127.827 218.117 127.754 217.217 127.605C216.943 127.563 216.675 127.49 216.417 127.388V128.039Z" fill="#2D1A16"/>
<path d="M220.004 144.281C223.37 144.281 226.099 143.718 226.099 143.023C226.099 142.329 223.37 141.766 220.004 141.766C216.639 141.766 213.91 142.329 213.91 143.023C213.91 143.718 216.639 144.281 220.004 144.281Z" fill="white"/>
<g opacity="0.8">
<path opacity="0.8" d="M223.851 160.176C224.52 160.176 225.062 155.429 225.062 149.572C225.062 143.716 224.52 138.968 223.851 138.968C223.183 138.968 222.641 143.716 222.641 149.572C222.641 155.429 223.183 160.176 223.851 160.176Z" fill="white"/>
</g>
<path d="M224.478 161.434C224.478 161.567 224.439 161.697 224.365 161.808C224.292 161.918 224.187 162.004 224.064 162.055C223.942 162.106 223.807 162.119 223.677 162.094C223.547 162.068 223.428 162.004 223.334 161.91C223.241 161.816 223.177 161.696 223.151 161.565C223.125 161.435 223.138 161.3 223.189 161.177C223.24 161.054 223.326 160.949 223.436 160.875C223.546 160.801 223.676 160.762 223.808 160.762C223.986 160.762 224.156 160.833 224.282 160.959C224.407 161.085 224.478 161.256 224.478 161.434V161.434Z" fill="white"/>
<path d="M243.063 145.474H234.808V158.398H243.063V145.474Z" fill="#B57E37"/>
<path d="M223.311 145.474H215.056V158.398H223.311V145.474Z" fill="#B57E37"/>
<path d="M203.926 145.474H195.671V158.398H203.926V145.474Z" fill="#B57E37"/>
<path d="M243.063 148.727H234.808V151.264H243.063V148.727Z" fill="#9E662A"/>
<path d="M223.311 148.727H215.056V151.264H223.311V148.727Z" fill="#9E662A"/>
<path d="M203.926 148.727H195.671V151.264H203.926V148.727Z" fill="#9E662A"/>
<path d="M243.063 158.637H234.808C234.776 158.64 234.743 158.636 234.713 158.626C234.683 158.615 234.655 158.597 234.632 158.574C234.609 158.552 234.592 158.524 234.581 158.493C234.57 158.463 234.567 158.43 234.57 158.398V145.387C234.567 145.354 234.571 145.321 234.582 145.289C234.592 145.258 234.609 145.229 234.632 145.204C234.654 145.18 234.681 145.16 234.712 145.147C234.742 145.133 234.775 145.127 234.808 145.127H243.063C243.119 145.105 243.18 145.105 243.236 145.127C243.261 145.189 243.261 145.259 243.236 145.322V158.333C243.246 158.364 243.249 158.397 243.246 158.43C243.242 158.463 243.232 158.494 243.216 158.523C243.199 158.551 243.177 158.576 243.151 158.596C243.125 158.615 243.095 158.629 243.063 158.637V158.637ZM235.067 158.073H242.804V145.734H235.067V158.073Z" fill="#2D1A16"/>
<path d="M223.289 158.637H215.055C215.022 158.64 214.989 158.636 214.958 158.625C214.926 158.614 214.897 158.597 214.873 158.575C214.849 158.552 214.829 158.525 214.816 158.495C214.803 158.464 214.796 158.431 214.796 158.398V145.387C214.796 145.318 214.823 145.252 214.872 145.203C214.92 145.154 214.986 145.127 215.055 145.127H223.289C223.358 145.127 223.424 145.154 223.472 145.203C223.521 145.252 223.548 145.318 223.548 145.387V158.398C223.548 158.431 223.542 158.464 223.528 158.495C223.515 158.525 223.496 158.552 223.471 158.575C223.447 158.597 223.418 158.614 223.387 158.625C223.355 158.636 223.322 158.64 223.289 158.637V158.637ZM215.293 158.073H223.051V145.734H215.293V158.073Z" fill="#2D1A16"/>
<path d="M203.905 158.637H195.671C195.607 158.655 195.54 158.655 195.476 158.637C195.455 158.581 195.455 158.519 195.476 158.463V145.452C195.476 145.383 195.504 145.317 195.552 145.268C195.601 145.219 195.667 145.192 195.736 145.192H203.969C204.032 145.167 204.101 145.167 204.164 145.192C204.182 145.256 204.182 145.323 204.164 145.387V158.398C204.164 158.431 204.157 158.464 204.144 158.495C204.131 158.525 204.111 158.553 204.087 158.575C204.062 158.597 204.034 158.615 204.002 158.625C203.971 158.636 203.937 158.64 203.905 158.637ZM195.908 158.073H203.667V145.734H195.908V158.073Z" fill="#2D1A16"/>
<path d="M245.116 145.474H193.358V149.616H245.116V145.474Z" fill="#D59C47"/>
<path d="M245.116 145.474H193.358V146.623H245.116V145.474Z" fill="#B57E37"/>
<path d="M245.116 149.854H193.25C193.217 149.857 193.184 149.853 193.152 149.843C193.121 149.832 193.092 149.815 193.068 149.792C193.043 149.77 193.024 149.743 193.011 149.712C192.997 149.682 192.991 149.649 192.991 149.616V145.474C192.991 145.405 193.018 145.339 193.067 145.29C193.115 145.241 193.181 145.214 193.25 145.214H245.116C245.185 145.214 245.251 145.241 245.3 145.29C245.348 145.339 245.376 145.405 245.376 145.474V149.616C245.37 149.681 245.341 149.742 245.292 149.786C245.244 149.83 245.182 149.854 245.116 149.854V149.854ZM193.617 149.399H244.857V145.734H193.617V149.399Z" fill="#2D1A16"/>
<path d="M243.063 154.907H234.808V167.831H243.063V154.907Z" fill="#B57E37"/>
<path d="M223.311 154.907H215.056V167.831H223.311V154.907Z" fill="#B57E37"/>
<path d="M203.926 154.907H195.671V167.831H203.926V154.907Z" fill="#B57E37"/>
<path d="M243.063 158.16H234.808V160.697H243.063V158.16Z" fill="#9E662A"/>
<path d="M223.311 158.16H215.056V160.697H223.311V158.16Z" fill="#9E662A"/>
<path d="M203.926 158.16H195.671V160.697H203.926V158.16Z" fill="#9E662A"/>
<path d="M243.063 168.07H234.808C234.752 168.092 234.691 168.092 234.635 168.07C234.616 168.006 234.616 167.938 234.635 167.875V154.864C234.632 154.83 234.636 154.797 234.647 154.766C234.657 154.734 234.674 154.705 234.697 154.681C234.719 154.656 234.746 154.637 234.777 154.623C234.807 154.61 234.84 154.603 234.873 154.603H243.063C243.119 154.582 243.181 154.582 243.236 154.603C243.251 154.634 243.259 154.667 243.259 154.701C243.259 154.735 243.251 154.768 243.236 154.799V167.81C243.239 167.866 243.224 167.922 243.193 167.969C243.162 168.016 243.116 168.051 243.063 168.07V168.07ZM235.067 167.571H242.804V155.145H235.067V167.571Z" fill="#2D1A16"/>
<path d="M223.289 168.07H215.055C214.986 168.07 214.92 168.042 214.872 167.994C214.823 167.945 214.796 167.879 214.796 167.81V154.798C214.796 154.729 214.823 154.663 214.872 154.614C214.92 154.566 214.986 154.538 215.055 154.538H223.289C223.358 154.538 223.424 154.566 223.472 154.614C223.521 154.663 223.548 154.729 223.548 154.798V167.81C223.548 167.879 223.521 167.945 223.472 167.994C223.424 168.042 223.358 168.07 223.289 168.07V168.07ZM215.293 167.571H223.051V155.145H215.293V167.571Z" fill="#2D1A16"/>
<path d="M203.904 168.07H195.671C195.636 168.073 195.6 168.069 195.567 168.057C195.535 168.045 195.505 168.026 195.48 168.001C195.455 167.976 195.436 167.946 195.424 167.913C195.412 167.88 195.408 167.845 195.411 167.81V154.798C195.411 154.729 195.439 154.663 195.487 154.614C195.536 154.566 195.602 154.538 195.671 154.538H203.904C203.939 154.535 203.974 154.539 204.007 154.551C204.04 154.563 204.07 154.582 204.095 154.607C204.12 154.632 204.139 154.662 204.151 154.695C204.163 154.728 204.167 154.763 204.164 154.798V167.81C204.164 167.879 204.136 167.945 204.088 167.994C204.039 168.042 203.973 168.07 203.904 168.07V168.07ZM195.908 167.571H203.667V155.145H195.908V167.571Z" fill="#2D1A16"/>
<path d="M245.808 154.755H194.049V158.897H245.808V154.755Z" fill="#D59C47"/>
<path d="M245.808 154.755H194.049V155.904H245.808V154.755Z" fill="#B57E37"/>
<path d="M245.873 159.157H194.006C193.938 159.157 193.872 159.13 193.823 159.081C193.774 159.032 193.747 158.966 193.747 158.897V154.755C193.752 154.688 193.781 154.624 193.829 154.577C193.876 154.529 193.939 154.5 194.006 154.495H245.873C245.941 154.495 246.007 154.522 246.056 154.571C246.105 154.62 246.132 154.686 246.132 154.755V158.897C246.132 158.966 246.105 159.032 246.056 159.081C246.007 159.13 245.941 159.157 245.873 159.157ZM194.374 158.637H245.548V155.015H194.309L194.374 158.637Z" fill="#2D1A16"/>
<path d="M245.808 163.885H194.049V168.027H245.808V163.885Z" fill="#D59C47"/>
<path d="M245.808 163.885H194.049V165.034H245.808V163.885Z" fill="#B57E37"/>
<path d="M245.873 168.265H194.006C193.941 168.265 193.878 168.241 193.83 168.197C193.782 168.152 193.753 168.092 193.747 168.027V163.885C193.747 163.816 193.774 163.749 193.823 163.701C193.872 163.652 193.938 163.624 194.006 163.624H245.873C245.941 163.624 246.007 163.652 246.056 163.701C246.105 163.749 246.132 163.816 246.132 163.885V168.027C246.132 168.06 246.125 168.093 246.112 168.123C246.099 168.154 246.079 168.181 246.055 168.203C246.03 168.226 246.002 168.243 245.97 168.254C245.939 168.264 245.906 168.268 245.873 168.265V168.265ZM194.374 167.766H245.548V164.123H194.309L194.374 167.766Z" fill="#2D1A16"/>
</svg>
