<svg width="300" height="250" viewBox="0 0 300 250" fill="none" xmlns="http://www.w3.org/2000/svg">
<path d="M93.887 194.022C92.4813 188.871 89.3339 185.191 86.5226 185.191H83.803H83.1613C80.1055 186.019 79.0055 191.324 80.5333 196.843C81.8779 201.841 84.8725 205.459 87.6227 205.643H90.2506C90.5442 205.69 90.8433 205.69 91.1368 205.643C94.1925 204.846 95.3843 199.633 93.887 194.022Z" fill="#492E34"/>
<path d="M214.712 194.022C213.337 188.871 210.159 185.191 207.348 185.191H204.659H204.017C200.961 186.019 199.861 191.324 201.358 196.843C202.703 201.841 205.728 205.459 208.478 205.643H211.167C211.471 205.69 211.78 205.69 212.084 205.643C215.048 204.846 216.24 199.633 214.712 194.022Z" fill="#492E34"/>
<path d="M225.896 196.291H13.3992L12.8491 188.196L227.515 191.968L225.896 196.291Z" fill="#82525B"/>
<path d="M229.41 187.736H169.548V195.371H226.11L229.41 187.736Z" fill="#492E34"/>
<path d="M171.014 190.987L11.6567 188.196L13.3985 197.395L170.006 196.291L171.014 190.987Z" fill="#492E34"/>
<path d="M24.1553 65.9445H181.251L201.694 79.16L220.518 161.949L236.102 173.294L230.204 193.869H11.2294C7.74589 173.386 -10.5886 93.2035 24.1553 65.9445Z" fill="#FCF2C3"/>
<path d="M160.747 161.98H219.723L235.155 173.356H160.747V161.98Z" fill="#FFF8D9"/>
<path d="M174.773 193.317L182.138 173.356L163.803 162.01L158.7 79.2213L142.688 66.0057H24.1555C-12.5134 94.5833 6.24885 184.885 11.2297 193.93H174.529L174.773 193.317Z" fill="#F2E4A7"/>
<path d="M163.742 162.01L158.639 79.16L142.627 65.9445H142.321L157.6 79.6813L163.009 162.992L179.174 173.938L171.901 193.869H174.529L174.773 193.317L182.138 173.356L163.742 162.01Z" fill="#E2C888"/>
<path d="M100.365 80.1106C113.991 74.9719 128.041 71.0423 142.351 68.3668L140.762 67.079H25.4687C4.6896 83.3915 2.18389 120.34 4.6896 149.899C22.3518 122.701 56.6373 96.4538 100.365 80.1106Z" fill="#F7EDC4"/>
<path d="M55.5993 179.059C42.276 184.203 28.5214 188.144 14.4995 190.833L16.0274 192.152H129.09C149.564 175.839 151.916 138.891 149.38 109.363C132.024 136.53 98.3492 162.746 55.5993 179.059Z" fill="#F7EDC4"/>
<path d="M160.441 161.213H119.739L120.808 80.509H153.81L160.441 161.213Z" fill="#5DA1A8"/>
<path d="M154.514 127.668L152.742 81.2451H121.329L121.115 116.292L154.514 127.668Z" fill="#68B6BA"/>
<path d="M133.979 189.944H118.701V189.515L119.77 80.0798H154.178V80.4784L160.839 161.336L148.616 178.262H148.341C146.77 177.515 145.037 177.176 143.302 177.278C141.566 177.38 139.884 177.919 138.41 178.844C136.888 180.145 135.697 181.792 134.937 183.648C134.177 185.504 133.87 187.515 134.041 189.515L133.979 189.944ZM119.434 189.116H133.185C133.057 187.053 133.417 184.989 134.235 183.093C135.053 181.196 136.305 179.519 137.891 178.2C139.425 177.208 141.181 176.616 143 176.477C144.82 176.337 146.645 176.656 148.311 177.403L160.076 161.09L153.445 80.9384H121.206L119.434 189.116Z" fill="#82525B"/>
<path d="M200.655 79.896H159.922L165.453 160.876H217.798L200.655 79.896Z" fill="#89C4CE"/>
<path d="M160.228 160.661H119.189V161.612H160.228V160.661Z" fill="#82525B"/>
<path d="M37.5087 194.789C37.415 194.332 37.2925 193.881 37.142 193.44C34.6363 185.621 28.5859 180.193 23.6356 181.174C19.2964 182.156 17.2491 187.92 18.563 194.666L37.5087 194.789Z" fill="#492E34"/>
<path d="M153.414 194.789C153.32 194.332 153.197 193.881 153.047 193.44C150.602 185.621 144.735 180.193 139.938 181.174C135.69 182.156 133.826 187.92 134.987 194.666L153.414 194.789Z" fill="#492E34"/>
<path d="M150.969 194.022C149.441 188.38 145.805 184.486 142.841 185.283C139.877 186.081 138.685 191.416 140.213 196.935C141.741 202.454 145.255 206.441 148.311 205.643C151.366 204.846 152.466 199.633 150.969 194.022Z" fill="#6D414A"/>
<path d="M147.944 202.639H144.705V205.735H147.425L147.944 202.639Z" fill="#6D414A"/>
<path d="M143.605 185.191H140.885V188.319H143.147L143.605 185.191Z" fill="#6D414A"/>
<path d="M148.31 194.022C146.813 188.411 143.176 184.486 140.212 185.283C137.248 186.081 136.057 191.416 137.584 196.935C139.112 202.454 142.718 206.471 145.682 205.643C148.646 204.815 149.869 199.633 148.31 194.022Z" fill="#82525B"/>
<path d="M145.743 194.727C144.979 191.661 143.085 189.821 141.557 190.22C140.029 190.619 139.418 193.286 140.213 196.353C141.007 199.419 142.84 201.259 144.399 200.86C145.957 200.461 146.538 197.61 145.743 194.727Z" fill="#6D414A"/>
<path d="M144.766 195.065C144.43 193.746 143.574 192.826 142.871 193.01C142.169 193.194 141.894 194.421 142.26 195.739C142.627 197.058 143.452 197.978 144.155 197.794C144.858 197.61 145.255 196.383 144.766 195.065Z" fill="#EADCA2"/>
<path d="M34.8502 194.022C33.3528 188.258 29.7165 184.486 26.7524 185.191C23.7884 185.897 22.5966 191.324 24.1245 196.843C25.6524 202.362 29.1359 206.44 32.1917 205.643C35.2474 204.846 36.378 199.633 34.8502 194.022Z" fill="#6D414A"/>
<path d="M31.825 202.639H28.5859V205.735H31.3056L31.825 202.639Z" fill="#6D414A"/>
<path d="M27.4859 185.191H24.7969V188.319H27.0581L27.4859 185.191Z" fill="#6D414A"/>
<path d="M32.1918 194.022C30.664 188.411 27.0582 184.486 24.0941 185.283C21.13 186.081 19.9688 191.324 21.4967 196.935C23.0246 202.546 26.6304 206.471 29.625 205.643C32.6196 204.815 33.7503 199.633 32.1918 194.022Z" fill="#82525B"/>
<path d="M29.656 194.727C28.8615 191.661 26.9975 189.821 25.4696 190.22C23.9417 190.619 23.3306 193.286 24.0945 196.353C24.8584 199.419 26.753 201.259 28.2809 200.86C29.8088 200.461 30.4199 197.61 29.656 194.727Z" fill="#6D414A"/>
<path d="M28.6776 195.065C28.311 193.746 27.4553 192.826 26.7831 193.01C26.1108 193.194 25.8052 194.421 26.1414 195.739C26.4775 197.058 27.3637 197.978 28.0665 197.794C28.7693 197.61 29.136 196.383 28.6776 195.065Z" fill="#EADCA2"/>
<path d="M175.537 189.147H162.734C162.234 189.145 161.747 189.306 161.345 189.604C160.943 189.902 160.648 190.323 160.503 190.803L160.045 192.336C159.97 192.584 159.954 192.845 159.996 193.1C160.038 193.356 160.139 193.598 160.289 193.808C160.447 194.015 160.651 194.184 160.884 194.301C161.117 194.418 161.373 194.48 161.634 194.482H173.857L175.537 189.147Z" fill="#658E8A"/>
<path d="M233.413 190.465C233.493 190.331 233.536 190.177 233.536 190.021C233.536 189.864 233.493 189.71 233.413 189.576C233.321 189.441 233.198 189.332 233.054 189.257C232.91 189.182 232.75 189.144 232.588 189.147H174.07L172.481 194.39H231.121C231.437 194.396 231.746 194.297 232 194.108C232.254 193.92 232.439 193.652 232.526 193.348L233.413 190.465Z" fill="#83A8A5"/>
<path d="M231.886 190.22C231.797 190.102 231.682 190.006 231.549 189.942C231.416 189.878 231.269 189.847 231.122 189.852H197.203L196.5 192.182H231.702L232.038 191.079C232.083 190.934 232.092 190.78 232.066 190.631C232.039 190.481 231.977 190.341 231.886 190.22V190.22Z" fill="#AECECB"/>
<path d="M192.222 189.852H180.915L180.61 190.925C180.543 191.058 180.508 191.205 180.508 191.355C180.508 191.504 180.543 191.651 180.61 191.784C180.7 191.903 180.815 192 180.947 192.069C181.079 192.138 181.225 192.177 181.374 192.182H191.427L192.222 189.852Z" fill="#AECECB"/>
<path d="M217.799 160.876L216.515 154.866L217.004 160.876H217.799Z" fill="#5DA1A8"/>
<path d="M165.331 160.876H176.882L178.196 80.9077H200.87L200.686 80.0798H159.953L165.331 160.876Z" fill="#5DA1A8"/>
<path d="M153.262 79.3748H151.184V162.532H153.262V79.3748Z" fill="#EADCA2"/>
<path d="M200.045 80.4478H198.456V160.784H200.045V80.4478Z" fill="#5DA1A8"/>
<path d="M217.249 159.281H166.065V160.876H217.249V159.281Z" fill="#5DA1A8"/>
<g style="mix-blend-mode:overlay">
<path d="M199.739 80.8466H160.839L166.095 158.3L199.739 80.8466Z" fill="#A3DCE2"/>
</g>
<path d="M221.466 176.269H197.814L193.383 188.442H217.065L221.466 176.269Z" fill="#82525B"/>
<path d="M220.212 177.188H198.669L194.666 187.767H216.209L220.212 177.188Z" fill="#492E34"/>
<path d="M217.37 186.203H194.972L194.666 186.939H217.065L217.37 186.203Z" fill="#82525B"/>
<path d="M217.981 184.609H195.583L195.247 185.314H217.676L217.981 184.609Z" fill="#82525B"/>
<path d="M218.593 182.984H196.164L195.858 183.72H218.257L218.593 182.984Z" fill="#82525B"/>
<path d="M219.173 181.359H196.774L196.469 182.094H218.867L219.173 181.359Z" fill="#82525B"/>
<path d="M219.785 179.733H197.386L197.081 180.469H219.479L219.785 179.733Z" fill="#82525B"/>
<path d="M220.396 178.108H197.997L197.691 178.844H220.09L220.396 178.108Z" fill="#82525B"/>
<path d="M181.679 174.276L235.154 173.356H178.684L181.679 174.276Z" fill="#E2C888"/>
<path d="M163.375 162.746L217.462 161.888L162.611 161.367L163.375 162.746Z" fill="#E2C888"/>
<path d="M129.151 163.084H120.931V165.721H127.012L129.151 163.084Z" fill="#82525B"/>
<path d="M127.837 162.593H120.748V164.862H126.003L127.837 162.593Z" fill="#EADCA2"/>
<path d="M189.654 180.991C190.418 178.231 189.196 175.962 186.904 175.962C185.584 176.142 184.35 176.719 183.362 177.617C182.375 178.514 181.682 179.69 181.373 180.991C180.579 183.781 181.801 186.019 184.093 186.019C185.417 185.841 186.656 185.265 187.649 184.368C188.641 183.471 189.34 182.293 189.654 180.991Z" fill="#83A8A5"/>
<path d="M232.558 180.991C233.322 178.231 232.099 175.962 229.807 175.962C228.488 176.142 227.253 176.719 226.266 177.617C225.279 178.514 224.585 179.69 224.277 180.991C223.482 183.781 224.735 186.019 226.996 186.019C228.322 185.845 229.563 185.271 230.556 184.373C231.549 183.475 232.247 182.295 232.558 180.991Z" fill="#83A8A5"/>
<path d="M188.035 180.929C188.585 178.936 187.699 177.342 186.08 177.342C185.133 177.465 184.246 177.874 183.537 178.515C182.827 179.156 182.329 179.998 182.107 180.929C181.557 182.922 182.443 184.517 184.063 184.517C185.009 184.394 185.896 183.985 186.606 183.344C187.315 182.703 187.814 181.861 188.035 180.929V180.929Z" fill="#FFF8D9"/>
<path d="M185.926 178.016C185.754 177.987 185.579 177.987 185.407 178.016C185.287 178.264 185.185 178.52 185.101 178.783C184.643 180.408 185.376 181.696 186.69 181.696C186.852 181.728 187.018 181.728 187.179 181.696C187.322 181.455 187.435 181.198 187.515 180.929C188.035 179.304 187.24 178.016 185.926 178.016Z" fill="#89C4CE"/>
<path d="M230.816 180.929C231.366 178.936 230.51 177.342 228.86 177.342C227.919 177.471 227.039 177.882 226.335 178.523C225.632 179.163 225.138 180.002 224.918 180.929C224.368 182.922 225.224 184.517 226.874 184.517C227.815 184.388 228.695 183.976 229.399 183.336C230.102 182.696 230.596 181.857 230.816 180.929V180.929Z" fill="#FFF8D9"/>
<path d="M228.799 178.016C228.638 177.986 228.472 177.986 228.31 178.016C228.177 178.258 228.075 178.516 228.005 178.783C227.546 180.408 228.249 181.696 229.594 181.696C229.755 181.724 229.921 181.724 230.083 181.696C230.216 181.454 230.318 181.196 230.388 180.929C230.816 179.304 230.144 178.016 228.799 178.016Z" fill="#89C4CE"/>
<path d="M20.488 122.149C20.488 123.529 20.488 129.416 20.488 131.01V138.002C20.488 138.737 19.9074 138.553 19.2352 138.553C18.5629 138.553 17.7073 138.553 17.0656 138.553C16.4239 138.553 16.1794 138.155 16.2405 137.02C16.3016 135.886 16.2405 130.52 16.2405 128.68C16.2405 126.84 16.6989 120.677 16.6989 119.052C16.6989 117.427 16.6989 111.908 16.6989 110.62C16.6989 109.976 16.6989 109.025 16.6989 108.197C16.634 107.584 16.7178 106.963 16.9433 106.388C16.9913 106.366 17.0434 106.355 17.0961 106.355C17.1489 106.355 17.201 106.366 17.2489 106.388C17.6017 106.461 17.9656 106.461 18.3184 106.388C18.6947 106.359 19.0728 106.359 19.4491 106.388C19.8654 106.342 20.2856 106.342 20.7019 106.388C21.4659 106.664 21.5575 108.106 21.802 109.24C22.4856 111.693 23.3749 114.083 24.4605 116.384C25.6593 118.726 26.6808 121.156 27.5162 123.651C27.8218 124.51 28.4635 125.859 28.9524 127.055L29.8997 129.171C30.572 127.883 31.1831 126.656 31.7637 125.461L34.6667 119.604C36.1029 116.814 37.7224 113.104 38.7919 111.386C39.8615 109.669 41.2977 106.634 41.8477 106.634C42.3977 106.634 42.1838 106.848 42.1838 107.216C42.1838 107.584 41.8782 108.964 41.7866 109.761C41.6949 110.559 41.6032 118.623 41.6032 120.555C41.6032 122.486 41.4504 128.282 41.2977 129.753C41.2977 130.367 41.2977 131.777 41.2977 133.218C41.2977 135.15 41.2977 137.235 41.2977 137.572V137.818C41.2977 138.247 41.1449 138.308 41.0226 138.247H39.892C39.6476 138.247 39.5864 137.94 39.5864 137.419C39.5864 139.381 39.5864 131.01 39.5864 129.355C39.5864 127.699 39.892 123.038 39.892 121.72C39.892 121.045 39.892 119.328 39.892 117.58V114.514C39.6778 114.806 39.5031 115.126 39.3725 115.465C39.0459 115.994 38.7598 116.547 38.5169 117.12C38.303 118.102 35.2473 123.866 34.7278 124.878C34.2083 125.89 31.1526 132.206 30.7859 133.065C30.4524 134.027 30.0007 134.944 29.4414 135.794C29.258 135.794 29.1052 135.457 28.6774 134.782C27.8843 133.195 27.2002 131.556 26.6301 129.876C26.1717 128.557 23.2382 123.437 22.6576 122.088C22.3215 121.413 21.8325 120.156 21.4353 119.021C21.144 118.382 20.8889 117.727 20.6714 117.059V119.021C20.5491 120.156 20.488 121.474 20.488 122.149Z" fill="#EF5292"/>
<path d="M49.7014 113.748C49.7014 116.17 49.3347 123.866 49.3347 126.013C49.3347 128.159 49.3347 136.223 49.6097 137.358C49.6235 137.562 49.6235 137.767 49.6097 137.971C49.6281 138.124 49.5963 138.278 49.5191 138.411C49.4418 138.544 49.3234 138.648 49.1819 138.707C48.7178 138.799 48.2404 138.799 47.7763 138.707C46.3095 138.707 46.7068 138.891 46.7068 136.836C46.7068 134.782 46.8901 124.571 46.8901 121.505C46.8901 118.439 47.3485 109.823 47.1957 108.75C47.1957 108.443 47.1957 108.106 47.1957 107.799C47.1957 107.492 47.1957 106.634 47.8985 106.634H49.5486C49.9153 106.634 50.007 106.879 50.007 107.247C50.007 107.615 50.007 107.983 50.007 108.32C49.7931 109.577 49.7319 111.264 49.7014 113.748Z" fill="#EF5292"/>
<path d="M77.4172 138.185C77.4127 138.257 77.4127 138.329 77.4172 138.4C77.4172 138.737 77.1116 138.768 76.4088 138.768H67.5777C66.2942 138.768 62.0773 139.044 60.2744 139.044H59.5105H58.5021H55.0796C54.1018 139.044 54.3157 138.707 54.3157 137.848C54.3157 136.99 54.5907 130.857 54.5907 129.815C54.5907 128.772 54.3768 125.859 54.3768 124.387C54.3768 126.534 54.8963 116.906 54.8963 115.618V110.405C54.8963 110.007 54.8963 108.167 54.8963 107.554C54.8963 107.032 55.5991 107.247 56.0269 107.247H58.1048C58.2882 107.247 58.3799 107.247 58.3799 107.615C58.3799 107.983 58.0743 115.74 58.0743 117.059V123.467C58.0743 124.203 58.0743 126.319 58.0743 127.668C58.0937 128.056 58.0937 128.445 58.0743 128.833C58.0423 129.098 58.0423 129.366 58.0743 129.631C58.0743 129.784 58.0743 129.815 58.0743 129.845H59.1744C59.9579 129.894 60.7437 129.894 61.5273 129.845H69.8084C71.5196 129.845 75.9199 130.029 76.6227 130.029C77.3255 130.029 77.1116 130.029 77.1116 130.305C77.1116 130.581 77.1116 130.612 77.1116 130.796V132.85C76.9588 133.862 77.4172 137.695 77.4172 138.185Z" fill="#EF5292"/>
<path d="M81.0842 138.676H80.5342C80.3203 138.676 80.2286 138.676 80.2286 138.4C80.2654 138.169 80.3268 137.943 80.4119 137.726C80.4119 137.174 80.1675 135.794 80.1675 134.659C80.1675 133.525 80.4119 121.812 80.5953 120.616C80.7786 119.42 80.5953 117.764 80.5953 116.109C80.634 115.404 80.634 114.698 80.5953 113.993C80.5953 113.625 80.5953 112.92 80.5953 112.122C80.5738 110.648 80.6453 109.173 80.8092 107.707C80.8092 107.339 81.0842 107.247 81.2981 107.247C81.512 107.247 81.9398 107.247 82.2148 107.247C83.2232 107.247 84.5066 107.247 85.515 107.247H85.7901C86.4929 107.247 86.3706 107.707 86.3706 108.136C86.3706 108.566 86.3706 109.547 86.3706 110.804V112.644C86.3706 114.759 86.3706 117.887 86.1873 119.328C86.1873 119.819 86.1873 120.371 86.1873 120.923C86.1873 121.475 86.1873 121.934 86.1873 122.394V123.928L86.8901 123.161C87.2969 122.682 87.7359 122.231 88.2041 121.812C88.9986 121.107 91.7793 118.04 92.3905 117.304C93.0016 116.569 95.4462 113.993 96.5768 112.736C97.7075 111.479 100.458 108.566 100.763 108.014C101.069 107.462 101.405 107.308 101.711 107.247H102.963C103.208 107.247 103.269 107.431 103.269 107.554C103.25 107.717 103.174 107.869 103.055 107.983C102.841 108.198 100.947 110.16 100.244 110.743C99.5409 111.325 95.4768 116.385 95.049 117.059C94.6212 117.734 93.4905 118.807 92.2377 120.125L89.7931 122.64C90.3431 123.314 90.8932 123.897 91.3821 124.479C91.871 125.062 93.2155 126.595 93.735 127.147C94.8045 128.22 98.7464 133.28 99.602 133.924C100.458 134.567 102.658 137.388 102.933 137.787C102.968 137.907 102.968 138.035 102.933 138.155C102.933 138.37 102.627 138.523 102.169 138.523H96.3935C96.0614 138.535 95.7311 138.469 95.4288 138.331C95.1264 138.192 94.8604 137.985 94.6517 137.726C94.0711 137.235 90.9848 132.912 90.0375 131.869C89.5181 131.379 88.5097 130.244 87.6541 129.232L86.0651 127.392C86.0651 128.067 86.0651 128.742 86.0651 129.324C86.0651 129.907 86.0651 131.593 86.0651 132.176C86.0651 132.758 86.0651 134.108 86.0651 135.242C85.9991 135.956 85.9991 136.674 86.0651 137.388C86.0909 137.489 86.0909 137.594 86.0651 137.695C86.0651 138.155 85.7289 138.155 85.4234 138.155H83.651C83.376 138.554 82.0009 138.676 81.0842 138.676Z" fill="#EF5292"/>
<path d="M115.125 191.048H38.9146V192.459H115.125V191.048Z" fill="#82525B"/>
<path d="M146.874 74.3461H22.0161V75.7566H146.874V74.3461Z" fill="#82525B"/>
<path d="M181.282 67.631L159.281 74.0701L163.895 76.9831H195.369L181.282 67.631Z" fill="#FFF8D9"/>
<path d="M240.289 58.4628C240.289 58.4628 241.909 71.1264 235.95 72.1076C229.991 73.0888 220.366 70.6052 215.171 79.7426C208.103 91.2786 202.779 103.802 199.373 116.906C196.928 127.423 213.154 123.59 212.482 121.474C211.321 117.948 220.702 109.209 222.535 102.341V136.131H248.509V102.402V48.3441L240.289 58.4628Z" fill="#FFBA80"/>
<path d="M256.728 58.4628C256.728 58.4628 255.261 71.1264 261.067 72.1076C266.873 73.0888 276.652 70.6052 281.846 79.7426C288.901 91.2854 294.224 103.807 297.645 116.906C300.089 127.423 283.863 123.59 284.535 121.474C285.666 117.948 276.315 109.209 274.482 102.341V136.131H248.478V102.402V48.3441L256.728 58.4628Z" fill="#F7A054"/>
<path d="M281.908 79.7426C276.713 70.5439 267.179 73.0888 261.16 72.1076C255.14 71.1264 256.79 58.4628 256.79 58.4628L248.509 48.3441V102.402V136.131H274.483V102.402C276.377 109.209 287.714 89.9533 281.908 79.7426Z" fill="#F7A054"/>
<path d="M263.849 48.3442H263.513C263.513 47.3016 263.788 46.2591 263.91 45.2779C264.582 40.2186 266.049 27.4323 248.448 27.4323C230.847 27.4323 232.313 40.2186 232.986 45.2779C232.986 46.2591 233.23 47.3016 233.352 48.3442H233.047C230.388 46.3511 229.991 51.5637 231.274 53.3115C231.945 54.307 232.45 55.4045 232.772 56.5617C233.2 57.7576 233.872 57.9109 234.452 57.7882C234.452 58.4935 234.452 59.1067 234.452 59.5973C234.727 62.357 241.267 67.8149 242.733 69.532C244.2 71.2491 246.431 70.5132 247.195 70.4519H249.395C250.128 70.4519 252.451 71.1265 253.856 69.532C255.262 67.9376 261.862 62.357 262.107 59.5973C262.107 59.1067 262.107 58.4935 262.29 57.7882C262.871 57.7882 263.543 57.7882 263.971 56.5617C264.343 55.4056 264.9 54.3181 265.621 53.3422C266.752 51.5637 266.507 46.3511 263.849 48.3442Z" fill="#FFBA80"/>
<path d="M249.547 70.4519C250.281 70.4519 252.603 71.1265 254.009 69.532C255.414 67.9375 262.015 62.357 262.259 59.5973C262.259 59.1067 262.259 58.4935 262.443 57.7882C263.023 57.7882 263.695 57.7882 264.123 56.5617C264.448 55.4152 264.953 54.3282 265.621 53.3421C266.751 51.5944 266.507 46.3817 263.848 48.3748H263.512C263.512 47.3323 263.787 46.2897 263.909 45.3085C264.582 40.2492 266.048 27.4629 248.447 27.4629V70.3906L249.547 70.4519Z" fill="#F7A054"/>
<path d="M248.509 164.464C248.509 164.464 244.75 167.254 243.864 189.331C242.794 215.762 241.755 227.383 241.755 227.383H224.46L222.474 189.392V136.131L248.509 134.384V164.464Z" fill="#172C57"/>
<path d="M248.508 38.5935C246.071 41.5563 242.785 43.6969 239.096 44.7261C239.853 43.8253 240.424 42.7832 240.777 41.6598C238.741 43.7638 236.325 45.46 233.657 46.6578L233.199 46.9644C232.931 45.5889 232.767 44.1948 232.71 42.7943C232.496 39.728 246.491 34.4847 246.491 34.4847L248.508 36.9991V38.5935Z" fill="#693514"/>
<path d="M248.509 38.5935C250.226 41.1481 252.868 42.9301 255.873 43.5609C255.64 43.0162 255.456 42.4518 255.323 41.8744C257.777 43.8226 260.48 45.4314 263.36 46.6578L263.635 47.5777C263.635 47.5777 264.001 45.37 264.215 42.2424C264.429 39.1148 250.526 34.4847 250.526 34.4847L248.509 36.9991V38.5935Z" fill="#4F250A"/>
<path d="M248.509 164.464C248.509 164.464 252.237 167.254 253.123 189.331C254.223 215.762 255.262 227.383 255.262 227.383H272.527L274.544 189.392V136.131L248.509 134.384V164.464Z" fill="#0E1F42"/>
<path d="M274.115 226.831L275.399 197.457H263.817V226.831H274.115Z" fill="#B05D2A"/>
<path d="M253.52 226.831L252.237 197.457H263.818V226.831H253.52Z" fill="#B05D2A"/>
<path d="M253.092 230.02C252.932 228.514 253.088 226.992 253.553 225.551C254.017 224.11 254.778 222.783 255.787 221.657C256.796 220.53 258.029 219.63 259.408 219.013C260.786 218.397 262.278 218.078 263.787 218.078C265.296 218.078 266.789 218.397 268.167 219.013C269.545 219.63 270.779 220.53 271.788 221.657C272.796 222.783 273.558 224.11 274.022 225.551C274.486 226.992 274.643 228.514 274.482 230.02C274.412 230.258 274.259 230.462 274.052 230.597C273.845 230.732 273.597 230.788 273.352 230.756H254.101C253.86 230.787 253.616 230.729 253.414 230.594C253.211 230.459 253.065 230.255 253 230.02H253.092Z" fill="#853A0C"/>
<path d="M251.045 190.373C251.041 190.246 251.062 190.119 251.108 190C251.154 189.881 251.223 189.773 251.311 189.681C251.4 189.59 251.506 189.517 251.622 189.467C251.739 189.418 251.865 189.392 251.992 189.392H275.644C275.903 189.392 276.152 189.496 276.335 189.68C276.518 189.864 276.622 190.113 276.622 190.373V198.622C276.626 198.753 276.603 198.884 276.556 199.007C276.509 199.129 276.437 199.241 276.346 199.335C276.255 199.43 276.146 199.505 276.025 199.556C275.904 199.607 275.775 199.634 275.644 199.634H251.992C251.864 199.63 251.737 199.6 251.62 199.547C251.503 199.494 251.398 199.419 251.31 199.325C251.222 199.231 251.153 199.12 251.108 199C251.062 198.879 251.041 198.751 251.045 198.622V190.373Z" fill="#853A0C"/>
<path d="M236.56 71.9236C236.341 72.003 236.116 72.0646 235.888 72.1076C234.103 72.3222 232.307 72.4349 230.51 72.4448H229.776L224.154 72.5982C212.939 72.8435 203.313 99.336 203.313 99.336L220.395 108.933L222.504 104.641V136.131H248.477V102.402V84.0047L236.56 71.9236Z" fill="#A6DAF5"/>
<path d="M260.456 71.9236C260.685 72.0029 260.92 72.0644 261.159 72.1076C262.944 72.3232 264.739 72.4359 266.537 72.4448H267.271L272.863 72.5982C284.047 72.8741 293.733 99.4586 293.733 99.4586L276.652 109.025L274.543 104.733V136.131H248.569V102.402V84.0047L260.456 71.9236Z" fill="#77BBE6"/>
<path d="M222.902 226.831L221.588 197.457H233.169V226.831H222.902Z" fill="#B36434"/>
<path d="M243.467 226.831L244.75 197.457H233.169V226.831H243.467Z" fill="#B36434"/>
<path d="M243.925 230.02C244.086 228.514 243.929 226.992 243.464 225.551C243 224.11 242.239 222.783 241.23 221.657C240.222 220.53 238.988 219.63 237.61 219.013C236.231 218.397 234.739 218.078 233.23 218.078C231.721 218.078 230.229 218.397 228.85 219.013C227.472 219.63 226.238 220.53 225.229 221.657C224.221 222.783 223.46 224.11 222.995 225.551C222.531 226.992 222.374 228.514 222.535 230.02C222.599 230.255 222.746 230.459 222.948 230.594C223.15 230.729 223.394 230.787 223.635 230.756H242.917C243.158 230.787 243.401 230.729 243.604 230.594C243.806 230.459 243.952 230.255 244.017 230.02H243.925Z" fill="#964514"/>
<path d="M246.095 190.373C246.095 190.113 245.992 189.864 245.808 189.68C245.625 189.496 245.376 189.392 245.117 189.392H221.374C221.115 189.392 220.866 189.496 220.682 189.68C220.499 189.864 220.396 190.113 220.396 190.373V198.622C220.392 198.753 220.414 198.884 220.461 199.007C220.509 199.129 220.58 199.241 220.671 199.335C220.763 199.43 220.872 199.505 220.992 199.556C221.113 199.607 221.243 199.634 221.374 199.634H244.995C245.126 199.634 245.256 199.607 245.376 199.556C245.497 199.505 245.606 199.43 245.697 199.335C245.788 199.241 245.86 199.129 245.907 199.007C245.954 198.884 245.977 198.753 245.973 198.622L246.095 190.373Z" fill="#964514"/>
<path d="M222.474 136.162V103.568H225.743L225.468 72.5676L232.772 72.4143V103.568H248.447V136.162H222.474Z" fill="#172C57"/>
<path d="M274.421 136.162V103.568H271.121L271.396 72.5676L264.123 72.4143V103.568H248.447V136.162H274.421Z" fill="#0E1F42"/>
<path d="M284.535 120.463C284.535 120.463 282.305 127.73 279.463 134.414C276.621 141.098 273.137 144.594 269.898 145.667C266.659 146.74 259.57 145.667 259.57 147.446C259.57 152.382 271.151 155.357 274.665 151.892C278.179 148.427 279.402 148.58 282.366 145.759C285.849 142.509 295.505 134.015 297.919 120.432L284.535 120.463Z" fill="#F7A054"/>
<path d="M212.481 120.463C212.481 120.463 214.681 127.73 217.553 134.414C220.426 141.098 223.879 144.594 227.118 145.667C230.357 146.74 237.446 145.667 237.446 147.446C237.446 152.382 225.865 155.357 222.168 151.892C218.47 148.427 217.462 148.58 214.498 145.759C211.014 142.509 201.358 134.015 198.944 120.432L212.481 120.463Z" fill="#FFBA80"/>
<path d="M275.949 36.5391C275.949 40.28 265.132 43.9595 248.112 43.9595C231.091 43.9595 220.304 40.28 220.304 36.5391C220.304 32.7983 231.091 30.4066 248.112 30.4066C265.132 30.4066 275.949 32.7983 275.949 36.5391Z" fill="#FFB804"/>
<path d="M261.006 21.4531H236.01L232.496 32.3997C237.714 33.8477 243.095 34.6205 248.508 34.6994C253.891 34.6127 259.24 33.84 264.429 32.3997L261.006 21.4531Z" fill="#FCA001"/>
<path d="M261.007 21.453C261.007 22.8022 255.415 23.906 248.509 23.906C241.603 23.906 236.011 22.6795 236.011 21.453C236.011 20.2265 241.603 19 248.509 19C255.415 19 261.007 20.0732 261.007 21.453Z" fill="#FFB804"/>
<path d="M248.509 30.3757V43.9286C265.315 43.9286 276.011 40.2491 276.011 36.5389C276.011 32.8287 265.315 30.4064 248.509 30.3757Z" fill="#FCA001"/>
<path d="M248.509 34.6994C253.891 34.6144 259.241 33.8416 264.429 32.3997L261.007 21.4531H248.509V34.6994Z" fill="#F58300"/>
<path d="M248.509 19V23.906C255.415 23.906 261.007 22.8022 261.007 21.453C261.007 20.1039 255.415 19 248.509 19Z" fill="#FCA001"/>
<path d="M241.145 116.078C241.119 113.466 240.525 110.892 239.403 108.535C238.592 107.058 237.562 105.714 236.347 104.549C236.011 104.181 235.675 103.843 235.4 103.506C234.775 102.208 234.471 100.777 234.514 99.336C234.432 97.7221 234.432 96.1052 234.514 94.4913C234.529 94.2824 234.498 94.0726 234.424 93.8767C234.351 93.6807 234.235 93.5033 234.086 93.3568C233.794 93.0633 233.399 92.8979 232.986 92.8969H226.874C226.668 92.8967 226.465 92.9383 226.275 93.0191C226.086 93.1 225.914 93.2184 225.772 93.3673C225.629 93.5163 225.518 93.6926 225.445 93.8858C225.372 94.0789 225.338 94.2849 225.346 94.4913C225.428 96.1052 225.428 97.7221 225.346 99.336C225.378 100.748 225.041 102.143 224.368 103.383C224.079 103.754 223.762 104.103 223.421 104.426C222.207 105.591 221.176 106.935 220.365 108.412C219.236 110.776 218.651 113.364 218.654 115.986C218.471 121.689 218.654 135.763 218.654 142.417C218.67 143.325 219.041 144.191 219.687 144.827C220.333 145.464 221.202 145.821 222.107 145.821H237.997C238.447 145.825 238.892 145.74 239.309 145.571C239.726 145.402 240.106 145.152 240.426 144.836C240.747 144.52 241.002 144.144 241.178 143.729C241.354 143.314 241.446 142.868 241.45 142.417C241.236 135.855 241.328 121.781 241.145 116.078Z" fill="#FDFEFF"/>
<path d="M237.691 146.281H221.801C220.799 146.281 219.836 145.885 219.122 145.18C218.407 144.474 217.997 143.515 217.981 142.509C217.981 135.855 217.981 121.781 217.981 116.047C217.987 113.371 218.593 110.73 219.754 108.32C220.558 106.821 221.589 105.456 222.81 104.273C223.146 103.905 223.482 103.568 223.726 103.261C224.36 102.05 224.696 100.704 224.704 99.3361C224.801 97.7431 224.801 96.1457 224.704 94.5527C224.724 94.0401 224.944 93.5558 225.315 93.2036C225.489 93.0204 225.697 92.8743 225.928 92.7742C226.159 92.6741 226.408 92.622 226.66 92.621H232.771C233.025 92.6208 233.277 92.672 233.511 92.7713C233.745 92.8707 233.956 93.0162 234.133 93.1993C234.31 93.3824 234.448 93.5992 234.54 93.837C234.631 94.0748 234.674 94.3286 234.666 94.5834C234.584 96.1768 234.584 97.7733 234.666 99.3667C234.651 100.717 234.955 102.051 235.552 103.261L236.499 104.273C237.711 105.464 238.74 106.828 239.555 108.32C240.688 110.738 241.282 113.375 241.297 116.047V116.047C241.48 121.781 241.297 135.855 241.297 142.509C241.283 143.479 240.903 144.407 240.234 145.107C239.565 145.807 238.656 146.226 237.691 146.281V146.281ZM226.66 93.3569C226.504 93.3561 226.35 93.3886 226.208 93.452C226.066 93.5154 225.938 93.6084 225.835 93.7248C225.715 93.831 225.622 93.9642 225.563 94.1134C225.505 94.2627 225.483 94.4238 225.499 94.5834C225.525 96.1692 225.474 97.7553 225.346 99.3361C225.345 100.814 224.978 102.268 224.276 103.568L223.329 104.641C222.103 105.761 221.071 107.077 220.273 108.535C219.153 110.89 218.579 113.469 218.593 116.078C218.409 121.781 218.593 135.855 218.593 142.509C218.593 143.322 218.915 144.102 219.488 144.677C220.061 145.252 220.838 145.575 221.648 145.575H237.538C238.349 145.575 239.126 145.252 239.699 144.677C240.272 144.102 240.594 143.322 240.594 142.509C240.594 135.855 240.594 121.781 240.594 116.078C240.664 113.483 240.153 110.905 239.097 108.535C238.333 107.105 237.354 105.802 236.194 104.671L235.216 103.568C234.516 102.269 234.159 100.812 234.177 99.3361C234.065 97.7129 234.065 96.0839 234.177 94.4607C234.18 94.3024 234.152 94.145 234.095 93.9976C234.037 93.8502 233.951 93.7158 233.841 93.6022C233.731 93.4849 233.599 93.3917 233.451 93.3284C233.304 93.2651 233.145 93.233 232.985 93.2342L226.66 93.3569Z" fill="#2D1A16"/>
<path d="M239.586 116.109C239.614 113.891 239.155 111.695 238.242 109.675C237.328 107.656 235.982 105.864 234.299 104.426C232.588 102.31 232.832 94.5221 232.832 94.5221H226.721C226.721 94.5221 226.965 102.31 225.254 104.426C223.571 105.864 222.225 107.656 221.311 109.675C220.398 111.695 219.939 113.891 219.968 116.109C219.754 122.241 219.968 137.572 219.968 142.478C219.968 142.731 220.018 142.98 220.115 143.213C220.212 143.446 220.354 143.657 220.533 143.834C220.712 144.011 220.925 144.15 221.158 144.244C221.392 144.337 221.641 144.384 221.893 144.379H237.783C238.034 144.384 238.284 144.337 238.517 144.244C238.75 144.15 238.963 144.011 239.142 143.834C239.321 143.657 239.464 143.446 239.561 143.213C239.658 142.98 239.708 142.731 239.708 142.478C239.677 137.511 239.799 122.241 239.586 116.109Z" fill="#DAE9F2"/>
<path d="M221.404 114.667C221.221 120.8 221.221 136.131 221.404 140.853C221.396 141.323 221.569 141.777 221.889 142.121C222.208 142.464 222.648 142.669 223.115 142.693H236.927C237.16 142.685 237.389 142.631 237.601 142.534C237.813 142.438 238.004 142.3 238.163 142.129C238.322 141.958 238.446 141.758 238.527 141.539C238.609 141.32 238.647 141.087 238.639 140.853C238.639 136.131 238.639 120.892 238.639 114.759L221.404 114.667Z" fill="#E9EFF4"/>
<path d="M229.746 93.0195C232.699 93.0195 235.094 92.5664 235.094 92.0076C235.094 91.4488 232.699 90.9957 229.746 90.9957C226.793 90.9957 224.398 91.4488 224.398 92.0076C224.398 92.5664 226.793 93.0195 229.746 93.0195Z" fill="#D0DBE2"/>
<path d="M229.746 93.3569C228.456 93.3625 227.168 93.26 225.895 93.0502C224.612 92.8049 224.062 92.4983 224.062 92.0077C224.062 91.5171 224.612 91.1798 225.895 90.9345C227.168 90.7248 228.456 90.6222 229.746 90.6279C231.035 90.6209 232.323 90.7235 233.596 90.9345C234.879 91.1798 235.46 91.5171 235.46 92.0077C235.46 92.4983 234.879 92.8049 233.596 93.0502C232.323 93.2613 231.035 93.3638 229.746 93.3569V93.3569ZM224.857 92.0077C226.434 92.5168 228.092 92.7248 229.746 92.621C231.409 92.7229 233.077 92.515 234.665 92.0077C233.085 91.4661 231.412 91.2472 229.746 91.3638C228.089 91.2429 226.426 91.462 224.857 92.0077V92.0077Z" fill="#2D1A16"/>
<path d="M225.621 87.9296L227.118 96.2698C227.19 96.6487 227.39 96.9909 227.686 97.2372C227.982 97.4835 228.354 97.6185 228.738 97.619H230.816C231.196 97.6199 231.564 97.4892 231.86 97.249C232.155 97.0088 232.358 96.6737 232.435 96.3005L233.872 87.9296H225.621Z" fill="#B57E37"/>
<path d="M225.621 87.9296L225.988 89.984C226.877 90.1289 227.776 90.2007 228.677 90.1986C230.846 90.1986 232.649 89.8307 232.802 89.3401L231.244 97.4043C231.514 97.3125 231.755 97.1507 231.943 96.9353C232.131 96.72 232.258 96.4586 232.313 96.1778L233.872 87.9296H225.621Z" fill="#9E662A"/>
<path d="M230.816 97.8644H228.86C228.392 97.8639 227.939 97.6975 227.581 97.3946C227.224 97.0916 226.984 96.6716 226.905 96.2086L225.377 88.0217C225.35 87.9751 225.336 87.9222 225.336 87.8684C225.336 87.8145 225.35 87.7617 225.377 87.715C225.42 87.6935 225.467 87.6823 225.514 87.6823C225.562 87.6823 225.609 87.6935 225.652 87.715H233.872C233.915 87.6956 233.962 87.6855 234.009 87.6855C234.057 87.6855 234.104 87.6956 234.147 87.715C234.169 87.7632 234.18 87.8154 234.18 87.8684C234.18 87.9213 234.169 87.9736 234.147 88.0217L232.68 96.2699C232.582 96.7018 232.348 97.0904 232.012 97.3777C231.676 97.665 231.257 97.8357 230.816 97.8644V97.8644ZM226.049 88.2976L227.485 96.0859C227.536 96.3809 227.69 96.648 227.92 96.8392C228.15 97.0303 228.44 97.1329 228.738 97.1285H230.816C231.118 97.134 231.412 97.0325 231.647 96.8418C231.882 96.6511 232.042 96.3835 232.1 96.0859L233.597 88.2976H226.049Z" fill="#2D1A16"/>
<path d="M226.843 94.5835L227.149 96.1473C227.213 96.5237 227.408 96.8652 227.699 97.1119C227.989 97.3587 228.357 97.4948 228.738 97.4964H230.816C231.167 97.4823 231.505 97.3556 231.78 97.1349C232.055 96.9143 232.253 96.6112 232.344 96.2699L232.649 94.6142C231.636 94.7404 230.615 94.8018 229.593 94.7981C228.673 94.781 227.755 94.7094 226.843 94.5835V94.5835Z" fill="#9E662A"/>
<path d="M230.815 97.8642H228.829C228.362 97.8578 227.912 97.6893 227.556 97.3874C227.199 97.0855 226.958 96.6688 226.873 96.2084L226.598 94.6446C226.571 94.598 226.557 94.5451 226.557 94.4913C226.557 94.4375 226.571 94.3846 226.598 94.338C226.646 94.3159 226.698 94.3045 226.751 94.3045C226.804 94.3045 226.856 94.3159 226.904 94.338C227.756 94.4395 228.613 94.4907 229.47 94.4913C230.493 94.4868 231.513 94.4151 232.526 94.2767C232.634 94.234 232.754 94.234 232.862 94.2767C232.893 94.3766 232.893 94.4834 232.862 94.5833L232.526 96.2391C232.447 96.6558 232.239 97.0368 231.932 97.3285C231.625 97.6201 231.234 97.8075 230.815 97.8642V97.8642ZM227.393 94.9819L227.576 96.0858C227.632 96.3781 227.788 96.6417 228.017 96.8318C228.245 97.0219 228.532 97.1266 228.829 97.1283H230.815C231.112 97.1266 231.399 97.0219 231.627 96.8318C231.856 96.6417 232.011 96.3781 232.068 96.0858L232.312 94.9206C231.396 94.9698 230.478 94.9698 229.562 94.9206C228.707 95.0739 227.973 95.0432 227.301 94.9819H227.393Z" fill="#2D1A16"/>
<path d="M229.746 88.8495C232.041 88.8495 233.901 88.4377 233.901 87.9296C233.901 87.4216 232.041 87.0098 229.746 87.0098C227.45 87.0098 225.59 87.4216 225.59 87.9296C225.59 88.4377 227.45 88.8495 229.746 88.8495Z" fill="#D59C47"/>
<path d="M229.746 89.248C229.287 89.248 225.254 89.248 225.254 87.9295C225.254 86.611 229.287 86.6417 229.746 86.6417C230.204 86.6417 234.268 86.6417 234.268 87.9295C234.268 89.2173 230.204 89.248 229.746 89.248ZM226.018 87.9295C228.443 88.7087 231.049 88.7087 233.474 87.9295C231.043 87.1928 228.449 87.1928 226.018 87.9295Z" fill="#2D1A16"/>
<path d="M229.746 92.9889C226.69 92.9889 224.398 92.5596 224.398 92.0077V93.7248C224.398 94.2767 226.812 94.706 229.746 94.706C232.68 94.706 235.094 94.2767 235.094 93.7248V92.0077C235.094 92.5596 232.71 92.9889 229.746 92.9889Z" fill="#E9EFF4"/>
<path d="M229.746 95.0739C228.455 95.095 227.166 94.9923 225.895 94.7673C224.612 94.522 224.062 94.2153 224.062 93.7247V92.0076C224.058 91.9608 224.063 91.9136 224.078 91.8691C224.093 91.8246 224.117 91.7837 224.149 91.7491C224.181 91.7144 224.219 91.6868 224.262 91.6679C224.305 91.6491 224.351 91.6395 224.398 91.6397C224.486 91.6385 224.571 91.6687 224.638 91.7249C224.705 91.7812 224.75 91.8597 224.765 91.9463C226.356 92.5333 228.056 92.7636 229.746 92.6209C231.435 92.7676 233.136 92.5373 234.726 91.9463C234.741 91.8597 234.786 91.7812 234.853 91.7249C234.921 91.6687 235.006 91.6385 235.093 91.6397C235.19 91.6397 235.284 91.6784 235.352 91.7474C235.421 91.8165 235.46 91.91 235.46 92.0076V93.7247C235.46 94.2153 234.879 94.522 233.596 94.7673C232.325 94.9936 231.036 95.0963 229.746 95.0739V95.0739ZM224.704 93.6634C226.291 94.2658 227.993 94.5067 229.685 94.3687C231.376 94.5108 233.079 94.2698 234.665 93.6634V92.7435C234.3 92.8833 233.921 92.986 233.535 93.0502C232.262 93.2612 230.974 93.3638 229.685 93.3568C228.395 93.3625 227.107 93.2599 225.834 93.0502C225.449 92.9821 225.071 92.8795 224.704 92.7435V93.6634Z" fill="#2D1A16"/>
<path d="M230.021 116.63C234.78 116.63 238.638 115.833 238.638 114.851C238.638 113.869 234.78 113.073 230.021 113.073C225.262 113.073 221.404 113.869 221.404 114.851C221.404 115.833 225.262 116.63 230.021 116.63Z" fill="white"/>
<g opacity="0.8">
<path opacity="0.8" d="M235.43 139.105C236.376 139.105 237.142 132.392 237.142 124.111C237.142 115.83 236.376 109.117 235.43 109.117C234.485 109.117 233.719 115.83 233.719 124.111C233.719 132.392 234.485 139.105 235.43 139.105Z" fill="white"/>
</g>
<path d="M236.347 140.884C236.347 141.072 236.291 141.256 236.187 141.412C236.083 141.568 235.935 141.69 235.762 141.762C235.589 141.834 235.398 141.853 235.215 141.816C235.031 141.78 234.862 141.689 234.73 141.556C234.597 141.423 234.507 141.254 234.47 141.069C234.434 140.885 234.453 140.694 234.524 140.52C234.596 140.347 234.717 140.198 234.873 140.094C235.029 139.989 235.212 139.933 235.399 139.933C235.651 139.933 235.892 140.034 236.069 140.212C236.247 140.39 236.347 140.632 236.347 140.884V140.884Z" fill="white"/>
<path d="M277.935 115.802C277.924 113.182 277.34 110.597 276.224 108.228C275.401 106.769 274.372 105.436 273.168 104.273C272.834 103.932 272.517 103.574 272.221 103.2C271.549 101.959 271.212 100.564 271.243 99.1522C271.095 97.5418 271.044 95.924 271.09 94.3075C271.094 93.8981 270.941 93.5028 270.663 93.2036C270.374 92.9016 269.979 92.7255 269.563 92.713H263.451C263.244 92.7121 263.038 92.7553 262.849 92.8399C262.659 92.9244 262.489 93.0484 262.351 93.2036C262.203 93.3463 262.087 93.5179 262.008 93.7078C261.929 93.8977 261.89 94.1018 261.893 94.3075C261.954 95.924 261.903 97.5428 261.74 99.1522C261.752 100.558 261.427 101.946 260.793 103.2L259.845 104.273C258.623 105.42 257.592 106.755 256.79 108.228C255.723 110.607 255.201 113.195 255.262 115.802C255.078 121.505 255.262 135.579 255.262 142.233C255.278 143.144 255.647 144.013 256.292 144.655C256.937 145.296 257.807 145.66 258.715 145.667H274.513C275.418 145.668 276.287 145.311 276.933 144.674C277.579 144.038 277.95 143.172 277.966 142.264C278.027 135.579 278.119 121.505 277.935 115.802Z" fill="#FDFEFF"/>
<path d="M274.513 146.004H258.592C257.598 146.005 256.643 145.612 255.934 144.913C255.225 144.213 254.819 143.261 254.803 142.264C254.803 135.61 254.62 121.536 254.803 115.802C254.839 113.129 255.443 110.494 256.576 108.075C257.381 106.586 258.412 105.231 259.631 104.058L260.548 103.015C260.548 103.015 261.159 102.126 261.465 99.152C261.546 97.5483 261.546 95.9416 261.465 94.338C261.449 93.8272 261.636 93.331 261.984 92.9581C262.166 92.7796 262.381 92.6389 262.617 92.5442C262.853 92.4495 263.105 92.4026 263.359 92.4062H269.471C269.721 92.4015 269.969 92.4479 270.2 92.5429C270.431 92.6378 270.64 92.7791 270.815 92.9581C271.176 93.3373 271.374 93.8442 271.365 94.3686C271.254 95.9611 271.254 97.5595 271.365 99.152C271.346 100.493 271.65 101.818 272.251 103.015C272.496 103.322 272.832 103.659 273.168 104.027C274.389 105.21 275.42 106.575 276.224 108.075C277.385 110.485 277.99 113.125 277.996 115.802V115.802C278.18 121.536 277.996 135.61 277.996 142.264C277.977 143.208 277.611 144.113 276.968 144.803C276.325 145.494 275.451 145.922 274.513 146.004V146.004ZM263.482 93.2034C263.321 93.1983 263.161 93.2286 263.013 93.2921C262.865 93.3557 262.733 93.451 262.626 93.5714C262.516 93.685 262.43 93.8195 262.372 93.9668C262.314 94.1142 262.286 94.2716 262.29 94.4299C262.386 96.0536 262.386 97.6816 262.29 99.3053C262.304 100.791 261.946 102.256 261.251 103.567C260.976 103.905 260.64 104.242 260.273 104.641C259.066 105.766 258.036 107.069 257.217 108.504C256.116 110.822 255.542 113.357 255.537 115.924C255.353 121.628 255.537 135.702 255.537 142.356C255.537 143.169 255.859 143.949 256.432 144.524C257.005 145.099 257.782 145.422 258.592 145.422H274.513C275.323 145.422 276.1 145.099 276.673 144.524C277.247 143.949 277.569 143.169 277.569 142.356C277.569 135.702 277.569 121.628 277.569 115.924C277.559 113.367 276.985 110.843 275.888 108.535C275.08 107.092 274.049 105.788 272.832 104.671C272.497 104.331 272.181 103.973 271.885 103.598C271.223 102.279 270.907 100.812 270.968 99.336C270.887 97.7119 270.887 96.0847 270.968 94.4606C270.971 94.3023 270.944 94.1449 270.886 93.9975C270.828 93.8501 270.742 93.7157 270.632 93.6021C270.528 93.4857 270.401 93.3927 270.259 93.3292C270.117 93.2658 269.963 93.2334 269.807 93.2341L263.482 93.2034Z" fill="#2D1A16"/>
<path d="M276.408 115.832C276.439 113.616 275.978 111.42 275.058 109.405C274.138 107.39 272.783 105.605 271.091 104.181C269.41 102.034 269.654 94.2766 269.654 94.2766H263.543C263.543 94.2766 263.787 102.034 262.076 104.181C260.384 105.605 259.028 107.39 258.109 109.405C257.189 111.42 256.728 113.616 256.759 115.832C256.576 121.965 256.759 137.296 256.759 142.202C256.759 142.706 256.959 143.19 257.314 143.547C257.669 143.903 258.151 144.103 258.654 144.103H274.513C275.018 144.103 275.504 143.904 275.864 143.548C276.224 143.193 276.43 142.709 276.438 142.202C276.469 137.235 276.652 121.965 276.408 115.832Z" fill="#DAE9F2"/>
<path d="M258.317 114.484C258.317 120.616 258.134 135.947 258.317 140.669C258.305 140.901 258.339 141.134 258.417 141.352C258.495 141.571 258.616 141.772 258.773 141.943C258.929 142.115 259.118 142.253 259.329 142.35C259.539 142.447 259.767 142.501 259.998 142.509H274.116C274.583 142.485 275.023 142.28 275.342 141.937C275.662 141.593 275.835 141.139 275.827 140.669C275.827 135.947 275.827 120.708 275.674 114.606L258.317 114.484Z" fill="#E9EFF4"/>
<path d="M266.567 92.7435C269.521 92.7435 271.915 92.2904 271.915 91.7316C271.915 91.1728 269.521 90.7197 266.567 90.7197C263.614 90.7197 261.22 91.1728 261.22 91.7316C261.22 92.2904 263.614 92.7435 266.567 92.7435Z" fill="#D0DBE2"/>
<path d="M266.568 93.2035C265.277 93.2259 263.988 93.1232 262.718 92.8968C261.434 92.6822 260.854 92.3449 260.854 91.8543C260.854 91.3637 261.434 91.0264 262.718 90.7811C263.991 90.5818 265.279 90.4895 266.568 90.5052C267.846 90.4893 269.124 90.5816 270.387 90.7811C271.671 91.0264 272.251 91.3637 272.251 91.8543C272.251 92.3449 271.671 92.6822 270.387 92.8968C269.127 93.1233 267.848 93.226 266.568 93.2035ZM261.648 91.8543C263.232 92.3798 264.902 92.5983 266.568 92.4982C268.224 92.5996 269.883 92.381 271.457 91.8543C269.883 91.3276 268.224 91.109 266.568 91.2104C264.91 91.0708 263.24 91.2476 261.648 91.7317V91.8543Z" fill="#2D1A16"/>
<path d="M262.412 87.6843L263.94 95.8712C263.999 96.2503 264.192 96.5954 264.484 96.8432C264.776 97.091 265.147 97.225 265.529 97.2204H267.485C267.865 97.2213 268.233 97.0907 268.528 96.8504C268.823 96.6102 269.027 96.2752 269.104 95.9019L270.663 87.6843H262.412Z" fill="#B57E37"/>
<path d="M262.412 87.6843L262.779 89.7081C263.668 89.8518 264.567 89.9236 265.468 89.9227C267.668 89.9227 269.44 89.5547 269.624 89.0641L268.065 97.1284C268.332 97.0313 268.57 96.8679 268.757 96.6534C268.944 96.4389 269.074 96.1804 269.135 95.9019L270.693 87.6843H262.412Z" fill="#9E662A"/>
<path d="M267.484 97.5884H265.498C265.036 97.5834 264.589 97.4193 264.233 97.1234C263.877 96.8276 263.633 96.418 263.542 95.9633L262.045 87.7457C262.023 87.6976 262.012 87.6453 262.012 87.5924C262.012 87.5394 262.023 87.4872 262.045 87.439C262.088 87.4196 262.135 87.4095 262.183 87.4095C262.23 87.4095 262.277 87.4196 262.32 87.439H270.601C270.644 87.4175 270.691 87.4062 270.739 87.4062C270.786 87.4062 270.834 87.4175 270.876 87.439C270.898 87.4872 270.91 87.5394 270.91 87.5924C270.91 87.6453 270.898 87.6976 270.876 87.7457L269.287 95.9633C269.208 96.3958 268.987 96.7898 268.661 97.0837C268.335 97.3777 267.921 97.5551 267.484 97.5884V97.5884ZM262.809 88.0216L264.429 95.8099C264.485 96.1023 264.641 96.3659 264.869 96.556C265.098 96.7461 265.385 96.8508 265.681 96.8525H267.484C267.777 96.8523 268.06 96.7519 268.288 96.5679C268.516 96.3839 268.675 96.1273 268.737 95.8406L270.234 88.0216H262.809Z" fill="#2D1A16"/>
<path d="M263.665 94.3074L263.94 95.8712C264.011 96.2501 264.211 96.5923 264.507 96.8386C264.803 97.0849 265.175 97.2199 265.559 97.2204H267.484C267.86 97.22 268.225 97.0882 268.515 96.8476C268.805 96.607 269.002 96.2726 269.073 95.9019L269.409 94.2461C268.345 94.3766 267.273 94.438 266.201 94.4301C265.354 94.4372 264.507 94.3963 263.665 94.3074V94.3074Z" fill="#9E662A"/>
<path d="M267.485 97.5883H265.499C265.035 97.5891 264.585 97.4271 264.228 97.1302C263.871 96.8334 263.628 96.4205 263.543 95.9632L263.237 94.3687C263.21 94.2683 263.21 94.1624 263.237 94.0621C263.285 94.04 263.337 94.0286 263.39 94.0286C263.443 94.0286 263.495 94.04 263.543 94.0621C264.337 94.0621 265.224 94.0621 266.11 94.0621C267.132 94.0707 268.154 93.9989 269.165 93.8474C269.214 93.8272 269.266 93.8168 269.318 93.8168C269.371 93.8168 269.423 93.8272 269.471 93.8474C269.498 93.894 269.512 93.9469 269.512 94.0007C269.512 94.0546 269.498 94.1075 269.471 94.1541L269.165 95.8098C269.123 96.2518 268.934 96.6667 268.63 96.9889C268.325 97.3111 267.922 97.522 267.485 97.5883V97.5883ZM264.032 94.706L264.246 95.8098C264.297 96.1048 264.451 96.3719 264.68 96.5631C264.91 96.7542 265.2 96.8568 265.499 96.8524H267.485C267.777 96.8522 268.061 96.7518 268.289 96.5678C268.517 96.3838 268.675 96.1272 268.738 95.8405L268.952 94.6753C268.035 94.7246 267.117 94.7246 266.201 94.6753C265.529 94.798 264.796 94.7673 264.093 94.706H264.032Z" fill="#2D1A16"/>
<path d="M270.693 87.6843C270.693 88.1749 268.86 88.6042 266.568 88.6042C264.276 88.6042 262.412 88.1749 262.412 87.6843C262.412 87.1937 264.276 86.7338 266.568 86.7338C268.86 86.7338 270.693 87.0711 270.693 87.6843Z" fill="#D59C47"/>
<path d="M266.568 88.972C266.11 88.972 262.046 88.972 262.046 87.6842C262.046 86.3964 266.11 86.3657 266.568 86.3657C267.027 86.3657 271.06 86.3657 271.06 87.6842C271.06 89.0027 267.027 88.972 266.568 88.972ZM262.81 87.6842C264.009 88.1358 265.291 88.324 266.568 88.2361C267.836 88.3264 269.109 88.138 270.296 87.6842C269.12 87.1866 267.842 86.9764 266.568 87.071C265.285 86.9785 263.998 87.1885 262.81 87.6842V87.6842Z" fill="#2D1A16"/>
<path d="M266.567 92.7129C263.512 92.7129 261.22 92.2836 261.22 91.7317V93.4488C261.22 94.0007 263.603 94.43 266.567 94.43C269.531 94.43 271.884 94.0007 271.884 93.4488V91.7317C271.884 92.2836 269.501 92.7129 266.567 92.7129Z" fill="#E9EFF4"/>
<path d="M266.568 94.7981C265.278 94.8205 263.988 94.7178 262.718 94.4915C261.434 94.2768 260.854 93.9396 260.854 93.449V91.7319C260.848 91.6674 260.859 91.6025 260.886 91.5438C260.913 91.485 260.955 91.4344 261.007 91.3971C261.06 91.3597 261.122 91.337 261.186 91.3312C261.25 91.3254 261.315 91.3367 261.373 91.3639C261.416 91.3596 261.459 91.3643 261.499 91.3778C261.54 91.3913 261.578 91.4132 261.609 91.4421C261.641 91.471 261.666 91.5063 261.683 91.5457C261.701 91.585 261.709 91.6275 261.709 91.6705C263.307 92.2744 265.019 92.5153 266.721 92.3758C268.413 92.5179 270.115 92.2769 271.702 91.6705C271.724 91.5946 271.77 91.528 271.834 91.4806C271.897 91.4333 271.974 91.4077 272.053 91.4077C272.132 91.4077 272.209 91.4333 272.272 91.4806C272.335 91.528 272.382 91.5946 272.404 91.6705V93.3876C272.404 93.8782 271.824 94.2155 270.54 94.4302C269.232 94.6873 267.901 94.8106 266.568 94.7981ZM261.587 93.3876C263.174 93.994 264.876 94.235 266.568 94.0929C268.26 94.2309 269.961 93.99 271.549 93.3876V92.4678C271.173 92.608 270.784 92.7107 270.388 92.7744C269.127 93.0008 267.848 93.1035 266.568 93.081C265.278 93.1034 263.988 93.0007 262.718 92.7744C262.331 92.7145 261.951 92.6117 261.587 92.4678V93.3876Z" fill="#2D1A16"/>
<path d="M275.43 114.667C275.43 115.649 271.579 116.446 266.812 116.446C262.045 116.446 258.317 115.587 258.317 114.667C258.317 113.747 262.168 112.889 266.935 112.889C271.702 112.889 275.43 113.625 275.43 114.667Z" fill="white"/>
<g opacity="0.8">
<path opacity="0.8" d="M272.252 138.829C273.197 138.829 273.963 132.116 273.963 123.835C273.963 115.554 273.197 108.841 272.252 108.841C271.307 108.841 270.541 115.554 270.541 123.835C270.541 132.116 271.307 138.829 272.252 138.829Z" fill="white"/>
</g>
<path d="M273.138 140.608C273.138 140.796 273.083 140.98 272.979 141.136C272.874 141.292 272.727 141.414 272.553 141.486C272.38 141.558 272.19 141.577 272.006 141.54C271.822 141.503 271.654 141.413 271.521 141.28C271.389 141.147 271.298 140.978 271.262 140.793C271.225 140.609 271.244 140.418 271.316 140.244C271.387 140.07 271.509 139.922 271.665 139.817C271.82 139.713 272.004 139.657 272.191 139.657C272.442 139.657 272.683 139.757 272.861 139.936C273.038 140.114 273.138 140.356 273.138 140.608V140.608Z" fill="white"/>
<path d="M260.365 116.078C260.349 113.468 259.765 110.894 258.654 108.535C257.822 107.072 256.794 105.731 255.598 104.549C255.257 104.225 254.94 103.877 254.651 103.506C253.99 102.221 253.684 100.781 253.765 99.336C253.617 97.7256 253.566 96.1078 253.612 94.4913C253.62 94.2849 253.587 94.0789 253.514 93.8858C253.441 93.6926 253.329 93.5163 253.187 93.3673C253.044 93.2184 252.873 93.1 252.683 93.0191C252.494 92.9383 252.29 92.8967 252.084 92.8969H245.973C245.765 92.8968 245.56 92.9382 245.369 93.0187C245.178 93.0992 245.005 93.2172 244.86 93.3657C244.715 93.5141 244.6 93.6902 244.524 93.8834C244.447 94.0767 244.41 94.2834 244.414 94.4913C244.455 96.1092 244.384 97.7281 244.2 99.336C244.212 100.742 243.888 102.13 243.253 103.383C242.978 103.721 242.642 104.058 242.306 104.426C241.091 105.591 240.061 106.935 239.25 108.412C238.11 110.773 237.515 113.362 237.508 115.986C237.325 121.689 237.508 135.763 237.508 142.417C237.532 143.323 237.905 144.184 238.549 144.819C239.194 145.454 240.058 145.813 240.961 145.821H256.882C257.785 145.813 258.649 145.454 259.293 144.819C259.938 144.184 260.311 143.323 260.335 142.417C260.457 135.855 260.549 121.781 260.365 116.078Z" fill="#FDFEFF"/>
<path d="M256.942 146.281H241.022C240.022 146.281 239.063 145.884 238.353 145.178C237.644 144.471 237.241 143.512 237.233 142.509C237.233 135.855 237.05 121.781 237.233 116.047C237.268 113.374 237.873 110.74 239.005 108.32C239.82 106.828 240.849 105.464 242.061 104.273C242.397 103.905 242.733 103.568 242.978 103.261C243.597 102.058 243.912 100.721 243.894 99.3667C243.976 97.7733 243.976 96.1768 243.894 94.5834C243.886 94.3286 243.929 94.0748 244.021 93.837C244.112 93.5992 244.25 93.3824 244.427 93.1993C244.604 93.0162 244.816 92.8707 245.05 92.7713C245.283 92.672 245.535 92.6208 245.789 92.621H251.9C252.408 92.6298 252.891 92.8392 253.245 93.2036C253.601 93.5734 253.799 94.0689 253.795 94.5834C253.682 96.1758 253.682 97.7743 253.795 99.3667C253.78 100.717 254.084 102.051 254.681 103.261C254.926 103.568 255.262 103.905 255.598 104.273C256.809 105.464 257.839 106.828 258.654 108.32C259.814 110.73 260.42 113.371 260.426 116.047C260.609 121.781 260.426 135.855 260.426 142.509C260.415 143.459 260.052 144.371 259.408 145.068C258.764 145.765 257.886 146.197 256.942 146.281V146.281ZM245.911 93.3569C245.75 93.3517 245.591 93.382 245.443 93.4456C245.295 93.5091 245.163 93.6045 245.056 93.7248C244.946 93.8385 244.859 93.9729 244.802 94.1203C244.744 94.2676 244.716 94.4251 244.719 94.5834C244.816 96.2071 244.816 97.8351 244.719 99.4587C244.737 100.935 244.38 102.391 243.68 103.69C243.405 104.027 243.069 104.395 242.703 104.763C241.487 105.892 240.455 107.206 239.647 108.658C238.546 110.975 237.971 113.51 237.966 116.078C237.783 121.781 237.966 135.855 237.966 142.509C237.966 143.322 238.288 144.102 238.861 144.677C239.434 145.252 240.212 145.575 241.022 145.575H256.942C257.753 145.575 258.53 145.252 259.103 144.677C259.676 144.102 259.998 143.322 259.998 142.509C259.998 135.855 259.998 121.781 259.998 116.078C260.011 113.469 259.437 110.89 258.318 108.535C257.518 107.087 256.486 105.782 255.262 104.671L254.284 103.568C253.658 102.248 253.354 100.797 253.398 99.3361C253.317 97.712 253.317 96.0848 253.398 94.4607C253.401 94.3024 253.373 94.145 253.316 93.9976C253.258 93.8502 253.172 93.7158 253.062 93.6022C252.958 93.4858 252.831 93.3928 252.688 93.3293C252.546 93.2659 252.392 93.2335 252.237 93.2342L245.911 93.3569Z" fill="#2D1A16"/>
<path d="M258.837 116.109C258.862 113.889 258.398 111.691 257.479 109.671C256.56 107.652 255.208 105.861 253.52 104.426C251.839 102.402 252.206 94.5221 252.206 94.5221H246.094C246.094 94.5221 246.094 102.402 244.444 104.426C242.756 105.861 241.404 107.652 240.485 109.671C239.566 111.691 239.102 113.889 239.127 116.109C238.944 122.241 239.127 137.572 239.127 142.478C239.127 142.728 239.176 142.975 239.272 143.206C239.367 143.437 239.506 143.646 239.682 143.823C239.858 143.999 240.067 144.139 240.297 144.235C240.527 144.33 240.773 144.38 241.022 144.38H256.942C257.448 144.38 257.933 144.18 258.293 143.825C258.653 143.469 258.859 142.985 258.868 142.478C258.898 137.511 259.02 122.241 258.837 116.109Z" fill="#DAE9F2"/>
<path d="M240.624 114.667C240.624 120.8 240.441 136.131 240.624 140.853C240.608 141.32 240.775 141.774 241.089 142.119C241.404 142.463 241.84 142.669 242.305 142.693H256.423C256.887 142.669 257.324 142.463 257.639 142.119C257.953 141.774 258.12 141.32 258.103 140.853C258.103 136.131 258.103 120.892 258.103 114.759L240.624 114.667Z" fill="#E9EFF4"/>
<path d="M248.997 93.0195C251.95 93.0195 254.345 92.5664 254.345 92.0076C254.345 91.4488 251.95 90.9957 248.997 90.9957C246.044 90.9957 243.649 91.4488 243.649 92.0076C243.649 92.5664 246.044 93.0195 248.997 93.0195Z" fill="#D0DBE2"/>
<path d="M249.15 93.3569C247.861 93.3639 246.573 93.2613 245.3 93.0503C244.017 92.805 243.436 92.4983 243.436 92.0077C243.436 91.5171 244.017 91.1798 245.3 90.9345C246.573 90.7235 247.861 90.6209 249.15 90.6279C250.43 90.6208 251.708 90.7233 252.97 90.9345C254.253 91.1798 254.834 91.5171 254.834 92.0077C254.834 92.4983 254.253 92.805 252.97 93.0503C251.708 93.2615 250.43 93.364 249.15 93.3569V93.3569ZM244.231 92.0077C245.819 92.515 247.487 92.7229 249.15 92.621C250.804 92.7248 252.462 92.5168 254.039 92.0077C252.47 91.462 250.807 91.2429 249.15 91.3638C247.433 91.2263 245.706 91.4455 244.078 92.0077H244.231Z" fill="#2D1A16"/>
<path d="M244.841 87.9296L246.369 96.1471C246.427 96.5262 246.621 96.8713 246.912 97.1191C247.204 97.367 247.575 97.5009 247.958 97.4963H249.944C250.324 97.4972 250.693 97.3666 250.988 97.1264C251.283 96.8861 251.486 96.5511 251.563 96.1778L253.122 87.9296H244.841Z" fill="#B57E37"/>
<path d="M244.841 87.9296L245.208 89.984C246.097 90.1277 246.996 90.1995 247.897 90.1986C250.097 90.1986 251.869 89.8307 252.052 89.3401L250.494 97.4043C250.761 97.3072 250.999 97.1438 251.186 96.9293C251.373 96.7148 251.503 96.4563 251.563 96.1778L253.122 87.9296H244.841Z" fill="#9E662A"/>
<path d="M249.945 97.8641H247.959C247.517 97.8404 247.095 97.6715 246.758 97.3833C246.421 97.0952 246.188 96.7038 246.095 96.2696L244.597 88.0827C244.575 88.0346 244.564 87.9823 244.564 87.9294C244.564 87.8765 244.575 87.8242 244.597 87.7761C244.641 87.7566 244.687 87.7466 244.735 87.7466C244.782 87.7466 244.829 87.7566 244.872 87.7761H253.123C253.166 87.7545 253.213 87.7433 253.26 87.7433C253.308 87.7433 253.355 87.7545 253.398 87.7761C253.42 87.8242 253.431 87.8765 253.431 87.9294C253.431 87.9823 253.42 88.0346 253.398 88.0827L251.901 96.2696C251.803 96.7187 251.557 97.1213 251.201 97.4111C250.846 97.7008 250.403 97.8606 249.945 97.8641V97.8641ZM245.27 88.2974L246.706 96.0857C246.762 96.378 246.918 96.6416 247.146 96.8317C247.375 97.0218 247.662 97.1265 247.959 97.1282H249.945C250.242 97.1265 250.529 97.0218 250.757 96.8317C250.985 96.6416 251.141 96.378 251.198 96.0857L252.695 88.2974H245.27Z" fill="#2D1A16"/>
<path d="M246.094 94.5834L246.369 96.1472C246.44 96.5261 246.641 96.8683 246.937 97.1146C247.232 97.3609 247.605 97.4959 247.989 97.4964H249.975C250.351 97.496 250.716 97.3642 251.006 97.1236C251.296 96.883 251.493 96.5486 251.564 96.1779L251.9 94.5221C250.836 94.6526 249.764 94.714 248.692 94.7061C247.824 94.7156 246.957 94.6746 246.094 94.5834V94.5834Z" fill="#9E662A"/>
<path d="M249.976 97.8644H247.99C247.541 97.8526 247.109 97.6886 246.765 97.399C246.421 97.1095 246.185 96.7114 246.095 96.2699L245.79 94.7061C245.762 94.6057 245.762 94.4999 245.79 94.3995C245.838 94.3792 245.89 94.3688 245.942 94.3688C245.995 94.3688 246.047 94.3792 246.095 94.3995C246.947 94.4991 247.804 94.5503 248.662 94.5528C249.684 94.5469 250.705 94.4752 251.718 94.3382C251.766 94.3179 251.818 94.3075 251.87 94.3075C251.923 94.3075 251.975 94.3179 252.023 94.3382C252.05 94.3848 252.064 94.4376 252.064 94.4915C252.064 94.5453 252.05 94.5982 252.023 94.6448L251.718 96.3006C251.625 96.7104 251.408 97.0812 251.096 97.3614C250.783 97.6417 250.392 97.8174 249.976 97.8644ZM246.523 94.9821L246.737 96.0859C246.788 96.3809 246.942 96.648 247.172 96.8391C247.401 97.0303 247.691 97.1328 247.99 97.1285H249.976C250.273 97.1268 250.56 97.022 250.788 96.832C251.016 96.6419 251.172 96.3782 251.229 96.0859L251.443 94.9207C250.527 94.9708 249.609 94.9708 248.692 94.9207C247.959 95.0741 247.195 95.0434 246.523 94.9821V94.9821Z" fill="#2D1A16"/>
<path d="M248.997 88.8495C251.292 88.8495 253.152 88.4377 253.152 87.9296C253.152 87.4216 251.292 87.0098 248.997 87.0098C246.701 87.0098 244.841 87.4216 244.841 87.9296C244.841 88.4377 246.701 88.8495 248.997 88.8495Z" fill="#D59C47"/>
<path d="M249.15 89.248C248.692 89.248 244.628 89.248 244.628 87.9295C244.628 86.611 248.692 86.6417 249.15 86.6417C249.609 86.6417 253.642 86.6417 253.642 87.9295C253.642 89.2173 249.456 89.248 249.15 89.248ZM245.392 87.9295C246.582 88.4147 247.869 88.6142 249.15 88.5121C250.422 88.6163 251.699 88.4166 252.878 87.9295C251.691 87.4757 250.418 87.2873 249.15 87.3776C247.822 87.2671 246.486 87.4556 245.239 87.9295H245.392Z" fill="#2D1A16"/>
<path d="M249.15 92.9889C246.095 92.9889 243.803 92.5596 243.803 92.0077V93.7248C243.803 94.2767 246.186 94.706 249.15 94.706C252.114 94.706 254.467 94.2767 254.467 93.7248V92.0077C254.315 92.5596 251.931 92.9889 249.15 92.9889Z" fill="#E9EFF4"/>
<path d="M249.15 95.0739C247.86 95.0963 246.571 94.9936 245.3 94.7673C244.017 94.522 243.436 94.2154 243.436 93.7248V92.0077C243.436 91.9101 243.475 91.8165 243.543 91.7475C243.612 91.6785 243.705 91.6397 243.803 91.6397C243.845 91.6354 243.888 91.6402 243.929 91.6536C243.97 91.6671 244.007 91.689 244.039 91.7179C244.071 91.7468 244.096 91.7821 244.113 91.8215C244.13 91.8608 244.139 91.9034 244.139 91.9463C245.741 92.5311 247.451 92.7612 249.15 92.6209C250.84 92.7636 252.54 92.5334 254.131 91.9463C254.154 91.8704 254.2 91.8038 254.263 91.7564C254.327 91.7091 254.404 91.6835 254.483 91.6835C254.562 91.6835 254.638 91.7091 254.702 91.7564C254.765 91.8038 254.811 91.8704 254.834 91.9463V93.6635C254.834 94.1541 254.253 94.4607 252.97 94.706C251.712 94.953 250.432 95.0762 249.15 95.0739ZM244.169 93.6635C245.756 94.2698 247.458 94.5108 249.15 94.3687C250.842 94.5067 252.543 94.2658 254.131 93.6635V92.7436C253.755 92.8838 253.366 92.9865 252.97 93.0502C251.708 93.2614 250.43 93.364 249.15 93.3568C247.861 93.3638 246.573 93.2612 245.3 93.0502C244.913 92.9903 244.534 92.8875 244.169 92.7436V93.6635Z" fill="#2D1A16"/>
<path d="M249.242 116.63C254.001 116.63 257.859 115.833 257.859 114.851C257.859 113.869 254.001 113.073 249.242 113.073C244.483 113.073 240.625 113.869 240.625 114.851C240.625 115.833 244.483 116.63 249.242 116.63Z" fill="white"/>
<g opacity="0.8">
<path opacity="0.8" d="M254.681 139.105C255.627 139.105 256.393 132.392 256.393 124.111C256.393 115.83 255.627 109.117 254.681 109.117C253.736 109.117 252.97 115.83 252.97 124.111C252.97 132.392 253.736 139.105 254.681 139.105Z" fill="white"/>
</g>
<path d="M255.567 140.884C255.567 141.072 255.512 141.256 255.408 141.412C255.304 141.568 255.156 141.69 254.983 141.762C254.81 141.834 254.619 141.853 254.435 141.816C254.252 141.78 254.083 141.689 253.95 141.556C253.818 141.423 253.728 141.254 253.691 141.069C253.654 140.885 253.673 140.694 253.745 140.52C253.817 140.347 253.938 140.198 254.094 140.094C254.25 139.989 254.433 139.933 254.62 139.933C254.871 139.933 255.112 140.034 255.29 140.212C255.468 140.39 255.567 140.632 255.567 140.884V140.884Z" fill="white"/>
<path d="M281.847 118.316H270.174V136.591H281.847V118.316Z" fill="#B57E37"/>
<path d="M253.917 118.316H242.244V136.591H253.917V118.316Z" fill="#B57E37"/>
<path d="M226.507 118.316H214.834V136.591H226.507V118.316Z" fill="#B57E37"/>
<path d="M281.847 122.916H270.174V126.503H281.847V122.916Z" fill="#9E662A"/>
<path d="M253.917 122.916H242.244V126.503H253.917V122.916Z" fill="#9E662A"/>
<path d="M226.507 122.916H214.834V126.503H226.507V122.916Z" fill="#9E662A"/>
<path d="M281.846 136.928H270.173C270.128 136.933 270.082 136.928 270.039 136.913C269.996 136.897 269.957 136.873 269.925 136.84C269.893 136.808 269.868 136.769 269.853 136.726C269.838 136.683 269.832 136.637 269.837 136.591V118.194C269.833 118.147 269.838 118.1 269.853 118.055C269.868 118.01 269.892 117.97 269.924 117.935C269.956 117.9 269.994 117.873 270.037 117.854C270.08 117.835 270.126 117.825 270.173 117.826H281.846C281.925 117.795 282.012 117.795 282.091 117.826C282.126 117.914 282.126 118.013 282.091 118.102V136.499C282.105 136.543 282.109 136.59 282.104 136.636C282.099 136.682 282.085 136.727 282.062 136.767C282.039 136.808 282.008 136.843 281.971 136.87C281.934 136.898 281.891 136.918 281.846 136.928V136.928ZM270.54 136.131H281.48V118.684H270.54V136.131Z" fill="#2D1A16"/>
<path d="M253.886 136.928H242.244C242.197 136.933 242.15 136.927 242.106 136.912C242.061 136.897 242.02 136.873 241.986 136.841C241.951 136.809 241.924 136.771 241.905 136.728C241.886 136.684 241.877 136.638 241.877 136.591V118.193C241.877 118.096 241.916 118.002 241.984 117.933C242.053 117.864 242.146 117.825 242.244 117.825H253.886C253.983 117.825 254.077 117.864 254.145 117.933C254.214 118.002 254.253 118.096 254.253 118.193V136.591C254.253 136.638 254.243 136.684 254.225 136.728C254.206 136.771 254.178 136.809 254.144 136.841C254.109 136.873 254.068 136.897 254.024 136.912C253.98 136.927 253.933 136.933 253.886 136.928V136.928ZM242.58 136.131H253.55V118.684H242.58V136.131Z" fill="#2D1A16"/>
<path d="M226.477 136.928H214.835C214.745 136.955 214.649 136.955 214.56 136.928C214.529 136.85 214.529 136.762 214.56 136.683V118.286C214.56 118.188 214.598 118.094 214.667 118.025C214.736 117.956 214.829 117.918 214.926 117.918H226.569C226.657 117.882 226.756 117.882 226.844 117.918C226.87 118.008 226.87 118.103 226.844 118.194V136.591C226.844 136.638 226.834 136.685 226.816 136.728C226.797 136.771 226.769 136.809 226.735 136.841C226.7 136.873 226.659 136.897 226.615 136.912C226.571 136.927 226.524 136.933 226.477 136.928ZM215.171 136.131H226.141V118.684H215.171V136.131Z" fill="#2D1A16"/>
<path d="M284.749 118.316H211.564V124.173H284.749V118.316Z" fill="#D59C47"/>
<path d="M284.749 118.316H211.564V119.941H284.749V118.316Z" fill="#B57E37"/>
<path d="M284.75 124.51H211.412C211.365 124.514 211.318 124.509 211.274 124.494C211.229 124.479 211.188 124.455 211.154 124.423C211.119 124.391 211.092 124.352 211.073 124.309C211.054 124.266 211.045 124.22 211.045 124.173V118.316C211.045 118.219 211.084 118.125 211.152 118.056C211.221 117.987 211.314 117.948 211.412 117.948H284.75C284.847 117.948 284.94 117.987 285.009 118.056C285.078 118.125 285.116 118.219 285.116 118.316V124.173C285.109 124.265 285.067 124.351 284.999 124.413C284.931 124.476 284.842 124.51 284.75 124.51V124.51ZM211.931 123.866H284.383V118.684H211.931V123.866Z" fill="#2D1A16"/>
<path d="M281.847 131.654H270.174V149.929H281.847V131.654Z" fill="#B57E37"/>
<path d="M253.917 131.654H242.244V149.929H253.917V131.654Z" fill="#B57E37"/>
<path d="M226.507 131.654H214.834V149.929H226.507V131.654Z" fill="#B57E37"/>
<path d="M281.847 136.254H270.174V139.841H281.847V136.254Z" fill="#9E662A"/>
<path d="M253.917 136.254H242.244V139.841H253.917V136.254Z" fill="#9E662A"/>
<path d="M226.507 136.254H214.834V139.841H226.507V136.254Z" fill="#9E662A"/>
<path d="M281.847 150.267H270.174C270.095 150.298 270.008 150.298 269.929 150.267C269.903 150.177 269.903 150.081 269.929 149.991V131.593C269.925 131.547 269.931 131.499 269.946 131.455C269.961 131.41 269.985 131.369 270.016 131.335C270.048 131.3 270.087 131.272 270.129 131.254C270.172 131.235 270.219 131.225 270.266 131.225H281.847C281.925 131.195 282.013 131.195 282.091 131.225C282.113 131.268 282.124 131.315 282.124 131.363C282.124 131.411 282.113 131.459 282.091 131.501V149.899C282.096 149.979 282.074 150.057 282.03 150.124C281.986 150.19 281.922 150.24 281.847 150.267V150.267ZM270.541 149.562H281.48V131.992H270.541V149.562Z" fill="#2D1A16"/>
<path d="M253.886 150.267H242.244C242.146 150.267 242.053 150.228 241.984 150.159C241.916 150.09 241.877 149.996 241.877 149.899V131.501C241.877 131.404 241.916 131.31 241.984 131.241C242.053 131.172 242.146 131.133 242.244 131.133H253.886C253.983 131.133 254.077 131.172 254.145 131.241C254.214 131.31 254.253 131.404 254.253 131.501V149.899C254.253 149.996 254.214 150.09 254.145 150.159C254.077 150.228 253.983 150.267 253.886 150.267V150.267ZM242.58 149.561H253.55V131.992H242.58V149.561Z" fill="#2D1A16"/>
<path d="M226.476 150.267H214.834C214.785 150.271 214.735 150.265 214.688 150.248C214.642 150.231 214.599 150.205 214.564 150.169C214.529 150.134 214.502 150.092 214.486 150.045C214.469 149.998 214.463 149.948 214.467 149.899V131.501C214.467 131.404 214.506 131.31 214.575 131.241C214.644 131.172 214.737 131.133 214.834 131.133H226.476C226.526 131.128 226.576 131.135 226.622 131.151C226.669 131.168 226.711 131.195 226.746 131.23C226.781 131.266 226.808 131.308 226.825 131.355C226.842 131.402 226.848 131.452 226.843 131.501V149.899C226.843 149.996 226.805 150.09 226.736 150.159C226.667 150.228 226.574 150.267 226.476 150.267V150.267ZM215.17 149.561H226.14V131.992H215.17V149.561Z" fill="#2D1A16"/>
<path d="M285.727 131.44H212.542V137.296H285.727V131.44Z" fill="#D59C47"/>
<path d="M285.727 131.44H212.542V133.065H285.727V131.44Z" fill="#B57E37"/>
<path d="M285.819 137.664H212.481C212.384 137.664 212.29 137.625 212.222 137.556C212.153 137.487 212.114 137.394 212.114 137.296V131.44C212.121 131.344 212.162 131.255 212.23 131.187C212.297 131.12 212.386 131.079 212.481 131.072H285.819C285.916 131.072 286.009 131.111 286.078 131.18C286.147 131.249 286.186 131.342 286.186 131.44V137.296C286.186 137.394 286.147 137.487 286.078 137.556C286.009 137.625 285.916 137.664 285.819 137.664ZM213 136.928H285.361V131.808H212.909L213 136.928Z" fill="#2D1A16"/>
<path d="M285.727 144.349H212.542V150.205H285.727V144.349Z" fill="#D59C47"/>
<path d="M285.727 144.349H212.542V145.974H285.727V144.349Z" fill="#B57E37"/>
<path d="M285.819 150.543H212.481C212.389 150.543 212.3 150.508 212.232 150.446C212.164 150.383 212.122 150.298 212.114 150.205V144.349C212.114 144.251 212.153 144.158 212.222 144.089C212.29 144.02 212.384 143.981 212.481 143.981H285.819C285.916 143.981 286.009 144.02 286.078 144.089C286.147 144.158 286.186 144.251 286.186 144.349V150.205C286.186 150.252 286.176 150.299 286.157 150.342C286.139 150.385 286.111 150.424 286.077 150.455C286.042 150.487 286.001 150.511 285.957 150.526C285.913 150.541 285.866 150.547 285.819 150.543V150.543ZM213 149.837H285.361V144.686H212.909L213 149.837Z" fill="#2D1A16"/>
</svg>
