<svg width="300" height="250" viewBox="0 0 300 250" fill="none" xmlns="http://www.w3.org/2000/svg">
<path d="M30.8917 186.35L28.2866 183.696C34.3091 178.256 31.62 158.75 29.267 141.526C28.8468 138.394 28.3986 135.289 28.0345 132.317C25.2333 110.635 44.5053 107.901 44.8415 107.875L45.3457 111.404L44.9535 109.732L45.2056 111.511C44.5894 111.511 29.5191 113.846 31.788 131.999C32.1522 134.971 32.5724 138.049 32.9925 141.181C35.5976 160.156 38.2867 179.662 30.8917 186.35Z" fill="#D1875A"/>
<path d="M241.993 115.816C241.993 116.212 242.661 116.524 243.516 116.524C244.372 116.524 245.019 116.212 245.019 115.816C245.019 115.421 244.351 115.13 243.516 115.13C242.682 115.13 241.993 115.442 241.993 115.816Z" fill="#693514"/>
<path d="M57.4456 168.267C57.3575 172.627 56.583 176.947 55.1505 181.067C53.064 185.729 53.5022 197.364 49.7674 201.568C49.7674 201.568 49.7674 189.247 47.4306 184.918C45.0937 180.588 52.5215 170.868 57.4456 168.267Z" fill="#693514"/>
<path d="M101.908 176.634C103.578 180.151 104.245 183.315 103.432 183.71C102.618 184.106 100.615 181.629 98.9457 178.028C97.2765 174.427 96.6297 171.347 97.4434 170.952C98.2571 170.556 100.156 173.116 101.908 176.634Z" fill="#F08D84"/>
<path d="M107.793 171.867C110.442 174.719 111.965 177.529 111.381 178.111C110.797 178.694 108.043 176.904 105.393 173.949C102.743 170.993 101.22 168.267 101.804 167.705C102.389 167.143 105.143 169.016 107.793 171.867Z" fill="#F08D84"/>
<path d="M93.5619 178.111C93.2698 182.004 92.2892 185.084 91.4755 185.001C90.6618 184.918 90.0775 181.733 90.3905 177.862C90.7035 173.99 91.6633 170.91 92.477 170.972C93.2907 171.035 93.7915 174.157 93.5619 178.111Z" fill="#F08D84"/>
<path d="M220.461 105.264C220.461 105.909 221.213 106.43 222.11 106.43C223.007 106.43 223.779 105.909 223.779 105.264C223.779 104.619 223.028 104.098 222.11 104.098C221.192 104.098 220.461 104.702 220.461 105.264Z" fill="#693514"/>
<path d="M111.109 166.955H99.5504C99.3899 166.955 99.236 167.019 99.1225 167.132C99.0091 167.245 98.9453 167.399 98.9453 167.559C98.9453 167.719 99.0091 167.873 99.1225 167.986C99.236 168.099 99.3899 168.163 99.5504 168.163H111.109V166.955Z" fill="#747474"/>
<path d="M111.109 169.12H99.9669C99.8064 169.12 99.6525 169.184 99.539 169.297C99.4256 169.41 99.3618 169.564 99.3618 169.724C99.3618 169.884 99.4256 170.037 99.539 170.15C99.6525 170.264 99.8064 170.327 99.9669 170.327H111.109V169.12Z" fill="#747474"/>
<path d="M215.203 90.528C217.174 89.4431 218.866 87.9188 220.148 86.0739C220.688 84.8579 220.979 83.5468 221.004 82.2172C221.029 80.8877 220.788 79.5665 220.294 78.3312C219.48 76.8326 220.482 76.9159 220.482 76.9159C221.101 77.7287 221.64 78.6001 222.089 79.5176V79.5176C223.513 82.065 224.095 84.9964 223.75 87.8933C223.406 90.7901 222.152 93.5042 220.169 95.6481C219.819 96.0861 219.375 96.4398 218.869 96.6829C218.363 96.926 217.809 97.0522 217.248 97.0522C216.687 97.0522 216.132 96.926 215.627 96.6829C215.121 96.4398 214.677 96.0861 214.327 95.6481C213.618 94.6282 211.886 92.651 215.203 90.528Z" fill="#4F250A"/>
<path d="M217.978 91.9848C220.343 91.1765 222.486 89.8296 224.238 88.0511C225.916 85.5439 226.531 82.4758 225.949 79.5175C225.344 77.7067 226.429 77.9773 226.429 77.9773C226.955 79.0072 227.375 80.0882 227.68 81.2034V81.2034C228.75 84.3041 228.809 87.6628 227.85 90.7991C226.89 93.9355 224.962 96.689 222.339 98.666C221.868 99.0833 221.308 99.3887 220.702 99.5593C220.095 99.7299 219.458 99.7613 218.838 99.6512C218.217 99.541 217.63 99.2922 217.12 98.9233C216.61 98.5544 216.19 98.0751 215.892 97.5212C215.391 96.21 213.889 93.6915 217.978 91.9848Z" fill="#693514"/>
<path d="M221.045 125.62C219.501 129.345 209.215 135.86 206.106 138.67C203.085 142.044 200.297 145.618 197.76 149.368C193.065 148.015 193.587 150.388 188.892 154.197C183.28 158.817 183.593 157.631 175.184 155.466C166.776 153.302 176.436 146.454 168.341 138.691C160.245 130.927 160.558 132.447 161.163 126.889C161.768 121.332 168.341 115.379 172.701 110.447C177.062 105.514 168.967 103.89 167.089 99.124C166.926 98.7765 166.88 98.3857 166.959 98.0103C167.038 97.6349 167.237 97.2952 167.527 97.0426C173.098 98.2706 180.692 100.789 187.953 101.018C193.35 101.324 198.747 100.421 203.748 98.3747V98.3747C208.63 99.4154 215.349 99.8108 217.227 104.369C219.104 108.927 226.261 114.776 233.418 116.483C240.574 118.189 233.418 125.266 233.418 125.266C228.535 123.996 222.61 121.915 221.045 125.62Z" fill="#B36434"/>
<path d="M193.712 126.182C196.133 122.227 195.966 119.938 194.317 113.569C192.669 107.2 194.547 110.113 197.134 111.966C199.721 113.818 200.389 115.234 210.446 118.73C220.503 122.227 215.349 126.639 218.541 128.762C214.848 132.322 208.422 136.547 206.023 138.67C204.953 139.73 203.976 140.879 203.101 142.104V142.104C201.891 133.092 193.796 139.69 189.122 135.86C184.448 132.03 191.313 130.24 193.712 126.182Z" fill="#D1875A"/>
<path d="M154.085 165.44C154.085 170.531 137.896 171.665 134.385 167.84C130.875 164.015 133.207 152.17 121.785 152.777C110.363 153.384 101.823 148.345 108.687 143.017C115.55 137.688 121.785 135.63 121.575 131.515C121.366 127.4 124.824 121.332 128.334 125.527C131.844 129.721 128.334 131.805 133.311 138.004C138.289 144.204 138.315 133.863 144.445 143.914C150.575 153.964 144.89 157.526 151.099 160.559C157.307 163.593 154.138 161.087 154.085 165.44Z" fill="#693514"/>
<path d="M150.68 106.563C154.401 108.341 154.709 116.867 150.68 122.715C146.651 128.563 141.493 137.707 139.491 122.715C137.49 107.723 125.402 113.519 133.152 103.395C140.903 93.2712 146.651 94.7652 147.241 98.655C147.832 102.545 145.24 103.962 150.68 106.563Z" fill="#693514"/>
<path d="M155.281 166.456C155.622 165.915 156.155 165.522 156.774 165.356C157.393 165.191 158.052 165.264 158.619 165.561C162.646 166.955 168.196 170.91 166.548 175.968C164.899 181.025 159.391 185.042 162.729 188.768C166.068 192.494 172.911 193.701 166.902 197.635C164.904 199.038 163.173 200.786 161.791 202.796C160.226 201.152 159.016 198.446 160.372 193.867C161.916 188.602 161.394 177.092 159.788 169.953C159.752 169.416 159.604 168.892 159.351 168.417C159.098 167.941 158.747 167.525 158.322 167.194C157.896 166.864 157.405 166.627 156.88 166.5C156.356 166.373 155.811 166.358 155.281 166.456V166.456Z" fill="#693514"/>
<path d="M165.003 207.5V211.413H174.016C173.95 210.108 173.726 208.815 173.349 207.563L165.003 207.5Z" fill="#693514"/>
<path d="M183.28 201.568H174.642C174.962 202.835 175.199 204.121 175.351 205.419H184.072C183.96 204.109 183.694 202.817 183.28 201.568V201.568Z" fill="#693514"/>
<path d="M215.224 129.2C213.138 124.849 209.257 132.322 203.081 130.428C196.905 128.533 199.909 122.685 195.549 120.021C191.188 117.357 183.718 122.352 186.201 126.868C188.684 131.385 180.923 133.112 180.297 139.065C179.733 144.331 193.066 143.228 200.765 145.309C202.366 142.945 204.152 140.711 206.106 138.628C208.026 136.901 212.679 133.737 216.309 130.719C215.871 130.271 215.505 129.759 215.224 129.2V129.2Z" fill="#693514"/>
<path d="M148.175 26.6486C147.635 25.6389 146.758 24.842 145.691 24.3916C144.624 23.9412 143.432 23.8645 142.314 24.1744C138.282 25.3985 137.752 27.8206 135.816 29.0187C133.88 30.2167 131.732 30.7636 130.511 34.7224C129.973 37.0834 129.012 39.332 127.674 41.3636C125.963 43.8268 125.09 46.7588 125.18 49.7391C125.271 52.7195 126.32 55.5952 128.178 57.9538C131.944 62.9283 129.106 61.7823 130.299 66.2359C130.83 68.1892 136.983 71.4447 135.047 74.0492C137.809 72.7388 140.393 71.0939 142.738 69.1528C144.78 66.6265 148.175 26.6486 148.175 26.6486Z" fill="#693514"/>
<path d="M146.823 26.6721C147.359 25.6428 148.244 24.8317 149.324 24.3798C150.404 23.928 151.61 23.864 152.733 24.1991C156.77 25.4226 157.272 27.8435 159.224 29.041C161.177 30.2384 163.288 30.7851 164.501 34.7418C165.05 37.0978 166.005 39.3432 167.325 41.3798C169.031 43.8391 169.904 46.7681 169.818 49.7469C169.733 52.7258 168.694 55.6015 166.85 57.9618C163.077 62.9338 165.926 61.7884 164.713 66.2397C164.211 68.1921 158.063 71.446 159.989 74.0492C157.251 72.7376 154.689 71.0935 152.364 69.1553C150.174 66.6302 146.823 26.6721 146.823 26.6721Z" fill="#4F250A"/>
<path d="M156.3 61.2068C156.3 61.2068 154.696 73.9122 160.621 74.9097C166.547 75.9073 176.147 73.4134 181.322 82.575C187.092 92.8128 197.313 109.64 198.296 125.836C198.296 127.333 199.616 130.64 199.59 132.084C199.253 149.278 197.002 147.966 198.632 153.426C200.263 158.886 200.496 164.215 193.639 165.606C187.325 166.866 186.807 165.895 187.972 157.127C188.8 150.88 185.643 136.468 186.989 129.17C188.334 121.873 175.836 112.16 174.051 105.256V139.198H148.175V105.229V51.0477L156.3 61.2068Z" fill="#F7A054"/>
<path d="M111.11 177.487C108.484 177.557 105.896 176.845 103.678 175.441C101.46 174.037 99.7122 172.004 98.658 169.604C97.6037 167.204 97.291 164.544 97.7599 161.966C98.2287 159.387 99.4578 157.006 101.29 155.128C103.122 153.25 105.474 151.96 108.045 151.422C110.617 150.884 113.29 151.124 115.724 152.11C118.158 153.096 120.242 154.783 121.71 156.957C123.177 159.131 123.962 161.691 123.963 164.312C124.007 167.759 122.679 171.082 120.269 173.552C117.859 176.023 114.565 177.438 111.11 177.487ZM111.11 154.259C109.103 154.189 107.121 154.718 105.418 155.779C103.715 156.84 102.368 158.384 101.55 160.213C100.733 162.043 100.482 164.075 100.83 166.047C101.178 168.02 102.109 169.844 103.503 171.286C104.897 172.727 106.691 173.721 108.655 174.138C110.619 174.556 112.663 174.378 114.525 173.629C116.388 172.879 117.983 171.592 119.107 169.932C120.231 168.272 120.832 166.315 120.833 164.312C120.878 161.693 119.879 159.164 118.056 157.279C116.233 155.395 113.735 154.308 111.11 154.259V154.259Z" fill="#747474"/>
<path d="M139.747 61.2068C139.747 61.2068 141.364 73.9122 135.321 74.9097C129.279 75.9073 119.419 73.4134 114.119 82.575C108.209 92.8128 97.7134 109.64 96.7328 125.836C96.7328 127.333 95.3811 130.64 95.4076 132.084C95.7522 149.278 98.0579 147.966 96.3882 153.426C94.7185 158.886 94.692 164.215 101.609 165.606C108.076 166.866 108.606 165.895 107.413 157.127C106.565 150.88 109.799 136.468 108.421 129.17C107.042 121.873 119.843 112.16 121.672 105.256V139.198H148.175V105.229V51.0477L139.747 61.2068Z" fill="#FFBA80"/>
<path d="M181.698 82.5021C176.48 73.3618 166.958 75.8236 160.828 74.8546C154.697 73.8856 156.471 61.1833 156.471 61.1833L148.175 51.0477V105.104V138.994H174.263V105.104C176.193 112.018 187.541 92.7163 181.698 82.5021Z" fill="#F7A054"/>
<path d="M148.149 167.815C148.149 167.815 144.252 170.599 143.332 192.79C142.222 219.34 141.14 231 141.14 231H123.28L121.115 192.842V139.375L148.176 137.641L148.149 167.815Z" fill="#7CA324"/>
<path d="M148.201 167.815C148.201 167.815 151.877 170.599 152.777 192.79C153.831 219.34 154.859 231 154.859 231H171.903L173.883 192.842V139.375L148.175 137.641L148.201 167.815Z" fill="#668A16"/>
<path d="M168.717 208.541L169.76 185.167H160.475V208.541H168.717Z" fill="#0E1F42"/>
<path d="M152.234 208.541L151.211 185.167H160.475V208.541H152.234Z" fill="#0E1F42"/>
<path d="M151.983 211.08C151.983 208.806 152.889 206.625 154.501 205.017C156.113 203.409 158.3 202.505 160.58 202.505C162.86 202.505 165.046 203.409 166.658 205.017C168.27 206.625 169.176 208.806 169.176 211.08C169.127 211.268 169.01 211.43 168.849 211.538C168.687 211.645 168.492 211.69 168.3 211.663H152.86C152.667 211.69 152.472 211.645 152.311 211.538C152.149 211.43 152.033 211.268 151.983 211.08Z" fill="#172C57"/>
<path d="M150.231 179.527C150.231 179.321 150.312 179.123 150.456 178.975C150.6 178.827 150.796 178.741 151.003 178.736H169.948C170.155 178.741 170.351 178.827 170.495 178.975C170.639 179.123 170.72 179.321 170.72 179.527V186.104C170.72 186.31 170.639 186.508 170.495 186.656C170.351 186.804 170.155 186.889 169.948 186.895H151.003C150.796 186.889 150.6 186.804 150.456 186.656C150.312 186.508 150.231 186.31 150.231 186.104V179.527Z" fill="#172C57"/>
<path d="M135.959 74.0492L135.271 74.2607C133.449 74.4688 131.618 74.5748 129.785 74.5781H129.07C125.704 74.5781 123.372 74.7632 123.372 74.7632C112.004 75.0012 102.173 101.921 102.173 101.921L119.53 111.599L121.676 107.262V138.994H148.176V104.777V86.2661L135.959 74.0492Z" fill="#A6DAF5"/>
<path d="M159.988 74.0492L160.657 74.2609C162.425 74.4699 164.204 74.576 165.984 74.5785H166.704C169.973 74.5785 172.237 74.7638 172.237 74.7638C183.278 75.0019 192.825 101.943 192.825 101.943L175.995 111.577L173.91 107.236V138.994H148.175V104.802V86.276L159.988 74.0492Z" fill="#77BBE6"/>
<path d="M127.697 208.541L126.675 185.167H135.939V208.541H127.697Z" fill="#0E1F42"/>
<path d="M144.18 208.541L145.223 185.167H135.938V208.541H144.18Z" fill="#0E1F42"/>
<path d="M144.535 211.08C144.535 208.806 143.629 206.625 142.017 205.017C140.405 203.409 138.218 202.505 135.939 202.505C133.659 202.505 131.472 203.409 129.86 205.017C128.248 206.625 127.342 208.806 127.342 211.08C127.392 211.268 127.508 211.43 127.669 211.538C127.831 211.645 128.026 211.69 128.219 211.663H143.638C143.83 211.69 144.025 211.645 144.187 211.538C144.348 211.43 144.465 211.268 144.514 211.08H144.535Z" fill="#172C57"/>
<path d="M146.183 179.527C146.183 179.321 146.102 179.123 145.958 178.975C145.814 178.827 145.618 178.741 145.411 178.736H126.466C126.259 178.741 126.063 178.827 125.919 178.975C125.774 179.123 125.694 179.321 125.694 179.527V186.104C125.694 186.31 125.774 186.508 125.919 186.656C126.063 186.804 126.259 186.889 126.466 186.895H145.411C145.618 186.889 145.814 186.804 145.958 186.656C146.102 186.508 146.183 186.31 146.183 186.104V179.527Z" fill="#172C57"/>
<path d="M120.311 189.268H101.888L99.1543 164.312H123.065L120.311 189.268Z" fill="#9A9A9A"/>
<path d="M120.311 189.268L123.065 164.312H111.11V189.268H120.311Z" fill="#919191"/>
<path d="M111.11 166.955H122.648C122.809 166.955 122.962 167.019 123.076 167.132C123.189 167.245 123.253 167.399 123.253 167.559C123.253 167.719 123.189 167.873 123.076 167.986C122.962 168.099 122.809 168.163 122.648 168.163H111.11V166.955Z" fill="#636363"/>
<path d="M111.11 169.12H122.252C122.412 169.12 122.566 169.184 122.679 169.297C122.793 169.41 122.857 169.564 122.857 169.724C122.857 169.884 122.793 170.037 122.679 170.15C122.566 170.264 122.412 170.327 122.252 170.327H111.11V169.12Z" fill="#636363"/>
<path d="M163.412 49.3405H163.123C163.123 48.2883 163.385 47.2625 163.49 46.3156C164.147 41.3179 165.618 26.6933 148.203 26.6933C130.788 26.6933 132.232 41.3179 132.889 46.3156C132.889 47.2625 133.152 48.2883 133.283 49.3405H132.968C130.341 47.3677 130.105 52.4969 131.208 54.2592C131.885 55.2364 132.391 56.3215 132.705 57.4682C133.099 58.6255 133.782 58.7834 134.334 58.6518C134.334 59.362 134.491 59.967 134.518 60.4405C134.78 63.0708 141.242 68.5419 142.713 70.2253C144.184 71.9087 146.364 71.1985 147.1 71.1722H148.203H149.306C150.015 71.1722 152.327 71.8298 153.693 70.2253C155.059 68.6208 161.573 63.1497 161.862 60.4405C161.862 59.967 161.862 59.362 162.046 58.6518C162.624 58.6518 163.28 58.6518 163.7 57.4682C164.015 56.3215 164.521 55.2364 165.198 54.2592C166.196 52.4706 166.038 47.3677 163.412 49.3405Z" fill="#FFBA80"/>
<path d="M148.175 71.2066H149.277C149.985 71.2066 152.293 71.8791 153.657 70.2383C155.021 68.5975 161.526 63.0028 161.814 60.2323C161.814 59.7481 161.814 59.1295 161.998 58.4033C162.575 58.4033 163.23 58.4033 163.65 57.1929C163.964 56.0202 164.47 54.9107 165.145 53.9113C166.247 52.1092 166.011 46.8641 163.362 48.8814H163.073C163.073 47.8055 163.335 46.7565 163.44 45.7882C163.86 42.5873 164.568 35.567 160.817 30.7523H148.175V71.2066Z" fill="#F7A054"/>
<path d="M146.909 35.0799C146.701 36.1941 146.871 37.3405 147.396 38.3616C147.921 39.3828 148.775 40.2285 149.841 40.7826C153.63 42.7005 159.133 45.0787 160.239 48.3008C161.345 51.5229 162.452 55.3332 164.332 56.3817C166.213 57.4301 167.761 47.6104 166.849 46.1528C165.936 44.6951 164.968 36.7166 164.083 35.0544C157.667 22.9075 147.075 25.5926 147.075 25.5926L146.909 35.0799Z" fill="#4F250A"/>
<path d="M148.083 35.0799C148.3 36.1945 148.134 37.3438 147.608 38.3666C147.081 39.3894 146.222 40.2342 145.15 40.7826C141.358 42.7005 135.851 45.0787 134.744 48.3008C133.637 51.5229 132.53 55.3332 130.676 56.3817C128.822 57.4301 127.217 47.6104 128.158 46.1528C129.099 44.6951 130.012 36.7166 130.925 35.0544C137.346 22.9075 147.972 25.5926 147.972 25.5926L148.083 35.0799Z" fill="#693514"/>
<path d="M148.176 109.228H130.586V138.994H148.176V109.228Z" fill="#7CA324"/>
<path d="M164.412 109.228H148.175V138.994H164.412V109.228Z" fill="#668A16"/>
<path d="M138.704 109.228H130.525L125.174 75.4022H133.353L138.704 109.228Z" fill="#7CA324"/>
<path d="M156.294 109.228H164.49L169.824 75.4022H161.656L156.294 109.228Z" fill="#668A16"/>
<path d="M177.942 38.9159C177.942 42.9917 166.127 46.9886 147.486 46.9886C128.845 46.9886 117.056 42.9391 117.056 38.9159C117.056 34.8927 129.002 32.1053 147.381 32.1053C165.76 32.1053 177.942 34.7612 177.942 38.9159Z" fill="#FFB804"/>
<path d="M161.889 22.6343H134.437L130.586 34.9468C136.32 36.5633 142.23 37.4271 148.176 37.5175C154.121 37.4271 160.031 36.5633 165.765 34.9468L161.889 22.6343Z" fill="#FCA001"/>
<path d="M161.706 22.6342C161.706 24.1767 155.346 25.3403 147.512 25.3403C139.679 25.3403 133.292 24.1225 133.292 22.6342C133.292 21.1459 139.652 19.9282 147.512 19.9282C155.373 19.9282 161.706 21.1188 161.706 22.6342Z" fill="#FFB804"/>
<path d="M148.175 32.1053V46.9886C166.405 46.9886 177.942 42.9511 177.942 38.8873C177.942 34.8234 166.405 32.1581 148.175 32.1053Z" fill="#FCA001"/>
<path d="M148.175 37.5175C154.121 37.4303 160.032 36.5664 165.765 34.9468L161.888 22.6343H148.175V37.5175Z" fill="#F58300"/>
<path d="M148.175 19.9282V25.3403C155.643 25.3403 161.706 24.1225 161.706 22.6342C161.706 21.1459 155.643 19.9282 148.175 19.9282Z" fill="#FCA001"/>
<path d="M59.1174 116.776L213.121 110.355C210.515 113.526 207.694 116.569 204.67 119.468C199.747 123.593 193.693 131.272 192.561 135.089C191.429 138.906 186.874 141.443 186.874 151.945C186.874 162.447 192.561 171.317 192.561 175.752H181.504C181.504 175.752 180.741 169.397 178.477 167.809C176.213 166.22 177.476 159.733 177.002 153.335C176.607 147.731 177.002 140.803 175.107 133.478C173.212 126.153 166.341 132.529 145.122 129.992C123.904 127.455 109.478 129.683 99.6321 125.866C89.7864 122.049 87.1276 123.946 83.7053 128.403C80.283 132.86 75.3601 145.238 74.2281 147.775C73.0962 150.312 74.623 160.815 76.1236 163.661C77.6241 166.507 82.9418 173.523 82.9418 173.523H70.8058C70.8058 173.523 67.0413 166.22 65.1459 164.962C63.2505 163.705 66.6464 152.254 62.8556 147.488C59.0647 142.722 56.0373 137.317 58.3013 134.449C59.8808 132.353 60.1967 123.285 59.1174 116.776Z" fill="#B36434"/>
<path d="M103.526 125.577C103.526 129.702 102.058 133.735 99.3073 137.166C96.5568 140.596 92.6475 143.269 88.0737 144.848C83.4999 146.427 78.4671 146.84 73.6115 146.035C68.756 145.23 64.2959 143.244 60.7953 140.326C57.2946 137.409 54.9107 133.693 53.9448 129.646C52.979 125.6 53.4747 121.406 55.3692 117.594C57.2638 113.783 60.4721 110.525 64.5884 108.233C68.7047 105.941 73.5442 104.718 78.4948 104.718C81.7829 104.715 85.0394 105.252 88.0779 106.3C91.1164 107.347 93.8772 108.883 96.2022 110.821C98.5273 112.758 100.371 115.059 101.628 117.591C102.884 120.123 103.529 122.837 103.526 125.577Z" fill="#F08D84"/>
<path d="M86.6975 133.898C85.4665 136.968 83.7556 139.258 82.9001 139.102C82.0447 138.945 82.3576 136.188 83.6095 133.118C84.8614 130.048 86.5514 127.758 87.4069 127.914C88.2623 128.07 87.9494 130.828 86.6975 133.898Z" fill="#F08D84"/>
<path d="M272.654 80.7364C272.47 82.2691 271.859 83.7453 270.868 85.0486C269.877 86.3519 268.535 87.4467 266.946 88.2465C264.303 89.2318 261.819 92.1658 255.503 90.874C249.186 89.5821 241.707 87.2831 239.646 91.2024C237.584 95.1216 224.661 101.975 220.724 104.931C216.786 107.887 202.568 125.841 197.441 130.088C192.314 134.336 181.32 135.628 180.157 139.569C178.994 143.51 174.263 146.138 174.263 156.888C174.263 167.639 180.157 176.813 180.157 181.389H168.74C168.74 181.389 167.947 174.821 165.569 173.222C163.19 171.624 160.838 168.646 162.926 163.085C165.014 157.523 164.221 145.437 162.186 137.927C160.151 130.417 153.068 136.942 130.974 134.336C108.881 131.731 93.9755 134.008 83.6422 130.088C73.3089 126.169 70.6132 128.118 67.0719 132.694C63.5305 137.27 58.2714 150.013 57.1086 152.641C55.9457 155.268 57.505 166.041 59.0642 168.974C60.6235 171.908 66.1733 179.112 66.1733 179.112H53.5408C53.5408 179.112 49.6031 171.58 47.621 170.354C45.6389 169.128 49.2066 157.217 45.2689 152.378C41.3311 147.539 38.1598 141.912 40.5383 138.978C42.9168 136.044 42.4411 120.017 39.719 115.112C36.997 110.208 32.6364 91.5089 35.4113 84.9841C38.1862 78.4593 53.5408 66.6797 63.3984 65.6944C73.256 64.7091 106.397 67.6649 116.254 67.6649C126.112 67.6649 159.252 60.4833 165.965 60.4833C172.678 60.4833 185.68 65.0375 197.916 65.4097C205.315 65.8463 212.724 64.6686 219.402 61.9941C219.402 61.9941 211.474 59.0382 212.901 55.4255C214.328 51.8127 223.948 55.9291 226.326 57.396C227.721 56.8073 229.252 56.4733 230.816 56.4166C232.379 56.36 233.94 56.582 235.391 57.0676C239.54 58.863 246.438 64.096 251.248 66.8767C256.058 69.6574 261.819 74.3868 264.462 75.0437C267.104 75.7005 272.469 78.5469 272.654 80.7364Z" fill="#D1875A"/>
<path d="M63.5467 65.4546C72.3924 64.5777 99.806 66.8358 112.663 67.34C114.947 71.4178 116.647 76.8329 105.65 76.1094C91.1197 75.1448 87.0555 68.6116 82.4865 76.1094C77.9176 83.6072 79.8302 88.0795 73.269 84.6595C66.7078 81.2394 71.7814 74.2897 62.856 78.2359C53.9307 82.1821 53.0541 78.6744 47.6882 85.8214C42.3224 92.9684 39.3738 91.0392 45.6163 100.357C47.6044 103.295 48.7463 106.571 48.9536 109.932C49.1608 113.292 48.4279 116.647 46.8116 119.737C45.9085 121.206 43.5443 128.506 47.396 132.715C51.2478 136.925 50.3712 135.237 48.007 140.498C45.6428 145.76 47.396 146.374 48.5914 150.473C49.5211 153.696 50.079 158.563 47.2898 159.966C47.5068 157.251 46.8274 154.539 45.3241 152.118C41.3661 147.207 38.1785 141.638 40.5692 138.701C42.9599 135.763 42.4818 119.715 39.7457 114.804C37.0097 109.893 32.6267 91.3023 35.4159 84.7691C38.205 78.2359 53.6385 66.4412 63.5467 65.4546Z" fill="#693514"/>
<path d="M77.1452 100.299C81.1642 101.508 78.9895 112.391 72.5206 114.809C66.0517 117.227 51.8752 123.748 57.4357 114.809C62.9962 105.87 64.813 101.854 60.5188 98.3561C56.2245 94.8583 64.0422 91.123 67.6758 92.6776C71.3094 94.2322 77.1452 100.299 77.1452 100.299Z" fill="#B36434"/>
<path d="M77.121 126.856C75.5144 124.654 84.1107 116.831 90.391 117.403C96.6712 117.976 98.3613 114.247 108.627 112.287C117.828 110.552 112.049 117.005 115.762 124.272C108.272 124.064 102.388 123.908 97.7353 122.121C89.6398 119.017 87.449 120.56 84.6532 124.185C81.8573 127.81 77.7887 137.905 76.8707 139.986C76.4455 141.881 76.4032 143.821 76.7455 145.727C76.5514 145.811 76.349 145.881 76.1404 145.935C72.6977 146.907 78.7276 129.059 77.121 126.856Z" fill="#693514"/>
<path d="M87.6159 156.134H97.2345C97.2345 156.134 96.1496 154.694 94.9186 152.995H85.8633C86.8231 154.608 87.6159 156.134 87.6159 156.134Z" fill="#693514"/>
<path d="M74.0543 160.956H84.0276C84.0276 160.956 82.9844 159.586 81.7951 157.938H72.3643C73.3032 159.516 74.0543 160.956 74.0543 160.956Z" fill="#693514"/>
</svg>
