<svg width="300" height="300" viewBox="0 0 300 300" fill="none" xmlns="http://www.w3.org/2000/svg">
<path d="M199.539 126.179C200.996 125.377 202.246 124.251 203.194 122.887C203.593 121.989 203.808 121.02 203.826 120.037C203.845 119.054 203.667 118.078 203.302 117.165C202.701 116.057 203.441 116.119 203.441 116.119C203.899 116.719 204.296 117.363 204.628 118.042V118.042C205.681 119.924 206.111 122.091 205.856 124.232C205.602 126.373 204.675 128.379 203.209 129.963C202.951 130.287 202.623 130.549 202.249 130.728C201.875 130.908 201.465 131.001 201.051 131.001C200.636 131.001 200.226 130.908 199.852 130.728C199.479 130.549 199.15 130.287 198.892 129.963C198.367 129.21 197.087 127.748 199.539 126.179Z" fill="#4F250A"/>
<path d="M201.59 127.256C203.338 126.659 204.922 125.663 206.216 124.349C207.457 122.496 207.911 120.228 207.481 118.042C207.034 116.703 207.835 116.903 207.835 116.903C208.225 117.664 208.535 118.463 208.761 119.288V119.288C209.551 121.579 209.595 124.062 208.886 126.38C208.177 128.698 206.751 130.733 204.813 132.194C204.465 132.502 204.051 132.728 203.603 132.854C203.155 132.98 202.684 133.003 202.225 132.922C201.767 132.841 201.333 132.657 200.956 132.384C200.578 132.111 200.268 131.757 200.048 131.348C199.678 130.379 198.568 128.517 201.59 127.256Z" fill="#693514"/>
<path d="M203.857 152.115C202.716 154.869 195.113 159.683 192.816 161.76C190.583 164.254 188.522 166.896 186.647 169.667C183.178 168.667 183.563 170.421 180.093 173.236C175.945 176.651 176.177 175.774 169.962 174.174C163.747 172.574 170.887 167.513 164.904 161.776C158.921 156.038 159.152 157.161 159.599 153.053C160.046 148.946 164.904 144.547 168.127 140.901C171.35 137.255 165.367 136.055 163.979 132.532C163.858 132.276 163.825 131.987 163.883 131.709C163.941 131.432 164.089 131.181 164.303 130.994C168.42 131.902 174.033 133.763 179.399 133.932C183.388 134.159 187.377 133.491 191.073 131.979V131.979C194.681 132.748 199.647 133.04 201.035 136.409C202.423 139.778 207.712 144.1 213.001 145.362C218.291 146.623 213.001 151.853 213.001 151.853C209.393 150.915 205.013 149.377 203.857 152.115Z" fill="#B36434"/>
<path d="M183.656 152.53C185.445 149.608 185.321 147.915 184.103 143.208C182.885 138.501 184.273 140.655 186.185 142.024C188.097 143.393 188.59 144.439 196.023 147.023C203.456 149.608 199.647 152.869 202.006 154.438C199.277 157.068 194.527 160.191 192.754 161.76C191.964 162.544 191.242 163.393 190.595 164.298V164.298C189.701 157.637 183.717 162.514 180.263 159.683C176.809 156.853 181.882 155.53 183.656 152.53Z" fill="#D1875A"/>
<path d="M154.368 181.545C154.368 185.308 142.403 186.147 139.808 183.319C137.214 180.492 138.937 171.738 130.495 172.187C122.054 172.635 115.742 168.911 120.815 164.973C125.887 161.034 130.495 159.514 130.34 156.472C130.186 153.431 132.741 148.946 135.336 152.046C137.93 155.146 135.336 156.687 139.014 161.268C142.693 165.85 142.712 158.207 147.243 165.636C151.774 173.064 147.572 175.696 152.161 177.938C156.749 180.18 154.407 178.328 154.368 181.545Z" fill="#693514"/>
<path d="M151.851 138.031C154.601 139.345 154.829 145.646 151.851 149.968C148.873 154.29 145.061 161.049 143.581 149.968C142.102 138.888 133.168 143.171 138.897 135.689C144.625 128.207 148.873 129.311 149.31 132.186C149.746 135.061 147.83 136.108 151.851 138.031Z" fill="#693514"/>
<path d="M155.251 182.296C155.503 181.897 155.897 181.606 156.355 181.484C156.812 181.361 157.299 181.415 157.718 181.635C160.695 182.666 164.796 185.588 163.578 189.327C162.36 193.065 158.289 196.034 160.756 198.787C163.224 201.541 168.282 202.433 163.84 205.34C162.364 206.378 161.084 207.67 160.062 209.155C158.906 207.94 158.011 205.94 159.014 202.556C160.155 198.664 159.769 190.157 158.582 184.881C158.556 184.484 158.446 184.097 158.259 183.746C158.072 183.394 157.813 183.086 157.498 182.842C157.184 182.598 156.821 182.423 156.433 182.329C156.046 182.235 155.643 182.224 155.251 182.296V182.296Z" fill="#693514"/>
<path d="M162.437 212.632V215.524H169.099C169.05 214.559 168.884 213.603 168.605 212.678L162.437 212.632Z" fill="#693514"/>
<path d="M175.945 208.248H169.561C169.798 209.184 169.973 210.134 170.085 211.093H176.531C176.448 210.125 176.252 209.17 175.945 208.248V208.248Z" fill="#693514"/>
<path d="M199.555 154.761C198.013 151.546 195.144 157.068 190.58 155.668C186.015 154.269 188.236 149.946 185.013 147.977C181.79 146.008 176.269 149.7 178.104 153.038C179.939 156.376 174.203 157.653 173.74 162.052C173.324 165.944 183.178 165.129 188.868 166.667C190.051 164.92 191.371 163.269 192.816 161.729C194.235 160.453 197.673 158.114 200.357 155.884C200.033 155.553 199.762 155.174 199.555 154.761V154.761Z" fill="#693514"/>
<path d="M150 78.967C149.601 78.2207 148.953 77.6318 148.164 77.2989C147.375 76.9659 146.494 76.9093 145.668 77.1384C142.688 78.0431 142.296 79.8332 140.865 80.7187C139.434 81.6041 137.847 82.0083 136.945 84.9342C136.547 86.6792 135.837 88.3411 134.848 89.8426C133.583 91.6631 132.938 93.8301 133.005 96.0328C133.072 98.2356 133.847 100.361 135.22 102.104C138.003 105.781 135.906 104.934 136.788 108.225C137.18 109.669 141.728 112.075 140.297 114C142.338 113.032 144.248 111.816 145.982 110.381C147.491 108.514 150 78.967 150 78.967Z" fill="#693514"/>
<path d="M149 78.9843C149.396 78.2236 150.051 77.6241 150.849 77.2901C151.647 76.9562 152.539 76.9089 153.368 77.1566C156.352 78.0609 156.723 79.8501 158.166 80.7351C159.609 81.6201 161.169 82.0242 162.066 84.9486C162.471 86.6898 163.177 88.3493 164.153 89.8546C165.414 91.6722 166.059 93.837 165.996 96.0386C165.933 98.2402 165.165 100.366 163.802 102.11C161.013 105.785 163.119 104.938 162.222 108.228C161.852 109.671 157.308 112.076 158.731 114C156.707 113.031 154.814 111.816 153.095 110.383C151.477 108.517 149 78.9843 149 78.9843Z" fill="#4F250A"/>
<path d="M156.005 104.508C156.005 104.508 154.819 113.899 159.199 114.636C163.578 115.373 170.673 113.53 174.498 120.301C178.763 127.868 186.317 140.304 187.044 152.275C187.044 153.381 188.019 155.826 188 156.893C187.751 169.601 186.087 168.631 187.292 172.666C188.497 176.702 188.669 180.64 183.601 181.669C178.935 182.6 178.552 181.882 179.413 175.402C180.025 170.784 177.692 160.133 178.686 154.739C179.681 149.346 170.444 142.167 169.124 137.064V162.151H150V137.045V97L156.005 104.508Z" fill="#F7A054"/>
<path d="M122.605 190.449C120.664 190.501 118.752 189.975 117.112 188.937C115.473 187.899 114.181 186.397 113.402 184.623C112.623 182.849 112.392 180.883 112.738 178.978C113.085 177.072 113.993 175.312 115.347 173.924C116.701 172.536 118.44 171.583 120.34 171.185C122.24 170.788 124.216 170.965 126.015 171.693C127.814 172.422 129.355 173.669 130.439 175.276C131.524 176.882 132.104 178.775 132.104 180.712C132.137 183.259 131.155 185.716 129.374 187.541C127.593 189.367 125.159 190.413 122.605 190.449ZM122.605 173.282C121.122 173.23 119.657 173.621 118.398 174.405C117.139 175.189 116.144 176.331 115.54 177.683C114.936 179.035 114.75 180.536 115.007 181.995C115.264 183.453 115.952 184.801 116.983 185.866C118.013 186.932 119.339 187.666 120.791 187.974C122.242 188.283 123.753 188.152 125.129 187.598C126.506 187.044 127.685 186.093 128.515 184.866C129.346 183.639 129.79 182.192 129.791 180.712C129.824 178.777 129.086 176.907 127.739 175.514C126.391 174.121 124.545 173.318 122.605 173.282V173.282Z" fill="#747474"/>
<path d="M143.771 104.508C143.771 104.508 144.966 113.899 140.5 114.636C136.034 115.373 128.747 113.53 124.829 120.301C120.461 127.868 112.704 140.304 111.98 152.275C111.98 153.381 110.981 155.826 111 156.893C111.255 169.601 112.959 168.631 111.725 172.666C110.491 176.702 110.471 180.64 115.584 181.669C120.363 182.6 120.755 181.882 119.874 175.402C119.247 170.784 121.637 160.133 120.618 154.739C119.599 149.346 129.06 142.167 130.412 137.064V162.151H150V137.045V97L143.771 104.508Z" fill="#FFBA80"/>
<path d="M174.776 120.247C170.92 113.492 163.882 115.311 159.351 114.595C154.82 113.879 156.131 104.491 156.131 104.491L150 97V136.952V162H169.281V136.952C170.708 142.063 179.095 127.797 174.776 120.247Z" fill="#F7A054"/>
<path d="M149.98 183.301C149.98 183.301 147.1 185.359 146.42 201.759C145.6 221.382 144.8 230 144.8 230H131.6L130 201.798V162.281L150 161L149.98 183.301Z" fill="#7CA324"/>
<path d="M150.019 183.301C150.019 183.301 152.736 185.359 153.401 201.759C154.18 221.382 154.94 230 154.94 230H167.537L169 201.798V162.281L150 161L150.019 183.301Z" fill="#668A16"/>
<path d="M165.182 213.401L165.953 196.126H159.09V213.401H165.182Z" fill="#0E1F42"/>
<path d="M152.999 213.401L152.244 196.126H159.09V213.401H152.999Z" fill="#0E1F42"/>
<path d="M152.814 215.278C152.814 213.597 153.484 211.985 154.675 210.796C155.867 209.608 157.483 208.94 159.168 208.94C160.853 208.94 162.469 209.608 163.66 210.796C164.852 211.985 165.521 213.597 165.521 215.278C165.485 215.416 165.399 215.536 165.279 215.616C165.16 215.695 165.016 215.728 164.874 215.708H153.462C153.32 215.728 153.176 215.695 153.056 215.616C152.937 215.536 152.851 215.416 152.814 215.278Z" fill="#172C57"/>
<path d="M151.519 191.957C151.519 191.805 151.579 191.658 151.685 191.549C151.792 191.44 151.937 191.376 152.09 191.372H166.092C166.244 191.376 166.39 191.44 166.496 191.549C166.603 191.658 166.662 191.805 166.662 191.957V196.818C166.662 196.97 166.603 197.117 166.496 197.226C166.39 197.335 166.244 197.399 166.092 197.403H152.09C151.937 197.399 151.792 197.335 151.685 197.226C151.579 197.117 151.519 196.97 151.519 196.818V191.957Z" fill="#172C57"/>
<path d="M140.971 114L140.462 114.156C139.116 114.31 137.763 114.388 136.408 114.391H135.879C133.392 114.391 131.668 114.528 131.668 114.528C123.266 114.704 116 134.599 116 134.599L128.828 141.752L130.415 138.547V162H150V136.71V123.029L140.971 114Z" fill="#A6DAF5"/>
<path d="M158.73 114L159.225 114.156C160.532 114.311 161.846 114.389 163.162 114.391H163.695C166.11 114.391 167.784 114.528 167.784 114.528C175.944 114.704 183 134.616 183 134.616L170.561 141.736L169.02 138.528V162H150V136.729V123.037L158.73 114Z" fill="#77BBE6"/>
<path d="M134.865 213.401L134.109 196.126H140.956V213.401H134.865Z" fill="#0E1F42"/>
<path d="M147.047 213.401L147.818 196.126H140.956V213.401H147.047Z" fill="#0E1F42"/>
<path d="M147.309 215.278C147.309 213.597 146.64 211.985 145.448 210.796C144.257 209.608 142.641 208.94 140.956 208.94C139.271 208.94 137.655 209.608 136.463 210.796C135.272 211.985 134.603 213.597 134.603 215.278C134.639 215.416 134.725 215.536 134.844 215.616C134.964 215.695 135.108 215.728 135.25 215.708H146.646C146.788 215.728 146.933 215.695 147.052 215.616C147.171 215.536 147.257 215.416 147.294 215.278H147.309Z" fill="#172C57"/>
<path d="M148.527 191.957C148.528 191.805 148.468 191.658 148.361 191.549C148.255 191.44 148.11 191.376 147.957 191.372H133.955C133.802 191.376 133.657 191.44 133.55 191.549C133.444 191.658 133.384 191.805 133.384 191.957V196.818C133.384 196.97 133.444 197.117 133.55 197.226C133.657 197.335 133.802 197.399 133.955 197.403H147.957C148.11 197.399 148.255 197.335 148.361 197.226C148.468 197.117 148.528 196.97 148.527 196.818V191.957Z" fill="#172C57"/>
<path d="M129.406 199.156H115.789L113.769 180.712H131.441L129.406 199.156Z" fill="#9A9A9A"/>
<path d="M129.406 199.156L131.441 180.712H122.605V199.156H129.406Z" fill="#919191"/>
<path d="M122.605 182.666H131.133C131.251 182.666 131.365 182.713 131.449 182.796C131.533 182.88 131.58 182.993 131.58 183.112C131.58 183.23 131.533 183.344 131.449 183.427C131.365 183.511 131.251 183.558 131.133 183.558H122.605V182.666Z" fill="#636363"/>
<path d="M122.605 184.265H130.84C130.958 184.265 131.072 184.312 131.156 184.396C131.24 184.48 131.287 184.593 131.287 184.712C131.287 184.83 131.24 184.943 131.156 185.027C131.072 185.111 130.958 185.158 130.84 185.158H122.605V184.265Z" fill="#636363"/>
<path d="M161.261 95.7382H161.047C161.047 94.9606 161.241 94.2024 161.319 93.5025C161.804 89.8089 162.891 79 150.02 79C137.149 79 138.217 89.8089 138.702 93.5025C138.702 94.2024 138.896 94.9606 138.993 95.7382H138.76C136.819 94.2801 136.644 98.071 137.459 99.3735C137.959 100.096 138.334 100.898 138.566 101.745C138.857 102.601 139.362 102.717 139.77 102.62C139.77 103.145 139.886 103.592 139.906 103.942C140.1 105.886 144.875 109.93 145.963 111.174C147.05 112.418 148.661 111.893 149.205 111.874H150.02H150.835C151.36 111.874 153.068 112.36 154.077 111.174C155.087 109.988 159.902 105.944 160.115 103.942C160.115 103.592 160.115 103.145 160.251 102.62C160.678 102.62 161.163 102.62 161.474 101.745C161.706 100.898 162.081 100.096 162.581 99.3735C163.318 98.0516 163.202 94.2801 161.261 95.7382Z" fill="#FFBA80"/>
<path d="M150 111.899H150.814C151.338 111.899 153.043 112.396 154.051 111.183C155.06 109.971 159.867 105.836 160.08 103.788C160.08 103.43 160.08 102.973 160.216 102.436C160.642 102.436 161.127 102.436 161.437 101.542C161.669 100.675 162.043 99.8551 162.542 99.1165C163.356 97.7845 163.182 93.908 161.224 95.399H161.011C161.011 94.6038 161.205 93.8285 161.282 93.1128C161.592 90.7471 162.116 85.5585 159.344 82H150V111.899Z" fill="#F7A054"/>
<path d="M149.064 85.1984C148.91 86.0219 149.036 86.8692 149.424 87.6239C149.812 88.3786 150.443 89.0037 151.231 89.4132C154.031 90.8307 158.098 92.5884 158.916 94.9698C159.733 97.3512 160.551 100.167 161.941 100.942C163.331 101.717 164.475 94.4595 163.801 93.3822C163.126 92.3049 162.411 86.4081 161.757 85.1795C157.015 76.202 149.187 78.1865 149.187 78.1865L149.064 85.1984Z" fill="#4F250A"/>
<path d="M149.932 85.1984C150.092 86.0222 149.969 86.8717 149.58 87.6276C149.191 88.3835 148.556 89.0079 147.764 89.4132C144.961 90.8307 140.891 92.5884 140.073 94.9698C139.255 97.3512 138.437 100.167 137.066 100.942C135.696 101.717 134.51 94.4595 135.205 93.3822C135.9 92.3049 136.575 86.4081 137.25 85.1795C141.996 76.202 149.85 78.1865 149.85 78.1865L149.932 85.1984Z" fill="#693514"/>
<path d="M150 140H137V162H150V140Z" fill="#7CA324"/>
<path d="M162 140H150V162H162V140Z" fill="#668A16"/>
<path d="M143 140H136.955L133 115H139.045L143 140Z" fill="#7CA324"/>
<path d="M156 140H162.057L166 115H159.963L156 140Z" fill="#668A16"/>
<path d="M172 88.0336C172 91.0459 163.268 94 149.49 94C135.713 94 127 91.0071 127 88.0336C127 85.0601 135.829 83 149.413 83C162.996 83 172 84.9629 172 88.0336Z" fill="#FFB804"/>
<path d="M160.135 76H139.846L137 85.1C141.238 86.2947 145.606 86.9331 150 87C154.394 86.9331 158.762 86.2947 163 85.1L160.135 76Z" fill="#FCA001"/>
<path d="M160 76C160 77.14 155.3 78 149.51 78C143.72 78 139 77.1 139 76C139 74.9 143.7 74 149.51 74C155.32 74 160 74.88 160 76Z" fill="#FFB804"/>
<path d="M150 83V94C163.473 94 172 91.016 172 88.0124C172 85.0089 163.473 83.039 150 83Z" fill="#FCA001"/>
<path d="M150 87C154.394 86.9355 158.763 86.297 163 85.1L160.135 76H150V87Z" fill="#F58300"/>
<path d="M150 74V78C155.519 78 160 77.1 160 76C160 74.9 155.519 74 150 74Z" fill="#FCA001"/>
<path d="M84.1784 174.694L198 169C196.074 171.812 193.989 174.511 191.754 177.082C188.116 180.741 183.641 187.551 182.804 190.936C181.968 194.321 178.602 196.572 178.602 205.886C178.602 215.2 182.804 223.067 182.804 227H174.633C174.633 227 174.068 221.364 172.395 219.955C170.722 218.547 171.656 212.794 171.305 207.119C171.014 202.148 171.305 196.004 169.905 189.507C168.504 183.011 163.425 188.666 147.743 186.416C132.061 184.165 121.399 186.142 114.122 182.756C106.845 179.371 104.88 181.054 102.351 185.007C99.8216 188.96 96.1832 199.937 95.3466 202.188C94.5099 204.438 95.6384 213.752 96.7474 216.277C97.8565 218.801 101.787 225.024 101.787 225.024H92.8172C92.8172 225.024 90.0349 218.547 88.634 217.431C87.2331 216.316 89.743 206.16 86.9413 201.933C84.1395 197.706 81.902 192.912 83.5753 190.368C84.7427 188.509 84.9761 180.467 84.1784 174.694Z" fill="#B36434"/>
<path d="M117 182.5C117 186.159 115.915 189.736 113.882 192.778C111.849 195.82 108.96 198.192 105.58 199.592C102.199 200.992 98.4795 201.358 94.8908 200.645C91.3022 199.931 88.0058 198.169 85.4185 195.581C82.8313 192.994 81.0693 189.698 80.3555 186.109C79.6417 182.521 80.008 178.801 81.4082 175.42C82.8085 172.04 85.1796 169.151 88.222 167.118C91.2643 165.085 94.841 164 98.5 164C100.93 163.997 103.337 164.474 105.583 165.403C107.828 166.332 109.869 167.694 111.587 169.413C113.306 171.131 114.668 173.172 115.597 175.417C116.526 177.663 117.003 180.07 117 182.5Z" fill="#F08D84"/>
<path d="M104.562 189.88C103.653 192.603 102.388 194.634 101.756 194.495C101.124 194.357 101.355 191.911 102.28 189.188C103.205 186.465 104.455 184.435 105.087 184.573C105.719 184.712 105.488 187.157 104.562 189.88Z" fill="#F08D84"/>
<path d="M242 142.731C241.864 144.09 241.412 145.399 240.68 146.555C239.948 147.711 238.955 148.682 237.781 149.392C235.828 150.266 233.992 152.868 229.323 151.722C224.655 150.576 219.128 148.537 217.604 152.013C216.08 155.489 206.529 161.567 203.619 164.189C200.708 166.81 190.2 182.734 186.411 186.501C182.621 190.269 174.496 191.414 173.636 194.91C172.777 198.405 169.281 200.735 169.281 210.27C169.281 219.805 173.636 227.941 173.636 232H165.198C165.198 232 164.612 226.174 162.855 224.757C161.097 223.339 159.358 220.698 160.901 215.766C162.444 210.833 161.858 200.114 160.354 193.453C158.85 186.793 153.616 192.579 137.287 190.269C120.957 187.958 109.941 189.977 102.304 186.501C94.6668 183.025 92.6745 184.754 90.0571 188.812C87.4398 192.871 83.5528 204.173 82.6934 206.503C81.834 208.833 82.9864 218.387 84.1388 220.989C85.2912 223.592 89.393 229.98 89.393 229.98H80.0565C80.0565 229.98 77.1462 223.3 75.6813 222.213C74.2163 221.125 76.8532 210.561 73.9429 206.27C71.0325 201.978 68.6887 196.988 70.4466 194.385C72.2045 191.783 71.8529 177.569 69.8411 173.219C67.8292 168.869 64.6064 152.285 66.6573 146.498C68.7082 140.711 80.0565 130.264 87.3421 129.39C94.6277 128.516 119.121 131.138 126.407 131.138C133.693 131.138 158.186 124.768 163.148 124.768C168.109 124.768 177.719 128.808 186.762 129.138C192.231 129.525 197.706 128.48 202.642 126.108C202.642 126.108 196.782 123.487 197.837 120.283C198.892 117.078 206.002 120.729 207.76 122.03C208.79 121.508 209.922 121.212 211.078 121.162C212.233 121.111 213.387 121.308 214.459 121.739C217.526 123.331 222.624 127.973 226.179 130.439C229.734 132.905 233.992 137.099 235.945 137.682C237.898 138.265 241.863 140.789 242 142.731Z" fill="#D1875A"/>
<path d="M87.4517 129.178C93.9894 128.4 114.25 130.403 123.753 130.85C125.441 134.466 126.698 139.269 118.57 138.627C107.831 137.772 104.827 131.977 101.45 138.627C98.073 145.277 99.4866 149.244 94.6373 146.21C89.788 143.177 93.5379 137.013 86.9413 140.513C80.3447 144.013 79.6968 140.902 75.731 147.241C71.7652 153.58 69.5859 151.869 74.1996 160.132C75.669 162.738 76.513 165.644 76.6662 168.624C76.8194 171.605 76.2777 174.581 75.0831 177.321C74.4156 178.623 72.6683 185.098 75.515 188.831C78.3618 192.565 77.7139 191.067 75.9666 195.734C74.2193 200.4 75.515 200.945 76.3985 204.581C77.0856 207.439 77.4979 211.756 75.4365 213C75.5969 210.592 75.0948 208.187 73.9837 206.039C71.0584 201.684 68.7025 196.745 70.4694 194.139C72.2364 191.534 71.883 177.301 69.8608 172.946C67.8386 168.59 64.5992 152.102 66.6607 146.308C68.7221 140.513 80.1287 130.053 87.4517 129.178Z" fill="#693514"/>
<path d="M97.5025 160.081C100.473 161.154 98.8656 170.805 94.0845 172.95C89.3035 175.095 78.8258 180.878 82.9355 172.95C87.0452 165.022 88.388 161.46 85.2142 158.358C82.0403 155.256 87.8183 151.943 90.5038 153.322C93.1894 154.7 97.5025 160.081 97.5025 160.081Z" fill="#B36434"/>
<path d="M97.4847 183.635C96.2973 181.681 102.651 174.743 107.292 175.251C111.934 175.759 113.183 172.451 120.77 170.713C127.571 169.175 123.299 174.897 126.044 181.343C120.508 181.158 116.159 181.02 112.72 179.435C106.737 176.682 105.118 178.051 103.052 181.266C100.985 184.481 97.9781 193.434 97.2996 195.28C96.9854 196.96 96.9541 198.681 97.2071 200.371C97.0637 200.446 96.914 200.508 96.7599 200.556C94.2155 201.418 98.6721 185.588 97.4847 183.635Z" fill="#693514"/>
<path d="M105.241 209.601H112.35C112.35 209.601 111.548 208.324 110.638 206.817H103.946C104.655 208.248 105.241 209.601 105.241 209.601Z" fill="#693514"/>
<path d="M95.2178 213.878H102.589C102.589 213.878 101.818 212.662 100.939 211.201H93.9688C94.6627 212.601 95.2178 213.878 95.2178 213.878Z" fill="#693514"/>
</svg>
