<svg width="300" height="300" viewBox="0 0 300 300" fill="none" xmlns="http://www.w3.org/2000/svg">
<g style="mix-blend-mode:multiply">
<g style="mix-blend-mode:multiply">
<path d="M255.637 152.505C255.899 151.323 255.977 150.107 255.87 148.901L259.06 146.863L257.946 143.601L254.359 144.088C254.314 144.01 254.278 143.933 254.232 143.853C253.609 142.829 252.827 141.911 251.914 141.133L252.869 137.596L249.887 136.028L247.578 138.893C246.364 138.584 245.105 138.493 243.859 138.622L242.139 135.622L238.952 136.76L239.297 140.188C239.223 140.233 239.142 140.27 239.074 140.318C238.068 140.982 237.176 141.805 236.436 142.756L232.963 142.108L231.626 145.309L234.287 147.226C233.978 148.522 233.89 149.861 234.026 151.187L230.935 153.273L232.094 156.516L235.583 155.949C235.603 155.985 235.62 156.022 235.64 156.056C236.254 157.065 237.024 157.971 237.921 158.74L237.201 162.693L240.292 164.024L242.321 161.022C243.554 161.333 244.831 161.419 246.094 161.278L248.096 164.416L251.241 163.156L250.719 159.637C250.745 159.62 250.774 159.606 250.801 159.589C251.841 158.901 252.758 158.043 253.513 157.05L256.914 157.926L258.414 154.803L255.637 152.505ZM249.067 156.624C245.53 158.94 240.827 157.833 238.58 154.142C236.332 150.452 237.383 145.559 240.92 143.238C244.456 140.917 249.159 142.029 251.407 145.72C253.654 149.411 252.603 154.298 249.067 156.624Z" fill="#D8E7F0"/>
</g>
</g>
<g style="mix-blend-mode:multiply">
<g style="mix-blend-mode:multiply">
<path d="M261.207 118.573C261.343 117.953 261.384 117.317 261.329 116.685L263 115.616L262.416 113.908L260.536 114.157C260.513 114.117 260.495 114.073 260.47 114.033C260.143 113.496 259.731 113.015 259.25 112.609L259.751 110.756L258.19 109.935L256.98 111.436C256.344 111.275 255.684 111.227 255.031 111.294L254.134 109.723L252.464 110.319L252.644 112.117C252.606 112.14 252.566 112.16 252.527 112.185C252 112.532 251.533 112.964 251.145 113.462L249.326 113.122L248.624 114.799L250.015 115.804C249.854 116.484 249.808 117.185 249.879 117.88L248.263 118.972L248.869 120.67L250.697 120.374L250.728 120.429C251.049 120.958 251.452 121.432 251.923 121.835L251.546 123.907L253.164 124.605L254.227 123.032C254.873 123.194 255.542 123.24 256.204 123.166L257.253 124.811L258.901 124.15L258.626 122.306L258.671 122.281C259.215 121.92 259.696 121.47 260.091 120.95L261.875 121.413L262.662 119.776L261.207 118.573ZM257.764 120.735C255.909 121.952 253.445 121.368 252.269 119.435C251.093 117.502 251.641 114.937 253.495 113.721C255.348 112.506 257.813 113.088 258.989 115.023C260.165 116.958 259.617 119.514 257.764 120.731V120.735Z" fill="#D8E7F0"/>
</g>
</g>
<g style="mix-blend-mode:multiply">
<g style="mix-blend-mode:multiply">
<path d="M47.3655 138.065C47.484 137.528 47.5194 136.977 47.4706 136.43L48.9172 135.503L48.4118 134.025L46.7859 134.246C46.7658 134.21 46.7488 134.173 46.7287 134.139C46.4454 133.674 46.0889 133.257 45.673 132.904L46.1058 131.3L44.7549 130.589L43.7086 131.888C43.1582 131.747 42.5873 131.705 42.0223 131.764L41.2495 130.405L39.8059 130.923L39.9605 132.476C39.928 132.496 39.8925 132.513 39.86 132.535C39.4043 132.837 39.0004 133.21 38.6637 133.641L37.0903 133.347L36.4844 134.797L37.69 135.667C37.5494 136.259 37.5102 136.87 37.5741 137.475L36.1753 138.422L36.6993 139.892L38.2819 139.634C38.2912 139.651 38.2974 139.666 38.3082 139.683C38.586 140.14 38.9345 140.551 39.3407 140.899L39.0146 142.692L40.4149 143.295L41.3422 141.933C41.901 142.074 42.4805 142.114 43.0532 142.051L43.9605 143.473L45.3855 142.902L45.1491 141.306L45.1862 141.283C45.6579 140.973 46.0734 140.584 46.4149 140.134L47.9605 140.531L48.6406 139.115L47.3655 138.065ZM44.3871 139.93C42.7843 140.982 40.6514 140.477 39.6328 138.805C38.6143 137.132 39.0903 134.915 40.6931 133.863C42.2959 132.811 44.4288 133.316 45.4474 134.989C46.4659 136.661 45.9899 138.877 44.3871 139.93Z" fill="#D8E7F0"/>
</g>
</g>
<path d="M218.785 70.7212C218.781 70.1597 218.893 69.6034 219.115 69.0873C219.326 68.5895 219.628 68.1355 220.006 67.7485C220.387 67.3647 220.838 67.0584 221.336 66.8466C221.854 66.6295 222.41 66.5177 222.972 66.5177C223.533 66.5177 224.089 66.6295 224.608 66.8466C225.105 67.0578 225.556 67.3642 225.935 67.7485C226.314 68.1354 226.617 68.5894 226.829 69.0873C227.046 69.605 227.158 70.1606 227.158 70.7219C227.158 71.2832 227.046 71.8389 226.829 72.3566C226.617 72.8544 226.314 73.3085 225.935 73.6954C225.556 74.0797 225.105 74.386 224.608 74.5973C224.089 74.8144 223.533 74.9262 222.972 74.9262C222.41 74.9262 221.854 74.8144 221.336 74.5973C220.838 74.3855 220.387 74.0792 220.006 73.6954C219.628 73.3084 219.326 72.8544 219.115 72.3566C218.893 71.84 218.781 71.2832 218.785 70.7212ZM224.989 70.7212C224.995 70.4536 224.946 70.1876 224.845 69.9395C224.745 69.6913 224.595 69.466 224.405 69.2773C224.217 69.0889 223.994 68.9394 223.748 68.8374C223.502 68.7354 223.238 68.6829 222.972 68.6829C222.705 68.6829 222.441 68.7354 222.196 68.8374C221.95 68.9394 221.726 69.0889 221.538 69.2773C221.162 69.6645 220.952 70.1826 220.952 70.7219C220.952 71.2613 221.162 71.7794 221.538 72.1666C221.726 72.355 221.95 72.5045 222.196 72.6065C222.441 72.7085 222.705 72.761 222.972 72.761C223.238 72.761 223.502 72.7085 223.748 72.6065C223.994 72.5045 224.217 72.355 224.405 72.1666C224.595 71.9777 224.745 71.7522 224.845 71.5037C224.946 71.2553 224.995 70.9891 224.989 70.7212V70.7212ZM231.748 66.0884L233.533 67.086L224.756 82.4807L223.142 81.5727L231.748 66.0884ZM229.475 77.8248C229.47 77.2633 229.582 76.707 229.804 76.191C230.015 75.6934 230.317 75.2398 230.696 74.8536C231.084 74.4624 231.545 74.1518 232.054 73.9398C232.563 73.7279 233.109 73.6187 233.66 73.6187C234.211 73.6187 234.757 73.7279 235.266 73.9398C235.775 74.1518 236.237 74.4624 236.625 74.8536C237.003 75.2397 237.306 75.6933 237.518 76.191C237.738 76.7074 237.85 77.2634 237.847 77.8248C237.85 78.3901 237.738 78.9501 237.518 79.471C237.308 79.9729 237.005 80.4304 236.625 80.8191C236.237 81.2104 235.775 81.521 235.266 81.7329C234.757 81.9449 234.211 82.054 233.66 82.054C233.109 82.054 232.563 81.9449 232.054 81.7329C231.545 81.521 231.084 81.2104 230.696 80.8191C230.315 80.4304 230.013 79.9728 229.804 79.471C229.584 78.9534 229.472 78.3964 229.475 77.8341V77.8248ZM235.679 77.8248C235.684 77.5572 235.635 77.2912 235.535 77.0431C235.434 76.7949 235.284 76.5697 235.094 76.3809C234.714 76.0011 234.198 75.7877 233.66 75.7877C233.122 75.7877 232.606 76.0011 232.226 76.3809C231.851 76.7726 231.642 77.2937 231.642 77.8356C231.642 78.3775 231.851 78.8986 232.226 79.2903C232.414 79.4787 232.638 79.6283 232.884 79.7303C233.13 79.8323 233.394 79.8848 233.66 79.8848C233.927 79.8848 234.19 79.8323 234.437 79.7303C234.683 79.6283 234.906 79.4787 235.094 79.2903C235.285 79.0992 235.434 78.8717 235.535 78.6216C235.635 78.3714 235.684 78.1035 235.679 77.8341V77.8248Z" fill="#869FBA"/>
<path d="M108.15 153.044L105.325 144.733C104.766 143.09 103.293 141.994 101.642 141.994H72.4038C70.2399 141.994 68.4888 143.847 68.4888 146.137V231.042C68.4888 232.14 69.3311 233.031 70.3682 233.031H197.285C198.322 233.031 199.163 232.14 199.163 231.042V155.033C199.163 153.935 198.322 153.044 197.285 153.044H108.15Z" fill="#D7876C"/>
<path d="M92.7939 78.6973V193.612H186.757V96.0718L166.071 78.6973H92.7939Z" fill="#EDEDED"/>
<path d="M186.757 96.0718L167.538 97.2903L166.071 78.6973L186.757 96.0718Z" fill="#A5B4C7"/>
<path d="M177.296 115.479H100.981C100.657 115.478 100.347 115.349 100.118 115.12C99.8895 114.892 99.7606 114.582 99.7598 114.259C99.7606 113.935 99.8895 113.626 100.118 113.397C100.347 113.169 100.657 113.041 100.981 113.04H177.296C177.62 113.041 177.929 113.17 178.158 113.398C178.386 113.626 178.515 113.936 178.516 114.259V114.259C178.515 114.582 178.386 114.891 178.158 115.12C177.929 115.348 177.62 115.477 177.296 115.479Z" fill="#E6F1F7"/>
<path d="M177.296 148.439H100.981C100.657 148.438 100.347 148.31 100.118 148.081C99.8895 147.852 99.7606 147.543 99.7598 147.219C99.7606 146.896 99.8895 146.587 100.118 146.358C100.347 146.13 100.657 146.001 100.981 146.001H177.296C177.62 146.002 177.929 146.13 178.158 146.359C178.386 146.587 178.515 146.896 178.516 147.219V147.219C178.515 147.542 178.386 147.852 178.158 148.081C177.929 148.309 177.62 148.438 177.296 148.439V148.439Z" fill="#E6F1F7"/>
<path d="M135.888 118.831H100.596C100.134 118.831 99.7598 119.205 99.7598 119.667V120.434C99.7598 120.896 100.134 121.27 100.596 121.27H135.888C136.35 121.27 136.724 120.896 136.724 120.434V119.667C136.724 119.205 136.35 118.831 135.888 118.831Z" fill="#E6F1F7"/>
<path d="M120.211 96.3127H116.233V93.5963H127.261V96.3127H123.282V107.527H120.211V96.3127Z" fill="#404259"/>
<path d="M131.593 93.5963H134.134L140.202 107.527H136.733L135.531 104.582H130.121L128.961 107.533H125.566L131.593 93.5963ZM132.774 97.65L131.073 101.974H134.474L132.774 97.65Z" fill="#404259"/>
<path d="M145.063 100.247L140.455 93.5963H144.319L147.292 98.4762L150.148 93.5963H153.865L149.356 100.189L154.397 107.527H150.533L147.132 101.921L143.825 107.527H140.179L145.063 100.247Z" fill="#404259"/>
<path d="M180.367 141.512H99.4351V123.861H180.367V141.512ZM100.151 140.791H179.643V124.576H100.155L100.151 140.791Z" fill="#404259"/>
<path d="M179.826 128.844H99.7949V129.565H179.826V128.844Z" fill="#404259"/>
<path d="M179.826 134.878H99.7949V135.599H179.826V134.878Z" fill="#404259"/>
<path d="M117.1 124.582H116.378V141.331H117.1V124.582Z" fill="#404259"/>
<path d="M130.257 124.401H129.537V140.97H130.257V124.401Z" fill="#404259"/>
<path d="M139.509 124.401H138.789V140.97H139.509V124.401Z" fill="#404259"/>
<path d="M153.089 124.401H152.369V140.97H153.089V124.401Z" fill="#404259"/>
<path d="M111.061 132.416H102.228C102.061 132.415 101.901 132.349 101.783 132.231C101.665 132.113 101.598 131.953 101.598 131.786V131.786C101.598 131.619 101.665 131.459 101.783 131.341C101.901 131.223 102.061 131.156 102.228 131.156H111.061C111.229 131.156 111.389 131.223 111.507 131.341C111.625 131.459 111.692 131.619 111.692 131.786V131.786C111.691 131.953 111.624 132.113 111.506 132.231C111.388 132.349 111.228 132.415 111.061 132.416V132.416Z" fill="#E6F1F7"/>
<path d="M111.061 126.653H102.228C102.061 126.652 101.901 126.585 101.783 126.467C101.665 126.349 101.598 126.19 101.598 126.023V126.023C101.598 125.856 101.665 125.696 101.783 125.578C101.901 125.46 102.061 125.393 102.228 125.393H111.061C111.229 125.393 111.389 125.46 111.507 125.578C111.625 125.696 111.692 125.856 111.692 126.023V126.023C111.691 126.19 111.624 126.349 111.506 126.467C111.388 126.585 111.228 126.652 111.061 126.653V126.653Z" fill="#E6F1F7"/>
<path d="M163.154 125.813H154.321C153.973 125.813 153.69 126.095 153.69 126.443C153.69 126.791 153.973 127.073 154.321 127.073H163.154C163.502 127.073 163.785 126.791 163.785 126.443C163.785 126.095 163.502 125.813 163.154 125.813Z" fill="#E6F1F7"/>
<path d="M163.154 133.017H154.321C154.154 133.016 153.994 132.949 153.876 132.831C153.758 132.713 153.691 132.554 153.69 132.387V132.387C153.691 132.22 153.757 132.059 153.875 131.941C153.994 131.823 154.154 131.756 154.321 131.755H163.154C163.321 131.756 163.482 131.823 163.6 131.941C163.718 132.059 163.784 132.22 163.785 132.387C163.784 132.554 163.717 132.713 163.599 132.831C163.481 132.949 163.321 133.016 163.154 133.017V133.017Z" fill="#E6F1F7"/>
<path d="M174.871 125.813H166.038C165.69 125.813 165.408 126.095 165.408 126.443C165.408 126.791 165.69 127.073 166.038 127.073H174.871C175.22 127.073 175.502 126.791 175.502 126.443C175.502 126.095 175.22 125.813 174.871 125.813Z" fill="#E6F1F7"/>
<path d="M163.154 137.938H154.321C154.154 137.938 153.994 137.871 153.876 137.753C153.757 137.635 153.691 137.475 153.69 137.308V137.308C153.691 137.141 153.758 136.982 153.876 136.864C153.994 136.746 154.154 136.679 154.321 136.678H163.154C163.321 136.679 163.481 136.746 163.599 136.864C163.717 136.982 163.784 137.141 163.785 137.308C163.784 137.475 163.718 137.635 163.6 137.753C163.481 137.871 163.321 137.938 163.154 137.938V137.938Z" fill="#E6F1F7"/>
<path d="M174.87 137.938H166.038C165.871 137.938 165.711 137.872 165.592 137.754C165.474 137.636 165.408 137.475 165.408 137.308C165.408 137.141 165.475 136.981 165.593 136.863C165.711 136.745 165.871 136.679 166.038 136.678H174.87C175.037 136.679 175.197 136.745 175.316 136.863C175.434 136.981 175.501 137.141 175.502 137.308C175.502 137.476 175.435 137.636 175.316 137.754C175.198 137.872 175.037 137.938 174.87 137.938V137.938Z" fill="#E6F1F7"/>
<path d="M111.061 136.919H102.228C101.88 136.919 101.598 137.201 101.598 137.549C101.598 137.897 101.88 138.179 102.228 138.179H111.061C111.41 138.179 111.692 137.897 111.692 137.549C111.692 137.201 111.41 136.919 111.061 136.919Z" fill="#E6F1F7"/>
<path d="M112.93 159.473L110.176 151.837C109.91 151.099 109.423 150.461 108.781 150.01C108.139 149.559 107.374 149.317 106.589 149.316H78.1001C77.0888 149.316 76.119 149.718 75.4039 150.432C74.6888 151.147 74.2871 152.116 74.2871 153.126V231.212C74.2871 231.697 74.4799 232.162 74.8231 232.505C75.1663 232.848 75.6318 233.04 76.1171 233.04H199.775C200.26 233.04 200.726 232.848 201.069 232.505C201.413 232.162 201.606 231.697 201.606 231.212V161.302C201.606 160.816 201.413 160.351 201.069 160.009C200.726 159.666 200.26 159.473 199.775 159.473H112.93Z" fill="#EAAB72"/>
<path d="M58.7843 114.246L50.6235 119.965L52.8137 113.34L58.7843 114.246Z" fill="#B2CAD3"/>
<path d="M39.7178 123.217L57.6638 121.006L52.7209 113.703L39.7178 123.217Z" fill="white"/>
<path d="M52.7209 113.703L53.8492 106.763L39.7178 123.217L52.7209 113.703Z" fill="white"/>
<path d="M39.7178 123.217L52.9528 112.379L58.7039 114.215L58.7843 114.246C58.7843 114.246 52.7565 113.828 52.5571 113.886C51.9837 114.05 39.7178 123.217 39.7178 123.217Z" fill="#869FBA"/>
<path d="M61.8913 115.347C61.9266 115.337 61.9576 115.316 61.9799 115.287C62.0021 115.257 62.0144 115.222 62.015 115.185C62.015 115.14 61.9972 115.096 61.9654 115.064C61.9336 115.032 61.8903 115.013 61.8449 115.012C61.4833 115.012 61.1216 115.02 60.763 115.046C60.7193 115.052 60.6794 115.074 60.6509 115.108C60.6224 115.141 60.6073 115.184 60.6085 115.228C60.6124 115.273 60.634 115.315 60.6685 115.344C60.7029 115.373 60.7475 115.387 60.7924 115.383C61.1355 115.36 61.4895 115.349 61.8403 115.352C61.8574 115.353 61.8746 115.351 61.8913 115.347Z" fill="#A5B4C7"/>
<path d="M87.2695 133.923C87.2497 133.912 87.2322 133.898 87.2181 133.88C87.2039 133.863 87.1934 133.842 87.187 133.821C87.1807 133.799 87.1788 133.776 87.1812 133.754C87.1837 133.732 87.1906 133.71 87.2015 133.69C87.5296 133.088 87.771 132.443 87.9187 131.774C87.9229 131.752 87.9315 131.73 87.9441 131.712C87.9567 131.693 87.9729 131.677 87.9918 131.665C88.0108 131.653 88.032 131.644 88.0542 131.64C88.0764 131.637 88.0992 131.637 88.1211 131.642C88.1432 131.647 88.1641 131.657 88.1825 131.67C88.201 131.683 88.2167 131.699 88.2288 131.718C88.2408 131.737 88.249 131.759 88.2528 131.781C88.2566 131.803 88.256 131.826 88.251 131.848C88.0993 132.55 87.8468 133.226 87.5014 133.855C87.4795 133.895 87.4429 133.924 87.3994 133.937C87.356 133.95 87.3093 133.945 87.2695 133.923V133.923ZM88.3082 129.893C88.2858 129.893 88.2638 129.888 88.2432 129.879C88.2227 129.871 88.204 129.858 88.1884 129.842C88.1728 129.826 88.1604 129.807 88.152 129.786C88.1437 129.766 88.1395 129.744 88.1397 129.721C88.143 129.029 88.0913 128.337 87.9851 127.652C87.979 127.611 87.988 127.569 88.0105 127.534C88.0329 127.499 88.0673 127.474 88.1072 127.462H88.1289C88.1739 127.456 88.2195 127.467 88.2562 127.494C88.2928 127.521 88.3176 127.561 88.3252 127.606C88.436 128.308 88.4908 129.018 88.489 129.729C88.4888 129.766 88.4767 129.802 88.4544 129.831C88.4321 129.861 88.4009 129.882 88.3654 129.893C88.3467 129.898 88.3274 129.899 88.3082 129.897V129.893ZM72.8521 132.013L72.6976 132.024C72.0166 132.053 71.3375 131.932 70.7084 131.67C70.6664 131.653 70.6328 131.62 70.6149 131.578C70.597 131.536 70.5962 131.489 70.6126 131.446C70.6304 131.405 70.6636 131.371 70.7054 131.353C70.7471 131.336 70.7942 131.335 70.8367 131.351C71.419 131.595 72.0481 131.708 72.679 131.681L72.8181 131.672C72.8603 131.669 72.902 131.681 72.9355 131.707C72.9689 131.733 72.9916 131.77 72.9992 131.812C73.0069 131.853 72.999 131.896 72.977 131.932C72.9549 131.968 72.9204 131.995 72.88 132.007L72.8521 132.013ZM74.6682 131.259C74.642 131.222 74.6313 131.177 74.6385 131.132C74.6458 131.087 74.6703 131.047 74.7069 131.02C75.2514 130.621 75.6759 130.081 75.9341 129.457C75.9565 129.424 75.9902 129.399 76.0291 129.387C76.068 129.376 76.1097 129.379 76.1468 129.395C76.1838 129.412 76.2139 129.441 76.2315 129.477C76.2491 129.514 76.2533 129.555 76.2432 129.595C75.9598 130.272 75.4964 130.86 74.9032 131.293C74.8867 131.304 74.8691 131.312 74.8506 131.318C74.8178 131.327 74.783 131.326 74.7506 131.316C74.7182 131.306 74.6896 131.286 74.6682 131.259V131.259ZM87.5354 125.624L87.5075 125.524C87.3234 124.889 87.1073 124.264 86.8599 123.651C86.8431 123.608 86.8438 123.561 86.8617 123.519C86.8797 123.477 86.9135 123.444 86.9558 123.427H86.9712C87.0118 123.415 87.0556 123.418 87.0937 123.437C87.1318 123.456 87.1615 123.488 87.1768 123.527C87.4277 124.15 87.6464 124.785 87.8321 125.43L87.8615 125.53C87.8718 125.573 87.8651 125.619 87.8427 125.658C87.8203 125.696 87.7839 125.724 87.7411 125.737C87.6983 125.749 87.6524 125.744 87.6129 125.724C87.5735 125.703 87.5435 125.668 87.5292 125.626L87.5354 125.624ZM68.8954 130.526C68.3556 130.054 67.8778 129.516 67.4735 128.925C67.4606 128.906 67.4516 128.885 67.4469 128.863C67.4422 128.841 67.4419 128.818 67.4461 128.796C67.4502 128.774 67.4588 128.753 67.4712 128.734C67.4836 128.715 67.4996 128.699 67.5183 128.687C67.556 128.663 67.6015 128.654 67.6454 128.662C67.6893 128.671 67.7284 128.695 67.7547 128.731C68.1434 129.301 68.6018 129.82 69.1195 130.276C69.1366 130.29 69.1505 130.308 69.1606 130.328C69.1707 130.348 69.1768 130.37 69.1783 130.393C69.1799 130.415 69.177 130.438 69.1699 130.459C69.1627 130.48 69.1513 130.5 69.1365 130.517C69.1156 130.542 69.0876 130.56 69.0561 130.569C69.0279 130.576 68.9983 130.576 68.9702 130.568C68.9421 130.561 68.9163 130.546 68.8954 130.526V130.526ZM76.523 127.654C76.5004 127.653 76.4783 127.647 76.4579 127.638C76.4374 127.628 76.4191 127.615 76.4038 127.598C76.3886 127.581 76.3768 127.562 76.3692 127.541C76.3615 127.519 76.3581 127.497 76.3591 127.474C76.3936 126.788 76.3364 126.101 76.1891 125.43C76.1832 125.408 76.182 125.385 76.1855 125.362C76.189 125.34 76.1972 125.318 76.2096 125.299C76.222 125.28 76.2382 125.263 76.2573 125.251C76.2764 125.238 76.2979 125.23 76.3205 125.226C76.3424 125.221 76.3651 125.221 76.3871 125.225C76.4092 125.229 76.4302 125.237 76.4491 125.25C76.4679 125.262 76.4841 125.278 76.4968 125.296C76.5095 125.314 76.5184 125.335 76.523 125.357C76.6802 126.058 76.7426 126.777 76.7084 127.495C76.7065 127.53 76.6936 127.564 76.6714 127.592C76.6492 127.619 76.6189 127.639 76.5848 127.649C76.5647 127.655 76.5437 127.656 76.523 127.654ZM85.9604 121.765C85.6371 121.153 85.2622 120.569 84.8398 120.02C84.8259 120.003 84.8156 119.983 84.8095 119.961C84.8034 119.94 84.8015 119.917 84.8041 119.895C84.8067 119.873 84.8137 119.851 84.8246 119.832C84.8355 119.812 84.8501 119.795 84.8677 119.781C84.8852 119.767 84.9053 119.757 84.9269 119.751C84.9484 119.744 84.971 119.743 84.9932 119.745C85.0155 119.748 85.037 119.755 85.0565 119.766C85.0761 119.777 85.0933 119.791 85.1072 119.809C85.5434 120.372 85.9302 120.972 86.2633 121.602C86.2847 121.642 86.2894 121.688 86.2764 121.732C86.2634 121.775 86.2337 121.812 86.1938 121.833C86.1826 121.839 86.1707 121.844 86.1582 121.847C86.1217 121.857 86.083 121.854 86.0482 121.839C86.0135 121.825 85.9847 121.798 85.9666 121.765H85.9604ZM66.4765 127.028C66.4147 126.874 66.3622 126.704 66.322 126.542C66.1651 126.013 66.0799 125.465 66.0685 124.914C66.0685 124.869 66.0866 124.825 66.1188 124.793C66.1509 124.761 66.1946 124.743 66.2401 124.743C66.2856 124.743 66.3292 124.761 66.3614 124.793C66.3935 124.825 66.4116 124.869 66.4116 124.914C66.4223 125.437 66.5034 125.957 66.6527 126.458C66.696 126.613 66.747 126.767 66.8073 126.922C66.8154 126.943 66.8193 126.965 66.8186 126.987C66.8179 127.01 66.8127 127.032 66.8034 127.052C66.794 127.073 66.7806 127.091 66.7641 127.106C66.7475 127.122 66.728 127.133 66.7068 127.141H66.696C66.6742 127.148 66.6511 127.151 66.6282 127.15C66.6052 127.148 66.5828 127.142 66.5623 127.131C66.5419 127.121 66.5237 127.106 66.509 127.088C66.4942 127.071 66.4832 127.05 66.4765 127.028V127.028ZM75.4967 123.493C75.1836 122.875 74.8207 122.283 74.4117 121.724C74.3853 121.687 74.3745 121.642 74.3814 121.597C74.3883 121.553 74.4125 121.513 74.4488 121.486C74.4856 121.459 74.5315 121.448 74.5765 121.455C74.6216 121.461 74.6622 121.485 74.6899 121.521C75.1094 122.095 75.4826 122.7 75.8058 123.333C75.8264 123.373 75.8302 123.42 75.8163 123.464C75.8024 123.507 75.772 123.543 75.7316 123.564L75.7007 123.575C75.6631 123.587 75.6226 123.585 75.5862 123.57C75.5498 123.555 75.5197 123.528 75.5013 123.493H75.4967ZM83.2803 118.729C82.6858 118.381 82.059 118.091 81.4086 117.863C81.3656 117.848 81.3303 117.816 81.3106 117.775C81.2909 117.734 81.2883 117.687 81.3035 117.644C81.3187 117.601 81.3503 117.565 81.3915 117.546C81.4326 117.526 81.4799 117.523 81.523 117.539C82.1957 117.777 82.8442 118.079 83.4596 118.44C83.4874 118.458 83.5097 118.483 83.5238 118.512C83.5379 118.542 83.5432 118.575 83.5392 118.607C83.5351 118.64 83.5218 118.67 83.5009 118.696C83.4799 118.721 83.4522 118.739 83.421 118.749C83.3981 118.755 83.3743 118.757 83.3509 118.753C83.3276 118.75 83.3051 118.742 83.285 118.729H83.2803ZM66.6311 123.035C66.5904 123.015 66.5593 122.979 66.5445 122.937C66.5297 122.894 66.5325 122.847 66.5523 122.806C66.8728 122.161 67.2932 121.57 67.798 121.055C67.8134 121.038 67.832 121.025 67.8528 121.016C67.8735 121.007 67.8959 121.002 67.9186 121.002C67.9412 121.002 67.9637 121.007 67.9844 121.016C68.0052 121.025 68.0238 121.038 68.0391 121.055C68.055 121.071 68.0676 121.089 68.0762 121.11C68.0848 121.131 68.0893 121.153 68.0893 121.175C68.0893 121.198 68.0848 121.22 68.0762 121.241C68.0676 121.261 68.055 121.28 68.0391 121.296C67.56 121.785 67.1601 122.347 66.8537 122.959C66.8337 123 66.7985 123.031 66.7557 123.046C66.7129 123.061 66.666 123.059 66.6249 123.039L66.6311 123.035ZM73.0685 120.148C72.5774 119.657 72.0538 119.2 71.5013 118.779C71.4803 118.764 71.4633 118.744 71.4518 118.722C71.4452 118.743 71.4345 118.763 71.4201 118.78C71.4058 118.797 71.3882 118.812 71.3684 118.822C70.7547 119.146 70.1663 119.516 69.6079 119.928C69.5899 119.941 69.5694 119.951 69.5476 119.957C69.5257 119.962 69.503 119.963 69.4807 119.96C69.4584 119.957 69.437 119.949 69.4177 119.937C69.3984 119.926 69.3817 119.91 69.3684 119.892C69.3414 119.856 69.33 119.81 69.3366 119.765C69.3433 119.72 69.3675 119.68 69.4039 119.653C69.9759 119.23 70.5789 118.852 71.2076 118.519C71.2276 118.508 71.2496 118.502 71.2723 118.499C71.295 118.497 71.3179 118.499 71.3397 118.506C71.3615 118.513 71.3817 118.524 71.3991 118.539C71.4165 118.553 71.4307 118.571 71.441 118.592V118.592C71.4496 118.566 71.4642 118.542 71.4837 118.523C71.5031 118.504 71.5269 118.489 71.553 118.481C71.5791 118.473 71.6068 118.471 71.6338 118.475C71.6608 118.48 71.6864 118.491 71.7084 118.507C72.274 118.936 72.8091 119.403 73.3096 119.906C73.3256 119.922 73.3382 119.941 73.3469 119.962C73.3555 119.982 73.3599 120.005 73.3599 120.027C73.3599 120.05 73.3555 120.072 73.3469 120.093C73.3382 120.114 73.3256 120.133 73.3096 120.148C73.2899 120.169 73.2648 120.184 73.237 120.192C73.2067 120.201 73.1744 120.202 73.1436 120.195C73.1128 120.187 73.0847 120.171 73.0623 120.148H73.0685ZM79.4055 117.353C78.7212 117.251 78.0292 117.208 77.3375 117.225C77.2921 117.226 77.2482 117.209 77.2152 117.178C77.1823 117.147 77.1629 117.104 77.1613 117.058C77.1616 117.013 77.179 116.97 77.21 116.937C77.241 116.905 77.2832 116.885 77.3282 116.882C78.0401 116.865 78.7522 116.91 79.4565 117.015C79.495 117.021 79.5303 117.04 79.5566 117.069C79.5829 117.097 79.5988 117.134 79.6015 117.173C79.6041 117.211 79.5936 117.25 79.5714 117.282C79.5493 117.314 79.517 117.338 79.4797 117.349C79.4543 117.357 79.4271 117.359 79.4009 117.353H79.4055ZM75.2787 117.449L75.186 117.468C74.5363 117.596 73.8968 117.771 73.2726 117.991C73.2299 118.005 73.1834 118.002 73.1428 117.983C73.1022 117.964 73.0706 117.93 73.0546 117.888C73.0468 117.867 73.0432 117.844 73.044 117.822C73.0449 117.799 73.0503 117.777 73.0597 117.757C73.0692 117.736 73.0827 117.718 73.0993 117.703C73.1159 117.688 73.1354 117.676 73.1566 117.668C73.7977 117.442 74.4542 117.263 75.1211 117.131L75.2076 117.114C75.2296 117.109 75.2523 117.108 75.2744 117.112C75.2966 117.116 75.3177 117.125 75.3366 117.137C75.3555 117.149 75.3717 117.165 75.3843 117.184C75.397 117.202 75.4057 117.223 75.4101 117.245C75.4193 117.288 75.4121 117.332 75.3901 117.369C75.368 117.406 75.3326 117.434 75.2911 117.446L75.2787 117.449ZM69.7671 117.625C69.1653 117.277 68.5434 116.965 67.9047 116.691C67.8838 116.682 67.8649 116.669 67.849 116.653C67.8332 116.637 67.8206 116.618 67.8121 116.597C67.8037 116.576 67.7994 116.554 67.7996 116.531C67.7999 116.508 67.8046 116.486 67.8135 116.465C67.8321 116.424 67.8661 116.392 67.9082 116.375C67.9503 116.358 67.9972 116.359 68.0391 116.376C68.6905 116.655 69.3243 116.973 69.9371 117.329C69.9768 117.351 70.0058 117.389 70.018 117.433C70.0301 117.477 70.0244 117.524 70.0021 117.563C69.9794 117.601 69.9428 117.629 69.9 117.641C69.8775 117.649 69.8533 117.652 69.8294 117.649C69.8056 117.646 69.7826 117.638 69.7625 117.625H69.7671ZM65.9433 115.987C65.2773 115.79 64.5995 115.635 63.9139 115.523C63.8918 115.52 63.8706 115.512 63.8514 115.501C63.8322 115.489 63.8155 115.474 63.8023 115.456C63.789 115.438 63.7794 115.418 63.774 115.396C63.7687 115.374 63.7676 115.352 63.771 115.33C63.7743 115.307 63.782 115.286 63.7935 115.267C63.8051 115.248 63.8203 115.231 63.8383 115.218C63.8564 115.205 63.8768 115.195 63.8985 115.19C63.9202 115.184 63.9428 115.183 63.9649 115.187C64.6662 115.296 65.3596 115.451 66.0407 115.65C66.0841 115.663 66.1206 115.692 66.1426 115.732C66.1646 115.771 66.1701 115.818 66.1581 115.862C66.1495 115.889 66.1341 115.915 66.1133 115.935C66.0926 115.956 66.0671 115.971 66.0391 115.979C66.007 115.991 65.9722 115.994 65.9387 115.987H65.9433Z" fill="#A5B4C7"/>
<path d="M85.1475 136.301C85.1627 136.297 85.1772 136.291 85.1908 136.283C85.5023 136.085 85.7984 135.864 86.0764 135.622C86.0933 135.607 86.1071 135.589 86.117 135.569C86.1269 135.549 86.1328 135.528 86.1343 135.505C86.1358 135.483 86.1329 135.461 86.1258 135.439C86.1186 135.418 86.1074 135.399 86.0927 135.382C86.0779 135.365 86.0601 135.351 86.04 135.341C86.02 135.331 85.9982 135.326 85.9759 135.324C85.9535 135.322 85.9311 135.325 85.9099 135.333C85.8887 135.34 85.8692 135.351 85.8523 135.366C85.5872 135.595 85.3051 135.805 85.0084 135.993C84.9742 136.015 84.9491 136.049 84.9376 136.088C84.9261 136.127 84.929 136.169 84.9458 136.206C84.9626 136.244 84.9921 136.274 85.0291 136.291C85.0661 136.309 85.1081 136.312 85.1475 136.301V136.301Z" fill="#A5B4C7"/>
<path d="M202.045 144.847C202.045 144.847 194.028 160.034 191.689 161.118C189.351 162.202 178.64 156.511 177.006 155.148C175.372 153.784 173.484 153.254 172.232 153.057C170.98 152.859 168.725 153.276 168.641 149.437C168.558 145.598 168.307 142.848 170.898 143.513C173.488 144.179 173.821 144.098 174.405 144.682C174.989 145.266 175.369 147.575 176.414 147.936C183.314 150.342 184.264 150.521 186.184 151.44C188.103 152.359 190.627 143.433 193.088 141.345C194.037 140.536 202.045 144.847 202.045 144.847Z" fill="#F7A054"/>
<path d="M230.465 97.8338C230.465 97.8338 232.06 89.4068 220.327 89.5689V97.8338H230.465Z" fill="#FCA001"/>
<path d="M210.192 97.8338C210.192 97.8338 208.598 89.4068 220.331 89.5689V97.8338H210.192Z" fill="#F58300"/>
<path d="M198.578 103.688C198.578 109.085 208.299 113.462 220.287 113.462C232.275 113.462 241.998 109.085 241.998 103.688C241.998 98.2909 232.279 93.9144 220.287 93.9144C208.295 93.9144 198.578 98.2893 198.578 103.688Z" fill="#FFB804"/>
<path d="M225.801 115.131C225.801 115.131 224.733 123.513 228.695 124.157C232.703 124.806 239.051 123.172 242.499 129.218C246.354 135.971 253.21 147.06 253.856 157.733C253.915 158.716 254.743 160.897 254.725 161.85C254.502 173.185 252.975 172.321 254.083 175.929C255.192 179.536 255.331 183.032 250.74 183.959C246.507 184.799 246.173 184.161 246.952 178.369C247.505 174.246 244.726 164.75 245.618 159.939C246.495 155.197 238.827 148.731 237.601 144.171V166.563H220.331V144.171H220.292V108.429L225.801 115.131Z" fill="#FFBA80"/>
<path d="M198.082 129.218C201.534 123.172 207.879 124.806 211.888 124.157C215.85 123.513 214.782 115.131 214.782 115.131L220.292 108.429V144.163H220.331V166.555H203.058V144.163H202.98C201.756 148.723 194.225 135.971 198.082 129.218Z" fill="#F7A054"/>
<path d="M198.578 103.688C198.578 98.2832 208.299 93.9144 220.287 93.9144V113.462C208.299 113.462 198.578 109.085 198.578 103.688Z" fill="#FCA001"/>
<path d="M210.1 108.429H210.304C210.219 107.736 210.13 107.05 210.049 106.404C209.61 103.052 208.623 94.5923 220.331 94.5923C232.039 94.5923 231.051 103.052 230.612 106.404C230.53 107.05 230.445 107.736 230.357 108.429H230.558C232.34 107.112 232.492 110.552 231.748 111.726C231.13 112.702 231.119 112.807 230.75 113.877C230.473 114.666 230.02 114.773 229.64 114.685C229.59 115.148 229.55 115.559 229.521 115.886C229.356 117.695 225.008 121.314 224.025 122.448C223.097 123.509 221.559 123.095 221.066 123.065L220.331 123.032L219.595 123.065C219.102 123.089 217.559 123.503 216.638 122.448C215.654 121.314 211.306 117.695 211.141 115.886C211.111 115.559 211.069 115.153 211.022 114.685C210.643 114.773 210.189 114.666 209.915 113.877C209.544 112.796 209.53 112.702 208.912 111.726C208.17 110.552 208.321 107.112 210.1 108.429Z" fill="#FFBA80"/>
<path d="M219.595 123.072C219.102 123.095 217.559 123.509 216.638 122.454C215.654 121.32 211.306 117.701 211.141 115.892C211.111 115.565 211.069 115.159 211.022 114.691C210.643 114.779 210.189 114.672 209.915 113.883C209.544 112.802 209.53 112.708 208.912 111.732C208.17 110.558 208.321 107.118 210.1 108.435H210.304C210.219 107.742 210.13 107.056 210.049 106.411C209.61 103.058 208.623 94.5985 220.331 94.5985V123.044L219.595 123.072Z" fill="#F7A054"/>
<path d="M220.292 185.284C220.292 185.284 222.776 187.129 223.371 201.737C224.083 219.236 224.773 226.922 224.773 226.922H236.264L237.601 201.774V166.55L220.291 165.406L220.292 185.284Z" fill="#172C57"/>
<path d="M220.288 101.972C220.288 101.972 222.544 104.976 226.536 106.031C226.536 106.031 225.507 104.751 225.436 104.002C225.436 104.002 228.054 106.662 230.162 107.319L230.472 107.527C230.472 107.527 230.646 106.804 230.792 104.747C230.937 102.69 221.64 99.2607 221.64 99.2607L220.291 100.913L220.288 101.972Z" fill="#693514"/>
<path d="M220.288 101.972C220.288 101.972 219.243 104.085 215.401 105.265C215.551 104.9 215.672 104.524 215.764 104.141C215.764 104.141 212.518 106.662 210.414 107.319L210.24 107.919C210.24 107.919 209.997 106.452 209.852 104.398C209.707 102.345 218.94 99.2622 218.94 99.2622L220.288 100.915V101.972Z" fill="#4F250A"/>
<path d="M230.742 105.53C230.742 105.53 229.057 101.67 220.331 101.67V93.9145C220.331 93.9145 230.643 93.7338 233.147 99.7224C235.651 105.711 231.311 105.53 231.311 105.53H230.742Z" fill="#FFB804"/>
<path d="M209.918 105.53C209.918 105.53 211.604 101.67 220.331 101.67V93.9145C220.331 93.9145 210.018 93.7338 207.511 99.7224C205.004 105.711 209.351 105.53 209.351 105.53H209.918Z" fill="#FCA001"/>
<path d="M220.292 185.284C220.292 185.284 217.806 187.129 217.21 201.737C216.499 219.236 215.81 226.922 215.81 226.922H204.316L202.979 201.774V166.55L220.29 165.406L220.292 185.284Z" fill="#0E1F42"/>
<path d="M203.261 226.565L202.406 207.123H210.105V226.565H203.261Z" fill="#B05D2A"/>
<path d="M216.95 226.565L217.807 207.123H210.105V226.565H216.95Z" fill="#B05D2A"/>
<path d="M217.244 228.667C217.244 224.567 214.048 221.242 210.105 221.242C206.162 221.242 202.969 224.567 202.969 228.667C202.969 228.667 203.057 229.158 203.706 229.158H216.509C217.156 229.158 217.246 228.667 217.246 228.667H217.244Z" fill="#853A0C"/>
<path d="M218.606 202.441C218.609 202.268 218.544 202.1 218.424 201.975C218.304 201.85 218.139 201.778 217.966 201.774H202.249C202.075 201.778 201.911 201.85 201.79 201.975C201.67 202.1 201.604 202.267 201.606 202.441V207.903C201.604 208.076 201.67 208.244 201.79 208.369C201.911 208.494 202.075 208.566 202.249 208.57H217.966C218.139 208.565 218.304 208.493 218.424 208.368C218.543 208.243 218.609 208.076 218.606 207.903V202.441Z" fill="#853A0C"/>
<path d="M228.239 124.04C228.387 124.095 228.539 124.136 228.694 124.164C229.753 124.336 230.983 124.349 232.272 124.386C232.433 124.372 232.595 124.366 232.757 124.369C234.955 124.404 236.487 124.479 236.487 124.479C243.918 124.647 250.348 142.251 250.348 142.251L238.992 148.591L237.601 145.754V166.551H220.331L220.292 144.159V131.981L228.239 124.04Z" fill="#A6DAF5"/>
<path d="M212.343 124.04C212.196 124.095 212.045 124.136 211.891 124.164C210.83 124.336 209.599 124.349 208.31 124.386C208.149 124.372 207.988 124.366 207.826 124.369C205.627 124.404 204.097 124.479 204.097 124.479C196.664 124.647 190.234 142.251 190.234 142.251L201.591 148.591L202.982 145.754V166.551H220.253L220.295 144.159V131.981L212.343 124.04Z" fill="#77BBE6"/>
<path d="M237.32 226.565L238.173 207.123H230.475V226.565H237.32Z" fill="#B36434"/>
<path d="M223.631 226.565L222.776 207.123H230.475V226.565H223.631Z" fill="#B36434"/>
<path d="M223.337 228.667C223.337 224.567 226.535 221.242 230.475 221.242C234.414 221.242 237.612 224.567 237.612 228.667C237.612 228.667 237.524 229.158 236.875 229.158H224.074C223.425 229.158 223.337 228.667 223.337 228.667V228.667Z" fill="#964514"/>
<path d="M221.977 202.441C221.975 202.355 221.99 202.27 222.021 202.19C222.052 202.11 222.099 202.037 222.158 201.975C222.218 201.913 222.289 201.863 222.367 201.829C222.446 201.794 222.531 201.775 222.617 201.774H238.334C238.507 201.778 238.672 201.851 238.792 201.976C238.912 202.1 238.978 202.268 238.975 202.441V207.903C238.978 208.076 238.912 208.243 238.792 208.368C238.672 208.493 238.507 208.565 238.334 208.57H222.617C222.443 208.566 222.279 208.493 222.159 208.368C222.039 208.243 221.973 208.076 221.977 207.903V202.441Z" fill="#964514"/>
<path d="M237.601 166.55V144.979H235.411L235.596 124.472L230.754 124.363V144.979H220.331V166.55H237.601Z" fill="#172C57"/>
<path d="M203.058 166.55V144.979H205.25L205.064 124.472L209.905 124.363V144.979H220.33V166.55H203.058Z" fill="#0E1F42"/>
<path d="M170.901 143.513C172.38 143.896 172.721 143.958 173.153 144.432C173.803 145.144 173.389 152.385 172.235 152.553C170.981 152.734 168.728 153.276 168.644 149.437C168.561 145.598 168.31 142.848 170.901 143.513Z" fill="#ED8E3B"/>
<path d="M206.077 144.949C206.077 145.224 206.159 145.493 206.312 145.721C206.464 145.95 206.682 146.128 206.936 146.233C207.19 146.339 207.47 146.366 207.74 146.312C208.009 146.259 208.257 146.126 208.452 145.932C208.646 145.738 208.779 145.49 208.833 145.22C208.886 144.951 208.859 144.671 208.753 144.417C208.648 144.164 208.47 143.946 208.241 143.794C208.012 143.641 207.743 143.56 207.468 143.56C207.099 143.56 206.745 143.706 206.485 143.967C206.224 144.227 206.077 144.581 206.077 144.949V144.949Z" fill="#747474"/>
<path d="M234.516 144.949C234.516 145.224 234.434 145.493 234.282 145.721C234.129 145.95 233.911 146.128 233.657 146.233C233.403 146.339 233.123 146.366 232.854 146.312C232.584 146.259 232.336 146.126 232.141 145.932C231.947 145.738 231.814 145.49 231.761 145.22C231.707 144.951 231.734 144.671 231.84 144.417C231.945 144.164 232.123 143.946 232.352 143.794C232.581 143.641 232.85 143.56 233.125 143.56C233.494 143.56 233.848 143.706 234.109 143.967C234.369 144.227 234.516 144.581 234.516 144.949V144.949Z" fill="#9A9A9A"/>
</svg>
