<svg width="300" height="250" viewBox="0 0 300 250" fill="none" xmlns="http://www.w3.org/2000/svg">
<g style="mix-blend-mode:multiply">
<g style="mix-blend-mode:multiply">
<path d="M284.427 128.242C284.758 126.747 284.857 125.21 284.722 123.686L288.755 121.109L287.346 116.986L282.811 117.601C282.754 117.503 282.709 117.405 282.651 117.304C281.864 116.009 280.874 114.849 279.72 113.866L280.928 109.394L277.159 107.412L274.24 111.034C272.705 110.644 271.114 110.528 269.539 110.692L267.364 106.899L263.335 108.338L263.771 112.672C263.677 112.728 263.576 112.775 263.49 112.836C262.217 113.674 261.09 114.716 260.154 115.918L255.764 115.098L254.074 119.145L257.439 121.567C257.047 123.206 256.936 124.899 257.108 126.575L253.201 129.212L254.666 133.312L259.076 132.595C259.101 132.64 259.123 132.687 259.148 132.73C259.925 134.005 260.898 135.151 262.032 136.123L261.122 141.12L265.029 142.803L267.595 139.008C269.152 139.401 270.768 139.51 272.364 139.332L274.894 143.299L278.87 141.706L278.21 137.257C278.243 137.235 278.28 137.218 278.313 137.196C279.628 136.326 280.788 135.241 281.742 133.987L286.041 135.094L287.938 131.147L284.427 128.242ZM276.121 133.448C271.651 136.376 265.705 134.977 262.864 130.311C260.023 125.645 261.352 119.461 265.822 116.527C270.293 113.593 276.238 114.998 279.079 119.664C281.92 124.33 280.591 130.508 276.121 133.448Z" fill="#D8E7F0"/>
</g>
</g>
<g style="mix-blend-mode:multiply">
<g style="mix-blend-mode:multiply">
<path d="M291.468 85.3474C291.64 84.5639 291.692 83.759 291.623 82.9599L293.735 81.6091L292.996 79.45L290.62 79.7643C290.591 79.7135 290.568 79.6589 290.536 79.6081C290.123 78.9291 289.602 78.3213 288.995 77.8082L289.628 75.4657L287.654 74.4271L286.125 76.3246C285.32 76.1214 284.486 76.0606 283.661 76.145L282.528 74.1597L280.415 74.9132L280.644 77.1855C280.595 77.2148 280.544 77.2401 280.496 77.2714C279.829 77.711 279.239 78.2563 278.749 78.8858L276.449 78.4563L275.562 80.5764L277.321 81.8472C277.117 82.706 277.059 83.5929 277.149 84.4709L275.105 85.8511L275.871 87.9984L278.182 87.6236L278.221 87.6939C278.628 88.3622 279.137 88.9618 279.732 89.4703L279.255 92.0901L281.301 92.9725L282.645 90.9832C283.461 91.189 284.307 91.2466 285.144 91.1531L286.47 93.2321L288.553 92.3966L288.205 90.0657L288.262 90.0345C288.951 89.5779 289.558 89.0091 290.058 88.3517L292.312 88.9374L293.307 86.8681L291.468 85.3474ZM287.115 88.0804C284.771 89.6187 281.656 88.8808 280.169 86.4367C278.682 83.9926 279.376 80.7501 281.719 79.2138C284.061 77.6774 287.178 78.4134 288.665 80.8594C290.151 83.3055 289.458 86.5363 287.115 88.0745V88.0804Z" fill="#D8E7F0"/>
</g>
</g>
<g style="mix-blend-mode:multiply">
<g style="mix-blend-mode:multiply">
<path d="M21.1457 109.987C21.2956 109.309 21.3404 108.612 21.2786 107.92L23.1074 106.749L22.4685 104.881L20.4131 105.16C20.3877 105.115 20.3662 105.068 20.3408 105.025C19.9827 104.436 19.5321 103.909 19.0063 103.463L19.5534 101.435L17.8457 100.537L16.523 102.179C15.8273 102.001 15.1055 101.948 14.3913 102.023L13.4144 100.305L11.5896 100.959L11.7849 102.923C11.7439 102.948 11.699 102.969 11.6579 102.997C11.0819 103.378 10.5712 103.85 10.1457 104.394L8.15667 104.024L7.39077 105.857L8.91476 106.956C8.73698 107.704 8.68744 108.477 8.76822 109.242L7 110.438L7.66235 112.297L9.66307 111.971C9.6748 111.992 9.68261 112.012 9.69629 112.033C10.0475 112.611 10.488 113.129 11.0014 113.569L10.5892 115.836L12.3594 116.599L13.5317 114.877C14.238 115.056 14.9705 115.106 15.6946 115.026L16.8415 116.824L18.6429 116.101L18.344 114.085L18.3908 114.056C18.9872 113.663 19.5125 113.172 19.9441 112.603L21.898 113.105L22.7577 111.315L21.1457 109.987ZM17.3807 112.346C15.3546 113.675 12.6583 113.037 11.3707 110.922C10.0831 108.808 10.6849 106.005 12.7111 104.676C14.7372 103.346 17.4335 103.984 18.721 106.099C20.0086 108.213 19.4068 111.014 17.3807 112.346Z" fill="#D8E7F0"/>
</g>
</g>
<path d="M237.842 24.8564C237.836 24.1466 237.978 23.4434 238.258 22.7911C238.525 22.1618 238.908 21.5878 239.385 21.0986C239.866 20.6134 240.437 20.2262 241.066 19.9585C241.721 19.6841 242.424 19.5428 243.134 19.5428C243.844 19.5428 244.547 19.6841 245.202 19.9585C245.831 20.2255 246.401 20.6128 246.88 21.0986C247.359 21.5877 247.742 22.1617 248.01 22.7911C248.284 23.4454 248.426 24.1478 248.426 24.8574C248.426 25.567 248.284 26.2694 248.01 26.9237C247.742 27.5532 247.359 28.1271 246.88 28.6163C246.401 29.102 245.831 29.4893 245.202 29.7563C244.547 30.0307 243.844 30.172 243.134 30.172C242.424 30.172 241.721 30.0307 241.066 29.7563C240.437 29.4886 239.866 29.1014 239.385 28.6163C238.908 28.127 238.525 27.553 238.258 26.9237C237.978 26.2708 237.836 25.5669 237.842 24.8564ZM245.685 24.8564C245.691 24.5181 245.629 24.182 245.502 23.8683C245.375 23.5545 245.186 23.2698 244.946 23.0312C244.708 22.793 244.426 22.6041 244.115 22.4751C243.804 22.3462 243.471 22.2798 243.134 22.2798C242.797 22.2798 242.464 22.3462 242.153 22.4751C241.842 22.6041 241.559 22.793 241.322 23.0312C240.847 23.5207 240.581 24.1756 240.581 24.8574C240.581 25.5392 240.847 26.1941 241.322 26.6836C241.559 26.9218 241.842 27.1108 242.153 27.2397C242.464 27.3686 242.797 27.435 243.134 27.435C243.471 27.435 243.804 27.3686 244.115 27.2397C244.426 27.1108 244.708 26.9218 244.946 26.6836C245.186 26.4448 245.376 26.1597 245.503 25.8456C245.63 25.5316 245.692 25.1951 245.685 24.8564V24.8564ZM254.229 19L256.485 20.2611L245.39 39.722L243.35 38.5741L254.229 19ZM251.355 33.8363C251.349 33.1265 251.491 32.4232 251.771 31.7709C252.038 31.142 252.42 30.5685 252.898 30.0804C253.389 29.5857 253.972 29.1931 254.616 28.9252C255.259 28.6573 255.949 28.5193 256.646 28.5193C257.343 28.5193 258.032 28.6573 258.676 28.9252C259.319 29.1931 259.903 29.5857 260.393 30.0804C260.872 30.5684 261.255 31.1418 261.522 31.7709C261.801 32.4238 261.942 33.1267 261.939 33.8363C261.942 34.5509 261.8 35.2588 261.522 35.9173C261.258 36.5518 260.874 37.1301 260.393 37.6215C259.903 38.1161 259.319 38.5087 258.676 38.7766C258.032 39.0446 257.343 39.1825 256.646 39.1825C255.949 39.1825 255.259 39.0446 254.616 38.7766C253.972 38.5087 253.389 38.1161 252.898 37.6215C252.418 37.13 252.035 36.5517 251.771 35.9173C251.493 35.263 251.351 34.5589 251.355 33.848V33.8363ZM259.197 33.8363C259.204 33.498 259.142 33.1618 259.015 32.8481C258.888 32.5344 258.699 32.2496 258.459 32.011C257.978 31.5309 257.326 31.2611 256.646 31.2611C255.966 31.2611 255.314 31.5309 254.832 32.011C254.359 32.5062 254.094 33.1649 254.094 33.8499C254.094 34.535 254.359 35.1937 254.832 35.6889C255.07 35.9271 255.353 36.1161 255.664 36.245C255.975 36.374 256.309 36.4404 256.646 36.4404C256.982 36.4404 257.316 36.374 257.627 36.245C257.938 36.1161 258.221 35.9271 258.459 35.6889C258.699 35.4473 258.889 35.1598 259.016 34.8435C259.142 34.5272 259.204 34.1887 259.197 33.848V33.8363Z" fill="#869FBA"/>
<path d="M97.9854 128.923L94.4138 118.417C93.7065 116.34 91.8446 114.954 89.7579 114.954H52.7972C50.0618 114.954 47.8481 117.296 47.8481 120.191V227.522C47.8481 228.91 48.913 230.036 50.224 230.036H210.663C211.974 230.036 213.037 228.91 213.037 227.522V131.438C213.037 130.05 211.974 128.923 210.663 128.923H97.9854Z" fill="#D7876C"/>
<path d="M78.5732 34.9393V180.206H197.355V56.9028L171.204 34.9393H78.5732Z" fill="#EDEDED"/>
<path d="M197.354 56.9028L173.058 58.4431L171.204 34.9393L197.354 56.9028Z" fill="#A5B4C7"/>
<path d="M185.395 81.4353H88.9224C88.5134 81.4343 88.1214 81.2715 87.8321 80.9825C87.5429 80.6935 87.3799 80.3018 87.3789 79.8931C87.3799 79.4846 87.5429 79.0932 87.8322 78.8045C88.1215 78.5158 88.5136 78.3534 88.9224 78.3529H185.395C185.803 78.3539 186.195 78.5165 186.484 78.8052C186.773 79.0938 186.935 79.485 186.936 79.8931V79.8931C186.935 80.3015 186.773 80.6929 186.484 80.9818C186.195 81.2708 185.804 81.4338 185.395 81.4353Z" fill="#E6F1F7"/>
<path d="M185.395 123.102H88.9224C88.5134 123.101 88.1214 122.938 87.8321 122.649C87.5429 122.36 87.3799 121.968 87.3789 121.56C87.3799 121.151 87.5429 120.76 87.8322 120.471C88.1215 120.182 88.5136 120.02 88.9224 120.019H185.395C185.803 120.02 186.195 120.183 186.484 120.472C186.773 120.76 186.935 121.151 186.936 121.56V121.56C186.935 121.968 186.773 122.359 186.484 122.648C186.195 122.937 185.804 123.1 185.395 123.102V123.102Z" fill="#E6F1F7"/>
<path d="M133.05 85.6735H88.4359C87.8521 85.6735 87.3789 86.1463 87.3789 86.7296V87.6998C87.3789 88.2831 87.8521 88.7559 88.4359 88.7559H133.05C133.634 88.7559 134.107 88.2831 134.107 87.6998V86.7296C134.107 86.1463 133.634 85.6735 133.05 85.6735Z" fill="#E6F1F7"/>
<path d="M113.232 57.2073H108.203V53.7734H122.144V57.2073H117.115V71.3837H113.232V57.2073Z" fill="#404259"/>
<path d="M127.619 53.7734H130.832L138.502 71.3837H134.118L132.598 67.661H125.759L124.292 71.3915H120.001L127.619 53.7734ZM129.112 58.8978L126.963 64.3638H131.261L129.112 58.8978Z" fill="#404259"/>
<path d="M144.647 62.1813L138.823 53.7734H143.707L147.465 59.9422L151.075 53.7734H155.774L150.075 62.1071L156.446 71.3837H151.562L147.263 64.2974L143.082 71.3837H138.473L144.647 62.1813Z" fill="#404259"/>
<path d="M189.277 114.345H86.9683V92.0316H189.277V114.345ZM87.8729 113.433H188.36V92.9354H87.8788L87.8729 113.433Z" fill="#404259"/>
<path d="M188.593 98.3311H87.4233V99.2428H188.593V98.3311Z" fill="#404259"/>
<path d="M188.593 105.958H87.4233V106.87H188.593V105.958Z" fill="#404259"/>
<path d="M109.299 92.9432H108.387V114.116H109.299V92.9432Z" fill="#404259"/>
<path d="M125.931 92.7148H125.021V113.659H125.931V92.7148Z" fill="#404259"/>
<path d="M137.627 92.7148H136.717V113.659H137.627V92.7148Z" fill="#404259"/>
<path d="M154.794 92.7148H153.884V113.659H154.794V92.7148Z" fill="#404259"/>
<path d="M101.665 102.846H90.4993C90.2882 102.845 90.086 102.761 89.9368 102.612C89.7875 102.463 89.7032 102.261 89.7021 102.05V102.05C89.7027 101.839 89.7868 101.637 89.9362 101.487C90.0856 101.338 90.2881 101.254 90.4993 101.254H101.665C101.877 101.254 102.079 101.338 102.229 101.487C102.378 101.637 102.462 101.839 102.463 102.05V102.05C102.462 102.261 102.377 102.463 102.228 102.612C102.079 102.761 101.877 102.845 101.665 102.846V102.846Z" fill="#E6F1F7"/>
<path d="M101.665 95.5611H90.4993C90.2882 95.5601 90.086 95.4758 89.9368 95.3267C89.7875 95.1775 89.7032 94.9755 89.7021 94.7646V94.7646C89.7027 94.5535 89.7868 94.3513 89.9362 94.202C90.0856 94.0527 90.2881 93.9687 90.4993 93.9681H101.665C101.877 93.9687 102.079 94.0527 102.229 94.202C102.378 94.3513 102.462 94.5535 102.463 94.7646V94.7646C102.462 94.9755 102.377 95.1775 102.228 95.3267C102.079 95.4758 101.877 95.5601 101.665 95.5611V95.5611Z" fill="#E6F1F7"/>
<path d="M167.517 94.499H156.351C155.911 94.499 155.554 94.8556 155.554 95.2955C155.554 95.7354 155.911 96.092 156.351 96.092H167.517C167.957 96.092 168.314 95.7354 168.314 95.2955C168.314 94.8556 167.957 94.499 167.517 94.499Z" fill="#E6F1F7"/>
<path d="M167.517 103.606H156.351C156.14 103.605 155.938 103.521 155.788 103.371C155.639 103.222 155.555 103.02 155.554 102.809V102.809C155.554 102.598 155.638 102.396 155.788 102.246C155.937 102.096 156.139 102.012 156.351 102.011H167.517C167.728 102.012 167.931 102.096 168.08 102.246C168.23 102.396 168.314 102.598 168.314 102.809C168.313 103.02 168.229 103.222 168.08 103.371C167.93 103.521 167.728 103.605 167.517 103.606V103.606Z" fill="#E6F1F7"/>
<path d="M182.329 94.499H171.163C170.723 94.499 170.366 94.8556 170.366 95.2955C170.366 95.7354 170.723 96.092 171.163 96.092H182.329C182.769 96.092 183.126 95.7354 183.126 95.2955C183.126 94.8556 182.769 94.499 182.329 94.499Z" fill="#E6F1F7"/>
<path d="M167.517 109.827H156.351C156.14 109.827 155.937 109.743 155.788 109.593C155.638 109.444 155.554 109.242 155.554 109.031V109.031C155.555 108.82 155.639 108.618 155.788 108.469C155.938 108.32 156.14 108.235 156.351 108.234H167.517C167.728 108.235 167.93 108.32 168.08 108.469C168.229 108.618 168.313 108.82 168.314 109.031C168.314 109.242 168.23 109.444 168.08 109.593C167.931 109.743 167.728 109.827 167.517 109.827V109.827Z" fill="#E6F1F7"/>
<path d="M182.327 109.827H171.163C170.951 109.827 170.749 109.743 170.599 109.594C170.45 109.445 170.366 109.242 170.366 109.031C170.366 108.82 170.45 108.617 170.6 108.468C170.749 108.319 170.952 108.235 171.163 108.234H182.327C182.539 108.235 182.741 108.319 182.891 108.468C183.041 108.617 183.125 108.82 183.126 109.031C183.126 109.242 183.041 109.445 182.891 109.594C182.742 109.743 182.539 109.827 182.327 109.827V109.827Z" fill="#E6F1F7"/>
<path d="M101.665 108.539H90.4993C90.0591 108.539 89.7021 108.895 89.7021 109.335C89.7021 109.775 90.0591 110.132 90.4993 110.132H101.665C102.106 110.132 102.463 109.775 102.463 109.335C102.463 108.895 102.106 108.539 101.665 108.539Z" fill="#E6F1F7"/>
<path d="M104.028 137.05L100.546 127.397C100.21 126.464 99.5947 125.657 98.7831 125.087C97.9715 124.517 97.0035 124.211 96.0114 124.211H59.9983C58.72 124.211 57.4939 124.718 56.59 125.621C55.6861 126.524 55.1782 127.749 55.1782 129.027V227.737C55.1782 228.35 55.422 228.938 55.8558 229.371C56.2896 229.804 56.878 230.048 57.4916 230.048H213.81C214.424 230.048 215.012 229.805 215.446 229.371C215.881 228.938 216.125 228.35 216.125 227.737V139.361C216.125 138.748 215.881 138.16 215.446 137.727C215.012 137.293 214.424 137.05 213.81 137.05H104.028Z" fill="#EAAB72"/>
<path d="M35.5809 79.8775L25.2646 87.1063L28.0332 78.7316L35.5809 79.8775Z" fill="#B2CAD3"/>
<path d="M11.478 91.2176L34.164 88.4221L27.9156 79.1904L11.478 91.2176Z" fill="white"/>
<path d="M27.9156 79.1904L29.3419 70.4175L11.478 91.2176L27.9156 79.1904Z" fill="white"/>
<path d="M11.478 91.2176L28.2087 77.5175L35.4789 79.8386L35.5805 79.8776C35.5805 79.8776 27.9606 79.3486 27.7085 79.4227C26.9836 79.6297 11.478 91.2176 11.478 91.2176Z" fill="#869FBA"/>
<path d="M39.5085 81.2693C39.5531 81.2564 39.5923 81.2295 39.6204 81.1926C39.6486 81.1557 39.6641 81.1107 39.6648 81.0643C39.6648 81.007 39.6423 80.952 39.6021 80.9111C39.5619 80.8702 39.5072 80.8467 39.4499 80.8457C38.9927 80.8457 38.5355 80.8555 38.0822 80.8887C38.027 80.8963 37.9765 80.924 37.9405 80.9665C37.9044 81.009 37.8853 81.0633 37.8868 81.119C37.8918 81.1757 37.919 81.2281 37.9626 81.2647C38.0062 81.3013 38.0626 81.3191 38.1193 81.3142C38.5531 81.2849 39.0005 81.2713 39.444 81.2752C39.4657 81.2764 39.4874 81.2744 39.5085 81.2693Z" fill="#A5B4C7"/>
<path d="M71.5894 104.752C71.5643 104.738 71.5422 104.72 71.5243 104.697C71.5064 104.675 71.4931 104.65 71.4851 104.622C71.4771 104.595 71.4746 104.566 71.4778 104.538C71.4809 104.509 71.4896 104.482 71.5034 104.457C71.9182 103.696 72.2233 102.881 72.41 102.034C72.4153 102.006 72.4262 101.98 72.4421 101.956C72.458 101.932 72.4785 101.912 72.5024 101.897C72.5264 101.881 72.5532 101.871 72.5813 101.866C72.6094 101.861 72.6382 101.862 72.6659 101.868C72.6938 101.875 72.7202 101.886 72.7435 101.903C72.7668 101.919 72.7867 101.94 72.802 101.964C72.8172 101.988 72.8275 102.015 72.8324 102.043C72.8372 102.071 72.8364 102.1 72.83 102.128C72.6382 103.015 72.3191 103.87 71.8824 104.666C71.8548 104.716 71.8085 104.753 71.7536 104.769C71.6987 104.785 71.6397 104.779 71.5894 104.752V104.752ZM72.9023 99.6567C72.8741 99.6564 72.8462 99.6506 72.8202 99.6396C72.7943 99.6286 72.7707 99.6125 72.7509 99.5924C72.7312 99.5723 72.7155 99.5485 72.705 99.5223C72.6944 99.4962 72.6891 99.4682 72.6894 99.44C72.6935 98.5643 72.6282 97.6896 72.494 96.8241C72.4862 96.7722 72.4976 96.7193 72.526 96.6751C72.5544 96.631 72.5979 96.5986 72.6483 96.584H72.6757C72.7326 96.5761 72.7903 96.5906 72.8366 96.6245C72.8829 96.6584 72.9142 96.709 72.9238 96.7656C73.064 97.6534 73.1332 98.551 73.1309 99.4498C73.1307 99.4965 73.1153 99.5419 73.0872 99.5792C73.059 99.6165 73.0195 99.6437 72.9746 99.6567C72.951 99.6628 72.9266 99.6648 72.9023 99.6626V99.6567ZM53.364 102.337L53.1686 102.351C52.3078 102.388 51.4493 102.235 50.654 101.904C50.6009 101.882 50.5585 101.84 50.5359 101.787C50.5133 101.734 50.5122 101.674 50.5329 101.621C50.5554 101.568 50.5974 101.526 50.6502 101.503C50.703 101.481 50.7625 101.479 50.8162 101.5C51.5523 101.808 52.3475 101.951 53.1452 101.917L53.321 101.906C53.3743 101.902 53.4271 101.918 53.4693 101.95C53.5116 101.983 53.5403 102.03 53.5499 102.082C53.5596 102.135 53.5496 102.189 53.5218 102.235C53.494 102.28 53.4503 102.314 53.3992 102.329L53.364 102.337ZM55.6598 101.384C55.6266 101.338 55.6131 101.28 55.6222 101.223C55.6314 101.166 55.6624 101.116 55.7086 101.082C56.397 100.578 56.9336 99.8942 57.2599 99.1062C57.2883 99.0635 57.3308 99.0322 57.3801 99.0179C57.4293 99.0036 57.482 99.0072 57.5288 99.028C57.5757 99.0488 57.6136 99.0856 57.6359 99.1317C57.6582 99.1778 57.6635 99.2303 57.6507 99.2799C57.2924 100.137 56.7067 100.879 55.9567 101.427C55.936 101.44 55.9137 101.451 55.8903 101.459C55.8488 101.47 55.8049 101.469 55.7639 101.456C55.723 101.443 55.6868 101.418 55.6598 101.384V101.384ZM71.9254 94.261L71.8903 94.1341C71.6575 93.3315 71.3842 92.5412 71.0716 91.7661C71.0504 91.7125 71.0512 91.6527 71.0738 91.5997C71.0965 91.5467 71.1393 91.5048 71.1927 91.4831H71.2123C71.2636 91.4677 71.3189 91.4722 71.3671 91.4957C71.4152 91.5192 71.4528 91.56 71.4721 91.61C71.7893 92.397 72.0658 93.1997 72.3006 94.015L72.3377 94.1419C72.3508 94.1966 72.3422 94.2542 72.3139 94.3028C72.2855 94.3514 72.2396 94.3872 72.1855 94.4028C72.1314 94.4184 72.0734 94.4125 72.0235 94.3865C71.9736 94.3604 71.9357 94.3162 71.9176 94.2629L71.9254 94.261ZM48.3622 100.457C47.6798 99.8609 47.0758 99.1807 46.5647 98.4327C46.5484 98.4093 46.537 98.3829 46.5311 98.3551C46.5251 98.3273 46.5248 98.2985 46.53 98.2705C46.5353 98.2426 46.5461 98.2159 46.5618 98.1921C46.5774 98.1684 46.5977 98.148 46.6213 98.1321C46.6691 98.1019 46.7265 98.0909 46.782 98.1014C46.8375 98.1119 46.8869 98.1431 46.9203 98.1887C47.4115 98.9088 47.9911 99.5646 48.6455 100.141C48.6671 100.159 48.6847 100.182 48.6975 100.207C48.7102 100.233 48.7179 100.26 48.7198 100.289C48.7218 100.317 48.7182 100.345 48.7091 100.372C48.7001 100.399 48.6857 100.424 48.667 100.445C48.6406 100.477 48.6052 100.5 48.5654 100.512C48.5297 100.521 48.4923 100.52 48.4567 100.511C48.4212 100.501 48.3886 100.483 48.3622 100.457V100.457ZM58.0044 96.8261C57.9759 96.8248 57.9479 96.818 57.9221 96.8059C57.8962 96.7939 57.873 96.7768 57.8538 96.7558C57.8346 96.7348 57.8197 96.7101 57.81 96.6833C57.8003 96.6566 57.7959 96.6281 57.7973 96.5996C57.8409 95.7324 57.7686 94.8632 57.5823 94.015C57.5749 93.9871 57.5733 93.958 57.5778 93.9295C57.5822 93.901 57.5926 93.8737 57.6082 93.8494C57.6239 93.8251 57.6444 93.8044 57.6686 93.7886C57.6927 93.7727 57.7199 93.7621 57.7484 93.7573C57.7761 93.7513 57.8048 93.7509 57.8327 93.756C57.8606 93.7611 57.8872 93.7716 57.911 93.787C57.9348 93.8025 57.9553 93.8224 57.9713 93.8458C57.9873 93.8692 57.9986 93.8955 58.0044 93.9233C58.2031 94.8093 58.282 95.718 58.2388 96.625C58.2364 96.6698 58.2201 96.7127 58.192 96.7477C58.164 96.7827 58.1257 96.8081 58.0825 96.8202C58.0571 96.8274 58.0305 96.8294 58.0044 96.8261ZM69.9345 89.3826C69.5257 88.6085 69.0518 87.8705 68.5179 87.1767C68.5004 87.1545 68.4873 87.1291 68.4796 87.1019C68.4718 87.0747 68.4695 87.0462 68.4728 87.0181C68.4761 86.99 68.4848 86.9628 68.4986 86.9381C68.5124 86.9134 68.5309 86.8916 68.5531 86.8741C68.5753 86.8565 68.6007 86.8435 68.628 86.8358C68.6552 86.828 68.6837 86.8257 68.7118 86.829C68.7399 86.8322 68.7671 86.841 68.7919 86.8548C68.8166 86.8685 68.8384 86.887 68.8559 86.9092C69.4074 87.6213 69.8963 88.3796 70.3174 89.1757C70.3445 89.2262 70.3504 89.2853 70.3339 89.3402C70.3175 89.3951 70.2799 89.4412 70.2295 89.4685C70.2154 89.4763 70.2003 89.4822 70.1846 89.486C70.1384 89.4985 70.0894 89.495 70.0455 89.4762C70.0015 89.4575 69.9652 89.4245 69.9423 89.3826H69.9345ZM45.3044 96.0355C45.2263 95.8403 45.1599 95.6255 45.1091 95.4206C44.9108 94.7521 44.803 94.0601 44.7886 93.363C44.7886 93.3055 44.8115 93.2504 44.8522 93.2098C44.8928 93.1691 44.948 93.1463 45.0055 93.1463C45.063 93.1463 45.1182 93.1691 45.1589 93.2098C45.1995 93.2504 45.2224 93.3055 45.2224 93.363C45.2359 94.0244 45.3384 94.681 45.5272 95.3151C45.5819 95.5103 45.6464 95.7056 45.7226 95.9008C45.7328 95.9273 45.7377 95.9556 45.7368 95.984C45.736 96.0124 45.7294 96.0403 45.7176 96.0662C45.7058 96.092 45.6889 96.1152 45.6679 96.1344C45.647 96.1536 45.6224 96.1684 45.5956 96.178H45.5819C45.5543 96.1874 45.5252 96.1911 45.4961 96.1889C45.4671 96.1868 45.4388 96.1788 45.4129 96.1655C45.387 96.1522 45.3641 96.1339 45.3454 96.1115C45.3268 96.0892 45.3129 96.0633 45.3044 96.0355V96.0355ZM56.707 91.567C56.3113 90.7854 55.8526 90.0372 55.3354 89.3299C55.3021 89.2837 55.2884 89.2262 55.2972 89.1699C55.306 89.1137 55.3365 89.0632 55.3823 89.0292C55.429 88.9956 55.4869 88.9814 55.5438 88.9898C55.6008 88.9982 55.6522 89.0284 55.6871 89.0741C56.2175 89.7988 56.6892 90.5645 57.0978 91.364C57.1239 91.4153 57.1287 91.4748 57.1111 91.5297C57.0935 91.5845 57.0551 91.6302 57.004 91.6568L56.9649 91.6705C56.9174 91.6854 56.8662 91.6832 56.8202 91.6643C56.7741 91.6454 56.7362 91.611 56.7129 91.567H56.707ZM66.5465 85.5447C65.7949 85.1044 65.0025 84.7376 64.1804 84.4495C64.126 84.4304 64.0815 84.3904 64.0565 84.3384C64.0316 84.2864 64.0284 84.2267 64.0476 84.1723C64.0667 84.118 64.1067 84.0734 64.1588 84.0485C64.2108 84.0236 64.2706 84.0204 64.325 84.0396C65.1754 84.3411 65.9952 84.7228 66.7732 85.1796C66.8083 85.2015 66.8365 85.233 66.8543 85.2703C66.8721 85.3077 66.8789 85.3494 66.8737 85.3904C66.8686 85.4315 66.8518 85.4703 66.8253 85.5021C66.7988 85.5339 66.7638 85.5575 66.7243 85.57C66.6954 85.5775 66.6653 85.5792 66.6358 85.5748C66.6062 85.5704 66.5779 85.5602 66.5524 85.5447H66.5465ZM45.4998 90.9872C45.4484 90.962 45.409 90.9175 45.3904 90.8633C45.3717 90.8092 45.3752 90.7499 45.4002 90.6983C45.8054 89.8823 46.3368 89.1352 46.975 88.4846C46.9944 88.4635 47.0179 88.4467 47.0442 88.4352C47.0704 88.4237 47.0987 88.4178 47.1274 88.4178C47.156 88.4178 47.1844 88.4237 47.2106 88.4352C47.2368 88.4467 47.2604 88.4635 47.2798 88.4846C47.2999 88.5045 47.3158 88.5283 47.3267 88.5544C47.3375 88.5805 47.3431 88.6086 47.3431 88.6369C47.3431 88.6652 47.3375 88.6932 47.3267 88.7193C47.3158 88.7454 47.2999 88.7692 47.2798 88.7891C46.6741 89.408 46.1685 90.1173 45.7812 90.8916C45.7559 90.943 45.7114 90.9824 45.6574 91.0014C45.6033 91.0203 45.5439 91.0174 45.492 90.9931L45.4998 90.9872ZM53.6375 87.3387C53.0167 86.7178 52.3549 86.1393 51.6564 85.6071C51.6299 85.5886 51.6084 85.5638 51.5938 85.5349C51.5855 85.562 51.5719 85.5871 51.5538 85.6089C51.5357 85.6306 51.5134 85.6486 51.4883 85.6618C50.7126 86.0715 49.9687 86.5387 49.2629 87.0595C49.2402 87.0766 49.2142 87.0891 49.1866 87.0961C49.159 87.1031 49.1303 87.1046 49.1021 87.1004C49.0739 87.0962 49.0468 87.0865 49.0225 87.0718C48.9981 87.057 48.9769 87.0376 48.9601 87.0146C48.926 86.9685 48.9116 86.9108 48.92 86.8541C48.9284 86.7974 48.959 86.7463 49.005 86.7121C49.7281 86.1782 50.4903 85.6992 51.2851 85.2792C51.3104 85.2654 51.3382 85.2568 51.3669 85.2539C51.3956 85.251 51.4246 85.254 51.4521 85.2626C51.4796 85.2711 51.5052 85.2851 51.5272 85.3037C51.5492 85.3224 51.5672 85.3452 51.5802 85.3709V85.3709C51.591 85.3381 51.6095 85.3083 51.6341 85.2839C51.6587 85.2596 51.6887 85.2414 51.7217 85.231C51.7547 85.2205 51.7897 85.218 51.8239 85.2236C51.858 85.2293 51.8903 85.243 51.9182 85.2636C52.6332 85.8054 53.3096 86.3964 53.9423 87.0322C53.9625 87.0523 53.9785 87.0762 53.9894 87.1025C54.0003 87.1288 54.0059 87.157 54.0059 87.1854C54.0059 87.2139 54.0003 87.2421 53.9894 87.2684C53.9785 87.2947 53.9625 87.3186 53.9423 87.3387C53.9174 87.3651 53.8856 87.384 53.8505 87.3933C53.8122 87.4053 53.7714 87.4066 53.7325 87.3969C53.6935 87.3873 53.658 87.3671 53.6297 87.3387H53.6375ZM61.6483 83.8053C60.7832 83.6759 59.9085 83.6217 59.034 83.6433C58.9766 83.6443 58.9211 83.6228 58.8795 83.5834C58.8378 83.544 58.8133 83.4897 58.8113 83.4324C58.8117 83.3755 58.8337 83.3209 58.8729 83.2796C58.912 83.2383 58.9654 83.2134 59.0223 83.2099C59.9223 83.1883 60.8224 83.2445 61.7127 83.3778C61.7614 83.3853 61.806 83.4091 61.8393 83.4453C61.8726 83.4815 61.8926 83.5279 61.896 83.5769C61.8994 83.626 61.886 83.6747 61.858 83.7151C61.8301 83.7556 61.7892 83.7853 61.742 83.7994C61.7099 83.81 61.6756 83.812 61.6424 83.8053H61.6483ZM56.4315 83.9263L56.3143 83.9498C55.493 84.1115 54.6846 84.3327 53.8954 84.6115C53.8415 84.6293 53.7828 84.6257 53.7315 84.6013C53.6802 84.577 53.6402 84.5338 53.62 84.4807C53.61 84.4541 53.6055 84.4257 53.6066 84.3973C53.6077 84.3689 53.6144 84.341 53.6264 84.3152C53.6384 84.2894 53.6554 84.2663 53.6765 84.2471C53.6975 84.2279 53.7221 84.2131 53.7489 84.2035C54.5593 83.9179 55.3892 83.6909 56.2322 83.5242L56.3416 83.5027C56.3694 83.4964 56.3981 83.4958 56.4261 83.5008C56.4541 83.5057 56.4808 83.5163 56.5047 83.5317C56.5285 83.5472 56.549 83.5673 56.565 83.5908C56.581 83.6143 56.592 83.6408 56.5976 83.6687C56.6092 83.7221 56.6002 83.778 56.5723 83.8251C56.5444 83.8721 56.4997 83.9069 56.4472 83.9224L56.4315 83.9263ZM49.4642 84.1489C48.7034 83.7091 47.9172 83.3148 47.1098 82.9678C47.0834 82.9568 47.0595 82.9406 47.0395 82.9202C47.0194 82.8999 47.0035 82.8758 46.9928 82.8493C46.9821 82.8228 46.9767 82.7945 46.977 82.7659C46.9773 82.7373 46.9833 82.7091 46.9945 82.6828C47.0181 82.6307 47.061 82.5897 47.1142 82.5686C47.1675 82.5475 47.2268 82.5478 47.2798 82.5696C48.1031 82.9224 48.9044 83.3246 49.6791 83.7741C49.7292 83.8027 49.7659 83.85 49.7812 83.9056C49.7966 83.9611 49.7894 84.0205 49.7611 84.0708C49.7325 84.1189 49.6863 84.1539 49.6322 84.1684C49.6037 84.1789 49.5731 84.1826 49.5429 84.1792C49.5127 84.1758 49.4838 84.1654 49.4583 84.1489H49.4642ZM44.6304 82.0777C43.7885 81.8284 42.9317 81.6328 42.065 81.492C42.037 81.4878 42.0102 81.4781 41.9859 81.4635C41.9617 81.4489 41.9406 81.4297 41.9238 81.4069C41.9071 81.3842 41.8949 81.3583 41.8881 81.3309C41.8813 81.3035 41.88 81.275 41.8843 81.247C41.8885 81.2191 41.8982 81.1922 41.9128 81.168C41.9274 81.1439 41.9467 81.1228 41.9694 81.106C41.9922 81.0892 42.0181 81.0771 42.0455 81.0703C42.073 81.0635 42.1015 81.0622 42.1295 81.0664C43.0159 81.2045 43.8925 81.4001 44.7535 81.6521C44.8083 81.6684 44.8545 81.7056 44.8823 81.7556C44.9101 81.8056 44.9171 81.8644 44.902 81.9195C44.891 81.9547 44.8715 81.9866 44.8453 82.0125C44.8191 82.0384 44.7868 82.0574 44.7515 82.0679C44.7109 82.083 44.6669 82.0864 44.6245 82.0777H44.6304Z" fill="#A5B4C7"/>
<path d="M68.907 107.758C68.9261 107.753 68.9445 107.745 68.9617 107.735C69.3555 107.485 69.7297 107.205 70.0812 106.899C70.1025 106.88 70.1199 106.858 70.1325 106.833C70.145 106.807 70.1525 106.78 70.1544 106.752C70.1563 106.723 70.1526 106.695 70.1436 106.668C70.1346 106.642 70.1203 106.617 70.1017 106.596C70.0831 106.574 70.0605 106.557 70.0352 106.544C70.0098 106.532 69.9823 106.524 69.9541 106.522C69.9258 106.52 69.8975 106.524 69.8707 106.533C69.8439 106.542 69.8192 106.556 69.7979 106.575C69.4627 106.866 69.1061 107.131 68.7311 107.368C68.6878 107.396 68.6561 107.439 68.6415 107.488C68.627 107.538 68.6307 107.591 68.6519 107.638C68.6731 107.685 68.7105 107.723 68.7572 107.745C68.804 107.767 68.8571 107.772 68.907 107.758V107.758Z" fill="#A5B4C7"/>
<path d="M216.68 118.561C216.68 118.561 206.545 137.759 203.589 139.129C200.633 140.499 187.093 133.306 185.028 131.582C182.963 129.858 180.575 129.189 178.992 128.939C177.41 128.689 174.559 129.216 174.454 124.363C174.348 119.51 174.032 116.033 177.306 116.875C180.581 117.716 181.001 117.614 181.739 118.352C182.478 119.09 182.959 122.009 184.279 122.465C193.001 125.507 194.203 125.733 196.63 126.895C199.056 128.056 202.247 116.773 205.357 114.134C206.557 113.111 216.68 118.561 216.68 118.561Z" fill="#F7A054"/>
<path d="M252.607 59.1302C252.607 59.1302 254.623 48.4773 239.792 48.6823V59.1302H252.607Z" fill="#FCA001"/>
<path d="M226.979 59.1302C226.979 59.1302 224.964 48.4773 239.796 48.6823V59.1302H226.979Z" fill="#F58300"/>
<path d="M212.297 66.5307C212.297 73.3534 224.586 78.8858 239.74 78.8858C254.894 78.8858 267.186 73.3534 267.186 66.5307C267.186 59.708 254.9 54.1756 239.74 54.1756C224.581 54.1756 212.297 59.706 212.297 66.5307Z" fill="#FFB804"/>
<path d="M246.71 80.996C246.71 80.996 245.36 91.5923 250.37 92.4063C255.436 93.2262 263.46 91.1609 267.819 98.8035C272.692 107.34 281.359 121.359 282.176 134.85C282.25 136.093 283.297 138.85 283.274 140.054C282.993 154.383 281.062 153.292 282.463 157.852C283.864 162.412 284.04 166.832 278.237 168.003C272.886 169.065 272.464 168.259 273.448 160.936C274.148 155.724 270.635 143.72 271.762 137.639C272.87 131.644 263.177 123.471 261.628 117.706V146.012H239.795V117.706H239.747V72.5237L246.71 80.996Z" fill="#FFBA80"/>
<path d="M211.67 98.8035C216.035 91.1609 224.055 93.2262 229.124 92.4063C234.131 91.5923 232.781 80.996 232.781 80.996L239.747 72.5237V117.696H239.795V146.002H217.961V117.696H217.862C216.314 123.461 206.795 107.34 211.67 98.8035Z" fill="#F7A054"/>
<path d="M212.297 66.5307C212.297 59.6982 224.586 54.1756 239.74 54.1756V78.8858C224.586 78.8858 212.297 73.3534 212.297 66.5307Z" fill="#FCA001"/>
<path d="M226.863 72.5238H227.121C227.014 71.6473 226.9 70.7805 226.799 69.9645C226.244 65.7264 224.995 55.0326 239.795 55.0326C254.596 55.0326 253.347 65.7264 252.792 69.9645C252.689 70.7805 252.581 71.6473 252.47 72.5238H252.724C254.977 70.8586 255.168 75.208 254.228 76.6916C253.447 77.9254 253.433 78.0581 252.966 79.4109C252.617 80.4085 252.044 80.5432 251.563 80.4319C251.501 81.0176 251.45 81.5368 251.413 81.9507C251.204 84.2366 245.708 88.8125 244.465 90.2453C243.293 91.5865 241.349 91.0633 240.725 91.0262L239.795 90.9832L238.865 91.0262C238.242 91.0555 236.292 91.5786 235.128 90.2453C233.883 88.8125 228.387 84.2366 228.178 81.9507C228.141 81.5368 228.088 81.0234 228.028 80.4319C227.549 80.5432 226.974 80.4085 226.629 79.4109C226.16 78.0444 226.142 77.9254 225.361 76.6916C224.423 75.208 224.614 70.8586 226.863 72.5238Z" fill="#FFBA80"/>
<path d="M238.865 91.0339C238.242 91.0632 236.292 91.5864 235.128 90.2531C233.883 88.8202 228.387 84.2444 228.178 81.9584C228.141 81.5446 228.088 81.0312 228.028 80.4397C227.549 80.5509 226.974 80.4162 226.629 79.4187C226.16 78.0522 226.142 77.9331 225.361 76.6994C224.423 75.2157 224.614 70.8664 226.863 72.5315H227.121C227.014 71.655 226.9 70.7883 226.799 69.9723C226.244 65.7342 224.995 55.0403 239.795 55.0403V90.9988L238.865 91.0339Z" fill="#F7A054"/>
<path d="M239.747 169.678C239.747 169.678 242.886 172.011 243.639 190.476C244.539 212.598 245.411 222.314 245.411 222.314H259.937L261.628 190.523V145.997L239.745 144.55L239.747 169.678Z" fill="#172C57"/>
<path d="M239.741 64.3619C239.741 64.3619 242.593 68.1588 247.64 69.4921C247.64 69.4921 246.339 67.8738 246.249 66.927C246.249 66.927 249.559 70.2905 252.224 71.1202L252.615 71.3837C252.615 71.3837 252.835 70.4701 253.019 67.8699C253.203 65.2696 241.45 60.9339 241.45 60.9339L239.745 63.0227L239.741 64.3619Z" fill="#693514"/>
<path d="M239.741 64.3619C239.741 64.3619 238.421 67.0324 233.563 68.5238C233.753 68.0628 233.907 67.5877 234.022 67.1027C234.022 67.1027 229.919 70.2905 227.26 71.1202L227.039 71.8796C227.039 71.8796 226.733 70.025 226.549 67.4287C226.365 64.8323 238.038 60.9359 238.038 60.9359L239.741 63.0246V64.3619Z" fill="#4F250A"/>
<path d="M252.956 68.8597C252.956 68.8597 250.827 63.9793 239.795 63.9793V54.1757C239.795 54.1757 252.831 53.9473 255.997 61.5177C259.162 69.0881 253.675 68.8597 253.675 68.8597H252.956Z" fill="#FFB804"/>
<path d="M226.632 68.8597C226.632 68.8597 228.764 63.9793 239.795 63.9793V54.1757C239.795 54.1757 226.759 53.9473 223.59 61.5177C220.421 69.0881 225.915 68.8597 225.915 68.8597H226.632Z" fill="#FCA001"/>
<path d="M239.746 169.678C239.746 169.678 236.604 172.011 235.85 190.476C234.951 212.598 234.08 222.314 234.08 222.314H219.551L217.861 190.523V145.997L239.744 144.55L239.746 169.678Z" fill="#0E1F42"/>
<path d="M218.217 221.863L217.137 197.285H226.869V221.863H218.217Z" fill="#B05D2A"/>
<path d="M235.522 221.863L236.605 197.285H226.869V221.863H235.522Z" fill="#B05D2A"/>
<path d="M235.894 224.52C235.894 219.337 231.853 215.134 226.869 215.134C221.885 215.134 217.848 219.337 217.848 224.52C217.848 224.52 217.96 225.14 218.78 225.14H234.964C235.782 225.14 235.896 224.52 235.896 224.52H235.894Z" fill="#853A0C"/>
<path d="M237.615 191.366C237.619 191.147 237.537 190.936 237.385 190.778C237.234 190.62 237.025 190.528 236.806 190.523H216.938C216.718 190.528 216.51 190.62 216.358 190.778C216.206 190.935 216.122 191.147 216.125 191.366V198.271C216.122 198.49 216.206 198.702 216.358 198.86C216.51 199.018 216.718 199.109 216.938 199.114H236.806C237.025 199.109 237.233 199.017 237.385 198.859C237.536 198.701 237.619 198.49 237.615 198.271V191.366Z" fill="#853A0C"/>
<path d="M249.793 92.2581C249.98 92.3273 250.172 92.3795 250.368 92.4142C251.706 92.6329 253.261 92.6485 254.891 92.6953C255.095 92.6776 255.299 92.6705 255.504 92.6739C258.283 92.7188 260.219 92.8125 260.219 92.8125C269.613 93.0253 277.741 115.28 277.741 115.28L263.386 123.293L261.628 119.707V145.997H239.795L239.747 117.691V102.296L249.793 92.2581Z" fill="#A6DAF5"/>
<path d="M229.698 92.2581C229.513 92.327 229.322 92.3793 229.127 92.4142C227.785 92.6329 226.23 92.6485 224.6 92.6953C224.397 92.6777 224.193 92.6705 223.989 92.6739C221.208 92.7188 219.274 92.8125 219.274 92.8125C209.878 93.0253 201.75 115.28 201.75 115.28L216.107 123.293L217.865 119.707V145.997H239.697L239.75 117.691V102.296L229.698 92.2581Z" fill="#77BBE6"/>
<path d="M261.272 221.863L262.351 197.285H252.619V221.863H261.272Z" fill="#B36434"/>
<path d="M243.967 221.863L242.886 197.285H252.618V221.863H243.967Z" fill="#B36434"/>
<path d="M243.596 224.52C243.596 219.337 247.638 215.134 252.619 215.134C257.599 215.134 261.641 219.337 261.641 224.52C261.641 224.52 261.53 225.14 260.709 225.14H244.528C243.707 225.14 243.596 224.52 243.596 224.52V224.52Z" fill="#964514"/>
<path d="M241.876 191.366C241.874 191.258 241.893 191.15 241.932 191.049C241.972 190.948 242.031 190.856 242.106 190.777C242.181 190.699 242.271 190.636 242.37 190.593C242.469 190.549 242.577 190.525 242.685 190.523H262.554C262.773 190.529 262.981 190.62 263.132 190.778C263.284 190.936 263.368 191.147 263.364 191.366V198.271C263.368 198.49 263.284 198.701 263.132 198.859C262.981 199.017 262.773 199.109 262.554 199.114H242.685C242.466 199.109 242.258 199.018 242.106 198.86C241.955 198.702 241.872 198.49 241.876 198.271V191.366Z" fill="#964514"/>
<path d="M261.628 145.997V118.727H258.859L259.093 92.8046L252.972 92.666V118.727H239.795V145.997H261.628Z" fill="#172C57"/>
<path d="M217.961 145.997V118.727H220.731L220.497 92.8046L226.616 92.666V118.727H239.795V145.997H217.961Z" fill="#0E1F42"/>
<path d="M177.31 116.874C179.179 117.359 179.611 117.437 180.156 118.036C180.979 118.936 180.455 128.09 178.996 128.302C177.411 128.531 174.563 129.216 174.457 124.363C174.351 119.51 174.035 116.033 177.31 116.874Z" fill="#ED8E3B"/>
<path d="M221.777 118.69C221.777 119.038 221.88 119.377 222.074 119.666C222.267 119.955 222.542 120.18 222.863 120.313C223.184 120.446 223.538 120.481 223.879 120.413C224.22 120.345 224.533 120.178 224.779 119.932C225.025 119.687 225.193 119.374 225.26 119.033C225.328 118.692 225.293 118.339 225.16 118.018C225.027 117.697 224.802 117.422 224.513 117.229C224.224 117.036 223.884 116.933 223.536 116.933C223.069 116.933 222.622 117.118 222.292 117.448C221.963 117.777 221.777 118.224 221.777 118.69V118.69Z" fill="#747474"/>
<path d="M257.727 118.69C257.727 119.038 257.624 119.377 257.431 119.666C257.238 119.955 256.963 120.18 256.642 120.313C256.321 120.446 255.967 120.481 255.626 120.413C255.285 120.345 254.971 120.178 254.725 119.932C254.48 119.687 254.312 119.374 254.244 119.033C254.176 118.692 254.211 118.339 254.344 118.018C254.477 117.697 254.703 117.422 254.992 117.229C255.281 117.036 255.621 116.933 255.969 116.933C256.435 116.933 256.883 117.118 257.212 117.448C257.542 117.777 257.727 118.224 257.727 118.69V118.69Z" fill="#9A9A9A"/>
</svg>
