<svg width="1440" height="396" viewBox="0 0 1440 396" fill="none" xmlns="http://www.w3.org/2000/svg">
<path d="M-4 84.3874C-4 84.3874 34.4437 67.1523 79.8787 61.1669C103.103 58.1072 98.5556 70.912 129.568 67.2445C165.66 62.9818 174.542 61.3765 217.169 57.2354C227.894 56.1959 280.631 79.869 291.277 78.8463C307.003 77.3165 358.482 29.2912 388.95 29.2912C418.143 29.2912 442.059 7.44971 454.721 10.7316C495.286 21.2521 506.05 36.7184 544.514 44.0575C549.359 44.9797 601.517 51.1285 609.519 53.199C627.848 57.9353 676.271 53.7691 701.37 44.7827C750.124 27.3254 811.445 31.8857 818.935 34.2622C832.184 38.4536 867.618 38.4536 867.618 38.4536C867.618 38.4536 973.112 16.3649 982.953 19.521C992.795 22.6771 1014.67 6.89644 1031.54 4.79234C1048.42 2.68825 1068.01 -3.62402 1081.54 4.79234C1095.08 13.2087 1096.88 18.4228 1106.75 28.9643C1116.61 39.5057 1137.88 38.483 1143.4 44.7701C1148.92 51.0572 1187.22 84.664 1193.91 87.2543C1225.11 99.3801 1272.63 59.2431 1286.22 57.139C1299.82 55.0349 1332.75 54.1086 1344.4 54.1086C1356.04 54.1086 1380.74 37.1627 1387.95 37.8626C1478.46 46.6898 1489 35.3143 1489 35.3143V146.827L-4 173.954V84.3874Z" fill="url(#paint0_linear_332_63)"/>
<path d="M427.448 167.097C427.448 167.097 694.517 120.601 744.952 135.569C776.388 144.899 845.735 112.633 852.919 110.902C886.764 102.742 988.528 122.077 998.537 114.49C1014.51 102.381 1038.96 101.036 1038.96 101.036C1038.96 101.036 1082.89 118.526 1095.13 118.526C1107.37 118.526 1177.59 130.187 1199 123.011C1220.42 115.836 1264.84 126.151 1276.96 123.011C1289.09 119.872 1303.88 106.417 1321.39 114.49C1334.83 120.689 1396.89 109.238 1438.7 109.695C1451.34 109.833 1489 116.351 1489 116.351V232.453L1220.26 189.617L667.419 175.421C667.419 175.421 497.294 192.308 530.553 184.034C600.046 166.74 427.448 167.097 427.448 167.097Z" fill="url(#paint1_linear_332_63)"/>
<path d="M1488.98 132.258V270.076L-4 282.91V175.421C-4 175.421 513.158 148.965 552.201 151.593C594.493 154.439 764.371 144.647 731.368 154.493C679.478 169.976 899.058 147.787 1022.9 148.416C1118.61 148.906 1339.06 141.37 1335.11 136.315C1327.33 126.36 1451.45 120.543 1407.66 134.098C1389.57 139.697 1488.98 132.258 1488.98 132.258Z" fill="url(#paint2_linear_332_63)"/>
<path d="M398.586 155.843L-4 166.221V105.374C-4 105.374 63.6621 95.9767 87.1717 95.3605C114.944 94.627 211.401 111.116 225.723 104.049C240.045 96.9826 235.506 99.8118 264.221 95.5617C292.937 91.3116 398.586 155.843 398.586 155.843Z" fill="url(#paint3_linear_332_63)"/>
<path d="M1488.98 157.1V171.393L1359.86 167.621L1326.33 167.813C1326.33 167.813 1346.52 150.549 1360.94 160.126C1361.92 156.84 1369.53 145.595 1375.15 147.208C1378.21 148.089 1379.55 157.578 1379.55 157.578C1381.18 155.304 1383.27 153.402 1385.68 151.999C1388.1 150.597 1390.79 149.725 1393.57 149.442C1401.68 148.604 1413.58 156.719 1413.58 156.719C1413.58 156.719 1419.16 148.382 1424.86 156.719C1426.65 153.91 1445.46 148.382 1447.76 156.719C1456.56 152.259 1468.39 163.618 1468.39 163.618C1468.39 163.618 1475.7 154.296 1482.77 160.684C1484.09 158.404 1487.31 156.714 1488.98 157.1Z" fill="url(#paint4_linear_332_63)"/>
<path d="M1297.8 169.775C1297.8 169.775 1297.39 153.873 1293.17 151.752C1288.96 149.631 1279.7 169.775 1279.7 169.775H1297.8Z" fill="url(#paint5_linear_332_63)"/>
<path d="M245.993 159.892C245.993 159.892 246.412 143.994 250.604 141.868C254.795 139.743 264.079 159.892 264.079 159.892H245.993Z" fill="url(#paint6_linear_332_63)"/>
<path d="M270.999 164.942C270.999 164.942 271.146 140.142 272.608 136.86C274.071 133.578 277.282 164.942 277.282 164.942H270.999Z" fill="url(#paint7_linear_332_63)"/>
<path d="M1275.91 171.695C1275.91 171.695 1278.42 156.136 1275.91 153.625C1273.39 151.115 1272.22 171.162 1271.1 171.192C1269.98 171.221 1275.91 171.695 1275.91 171.695Z" fill="url(#paint8_linear_332_63)"/>
<path d="M1219.58 175.006C1219.58 175.006 1222.09 159.447 1219.58 156.937C1217.06 154.426 1215.89 174.474 1214.77 174.503C1213.65 174.532 1219.58 175.006 1219.58 175.006Z" fill="url(#paint9_linear_332_63)"/>
<path d="M1223.67 170.295C1214.12 170.742 1204.68 171.241 1195.34 171.791C1176.42 180.467 1147.64 197.715 1135.95 225.961L1160.26 227.637C1172.15 196.642 1204.63 178.548 1223.67 170.295Z" fill="url(#paint10_linear_332_63)"/>
<path d="M1137.13 175.873C1127.02 176.692 1117.12 177.551 1107.43 178.451C1091.5 187.484 1073.35 201.328 1063.39 220.927L1087.53 222.604C1098.24 200.108 1119.75 184.981 1137.13 175.873Z" fill="url(#paint11_linear_332_63)"/>
<path d="M1166.47 173.652C1156.53 174.348 1146.75 175.088 1137.13 175.873C1119.76 184.981 1098.25 200.108 1087.54 222.599L1111.73 224.276C1123.01 198.889 1148.1 182.63 1166.47 173.652Z" fill="url(#paint12_linear_332_63)"/>
<path d="M1195.36 171.791C1185.6 172.367 1175.98 172.987 1166.47 173.652C1148.1 182.63 1123.01 198.889 1111.72 224.28L1135.97 225.957C1147.66 197.715 1176.43 180.467 1195.36 171.791Z" fill="url(#paint13_linear_332_63)"/>
<path d="M1077.49 181.41C1067.17 182.478 1057.15 183.57 1047.44 184.688C1035.37 192.824 1023.26 203.675 1015.27 217.612L1039.31 219.288C1048.35 202.518 1063.35 190.099 1077.49 181.41Z" fill="url(#paint14_linear_332_63)"/>
<path d="M1107.43 178.451C1097.2 179.398 1087.22 180.376 1077.49 181.385C1063.35 190.095 1048.35 202.514 1039.31 219.255L1063.39 220.931C1073.35 201.328 1091.49 187.484 1107.43 178.451Z" fill="url(#paint15_linear_332_63)"/>
<path d="M1047.44 184.667C1037.03 185.863 1027 187.067 1017.37 188.28C1007.55 195.577 998.088 204.723 991.29 215.943L1015.27 217.62C1023.26 203.654 1035.37 192.803 1047.44 184.667Z" fill="url(#paint16_linear_332_63)"/>
<path d="M885.1 208.567L919.68 210.964C922.176 207.492 924.912 204.199 927.87 201.11C900.579 205.519 885.1 208.567 885.1 208.567Z" fill="url(#paint17_linear_332_63)"/>
<path d="M957.511 196.499C946.505 198.142 936.588 199.693 927.87 201.11C924.912 204.203 922.175 207.5 919.68 210.977L943.491 212.628C947.535 206.736 952.239 201.324 957.511 196.499Z" fill="url(#paint18_linear_332_63)"/>
<path d="M1017.37 188.28C1006.86 189.605 996.856 190.919 987.367 192.224C979.881 198.398 972.856 205.712 967.361 214.267L991.29 215.943C998.097 204.723 1007.55 195.577 1017.37 188.28Z" fill="url(#paint19_linear_332_63)"/>
<path d="M987.367 192.224C976.7 193.687 966.728 195.12 957.511 196.491C952.24 201.315 947.536 206.725 943.491 212.615L967.361 214.267C972.856 205.721 979.881 198.398 987.367 192.224Z" fill="url(#paint20_linear_332_63)"/>
<path d="M1380.74 167.336C1372.65 167.336 1364.3 167.336 1355.76 167.336C1337.91 174.105 1292.31 195.12 1282.44 236.108L1307.01 237.81C1316.01 195.69 1362.67 174.184 1380.74 167.336Z" fill="url(#paint21_linear_332_63)"/>
<path d="M1477.64 168.488C1471.7 168.358 1463.62 168.195 1453.83 168.031C1433.85 175.878 1386.95 198.813 1381.01 242.953L1405.77 244.667C1410.6 200.247 1456.79 176.858 1477.64 168.488Z" fill="url(#paint22_linear_332_63)"/>
<path d="M1429.75 167.688C1422.15 167.595 1413.99 167.516 1405.4 167.453C1386.86 174.524 1339.67 196.512 1331.63 239.545L1356.3 241.255C1363.31 197.564 1410.55 175.098 1429.75 167.688Z" fill="url(#paint23_linear_332_63)"/>
<path d="M1488.98 174.65V168.782C1488.98 168.782 1484.93 168.668 1477.64 168.505C1456.79 176.888 1410.61 200.263 1405.77 244.684L1430.56 246.402C1433.69 209.095 1465.84 186.327 1488.98 174.65Z" fill="url(#paint24_linear_332_63)"/>
<path d="M1453.83 168.031C1446.66 167.91 1438.58 167.792 1429.75 167.688C1410.55 175.098 1363.31 197.564 1356.3 241.239L1381.03 242.953C1386.95 198.813 1433.85 175.878 1453.83 168.031Z" fill="url(#paint25_linear_332_63)"/>
<path d="M1488.98 190.33V174.65C1465.84 186.327 1433.69 209.095 1430.56 246.386L1455.4 248.108C1456.91 222.486 1472.08 203.587 1488.98 190.33Z" fill="url(#paint26_linear_332_63)"/>
<path d="M1405.4 167.453C1397.52 167.394 1389.28 167.352 1380.74 167.336C1362.67 174.184 1316.01 195.69 1307.01 237.818L1331.63 239.529C1339.67 196.499 1386.86 174.524 1405.4 167.453Z" fill="url(#paint27_linear_332_63)"/>
<path d="M1278.26 168.358C1273.3 168.478 1268.34 168.618 1263.4 168.777C1259.36 168.895 1255.34 169.026 1251.33 169.171C1232.49 176.959 1196.48 195.774 1184.59 229.343L1208.99 231.02C1220.64 195.167 1259.79 175.727 1278.26 168.358Z" fill="url(#paint28_linear_332_63)"/>
<path d="M1251.33 169.159C1242.03 169.486 1232.81 169.864 1223.67 170.295C1204.62 178.548 1172.14 196.642 1160.24 227.646L1184.58 229.322C1196.48 195.762 1232.49 176.946 1251.33 169.159Z" fill="url(#paint29_linear_332_63)"/>
<path d="M1304.56 167.826C1295.81 167.968 1287.02 168.144 1278.25 168.358C1259.78 175.727 1220.62 195.183 1208.97 231.024L1233.41 232.701C1244.64 194.861 1286.47 174.863 1304.56 167.826Z" fill="url(#paint30_linear_332_63)"/>
<path d="M1330.39 167.499C1321.87 167.579 1313.25 167.683 1304.58 167.826C1286.47 174.863 1244.64 194.861 1233.42 232.717L1257.9 234.415C1268.51 194.848 1312.52 174.331 1330.39 167.499Z" fill="url(#paint31_linear_332_63)"/>
<path d="M1355.76 167.344C1347.46 167.369 1338.99 167.419 1330.39 167.499C1312.52 174.331 1268.51 194.848 1257.9 234.415L1282.44 236.117C1292.31 195.129 1337.91 174.113 1355.76 167.344Z" fill="url(#paint32_linear_332_63)"/>
<path style="mix-blend-mode:multiply" d="M885.1 208.567C885.1 208.567 1055.86 174.985 1263.4 168.748C1371.52 165.504 1488.98 168.748 1488.98 168.748V250.439L885.1 208.567Z" fill="url(#paint33_linear_332_63)"/>
<path d="M225.723 153.424L41.0075 148.038L-4 148.298V133.628C10.54 129.764 27.1422 127.161 42.3697 129.068C43.6774 124.654 54.0008 118.476 61.5538 120.639C65.6614 121.821 67.0487 128.288 67.0487 128.288C67.0487 128.288 73.4951 124.969 86.2706 123.636C97.1683 122.5 105.761 129.118 105.761 129.118C105.761 129.118 105.761 119.964 106.213 118.443C108.204 111.736 110.153 126.993 110.153 126.993C110.153 126.993 115.183 122.63 119.932 128.464C122.329 124.692 137.406 120.677 145.424 126.717C157.256 120.735 168.791 136.026 168.791 136.026C174.806 128.816 182.937 141.424 183.189 141.734C183.147 141.487 183.088 133.263 184.61 132.97C186.131 132.677 186.71 142.669 186.71 142.669C186.71 142.669 193.868 126.473 206.895 145.184C217.789 139.81 225.723 153.424 225.723 153.424Z" fill="url(#paint34_linear_332_63)"/>
<path d="M-4 145.192C-4 145.192 229.315 150.7 344.923 159.954C576.998 178.539 903.882 219.674 931.466 278.232C937.502 291.037 -4 329.745 -4 329.745V145.192Z" fill="url(#paint35_linear_332_63)"/>
<path d="M156.95 260.716C233.117 234.226 356.693 192.539 312.222 157.607C268.467 154.791 215.354 152.397 165.245 150.482C227.509 186.738 97.0132 232.751 16.7182 258.017C9.23231 260.372 2.32625 262.878 -4 265.532V329.745C-4 329.745 21.0773 328.714 63.0082 326.932C81.5762 301.285 110.845 276.744 156.95 260.716Z" fill="url(#paint36_linear_332_63)"/>
<path d="M931.466 278.232C911.28 235.383 730.814 201.864 544.514 179.683C475.917 215.973 457.576 274.041 453.053 309.408C691.935 297.986 934.538 284.746 931.466 278.232Z" fill="url(#paint37_linear_332_63)"/>
<path d="M544.514 179.675C533.896 178.415 523.268 177.188 512.63 175.995C493.274 183.188 473.88 189.869 456.859 195.787C378.635 222.993 348.796 274.72 337.663 314.823C375.307 313.096 414.132 311.281 453.053 309.42C457.576 274.041 475.917 215.973 544.514 179.675Z" fill="url(#paint38_linear_332_63)"/>
<path d="M456.859 195.787C473.88 189.869 493.274 183.188 512.63 175.995C454.914 169.532 397.488 164.167 344.923 159.954C334.838 159.15 323.857 158.37 312.23 157.62C356.684 192.539 233.109 234.222 156.95 260.716C110.845 276.744 81.5762 301.285 63.0082 326.932C125.879 324.262 226.65 319.907 337.663 314.811C348.796 274.72 378.635 222.993 456.859 195.787Z" fill="url(#paint39_linear_332_63)"/>
<path d="M675.794 213.068C675.794 213.068 678.141 200.758 696.332 200.951C691.369 202.258 681.343 203.273 677.889 214.12C674.436 224.968 675.794 213.068 675.794 213.068Z" fill="#FAE1B5"/>
<path d="M173.368 251.269C173.368 251.269 166.591 221.086 144.766 225.42C129.145 228.509 124.928 247.346 124.928 247.346C124.928 247.346 118.88 241.322 108.091 244.621C97.3024 247.92 89.9339 261.01 89.9339 261.01L173.368 251.269Z" fill="url(#paint40_linear_332_63)"/>
<path d="M365.583 207.313C365.583 207.313 361.743 197.757 355.804 212.846C349.865 227.935 350.984 229.41 350.984 229.41C350.984 229.41 340.954 218.743 332.495 221.078C324.037 223.413 313.932 238.636 313.932 238.636C313.932 238.636 308.571 235.174 301.705 246.696C339.009 241.222 373.622 238.636 373.622 238.636C373.622 238.636 372.88 220.965 365.583 207.313Z" fill="url(#paint41_linear_332_63)"/>
<path d="M245.058 216.547L263.492 230.123L264.506 243.121L221.322 246.696L219.151 233.816L245.058 216.547Z" fill="#ADA08E"/>
<path d="M210.739 247.102L210.29 231.565L199.489 218.534L168.104 221.891L175.648 250.057L210.739 247.102Z" fill="#F9D59A"/>
<path d="M154.582 237.672L166.712 220.315L174.5 219.318L161.41 237.383L154.582 237.672Z" fill="#33211B"/>
<path d="M168.104 221.891L178.968 234.566L179.517 250.745L162.806 251.738L159.616 236.813L168.104 221.891Z" fill="#ADA08E"/>
<path d="M213.4 232.118L180.917 236.427L166.712 220.315L199.64 216.09L213.4 232.118Z" fill="#87331C"/>
<path d="M214.876 233.292L244.178 213.835L268.379 229.859L266.497 232.122L245.058 216.547L215.84 236.989L214.876 233.292Z" fill="#33211B"/>
<path d="M232.777 232.856L229.202 233.363L230.325 240.094L233.213 238.644L232.777 232.856Z" fill="#33211B"/>
<path d="M249.644 231.913L250.448 238.275L253.533 236.972L252.716 232.219L249.644 231.913Z" fill="#33211B"/>
<path d="M571.775 194.58L587.506 206.165L588.373 217.26L551.518 220.307L549.665 209.317L571.775 194.58Z" fill="#ADA08E"/>
<path d="M546.015 208.868L571.021 192.266L591.676 205.943L590.071 207.871L571.775 194.58L546.84 212.024L546.015 208.868Z" fill="#33211B"/>
<path d="M570.836 202.258L571.519 207.686L574.156 206.576L573.456 202.518L570.836 202.258Z" fill="#33211B"/>
<path d="M173.72 250.38L172.492 238.108L169.139 237.789L170.749 251.264L173.72 250.38Z" fill="#33211B"/>
<path d="M187.783 238.942L188.403 243.573L190.784 242.953L191.236 238.204L187.783 238.942Z" fill="#87331C"/>
<path d="M1488.98 220.495V391.153H-4V268.856C-4 268.856 167.064 247.731 501.514 219.473C632.19 208.432 701.328 211.706 806.025 206.353L807.123 206.299C807.962 206.257 808.838 206.211 809.697 206.173L812.245 206.048C859.608 203.767 910.744 204.308 962.181 204.886C1379.45 209.593 1488.98 220.495 1488.98 220.495Z" fill="url(#paint42_linear_332_63)"/>
<path d="M815.447 238.28C805.983 259.79 682.848 295.22 753.083 333.685C755.003 334.737 762.279 364.701 768.965 390.558L769.116 391.153H739.876C721.89 389.899 704.084 386.773 686.746 381.827C654.824 372.606 634.282 359.483 624.411 353.17C623.698 352.714 623.045 352.294 622.437 351.913C613.673 346.368 599.384 332.524 588.692 315.247C579.785 300.836 570.606 279.406 577.45 259.174C584.4 238.636 600.629 225.814 613.019 218.693C617.538 216.107 622.231 213.839 627.064 211.903L631.113 211.76C683.036 209.954 728.174 209.686 781.136 207.502C800.903 215.026 820.871 225.936 815.447 238.28Z" fill="url(#paint43_linear_332_63)"/>
<path d="M1116.66 245.715C1110.92 220.08 1043.59 205.436 1007.34 205.436C992.697 205.243 977.644 205.06 962.181 204.886C910.752 204.308 859.621 203.767 812.245 206.048L809.697 206.173C808.859 206.211 807.983 206.257 807.123 206.299L806.025 206.353C797.504 206.773 789.226 207.167 781.124 207.498C800.903 215.042 820.875 225.94 815.447 238.275C805.983 259.79 682.848 295.22 753.083 333.685C755.02 334.745 762.392 365.162 769.116 391.153H1028.98C1039.41 356.612 1050.88 320.595 1054.24 317.451C1066.09 306.377 1122.33 271.073 1116.66 245.715Z" fill="url(#paint44_linear_332_63)"/>
<path d="M1361.35 257.455C1377.07 237.248 1251.33 237.248 1202.57 226.258C1179.66 221.09 1192.17 214.569 1211.86 209.103C1154.91 207.745 1087.29 206.475 1007.32 205.436C1054.43 211.748 1084.83 222.415 1084.54 236.989C1084.04 262.975 922.563 259.362 986.336 345.546C989.069 349.247 1039.4 356.603 1028.97 391.145H1276.74C1270.94 363.942 1265.43 337.423 1263.71 335.311C1210.3 270.306 1346.61 276.396 1361.35 257.455Z" fill="url(#paint45_linear_332_63)"/>
<path d="M1488.98 220.495C1488.98 220.495 1425.66 214.208 1211.86 209.103C1192.16 214.552 1179.66 221.09 1202.57 226.259C1251.33 237.248 1377.07 237.248 1361.35 257.455C1346.61 276.396 1210.3 270.306 1263.72 335.319C1265.46 337.415 1270.96 363.951 1276.76 391.153H1488.98V220.495Z" fill="url(#paint46_linear_332_63)"/>
<path d="M910.731 415.291H-4V295.132C26.6979 287.453 81.178 276.996 101.494 276.304C176.726 273.756 107.144 326.408 183.189 329.745C255.005 332.892 341.788 303.003 383.979 304.944C463.372 308.599 424.434 374.316 499.347 367.04C574.261 359.764 908.979 411.825 910.731 415.291Z" fill="url(#paint47_linear_332_63)"/>
<path d="M724.049 312.866C724.049 312.866 720.151 317.258 713.571 336.388C708.587 350.903 736.85 337.62 751.914 340.051C766.978 342.482 750.904 326.006 749.399 324.061C744.554 317.828 738.3 299.939 724.049 312.866Z" fill="url(#paint48_linear_332_63)"/>
<path d="M711.085 316.894C713.642 310.493 720.659 301.453 728.756 297.873C736.854 294.294 761.604 312.099 755.12 313.528C742.353 316.34 705.704 330.369 711.085 316.894Z" fill="url(#paint49_linear_332_63)"/>
<path d="M716.857 300.447C718.533 296.641 723.144 291.267 728.438 289.13C733.732 286.992 749.969 297.588 745.719 298.439C737.349 300.111 713.328 308.456 716.857 300.447Z" fill="url(#paint50_linear_332_63)"/>
<path d="M732.143 267.619C730.831 271.01 729.209 278.249 726.275 282.65C723.341 287.051 716.216 292.118 730.047 290.471C743.879 288.824 736.754 285.29 734.696 280.889C732.638 276.488 735.597 258.687 732.143 267.619Z" fill="url(#paint51_linear_332_63)"/>
<path d="M1156.88 299.441C1156.88 299.441 1152.98 303.833 1146.4 322.963C1141.42 337.474 1169.68 324.191 1184.74 326.626C1199.81 329.061 1183.74 312.577 1182.23 310.632C1177.39 304.403 1171.14 286.51 1156.88 299.441Z" fill="url(#paint52_linear_332_63)"/>
<path d="M1143.92 303.464C1146.48 297.064 1153.49 288.027 1161.59 284.444C1169.68 280.86 1194.44 298.674 1187.95 300.103C1175.19 302.915 1138.54 316.944 1143.92 303.464Z" fill="url(#paint53_linear_332_63)"/>
<path d="M1149.69 287.034C1151.36 283.228 1155.97 277.851 1161.27 275.717C1166.56 273.584 1182.8 284.18 1178.55 285.026C1170.18 286.686 1146.16 295.027 1149.69 287.034Z" fill="url(#paint54_linear_332_63)"/>
<path d="M1164.99 254.194C1163.68 257.581 1162.05 264.82 1159.12 269.221C1156.18 273.622 1149.06 278.689 1162.87 277.042C1176.67 275.394 1169.57 271.861 1167.52 267.46C1165.46 263.059 1168.43 245.258 1164.99 254.194Z" fill="url(#paint55_linear_332_63)"/>
<path d="M795.752 299.994C795.752 299.994 790.991 305.376 782.972 328.793C776.891 346.561 811.394 330.302 829.782 333.278C848.17 336.254 828.55 316.093 826.706 313.7C820.792 306.072 813.163 284.167 795.752 299.994Z" fill="url(#paint56_linear_332_63)"/>
<path d="M785.693 302.794C787.91 294.96 794 283.895 801.025 279.506C808.05 275.118 829.526 296.926 823.91 298.678C812.832 302.123 781.019 319.308 785.693 302.794Z" fill="url(#paint57_linear_332_63)"/>
<path d="M790.01 283.798C792.885 280.864 794.465 271.643 798.598 269.828C802.731 268.013 823.7 279.422 820.393 280.139C813.876 281.552 784.485 289.478 790.01 283.798Z" fill="url(#paint58_linear_332_63)"/>
<path d="M803.087 245.422C801.947 249.571 797.252 263.374 794.704 268.764C792.156 274.154 794.029 273.546 806.021 271.526C818.013 269.506 807.802 265.914 806.021 260.528C804.24 255.142 806.084 234.486 803.087 245.422Z" fill="url(#paint59_linear_332_63)"/>
<path d="M1203.13 292.902C1203.13 292.902 1206.51 298.28 1212.21 321.697C1216.54 339.465 1192 323.206 1178.93 326.182C1165.86 329.158 1179.81 308.997 1181.12 306.604C1185.3 298.959 1190.73 277.054 1203.13 292.902Z" fill="url(#paint60_linear_332_63)"/>
<path d="M1214.35 297.81C1212.14 289.976 1206.05 278.911 1199.02 274.527C1191.99 270.143 1170.52 291.946 1176.14 293.694C1187.2 297.14 1219.03 314.312 1214.35 297.81Z" fill="url(#paint61_linear_332_63)"/>
<path d="M1209.35 277.67C1206.14 273.387 1204.38 260.033 1199.78 257.426C1195.17 254.819 1175.31 279.221 1179 280.252C1186.26 282.302 1215.51 285.898 1209.35 277.67Z" fill="url(#paint62_linear_332_63)"/>
<path d="M1199.59 234.461C1200.72 238.611 1201.72 252.602 1204.26 257.988C1206.81 263.374 1208.64 262.598 1196.67 260.565C1184.69 258.532 1194.89 254.953 1196.67 249.567C1198.45 244.181 1196.59 223.526 1199.59 234.461Z" fill="url(#paint63_linear_332_63)"/>
<path d="M746.683 318.654C746.683 318.654 750.363 261.303 770.922 262.783C791.481 264.262 809.986 336.233 796.716 339.976C783.446 343.719 744.017 356.167 746.683 318.654Z" fill="url(#paint64_linear_332_63)"/>
<path d="M861.478 256.797C891.794 259.857 899.934 284.817 902.055 292.977C903.312 272.075 938.298 264.975 949.154 295.249C960.01 325.524 961.728 334.02 932.241 338.195C902.755 342.369 819.748 341.77 809.927 338.945C800.107 336.12 831.157 253.742 861.478 256.797Z" fill="url(#paint65_linear_332_63)"/>
<path d="M1254.3 240.715C1281 237.018 1296.12 267.435 1297.51 273.32C1298.77 252.413 1329.21 253.457 1340.07 283.731C1350.93 314.006 1352.64 322.498 1323.16 326.672C1293.68 330.847 1210.67 330.248 1200.84 327.423C1191.02 324.598 1206.14 247.379 1254.3 240.715Z" fill="url(#paint66_linear_332_63)"/>
<path d="M980.677 248.766C1010.02 248.515 1018.96 297.387 1018.96 297.387C1018.96 297.387 1027.72 232.898 1043.48 236.272C1049.55 237.571 1051.14 262.745 1051.14 262.745C1051.14 262.745 1060.43 247.79 1076.19 251.713C1091.95 255.636 1112.91 273.165 1114.78 290.781C1131.25 274.72 1167.04 303.837 1163.74 329.694C1100.92 338.71 942.095 345.517 932.241 338.186C922.387 330.855 951.342 249.018 980.677 248.766Z" fill="url(#paint67_linear_332_63)"/>
<path d="M1351.73 268.093C1381.07 267.842 1386.24 285.039 1386.24 285.039C1386.24 285.039 1387.87 244.546 1403.62 247.916C1409.69 249.219 1415.18 268.873 1415.18 268.873C1415.18 268.873 1433.02 261.571 1449.25 262.083C1472.07 262.799 1479.57 264.526 1488.98 273.932V343.275C1426.17 352.29 1306.13 351.657 1296.28 344.31C1286.43 336.962 1322.39 268.349 1351.73 268.093Z" fill="url(#paint68_linear_332_63)"/>
<path d="M854.495 329.933L857.022 320.18L850.291 306.755L857.429 317.514L863.104 299.692L860.53 313.666L868.913 304.86L860.635 316.743L859.604 329.933H854.495Z" fill="#33211B"/>
<path d="M969.633 329.933L972.16 320.18L965.429 306.755L972.563 317.514L978.242 299.692L975.664 313.666L984.051 304.86L975.773 316.743L974.738 329.933H969.633Z" fill="#33211B"/>
<path d="M1246.98 321.773L1249.5 312.019L1242.77 298.598L1249.9 309.353L1255.58 291.531L1253.01 305.51L1261.39 296.699L1253.12 308.582L1252.08 321.773H1246.98Z" fill="#33211B"/>
<path d="M920.074 331.321L922.601 321.567L915.87 308.142L923.003 318.901L928.683 301.079L926.105 315.054L926.214 318.13L925.179 331.321H920.074Z" fill="#33211B"/>
<path d="M1075.29 334.502L1077.82 324.748L1071.09 311.327L1078.22 322.087L1083.9 304.261L1081.33 318.239L1081.43 321.316L1080.4 334.502H1075.29Z" fill="#33211B"/>
<path d="M1026.91 332.813L1029.44 323.063L1035.52 302.576L1033.05 319.627L1032.02 332.813H1026.91Z" fill="#33211B"/>
<path d="M1051.9 331.321L1054.43 321.567L1060.51 301.079L1058.04 318.13L1057.01 331.321H1051.9Z" fill="#33211B"/>
<path d="M1122.7 336.891L1125.23 327.142L1131.31 306.654L1128.84 323.705L1127.81 336.891H1122.7Z" fill="#33211B"/>
<path d="M1351.45 331.321L1353.98 321.567L1360.06 301.079L1357.59 318.13L1356.56 331.321H1351.45Z" fill="#33211B"/>
<path d="M775.885 334.104L774.196 324.354L767.468 310.929L774.602 321.689L772.553 298.292L777.704 317.841L777.809 320.917L780.738 334.104H775.885Z" fill="#33211B"/>
<path d="M866.444 378.939C852.177 381.345 837.309 383.86 821.839 386.484C809.86 388.521 798.388 390.074 787.424 391.145H712.313C666.627 385.864 633.829 370.661 611.242 352.165C575.585 322.975 565.371 285.58 570.002 266.081C578.708 229.406 612.038 215.784 626.331 211.551L636.39 211.207C625.17 215.009 607.427 223.962 593.151 243.665C572.852 271.693 586.894 317.539 630.983 349.767C662.57 372.858 709.576 388.957 770.419 386.501C800.979 385.26 833.676 382.531 866.444 378.939Z" fill="url(#paint69_linear_332_63)"/>
<path d="M783.375 391.153C794.574 390.393 805.996 389.049 817.64 387.121L817.325 385.864C801.332 388.552 785.172 390.122 768.96 390.562C766.345 390.635 763.769 390.671 761.231 390.671C685.56 390.671 641.776 362.664 625.362 352.165C624.65 351.712 623.988 351.289 623.38 350.907C623.279 350.84 623.187 350.786 623.091 350.714C614.435 345.136 600.516 331.58 590.071 314.668C581.29 300.455 572.232 279.355 578.938 259.517C585.766 239.348 601.698 226.77 613.857 219.766C619.37 216.615 625.14 213.937 631.105 211.76L632.274 211.341L628.12 211.484L627.056 211.903C622.222 213.839 617.529 216.107 613.01 218.693C600.625 225.818 584.391 238.615 577.446 259.174C570.597 279.406 579.781 300.836 588.683 315.247C598.797 331.593 612.155 344.892 620.995 350.966C621.49 351.301 621.967 351.62 622.433 351.917L624.403 353.175C634.269 359.487 654.811 372.627 686.737 381.827C704.079 386.777 721.89 389.904 739.88 391.157L783.375 391.153Z" fill="#89A222"/>
<path d="M922.953 391.153H566.347C497.491 385.252 455.836 377.066 506.284 366.474C527.66 362.869 567.307 357.571 611.254 352.156C617.751 351.36 624.344 350.555 630.991 349.759C707.305 340.563 789.947 331.736 809.923 331.015C958.216 325.754 1307.49 339.209 1313.66 341.296C1317.55 342.608 979.726 380.176 922.953 391.153Z" fill="url(#paint70_linear_332_63)"/>
<path d="M648.499 347.667C648.499 347.667 706.123 340.336 730.751 341.296C759.735 342.428 808.712 344.498 849.633 374.987C906.275 378.855 871.893 370.225 871.893 370.225C871.893 370.225 843.878 340.68 767.326 334.447C718.492 330.47 648.499 347.667 648.499 347.667Z" fill="url(#paint71_linear_332_63)"/>
<path d="M670.693 342.809C670.693 342.809 722.54 333.685 772.749 340.525C803.238 344.679 836.258 354.918 849.633 367.04C852.6 368.025 853.405 367.04 853.405 367.04C853.405 367.04 835.08 346.565 770.637 338.19C721.912 331.882 670.693 342.809 670.693 342.809Z" fill="url(#paint72_linear_332_63)"/>
<path d="M1116.66 329.745C1115.71 329.984 1034.75 350.702 954.414 361.369C1063.29 339.096 1115.78 329.9 1116.66 329.745Z" fill="url(#paint73_linear_332_63)"/>
<path d="M41.5859 169.729C29.1667 159.368 46.3557 151.706 63.3812 147.041C23.0849 145.834 -4 145.192 -4 145.192V207.867C22.4353 197.296 55.1786 181.062 41.5859 169.729Z" fill="url(#paint74_linear_332_63)"/>
<path d="M165.237 150.494C127.904 149.065 92.2433 147.908 63.3854 147.041C46.3725 151.706 29.1834 159.368 41.59 169.729C55.1828 181.046 22.4395 197.296 -3.99582 207.871V265.532C2.34719 262.892 9.25325 260.386 16.7224 258.017C96.988 232.751 227.509 186.738 165.237 150.494Z" fill="url(#paint75_linear_332_63)"/>
<path d="M700.544 157.821C708.629 158.177 657.594 139.718 630.644 154.56C603.693 169.402 593.629 154.141 579.697 159.527C546.706 172.244 669.385 156.45 700.544 157.821Z" fill="url(#paint76_linear_332_63)"/>
<path d="M532.3 155.78C532.3 155.78 527.317 143.331 502.684 149.074C491.736 151.622 500.11 156.471 447.898 159.242C436.296 159.845 532.3 155.78 532.3 155.78Z" fill="url(#paint77_linear_332_63)"/>
<path d="M746.151 178.682C746.151 178.682 754.047 167.939 776.626 169.356C799.206 170.772 805.614 178.682 805.614 178.682H746.151Z" fill="url(#paint78_linear_332_63)"/>
<path d="M1047.46 156.635C1047.46 156.635 1055.36 145.892 1077.93 147.309C1100.51 148.726 1106.92 156.635 1106.92 156.635H1047.46Z" fill="url(#paint79_linear_332_63)"/>
<path d="M926.126 159.057C926.126 159.057 930.175 153.55 941.743 154.279C953.312 155.009 956.602 159.057 956.602 159.057H926.126Z" fill="url(#paint80_linear_332_63)"/>
<path d="M820.389 167.055C820.389 167.055 823.101 156.015 855.082 162.059C876.91 166.187 872.325 158.563 877.166 158.999C895.885 160.675 925.141 168.404 925.141 168.404L820.389 167.055Z" fill="url(#paint81_linear_332_63)"/>
<path d="M506.288 227.705C506.288 227.705 455.006 235.731 429.191 242.278C403.377 248.825 321.577 261.559 350.472 248.456C379.368 235.354 501.703 225.634 506.288 227.705Z" fill="url(#paint82_linear_332_63)"/>
<path d="M366.865 220.981L368.269 242.186L379.699 240.618C379.154 231.925 378.379 219.477 377.83 210.49L366.865 220.981Z" fill="#F9D59A"/>
<path d="M412.904 217.293L392.412 196.562L377.838 210.503C378.387 219.489 379.163 231.938 379.708 240.631L415.439 235.727L412.904 217.293Z" fill="#ADA08E"/>
<path d="M389.298 223.672L390.446 239.156L393.686 238.711L392.437 223.32L389.298 223.672Z" fill="#33211B"/>
<path d="M392.412 196.562L377.067 221.614L362.741 222.562L381.464 199.182L393.112 195.032L415.431 217.293H412.904L392.412 196.562Z" fill="#33211B"/>
<path d="M408.037 221.614V237.471L438.635 234.243V199.765L408.037 221.614Z" fill="#F9D59A"/>
<path d="M482.129 209.807L459.407 184.931L438.635 199.765V234.243L483.261 229.54L482.129 209.807Z" fill="#ADA08E"/>
<path d="M460.208 214.12L460.946 234.243L465.866 233.036V216.861L460.208 214.12Z" fill="#F9D59A"/>
<path d="M504.595 213.605L506.288 227.705L465.866 233.036V214.12L504.595 213.605Z" fill="#ADA08E"/>
<path d="M459.127 213.227L500.982 211.199L509.092 213.227L463.745 217.042L459.127 213.227Z" fill="#33211B"/>
<path d="M466.965 183.158L420.679 193.167L401.893 221.614L435.705 220.101L460.95 190.384L467.002 183.204L466.965 183.158Z" fill="#87331C"/>
<path d="M467.002 183.204L460.95 190.384L462.002 189.144L483.261 214.087L488.383 209.807L467.002 183.204Z" fill="#33211B"/>
<path d="M521.767 221.602L561.9 219.779L559.804 201.898L521.52 203.99L521.767 221.602Z" fill="#F9D59A"/>
<path d="M539.694 210.503V220.923L542.406 220.449V210.503H539.694Z" fill="#87331C"/>
<path d="M565.241 204.903L512.63 209.304L513.741 203.876L515.178 196.864L560.052 190.099L565.241 204.903Z" fill="#87331C"/>
<path d="M482.498 221.405L485.013 221.149L484.736 218.538L482.171 218.714L482.498 221.405Z" fill="#33211B"/>
<path d="M493.71 217.926L491.199 218.098L491.903 220.449L494.028 220.235L493.71 217.926Z" fill="#33211B"/>
<path d="M473.83 219.288L471.106 219.473V222.562L473.939 222.277L473.83 219.288Z" fill="#33211B"/>
<path d="M499.347 217.54L499.741 219.653L501.514 219.473V217.389L499.347 217.54Z" fill="#33211B"/>
<path d="M459.127 201.022V204.974L463.037 204.484L462.4 200.682L459.127 201.022Z" fill="#33211B"/>
<path d="M414.329 223.32H412.459V227.705H414.329V223.32Z" fill="#87331C"/>
<path d="M426.702 222.863H424.598V226.933H426.702V222.863Z" fill="#87331C"/>
<path d="M446.812 220.022L446.821 224.657L449.688 224.23V219.707L446.812 220.022Z" fill="#33211B"/>
<path d="M528.184 211.199V215.637H530.85L530.288 210.503L528.184 211.199Z" fill="#87331C"/>
<path d="M554.431 209.589L551.204 210.503V214.12L554.431 214.087V209.589Z" fill="#87331C"/>
<path d="M388.128 211.639L388.25 215.512L390.463 215.067L390.073 211.199L388.128 211.639Z" fill="#33211B"/>
<path d="M396.628 210.444L396.75 214.321L398.963 213.873L398.573 210.008L396.628 210.444Z" fill="#33211B"/>
<path d="M375.055 226.351H373.978L374.28 230.886H375.474L375.055 226.351Z" fill="#87331C"/>
<path d="M506.288 223.325C506.288 223.325 549.833 221.011 554.431 224.662C562.852 231.368 506.288 263.642 570.329 289.788C571.976 281.594 569.072 280.454 569.072 280.454C569.072 280.454 550.126 273.747 544.51 263.072C538.893 252.396 551.271 239.558 556.812 233.04C569.168 218.521 545.65 218.521 506.288 223.325Z" fill="url(#paint83_linear_332_63)"/>
<path d="M364.807 279.837L363.403 274.996L362.774 286.502L361.722 282.361L360.234 286.078L360.796 281.237L352.652 283.132L351.881 286.485L351.223 283.048L349.844 286.485L350.481 281.644V280.026C350.481 279.821 348.653 281.434 346.968 282.906C346.883 283.514 346.616 284.083 346.203 284.537C345.789 284.992 345.248 285.311 344.651 285.454V281.128L342.697 279.821L345.246 280.659L344.848 279.288L345.648 279.816L347.325 277.281L350.091 273.152H362.305L363.608 274.565L363.726 274.69L364.807 279.837Z" fill="#33211B"/>
<path d="M253.102 311.709L251.781 307.153L251.697 306.864V307.237L251.086 318.369L250 314.236L248.525 317.954L249.082 313.113L240.238 314.278L240.188 318.39L238.763 313.582L236.935 317.862L237.401 311.449L236.143 309.425C234.529 306.843 231.16 307.476 231.16 307.476L230.107 306.637L233.691 303.913L232.124 301.059L235.162 303.691L235.095 301.059L236.286 304.043L239.941 305.057H250.629L252.05 306.6L252.112 306.893L253.102 311.709Z" fill="#33211B"/>
<path d="M330.622 261.785C330.622 261.785 315.776 260.259 311.66 262.879C307.544 265.499 309.493 265.687 310.574 265.872C311.656 266.056 330.622 261.785 330.622 261.785Z" fill="url(#paint84_linear_332_63)"/>
<path d="M362.749 286.108C362.749 286.108 350.405 285.144 346.289 287.784C342.173 290.425 344.399 294.185 345.451 294.52C353.31 297.026 362.749 286.108 362.749 286.108Z" fill="url(#paint85_linear_332_63)"/>
<path d="M251.601 318.818C251.601 318.818 239.027 317.141 234.928 319.756C230.828 322.372 232.195 324.577 233.213 324.996C240.59 328.039 251.601 318.818 251.601 318.818Z" fill="url(#paint86_linear_332_63)"/>
<path d="M332.659 255.121L331.251 250.28L330.622 261.785L329.57 257.644L328.094 261.362L328.656 256.525L320.516 258.415L319.741 261.768L319.083 258.331L317.712 261.768L318.341 256.927V255.318C318.341 255.104 316.518 256.718 314.833 258.193C314.747 258.801 314.48 259.369 314.067 259.823C313.653 260.277 313.112 260.595 312.515 260.737V256.416L310.558 255.104L313.106 255.942L312.712 254.576L313.508 255.1L314.736 253.264L317.993 248.473H330.199L331.456 249.852L331.603 250.015L332.659 255.121Z" fill="#33211B"/>
<path d="M133.935 320.565C133.935 320.565 120.355 319.647 116.235 322.267C112.115 324.887 111.545 328.055 112.505 328.588C119.647 332.503 133.935 320.565 133.935 320.565Z" fill="url(#paint87_linear_332_63)"/>
<path d="M73.3023 281.552C73.3023 281.552 63.6621 281.908 59.106 283.685C53.4937 285.881 50.9118 289.042 51.8716 289.553C58.9928 293.51 73.3023 281.552 73.3023 281.552Z" fill="url(#paint88_linear_332_63)"/>
<path d="M56.1762 305.003C56.1762 305.003 46.5359 305.359 41.984 307.136C36.3675 309.332 33.7856 312.493 34.7497 313.004C41.8709 316.957 56.1762 305.003 56.1762 305.003Z" fill="url(#paint89_linear_332_63)"/>
<path d="M283.23 244.604C283.23 244.604 277.261 244.822 274.448 245.925C270.978 247.283 269.381 249.236 269.976 249.567C274.381 251.998 283.23 244.604 283.23 244.604Z" fill="url(#paint90_linear_332_63)"/>
<path d="M135.993 313.88L134.585 309.035L133.956 320.544L132.904 316.403L131.429 320.125L131.991 315.284L123.838 317.179L123.067 320.532L122.409 317.095L121.034 320.532L121.667 315.691V314.077C121.667 313.868 119.84 315.481 118.159 316.952C118.072 317.56 117.805 318.128 117.392 318.581C116.978 319.035 116.438 319.354 115.841 319.497V315.179L113.884 313.868L116.436 314.706L116.017 313.335L116.813 313.863L119.186 310.326L121.282 307.195H133.491L134.329 308.1L134.92 308.741L135.993 313.88Z" fill="#33211B"/>
<path d="M160.89 295.907C160.89 295.907 157.206 294.277 152.847 299.969C148.488 305.661 160.216 311.189 165.161 306.675C170.107 302.161 160.89 295.907 160.89 295.907Z" fill="url(#paint91_linear_332_63)"/>
<path d="M174.5 291.427L173.896 291.624L172.119 292.206L171.801 297.898L170.669 298.024L168.297 295.199L166.042 296.234C166.042 296.234 165.476 300.912 165.476 301.038C165.425 300.866 164.746 296.536 164.746 296.536L163.594 300.598L163.108 295.241L161.238 293.439L160.89 295.907L160.379 292.613L159.478 291.741L158.807 296.117L157.625 285.902L158.593 284.955L161.222 282.386L164.491 283.224L168.313 288.442L171.667 291.163L174.5 291.427Z" fill="#33211B"/>
<path d="M463.402 293.355C463.402 293.355 459.244 292.852 456.951 299.122C454.659 305.392 464.253 315.85 468.218 310.883C472.183 305.916 463.402 293.355 463.402 293.355Z" fill="url(#paint92_linear_332_63)"/>
<path d="M474.262 292.34V295.807L471.889 296.645L470.863 301.465L468.293 297.869L467.002 298.255C467.002 298.255 467.329 302.622 467.329 302.748C467.233 302.576 465.787 297.932 465.787 297.932L465.401 302.299L463.922 295.874L461.742 289.679L460.581 294.143L459.676 281.946V281.61L463.557 277.691L466.91 279.368L470.263 289.872L471.152 295.815L473.335 294.918L474.262 292.34Z" fill="#33211B"/>
<path d="M530.431 355.492C530.431 355.492 518.179 351.473 512.513 353.858C506.846 356.243 530.238 358.162 530.431 355.492Z" fill="url(#paint93_linear_332_63)"/>
<path d="M530.603 348.501V352.827C530.006 352.684 529.466 352.365 529.052 351.911C528.639 351.458 528.372 350.89 528.285 350.283C526.608 348.807 524.777 347.193 524.777 347.403V349.017L525.414 353.858L524.035 350.417L523.377 353.858L522.606 350.505L514.462 348.61L515.023 353.455L513.548 349.738L512.496 353.875L511.871 342.403V342.361V342.39L510.471 347.202L511.473 342.264L511.511 342.08L512.932 340.533H525.141L529.605 347.202L530.402 346.678L530.008 348.044L532.556 347.206L530.603 348.501Z" fill="#33211B"/>
<path d="M331.477 249.835L330.622 250.531L327.097 253.805L322.516 250.996L319.888 250.531L314.757 253.285L317.993 248.456H330.199L331.477 249.835Z" fill="#F9D59A"/>
<path d="M363.654 274.586L362.376 275.323L359.379 279.439L355.544 275.977L352.924 277.004L350.586 275.323L347.371 277.302L350.137 273.173H362.351L363.654 274.586Z" fill="#F9D59A"/>
<path d="M473.302 294.91L470.288 296.817L468.042 296.184L466.956 294.088L467.97 295.559H469.228L466.944 290.819L464.948 288.954L461.918 281.225C461.918 281.225 459.877 281.958 459.659 281.95V281.615L463.54 277.696L466.893 279.372L470.246 289.876L471.135 295.819L473.302 294.91Z" fill="#F9D59A"/>
<path d="M529.609 347.193L524.257 342.981L521.52 344.033H516.251L512.63 342.633L511.888 342.386H511.876L511.477 342.256L511.515 342.072L512.936 340.525H525.146L529.609 347.193Z" fill="#F9D59A"/>
<path d="M252.129 306.88L251.781 307.157L251.677 307.241L251.115 307.694L245.037 309.408L239.794 307.756L236.613 305.166L236.307 304.022L239.957 305.045H250.645L252.066 306.587L252.129 306.88Z" fill="#F9D59A"/>
<path d="M174.5 291.427L173.896 291.624L171.361 291.448L169.99 292.395V293.237L169.143 292.743L169.567 291.712L168.259 289.964H166.545L161.008 285.659L158.811 286.359L158.594 284.955L161.222 282.386L164.491 283.22L168.313 288.438L171.654 291.158L174.5 291.427Z" fill="#F9D59A"/>
<path d="M134.346 308.117L133.935 308.335L132.234 309.705L125.641 311.898L122.271 309.705L119.211 310.343L121.302 307.212H133.512L134.346 308.117Z" fill="#F9D59A"/>
<path d="M675.794 282.092C675.794 282.092 662.209 281.174 658.093 283.794C653.977 286.414 653.403 289.582 654.363 290.115C661.484 294.05 675.794 282.092 675.794 282.092Z" fill="url(#paint94_linear_332_63)"/>
<path d="M677.826 275.428L676.422 270.583L675.794 282.092L674.742 277.951L673.266 281.673L673.828 276.832L665.684 278.727L664.913 282.08L664.255 278.643L662.876 282.08L663.513 277.243V275.625C663.513 275.415 661.685 277.029 660 278.5C659.916 279.109 659.65 279.677 659.237 280.132C658.824 280.587 658.284 280.906 657.687 281.049V276.727L655.733 275.415L658.282 276.254L657.884 274.883L658.684 275.411L661.052 271.874L663.148 268.747H675.362L676.2 269.648L676.791 270.289L677.826 275.428Z" fill="#33211B"/>
<path d="M676.2 269.665L675.794 269.883L674.092 271.258L667.495 273.45L664.125 271.258L661.065 271.89L663.156 268.764H675.37L676.2 269.665Z" fill="#F9D59A"/>
<path d="M850.295 363.565C830.327 367.396 810.669 371.37 791.758 375.335C815.942 378.612 846.921 388.353 866.671 415.291H945.532C923.326 373.972 877.652 365.02 850.295 363.565Z" fill="url(#paint95_linear_332_63)"/>
<path d="M791.758 375.335C775.411 378.759 759.651 382.175 744.721 385.49C763.273 388.077 786.757 395.487 802.726 415.291H866.671C846.921 388.353 815.942 378.612 791.758 375.335Z" fill="url(#paint96_linear_332_63)"/>
<path d="M744.721 385.491C725.604 389.732 707.871 393.806 692.111 397.503C707.372 399.347 725.998 404.042 741.046 415.291H802.726C786.757 395.487 763.273 388.077 744.721 385.491Z" fill="url(#paint97_linear_332_63)"/>
<path d="M1488.98 318.394C1488.98 318.394 1413.51 318.348 1392.22 318.394C1402.63 319.886 1477.48 359.357 1488.98 363.557V318.394Z" fill="url(#paint98_linear_332_63)"/>
<path d="M1392.22 318.403C1373.91 318.449 1348.7 318.683 1318.26 319.383C1355.18 325.981 1407.49 369.261 1440.6 415.291H1488.98V358.942C1451.28 329.669 1402.64 319.895 1392.22 318.403Z" fill="url(#paint99_linear_332_63)"/>
<path d="M1318.26 319.383C1296.04 319.895 1271 320.641 1243.83 321.773C1213.93 323.005 1181.43 324.669 1147.2 326.92C1134.5 327.758 1121.57 328.674 1108.42 329.669C1139.53 336.375 1178.5 357.014 1199.12 415.291H1445.99C1412.67 372.48 1355.18 325.981 1318.26 319.383Z" fill="url(#paint100_linear_332_63)"/>
<path d="M1002.98 339.393C976.511 342.378 948.37 346.435 919.822 351.129C950.378 354.135 995.829 367.132 1019.48 415.296H1103.31C1080.25 358.762 1034.95 343.036 1002.98 339.393Z" fill="url(#paint101_linear_332_63)"/>
<path d="M1108.42 329.669C1076.53 332.104 1043.51 335.051 1009.98 338.626C1007.66 338.875 1005.33 339.131 1002.98 339.393C1034.95 343.036 1080.25 358.762 1103.29 415.291H1199.12C1178.5 357.031 1139.53 336.392 1108.42 329.669Z" fill="url(#paint102_linear_332_63)"/>
<path d="M919.822 351.125C896.686 354.931 873.297 359.152 850.295 363.565C877.652 365.02 923.326 373.972 945.532 415.291H1019.48C995.829 367.128 950.386 354.13 919.822 351.125Z" fill="url(#paint103_linear_332_63)"/>
<path d="M1351.73 415.291H1266.34C1249.75 376.311 1215.41 327.691 1147.2 326.92C1165.08 325.746 1182.49 324.732 1199.31 323.851C1203.26 323.642 1207.17 323.444 1211.04 323.256C1222.26 322.697 1233.19 322.203 1243.81 321.773C1272.66 330.587 1322.61 358.288 1351.73 415.291Z" fill="url(#paint104_linear_332_63)"/>
<path d="M1211.06 323.256C1220.9 326.014 1232.67 330.419 1246.53 337.243C1273.2 350.362 1298.32 385.57 1314.13 415.291H1303.35C1271.73 350.27 1228.32 329.875 1199.31 323.851L1211.06 323.256Z" fill="url(#paint105_linear_332_63)"/>
<path d="M62.2244 283.832C61.9939 280.366 61.5496 253.867 66.5038 252.92C71.4581 251.973 72.6946 282.26 72.6946 282.26C72.6946 282.26 62.9202 288.753 62.2244 283.832Z" fill="url(#paint106_linear_332_63)"/>
<path d="M49.8807 306.193C49.7675 302.727 49.5412 275.654 52.0183 274.711C54.4954 273.768 56.2391 295.149 56.1762 302.534C56.1343 307.421 50.807 307.191 49.8807 306.193Z" fill="url(#paint107_linear_332_63)"/>
<path d="M278.594 244.588C278.12 241.771 278.217 223.211 280.476 222.436C282.735 221.661 283.23 244.428 283.23 244.428C283.23 244.428 279.038 247.216 278.594 244.588Z" fill="url(#paint108_linear_332_63)"/>
<path d="M282.106 328.982C283.883 324.254 295.577 290.085 319.158 315.347C342.739 340.609 270.316 360.296 282.106 328.982Z" fill="url(#paint109_linear_332_63)"/>
<path d="M297.25 359.986L299.773 350.232L293.046 336.807L300.18 347.567L305.855 329.745L303.281 343.719L311.664 334.913L303.386 346.795L302.355 359.986H297.25Z" fill="#33211B"/>
<path d="M67.405 285.022V269.288L68.5115 285.022H67.405Z" fill="#33211B"/>
<path d="M53.0033 306.662C52.5841 306.734 53.0033 293.376 53.0033 293.376L53.6362 302.01L54.7595 300.019L53.787 303.2L54.7595 306.662H53.0033Z" fill="#33211B"/>
<path d="M311.664 359.986C311.664 359.986 298.545 356.524 280.798 361.998C263.052 367.472 277.332 376.496 311.664 359.986Z" fill="url(#paint110_linear_332_63)"/>
<path d="M707.485 202.824C715.126 202.321 722.763 201.764 730.399 201.202C738.036 200.641 745.669 200.066 753.297 199.442C768.554 198.184 783.806 196.805 798.984 195.011C802.756 194.546 806.566 194.052 810.334 193.465C814.102 192.878 817.878 192.249 821.391 191.025C823.14 190.447 824.811 189.654 826.366 188.666C827.896 187.702 829.07 186.356 830.524 184.96C831.263 184.264 832.06 183.63 832.905 183.066C833.751 182.516 834.636 182.03 835.554 181.612C837.354 180.804 839.214 180.135 841.116 179.608C844.851 178.584 848.642 177.775 852.47 177.185C856.272 176.565 860.086 176.058 863.9 175.588C871.529 174.671 879.174 174.029 886.811 173.413C902.092 172.189 917.387 171.317 932.669 170.358C947.951 169.398 963.233 168.551 978.439 167.105C982.237 166.74 986.03 166.33 989.781 165.755C991.65 165.462 993.52 165.139 995.322 164.687C996.203 164.475 997.067 164.195 997.904 163.848C998.253 163.708 998.581 163.519 998.876 163.287C998.977 163.194 999.006 163.123 998.994 163.157C998.981 163.19 999.023 163.257 998.994 163.157C998.783 162.895 998.522 162.679 998.227 162.52C997.849 162.295 997.457 162.095 997.053 161.92C996.575 161.737 996.108 161.527 995.653 161.292C995.095 161.011 994.612 160.602 994.245 160.097C994.114 159.895 994.026 159.669 993.988 159.431C993.95 159.193 993.962 158.951 994.023 158.718C994.142 158.337 994.367 157.998 994.672 157.741C995.104 157.375 995.589 157.075 996.11 156.853C997.03 156.456 997.978 156.131 998.948 155.88C1002.7 154.951 1006.5 154.251 1010.34 153.785C1017.96 152.812 1025.6 152.196 1033.24 151.66C1037.06 151.394 1040.89 151.159 1044.71 150.956C1048.54 150.752 1052.36 150.589 1056.19 150.469C1040.93 151.689 1025.64 152.892 1010.54 155.189C1006.78 155.707 1003.06 156.451 999.388 157.419C998.507 157.662 997.647 157.973 996.814 158.349C996.455 158.506 996.121 158.713 995.821 158.965C995.758 159.02 995.706 159.085 995.666 159.158C995.666 159.158 995.666 159.074 995.695 159.158C995.921 159.407 996.193 159.609 996.496 159.753C996.896 159.958 997.308 160.142 997.728 160.302C998.206 160.499 998.673 160.724 999.124 160.977C999.673 161.271 1000.15 161.685 1000.52 162.188C1000.65 162.388 1000.74 162.614 1000.79 162.851C1000.83 163.088 1000.83 163.332 1000.78 163.567C1000.67 163.977 1000.45 164.347 1000.14 164.632C999.7 165.015 999.205 165.328 998.671 165.558C997.745 165.964 996.788 166.293 995.808 166.543C993.91 167.059 992.007 167.428 990.104 167.763C986.298 168.421 982.484 168.907 978.67 169.352C971.037 170.244 963.396 170.844 955.755 171.447C948.114 172.051 940.473 172.575 932.832 173.065C917.55 174.067 902.268 175.018 887.016 176.15C879.39 176.709 871.782 177.388 864.189 178.187C856.62 179.025 849.008 179.956 841.715 181.813C838.098 182.777 834.527 183.971 831.882 186.423C831.199 187.031 830.528 187.714 829.786 188.385C829.04 189.067 828.233 189.68 827.376 190.217C825.668 191.248 823.837 192.063 821.927 192.643C818.176 193.863 814.349 194.441 810.556 195.024C806.763 195.607 802.974 196.08 799.164 196.499C791.544 197.338 783.911 198.013 776.274 198.62C768.638 199.228 761.001 199.769 753.356 200.297C738.074 201.292 722.784 202.134 707.485 202.824Z" fill="#6CBAB5"/>
<defs>
<linearGradient id="paint0_linear_332_63" x1="740.362" y1="84.7437" x2="719.971" y2="-105.878" gradientUnits="userSpaceOnUse">
<stop offset="0.04" stop-color="#27669D"/>
<stop offset="0.1" stop-color="#2A6C9E"/>
<stop offset="0.61" stop-color="#449AA4"/>
<stop offset="0.87" stop-color="#4EACA6"/>
</linearGradient>
<linearGradient id="paint1_linear_332_63" x1="961.007" y1="257.162" x2="952.134" y2="-109.612" gradientUnits="userSpaceOnUse">
<stop offset="0.11" stop-color="#27669D"/>
<stop offset="0.15" stop-color="#2A6C9E"/>
<stop offset="0.43" stop-color="#449AA4"/>
<stop offset="0.58" stop-color="#4EACA6"/>
</linearGradient>
<linearGradient id="paint2_linear_332_63" x1="817.376" y1="691.741" x2="687.131" y2="-150.353" gradientUnits="userSpaceOnUse">
<stop offset="0.04" stop-color="#89A222"/>
<stop offset="0.29" stop-color="#6BA766"/>
<stop offset="0.48" stop-color="#56AB94"/>
<stop offset="0.57" stop-color="#4EACA6"/>
</linearGradient>
<linearGradient id="paint3_linear_332_63" x1="197.997" y1="193.364" x2="192.079" y2="-78.751" gradientUnits="userSpaceOnUse">
<stop offset="0.14" stop-color="#27669D"/>
<stop offset="0.16" stop-color="#2A6C9E"/>
<stop offset="0.4" stop-color="#449AA4"/>
<stop offset="0.52" stop-color="#4EACA6"/>
</linearGradient>
<linearGradient id="paint4_linear_332_63" x1="1401.19" y1="-27.9676" x2="1421.89" y2="581.355" gradientUnits="userSpaceOnUse">
<stop offset="0.04" stop-color="#1D3600"/>
<stop offset="0.16" stop-color="#25491B"/>
<stop offset="0.5" stop-color="#3B7E65"/>
<stop offset="0.75" stop-color="#499F94"/>
<stop offset="0.87" stop-color="#4EACA6"/>
</linearGradient>
<linearGradient id="paint5_linear_332_63" x1="1282.17" y1="-23.9189" x2="1302.88" y2="585.388" gradientUnits="userSpaceOnUse">
<stop offset="0.04" stop-color="#1D3600"/>
<stop offset="0.16" stop-color="#25491B"/>
<stop offset="0.5" stop-color="#3B7E65"/>
<stop offset="0.75" stop-color="#499F94"/>
<stop offset="0.87" stop-color="#4EACA6"/>
</linearGradient>
<linearGradient id="paint6_linear_332_63" x1="255.051" y1="77.2452" x2="255.051" y2="357.446" gradientUnits="userSpaceOnUse">
<stop offset="0.04" stop-color="#1D3600"/>
<stop offset="0.16" stop-color="#25491B"/>
<stop offset="0.5" stop-color="#3B7E65"/>
<stop offset="0.75" stop-color="#499F94"/>
<stop offset="0.87" stop-color="#4EACA6"/>
</linearGradient>
<linearGradient id="paint7_linear_332_63" x1="274.143" y1="44.703" x2="274.143" y2="481.751" gradientUnits="userSpaceOnUse">
<stop offset="0.04" stop-color="#1D3600"/>
<stop offset="0.16" stop-color="#25491B"/>
<stop offset="0.5" stop-color="#3B7E65"/>
<stop offset="0.75" stop-color="#499F94"/>
<stop offset="0.87" stop-color="#4EACA6"/>
</linearGradient>
<linearGradient id="paint8_linear_332_63" x1="1267.59" y1="-23.4242" x2="1288.29" y2="585.882" gradientUnits="userSpaceOnUse">
<stop offset="0.04" stop-color="#1D3600"/>
<stop offset="0.16" stop-color="#25491B"/>
<stop offset="0.5" stop-color="#3B7E65"/>
<stop offset="0.75" stop-color="#499F94"/>
<stop offset="0.87" stop-color="#4EACA6"/>
</linearGradient>
<linearGradient id="paint9_linear_332_63" x1="1211.22" y1="-21.5087" x2="1231.92" y2="587.798" gradientUnits="userSpaceOnUse">
<stop offset="0.04" stop-color="#1D3600"/>
<stop offset="0.16" stop-color="#25491B"/>
<stop offset="0.5" stop-color="#3B7E65"/>
<stop offset="0.75" stop-color="#499F94"/>
<stop offset="0.87" stop-color="#4EACA6"/>
</linearGradient>
<linearGradient id="paint10_linear_332_63" x1="1193.87" y1="332.57" x2="1172.09" y2="124.105" gradientUnits="userSpaceOnUse">
<stop offset="0.38" stop-color="#89A222"/>
<stop offset="0.66" stop-color="#AABC28"/>
<stop offset="0.84" stop-color="#BCCA2C"/>
</linearGradient>
<linearGradient id="paint11_linear_332_63" x1="1098.18" y1="350.421" x2="1102.33" y2="46.5388" gradientUnits="userSpaceOnUse">
<stop offset="0.38" stop-color="#89A222"/>
<stop offset="0.66" stop-color="#AABC28"/>
<stop offset="0.84" stop-color="#BCCA2C"/>
</linearGradient>
<linearGradient id="paint12_linear_332_63" x1="1141.62" y1="338.027" x2="1119.84" y2="129.562" gradientUnits="userSpaceOnUse">
<stop offset="0.38" stop-color="#89A222"/>
<stop offset="0.66" stop-color="#AABC28"/>
<stop offset="0.84" stop-color="#BCCA2C"/>
</linearGradient>
<linearGradient id="paint13_linear_332_63" x1="1151.45" y1="351.15" x2="1155.6" y2="47.2681" gradientUnits="userSpaceOnUse">
<stop offset="0.38" stop-color="#89A222"/>
<stop offset="0.66" stop-color="#AABC28"/>
<stop offset="0.84" stop-color="#BCCA2C"/>
</linearGradient>
<linearGradient id="paint14_linear_332_63" x1="1044.33" y1="349.687" x2="1048.48" y2="45.8054" gradientUnits="userSpaceOnUse">
<stop offset="0.38" stop-color="#89A222"/>
<stop offset="0.66" stop-color="#AABC28"/>
<stop offset="0.84" stop-color="#BCCA2C"/>
</linearGradient>
<linearGradient id="paint15_linear_332_63" x1="1088.48" y1="343.576" x2="1066.71" y2="135.116" gradientUnits="userSpaceOnUse">
<stop offset="0.38" stop-color="#89A222"/>
<stop offset="0.66" stop-color="#AABC28"/>
<stop offset="0.84" stop-color="#BCCA2C"/>
</linearGradient>
<linearGradient id="paint16_linear_332_63" x1="1034.92" y1="349.172" x2="1013.14" y2="140.712" gradientUnits="userSpaceOnUse">
<stop offset="0.38" stop-color="#89A222"/>
<stop offset="0.66" stop-color="#AABC28"/>
<stop offset="0.84" stop-color="#BCCA2C"/>
</linearGradient>
<linearGradient id="paint17_linear_332_63" x1="922.79" y1="360.883" x2="901.011" y2="152.422" gradientUnits="userSpaceOnUse">
<stop offset="0.38" stop-color="#89A222"/>
<stop offset="0.66" stop-color="#AABC28"/>
<stop offset="0.84" stop-color="#BCCA2C"/>
</linearGradient>
<linearGradient id="paint18_linear_332_63" x1="936.626" y1="348.216" x2="940.771" y2="44.3343" gradientUnits="userSpaceOnUse">
<stop offset="0.38" stop-color="#89A222"/>
<stop offset="0.66" stop-color="#AABC28"/>
<stop offset="0.84" stop-color="#BCCA2C"/>
</linearGradient>
<linearGradient id="paint19_linear_332_63" x1="990.351" y1="348.95" x2="994.501" y2="45.0677" gradientUnits="userSpaceOnUse">
<stop offset="0.38" stop-color="#89A222"/>
<stop offset="0.66" stop-color="#AABC28"/>
<stop offset="0.84" stop-color="#BCCA2C"/>
</linearGradient>
<linearGradient id="paint20_linear_332_63" x1="981.348" y1="354.767" x2="959.569" y2="146.307" gradientUnits="userSpaceOnUse">
<stop offset="0.38" stop-color="#89A222"/>
<stop offset="0.66" stop-color="#AABC28"/>
<stop offset="0.84" stop-color="#BCCA2C"/>
</linearGradient>
<linearGradient id="paint21_linear_332_63" x1="1343.63" y1="316.927" x2="1321.85" y2="108.467" gradientUnits="userSpaceOnUse">
<stop offset="0.38" stop-color="#89A222"/>
<stop offset="0.66" stop-color="#AABC28"/>
<stop offset="0.84" stop-color="#BCCA2C"/>
</linearGradient>
<linearGradient id="paint22_linear_332_63" x1="1439.89" y1="306.872" x2="1418.11" y2="98.4119" gradientUnits="userSpaceOnUse">
<stop offset="0.38" stop-color="#89A222"/>
<stop offset="0.66" stop-color="#AABC28"/>
<stop offset="0.84" stop-color="#BCCA2C"/>
</linearGradient>
<linearGradient id="paint23_linear_332_63" x1="1392" y1="311.872" x2="1370.22" y2="103.412" gradientUnits="userSpaceOnUse">
<stop offset="0.38" stop-color="#89A222"/>
<stop offset="0.66" stop-color="#AABC28"/>
<stop offset="0.84" stop-color="#BCCA2C"/>
</linearGradient>
<linearGradient id="paint24_linear_332_63" x1="1464.55" y1="344.088" x2="1422.54" y2="8.06169" gradientUnits="userSpaceOnUse">
<stop offset="0.38" stop-color="#89A222"/>
<stop offset="0.66" stop-color="#AABC28"/>
<stop offset="0.84" stop-color="#BCCA2C"/>
</linearGradient>
<linearGradient id="paint25_linear_332_63" x1="1423.14" y1="349.26" x2="1381.14" y2="13.2338" gradientUnits="userSpaceOnUse">
<stop offset="0.38" stop-color="#89A222"/>
<stop offset="0.66" stop-color="#AABC28"/>
<stop offset="0.84" stop-color="#BCCA2C"/>
</linearGradient>
<linearGradient id="paint26_linear_332_63" x1="1469.51" y1="303.779" x2="1447.74" y2="95.3144" gradientUnits="userSpaceOnUse">
<stop offset="0.38" stop-color="#89A222"/>
<stop offset="0.66" stop-color="#AABC28"/>
<stop offset="0.84" stop-color="#BCCA2C"/>
</linearGradient>
<linearGradient id="paint27_linear_332_63" x1="1375.28" y1="355.241" x2="1333.28" y2="19.215" gradientUnits="userSpaceOnUse">
<stop offset="0.38" stop-color="#89A222"/>
<stop offset="0.66" stop-color="#AABC28"/>
<stop offset="0.84" stop-color="#BCCA2C"/>
</linearGradient>
<linearGradient id="paint28_linear_332_63" x1="1244.84" y1="327.242" x2="1223.06" y2="118.782" gradientUnits="userSpaceOnUse">
<stop offset="0.38" stop-color="#89A222"/>
<stop offset="0.66" stop-color="#AABC28"/>
<stop offset="0.84" stop-color="#BCCA2C"/>
</linearGradient>
<linearGradient id="paint29_linear_332_63" x1="1203.7" y1="351.863" x2="1207.85" y2="47.9807" gradientUnits="userSpaceOnUse">
<stop offset="0.38" stop-color="#89A222"/>
<stop offset="0.66" stop-color="#AABC28"/>
<stop offset="0.84" stop-color="#BCCA2C"/>
</linearGradient>
<linearGradient id="paint30_linear_332_63" x1="1254.69" y1="352.558" x2="1258.84" y2="48.6766" gradientUnits="userSpaceOnUse">
<stop offset="0.38" stop-color="#89A222"/>
<stop offset="0.66" stop-color="#AABC28"/>
<stop offset="0.84" stop-color="#BCCA2C"/>
</linearGradient>
<linearGradient id="paint31_linear_332_63" x1="1294.64" y1="322.041" x2="1272.87" y2="113.581" gradientUnits="userSpaceOnUse">
<stop offset="0.38" stop-color="#89A222"/>
<stop offset="0.66" stop-color="#AABC28"/>
<stop offset="0.84" stop-color="#BCCA2C"/>
</linearGradient>
<linearGradient id="paint32_linear_332_63" x1="1304.75" y1="353.242" x2="1308.9" y2="49.3597" gradientUnits="userSpaceOnUse">
<stop offset="0.38" stop-color="#89A222"/>
<stop offset="0.66" stop-color="#AABC28"/>
<stop offset="0.84" stop-color="#BCCA2C"/>
</linearGradient>
<linearGradient id="paint33_linear_332_63" x1="1190.11" y1="290.857" x2="1185.44" y2="135.284" gradientUnits="userSpaceOnUse">
<stop offset="0.33" stop-color="#B9C0B9"/>
<stop offset="0.35" stop-color="#BFC5BF"/>
<stop offset="0.56" stop-color="#EDEFED"/>
<stop offset="0.66" stop-color="white"/>
</linearGradient>
<linearGradient id="paint34_linear_332_63" x1="110.862" y1="17.5972" x2="110.862" y2="583.669" gradientUnits="userSpaceOnUse">
<stop offset="0.04" stop-color="#1D3600"/>
<stop offset="0.16" stop-color="#25491B"/>
<stop offset="0.5" stop-color="#3B7E65"/>
<stop offset="0.75" stop-color="#499F94"/>
<stop offset="0.87" stop-color="#4EACA6"/>
</linearGradient>
<linearGradient id="paint35_linear_332_63" x1="464.944" y1="327.347" x2="455.048" y2="134.446" gradientUnits="userSpaceOnUse">
<stop offset="0.38" stop-color="#89A222"/>
<stop offset="0.66" stop-color="#AABC28"/>
<stop offset="0.84" stop-color="#BCCA2C"/>
</linearGradient>
<linearGradient id="paint36_linear_332_63" x1="168.376" y1="99.1202" x2="159.914" y2="205.771" gradientUnits="userSpaceOnUse">
<stop offset="0.15" stop-color="#FFC926"/>
<stop offset="0.56" stop-color="#FFB912"/>
<stop offset="1" stop-color="#FFAB00"/>
</linearGradient>
<linearGradient id="paint37_linear_332_63" x1="698" y1="217.871" x2="684.034" y2="403.237" gradientUnits="userSpaceOnUse">
<stop offset="0.15" stop-color="#FFC926"/>
<stop offset="0.46" stop-color="#FFB912"/>
<stop offset="0.79" stop-color="#FFAB00"/>
</linearGradient>
<linearGradient id="paint38_linear_332_63" x1="450.765" y1="125.304" x2="442.302" y2="231.955" gradientUnits="userSpaceOnUse">
<stop offset="0.15" stop-color="#FFC926"/>
<stop offset="0.46" stop-color="#FFB912"/>
<stop offset="0.79" stop-color="#FFAB00"/>
</linearGradient>
<linearGradient id="paint39_linear_332_63" x1="298.834" y1="173.61" x2="279.793" y2="308.192" gradientUnits="userSpaceOnUse">
<stop offset="0.15" stop-color="#FFC926"/>
<stop offset="0.46" stop-color="#FFB912"/>
<stop offset="0.79" stop-color="#FFAB00"/>
</linearGradient>
<linearGradient id="paint40_linear_332_63" x1="143.253" y1="178.308" x2="85.8388" y2="563.303" gradientUnits="userSpaceOnUse">
<stop offset="0.04" stop-color="#1D3600"/>
<stop offset="0.16" stop-color="#25491B"/>
<stop offset="0.5" stop-color="#3B7E65"/>
<stop offset="0.75" stop-color="#499F94"/>
<stop offset="0.87" stop-color="#4EACA6"/>
</linearGradient>
<linearGradient id="paint41_linear_332_63" x1="334.696" y1="165.743" x2="348.167" y2="515.148" gradientUnits="userSpaceOnUse">
<stop offset="0.04" stop-color="#1D3600"/>
<stop offset="0.16" stop-color="#25491B"/>
<stop offset="0.5" stop-color="#3B7E65"/>
<stop offset="0.75" stop-color="#499F94"/>
<stop offset="0.87" stop-color="#4EACA6"/>
</linearGradient>
<linearGradient id="paint42_linear_332_63" x1="743.913" y1="323.009" x2="725.29" y2="97.8628" gradientUnits="userSpaceOnUse">
<stop offset="0.32" stop-color="#89A222"/>
<stop offset="0.56" stop-color="#A1B429"/>
<stop offset="0.87" stop-color="#BCC930"/>
<stop offset="1" stop-color="#BCCA2C"/>
</linearGradient>
<linearGradient id="paint43_linear_332_63" x1="699.471" y1="321.085" x2="685.928" y2="82.3965" gradientUnits="userSpaceOnUse">
<stop offset="0.2" stop-color="#89A222"/>
<stop offset="0.56" stop-color="#AABC28"/>
<stop offset="0.8" stop-color="#BCCA2C"/>
</linearGradient>
<linearGradient id="paint44_linear_332_63" x1="891.572" y1="197.887" x2="933.893" y2="302.844" gradientUnits="userSpaceOnUse">
<stop offset="0.15" stop-color="#FFC926"/>
<stop offset="0.46" stop-color="#FFB912"/>
<stop offset="0.79" stop-color="#FFAB00"/>
</linearGradient>
<linearGradient id="paint45_linear_332_63" x1="1071.25" y1="232.495" x2="1166.06" y2="300.208" gradientUnits="userSpaceOnUse">
<stop offset="0.15" stop-color="#FFC926"/>
<stop offset="0.46" stop-color="#FFB912"/>
<stop offset="0.79" stop-color="#FFAB00"/>
</linearGradient>
<linearGradient id="paint46_linear_332_63" x1="1333.41" y1="148.499" x2="1357.11" y2="422.74" gradientUnits="userSpaceOnUse">
<stop offset="0.15" stop-color="#FFC926"/>
<stop offset="0.46" stop-color="#FFB912"/>
<stop offset="0.79" stop-color="#FFAB00"/>
</linearGradient>
<linearGradient id="paint47_linear_332_63" x1="476.349" y1="195.904" x2="427.255" y2="536.164" gradientUnits="userSpaceOnUse">
<stop offset="0.04" stop-color="#1D3600"/>
<stop offset="0.09" stop-color="#2A4304"/>
<stop offset="0.24" stop-color="#4C650F"/>
<stop offset="0.39" stop-color="#678017"/>
<stop offset="0.55" stop-color="#7A931D"/>
<stop offset="0.7" stop-color="#859E21"/>
<stop offset="0.87" stop-color="#89A222"/>
</linearGradient>
<linearGradient id="paint48_linear_332_63" x1="713.085" y1="289.733" x2="787.57" y2="450.554" gradientUnits="userSpaceOnUse">
<stop offset="0.04" stop-color="#1D3600"/>
<stop offset="0.34" stop-color="#49620E"/>
<stop offset="0.69" stop-color="#77901C"/>
<stop offset="0.87" stop-color="#89A222"/>
</linearGradient>
<linearGradient id="paint49_linear_332_63" x1="719.762" y1="286.64" x2="794.243" y2="447.461" gradientUnits="userSpaceOnUse">
<stop offset="0.04" stop-color="#1D3600"/>
<stop offset="0.34" stop-color="#49620E"/>
<stop offset="0.69" stop-color="#77901C"/>
<stop offset="0.87" stop-color="#89A222"/>
</linearGradient>
<linearGradient id="paint50_linear_332_63" x1="724.33" y1="284.523" x2="798.816" y2="445.344" gradientUnits="userSpaceOnUse">
<stop offset="0.04" stop-color="#1D3600"/>
<stop offset="0.34" stop-color="#49620E"/>
<stop offset="0.69" stop-color="#77901C"/>
<stop offset="0.87" stop-color="#89A222"/>
</linearGradient>
<linearGradient id="paint51_linear_332_63" x1="729.867" y1="281.958" x2="804.353" y2="442.779" gradientUnits="userSpaceOnUse">
<stop offset="0.04" stop-color="#1D3600"/>
<stop offset="0.34" stop-color="#49620E"/>
<stop offset="0.69" stop-color="#77901C"/>
<stop offset="0.87" stop-color="#89A222"/>
</linearGradient>
<linearGradient id="paint52_linear_332_63" x1="1147.47" y1="223.827" x2="1227.88" y2="611.496" gradientUnits="userSpaceOnUse">
<stop offset="0.04" stop-color="#1D3600"/>
<stop offset="0.34" stop-color="#49620E"/>
<stop offset="0.69" stop-color="#77901C"/>
<stop offset="0.87" stop-color="#89A222"/>
</linearGradient>
<linearGradient id="paint53_linear_332_63" x1="1149.78" y1="223.35" x2="1230.19" y2="611.01" gradientUnits="userSpaceOnUse">
<stop offset="0.04" stop-color="#1D3600"/>
<stop offset="0.34" stop-color="#49620E"/>
<stop offset="0.69" stop-color="#77901C"/>
<stop offset="0.87" stop-color="#89A222"/>
</linearGradient>
<linearGradient id="paint54_linear_332_63" x1="1151.15" y1="223.069" x2="1231.55" y2="610.729" gradientUnits="userSpaceOnUse">
<stop offset="0.04" stop-color="#1D3600"/>
<stop offset="0.34" stop-color="#49620E"/>
<stop offset="0.69" stop-color="#77901C"/>
<stop offset="0.87" stop-color="#89A222"/>
</linearGradient>
<linearGradient id="paint55_linear_332_63" x1="1152.15" y1="222.855" x2="1232.56" y2="610.519" gradientUnits="userSpaceOnUse">
<stop offset="0.04" stop-color="#1D3600"/>
<stop offset="0.34" stop-color="#49620E"/>
<stop offset="0.69" stop-color="#77901C"/>
<stop offset="0.87" stop-color="#89A222"/>
</linearGradient>
<linearGradient id="paint56_linear_332_63" x1="802.165" y1="282.524" x2="857.722" y2="633.216" gradientUnits="userSpaceOnUse">
<stop offset="0.04" stop-color="#1D3600"/>
<stop offset="0.34" stop-color="#49620E"/>
<stop offset="0.69" stop-color="#77901C"/>
<stop offset="0.87" stop-color="#89A222"/>
</linearGradient>
<linearGradient id="paint57_linear_332_63" x1="801.691" y1="280.575" x2="855.576" y2="620.717" gradientUnits="userSpaceOnUse">
<stop offset="0.04" stop-color="#1D3600"/>
<stop offset="0.34" stop-color="#49620E"/>
<stop offset="0.69" stop-color="#77901C"/>
<stop offset="0.87" stop-color="#89A222"/>
</linearGradient>
<linearGradient id="paint58_linear_332_63" x1="804.575" y1="279.515" x2="852.29" y2="580.706" gradientUnits="userSpaceOnUse">
<stop offset="0.04" stop-color="#1D3600"/>
<stop offset="0.34" stop-color="#49620E"/>
<stop offset="0.69" stop-color="#77901C"/>
<stop offset="0.87" stop-color="#89A222"/>
</linearGradient>
<linearGradient id="paint59_linear_332_63" x1="804.516" y1="281.552" x2="856.699" y2="610.93" gradientUnits="userSpaceOnUse">
<stop offset="0.04" stop-color="#1D3600"/>
<stop offset="0.34" stop-color="#49620E"/>
<stop offset="0.69" stop-color="#77901C"/>
<stop offset="0.87" stop-color="#89A222"/>
</linearGradient>
<linearGradient id="paint60_linear_332_63" x1="1189.98" y1="216.861" x2="1206.9" y2="812.743" gradientUnits="userSpaceOnUse">
<stop offset="0.04" stop-color="#1D3600"/>
<stop offset="0.34" stop-color="#49620E"/>
<stop offset="0.69" stop-color="#77901C"/>
<stop offset="0.87" stop-color="#89A222"/>
</linearGradient>
<linearGradient id="paint61_linear_332_63" x1="1192.75" y1="216.782" x2="1209.68" y2="812.663" gradientUnits="userSpaceOnUse">
<stop offset="0.04" stop-color="#1D3600"/>
<stop offset="0.34" stop-color="#49620E"/>
<stop offset="0.69" stop-color="#77901C"/>
<stop offset="0.87" stop-color="#89A222"/>
</linearGradient>
<linearGradient id="paint62_linear_332_63" x1="1192.59" y1="216.786" x2="1209.51" y2="812.667" gradientUnits="userSpaceOnUse">
<stop offset="0.04" stop-color="#1D3600"/>
<stop offset="0.34" stop-color="#49620E"/>
<stop offset="0.69" stop-color="#77901C"/>
<stop offset="0.87" stop-color="#89A222"/>
</linearGradient>
<linearGradient id="paint63_linear_332_63" x1="1197.31" y1="216.652" x2="1214.24" y2="812.533" gradientUnits="userSpaceOnUse">
<stop offset="0.04" stop-color="#1D3600"/>
<stop offset="0.34" stop-color="#49620E"/>
<stop offset="0.69" stop-color="#77901C"/>
<stop offset="0.87" stop-color="#89A222"/>
</linearGradient>
<linearGradient id="paint64_linear_332_63" x1="774.463" y1="251.758" x2="771.699" y2="592.538" gradientUnits="userSpaceOnUse">
<stop offset="0.04" stop-color="#1D3600"/>
<stop offset="0.34" stop-color="#49620E"/>
<stop offset="0.69" stop-color="#77901C"/>
<stop offset="0.87" stop-color="#89A222"/>
</linearGradient>
<linearGradient id="paint65_linear_332_63" x1="870.795" y1="258.252" x2="932.92" y2="636.183" gradientUnits="userSpaceOnUse">
<stop offset="0.04" stop-color="#1D3600"/>
<stop offset="0.34" stop-color="#49620E"/>
<stop offset="0.69" stop-color="#77901C"/>
<stop offset="0.87" stop-color="#89A222"/>
</linearGradient>
<linearGradient id="paint66_linear_332_63" x1="1254.04" y1="201.655" x2="1318.61" y2="594.441" gradientUnits="userSpaceOnUse">
<stop offset="0.04" stop-color="#1D3600"/>
<stop offset="0.34" stop-color="#49620E"/>
<stop offset="0.69" stop-color="#77901C"/>
<stop offset="0.87" stop-color="#89A222"/>
</linearGradient>
<linearGradient id="paint67_linear_332_63" x1="1043.03" y1="243.204" x2="1073.5" y2="881.407" gradientUnits="userSpaceOnUse">
<stop offset="0.04" stop-color="#1D3600"/>
<stop offset="0.34" stop-color="#49620E"/>
<stop offset="0.69" stop-color="#77901C"/>
<stop offset="0.87" stop-color="#89A222"/>
</linearGradient>
<linearGradient id="paint68_linear_332_63" x1="1384.45" y1="247.505" x2="1420" y2="535.711" gradientUnits="userSpaceOnUse">
<stop offset="0.04" stop-color="#1D3600"/>
<stop offset="0.34" stop-color="#49620E"/>
<stop offset="0.69" stop-color="#77901C"/>
<stop offset="0.87" stop-color="#89A222"/>
</linearGradient>
<linearGradient id="paint69_linear_332_63" x1="714.447" y1="143.247" x2="722.641" y2="606.63" gradientUnits="userSpaceOnUse">
<stop offset="0.03" stop-color="#FAE1B5"/>
<stop offset="0.32" stop-color="#EDD493"/>
<stop offset="0.77" stop-color="#DCC365"/>
<stop offset="1" stop-color="#D5BC53"/>
</linearGradient>
<linearGradient id="paint70_linear_332_63" x1="905.462" y1="831.877" x2="895.063" y2="88.2603" gradientUnits="userSpaceOnUse">
<stop offset="0.04" stop-color="#1D3600"/>
<stop offset="0.07" stop-color="#223B02"/>
<stop offset="0.32" stop-color="#4E6710"/>
<stop offset="0.55" stop-color="#6E871A"/>
<stop offset="0.74" stop-color="#829B20"/>
<stop offset="0.87" stop-color="#89A222"/>
</linearGradient>
<linearGradient id="paint71_linear_332_63" x1="764.593" y1="317.422" x2="766.58" y2="429.894" gradientUnits="userSpaceOnUse">
<stop offset="0.03" stop-color="#FAE1B5"/>
<stop offset="0.32" stop-color="#EDD493"/>
<stop offset="0.77" stop-color="#DCC365"/>
<stop offset="1" stop-color="#D5BC53"/>
</linearGradient>
<linearGradient id="paint72_linear_332_63" x1="761.487" y1="323.613" x2="762.983" y2="408.153" gradientUnits="userSpaceOnUse">
<stop offset="0.44" stop-color="#89A222"/>
<stop offset="0.7" stop-color="#AABC28"/>
<stop offset="0.87" stop-color="#BCCA2C"/>
</linearGradient>
<linearGradient id="paint73_linear_332_63" x1="1035.09" y1="320.704" x2="1036.39" y2="393.664" gradientUnits="userSpaceOnUse">
<stop offset="0.03" stop-color="#FAE1B5"/>
<stop offset="0.32" stop-color="#EDD493"/>
<stop offset="0.77" stop-color="#DCC365"/>
<stop offset="1" stop-color="#D5BC53"/>
</linearGradient>
<linearGradient id="paint74_linear_332_63" x1="35.7724" y1="69.4156" x2="27.3057" y2="176.062" gradientUnits="userSpaceOnUse">
<stop offset="0.15" stop-color="#FFC926"/>
<stop offset="0.46" stop-color="#FFB912"/>
<stop offset="0.79" stop-color="#FFAB00"/>
</linearGradient>
<linearGradient id="paint75_linear_332_63" x1="98.1574" y1="175.186" x2="-11.029" y2="368.172" gradientUnits="userSpaceOnUse">
<stop offset="0.15" stop-color="#FFC926"/>
<stop offset="0.46" stop-color="#FFB912"/>
<stop offset="0.79" stop-color="#FFAB00"/>
</linearGradient>
<linearGradient id="paint76_linear_332_63" x1="628.267" y1="-30.2478" x2="650.159" y2="409.222" gradientUnits="userSpaceOnUse">
<stop offset="0.04" stop-color="#27669D"/>
<stop offset="0.1" stop-color="#2A6C9E"/>
<stop offset="0.61" stop-color="#449AA4"/>
<stop offset="0.87" stop-color="#4EACA6"/>
</linearGradient>
<linearGradient id="paint77_linear_332_63" x1="480.826" y1="-18.9228" x2="502.717" y2="420.589" gradientUnits="userSpaceOnUse">
<stop offset="0.04" stop-color="#27669D"/>
<stop offset="0.1" stop-color="#2A6C9E"/>
<stop offset="0.61" stop-color="#449AA4"/>
<stop offset="0.87" stop-color="#4EACA6"/>
</linearGradient>
<linearGradient id="paint78_linear_332_63" x1="765.331" y1="-33.1652" x2="787.222" y2="406.351" gradientUnits="userSpaceOnUse">
<stop offset="0.04" stop-color="#27669D"/>
<stop offset="0.1" stop-color="#2A6C9E"/>
<stop offset="0.61" stop-color="#449AA4"/>
<stop offset="0.87" stop-color="#4EACA6"/>
</linearGradient>
<linearGradient id="paint79_linear_332_63" x1="1066.64" y1="-55.212" x2="1088.53" y2="384.304" gradientUnits="userSpaceOnUse">
<stop offset="0.04" stop-color="#27669D"/>
<stop offset="0.1" stop-color="#2A6C9E"/>
<stop offset="0.61" stop-color="#449AA4"/>
<stop offset="0.87" stop-color="#4EACA6"/>
</linearGradient>
<linearGradient id="paint80_linear_332_63" x1="931.428" y1="-40.445" x2="953.32" y2="399.07" gradientUnits="userSpaceOnUse">
<stop offset="0.04" stop-color="#27669D"/>
<stop offset="0.1" stop-color="#2A6C9E"/>
<stop offset="0.61" stop-color="#449AA4"/>
<stop offset="0.87" stop-color="#4EACA6"/>
</linearGradient>
<linearGradient id="paint81_linear_332_63" x1="862.672" y1="-34.9376" x2="884.564" y2="404.599" gradientUnits="userSpaceOnUse">
<stop offset="0.04" stop-color="#27669D"/>
<stop offset="0.1" stop-color="#2A6C9E"/>
<stop offset="0.61" stop-color="#449AA4"/>
<stop offset="0.87" stop-color="#4EACA6"/>
</linearGradient>
<linearGradient id="paint82_linear_332_63" x1="55.9582" y1="816.766" x2="940.104" y2="-563.669" gradientUnits="userSpaceOnUse">
<stop offset="0.35" stop-color="#89A222"/>
<stop offset="0.53" stop-color="#5D7614"/>
<stop offset="0.74" stop-color="#2F4806"/>
<stop offset="0.84" stop-color="#1D3600"/>
</linearGradient>
<linearGradient id="paint83_linear_332_63" x1="448.229" y1="181.503" x2="798.527" y2="411.385" gradientUnits="userSpaceOnUse">
<stop offset="0.03" stop-color="#FAE1B5"/>
<stop offset="0.32" stop-color="#EDD493"/>
<stop offset="0.77" stop-color="#DCC365"/>
<stop offset="1" stop-color="#D5BC53"/>
</linearGradient>
<linearGradient id="paint84_linear_332_63" x1="246.961" y1="377.267" x2="365.977" y2="191.44" gradientUnits="userSpaceOnUse">
<stop offset="0.49" stop-color="#89A222"/>
<stop offset="0.6" stop-color="#5D7614"/>
<stop offset="0.73" stop-color="#2F4806"/>
<stop offset="0.8" stop-color="#1D3600"/>
</linearGradient>
<linearGradient id="paint85_linear_332_63" x1="283.418" y1="397.39" x2="417.053" y2="188.745" gradientUnits="userSpaceOnUse">
<stop offset="0.42" stop-color="#89A222"/>
<stop offset="0.47" stop-color="#728B1B"/>
<stop offset="0.58" stop-color="#4D660F"/>
<stop offset="0.68" stop-color="#334C07"/>
<stop offset="0.77" stop-color="#233C02"/>
<stop offset="0.84" stop-color="#1D3600"/>
</linearGradient>
<linearGradient id="paint86_linear_332_63" x1="172.144" y1="429.572" x2="295.364" y2="237.19" gradientUnits="userSpaceOnUse">
<stop offset="0.35" stop-color="#89A222"/>
<stop offset="0.53" stop-color="#5D7614"/>
<stop offset="0.74" stop-color="#2F4806"/>
<stop offset="0.84" stop-color="#1D3600"/>
</linearGradient>
<linearGradient id="paint87_linear_332_63" x1="35.5209" y1="460.207" x2="184.534" y2="227.549" gradientUnits="userSpaceOnUse">
<stop offset="0.37" stop-color="#89A222"/>
<stop offset="0.54" stop-color="#5D7614"/>
<stop offset="0.74" stop-color="#2F4806"/>
<stop offset="0.84" stop-color="#1D3600"/>
</linearGradient>
<linearGradient id="paint88_linear_332_63" x1="-35.0207" y1="437.477" x2="113.989" y2="204.824" gradientUnits="userSpaceOnUse">
<stop offset="0.37" stop-color="#89A222"/>
<stop offset="0.54" stop-color="#5D7614"/>
<stop offset="0.74" stop-color="#2F4806"/>
<stop offset="0.84" stop-color="#1D3600"/>
</linearGradient>
<linearGradient id="paint89_linear_332_63" x1="-52.3648" y1="461.271" x2="96.644" y2="228.618" gradientUnits="userSpaceOnUse">
<stop offset="0.51" stop-color="#89A222"/>
<stop offset="0.63" stop-color="#5D7614"/>
<stop offset="0.77" stop-color="#2F4806"/>
<stop offset="0.84" stop-color="#1D3600"/>
</linearGradient>
<linearGradient id="paint90_linear_332_63" x1="222.58" y1="331.132" x2="314.748" y2="187.224" gradientUnits="userSpaceOnUse">
<stop offset="0.55" stop-color="#89A222"/>
<stop offset="0.66" stop-color="#5D7614"/>
<stop offset="0.78" stop-color="#2F4806"/>
<stop offset="0.84" stop-color="#1D3600"/>
</linearGradient>
<linearGradient id="paint91_linear_332_63" x1="99.9346" y1="395.697" x2="200.939" y2="237.994" gradientUnits="userSpaceOnUse">
<stop offset="0.35" stop-color="#89A222"/>
<stop offset="0.53" stop-color="#5D7614"/>
<stop offset="0.74" stop-color="#2F4806"/>
<stop offset="0.84" stop-color="#1D3600"/>
</linearGradient>
<linearGradient id="paint92_linear_332_63" x1="390.115" y1="417.865" x2="515.853" y2="221.543" gradientUnits="userSpaceOnUse">
<stop offset="0.38" stop-color="#89A222"/>
<stop offset="0.55" stop-color="#5D7614"/>
<stop offset="0.75" stop-color="#2F4806"/>
<stop offset="0.84" stop-color="#1D3600"/>
</linearGradient>
<linearGradient id="paint93_linear_332_63" x1="525.229" y1="386.576" x2="516.813" y2="323.424" gradientUnits="userSpaceOnUse">
<stop offset="0.38" stop-color="#89A222"/>
<stop offset="0.55" stop-color="#5D7614"/>
<stop offset="0.75" stop-color="#2F4806"/>
<stop offset="0.84" stop-color="#1D3600"/>
</linearGradient>
<linearGradient id="paint94_linear_332_63" x1="574.952" y1="425.543" x2="723.965" y2="192.886" gradientUnits="userSpaceOnUse">
<stop offset="0.38" stop-color="#89A222"/>
<stop offset="0.55" stop-color="#5D7614"/>
<stop offset="0.75" stop-color="#2F4806"/>
<stop offset="0.84" stop-color="#1D3600"/>
</linearGradient>
<linearGradient id="paint95_linear_332_63" x1="975.006" y1="1294.53" x2="883.21" y2="518.438" gradientUnits="userSpaceOnUse">
<stop offset="0.04" stop-color="#89A222"/>
<stop offset="0.53" stop-color="#AABC28"/>
<stop offset="0.87" stop-color="#BCCA2C"/>
</linearGradient>
<linearGradient id="paint96_linear_332_63" x1="821.609" y1="566.895" x2="794.499" y2="283.27" gradientUnits="userSpaceOnUse">
<stop offset="0.04" stop-color="#89A222"/>
<stop offset="0.53" stop-color="#AABC28"/>
<stop offset="0.87" stop-color="#BCCA2C"/>
</linearGradient>
<linearGradient id="paint97_linear_332_63" x1="854.147" y1="1308.74" x2="762.342" y2="532.555" gradientUnits="userSpaceOnUse">
<stop offset="0.04" stop-color="#89A222"/>
<stop offset="0.53" stop-color="#AABC28"/>
<stop offset="0.87" stop-color="#BCCA2C"/>
</linearGradient>
<linearGradient id="paint98_linear_332_63" x1="1548.17" y1="1227.9" x2="1456.35" y2="451.551" gradientUnits="userSpaceOnUse">
<stop offset="0.04" stop-color="#89A222"/>
<stop offset="0.53" stop-color="#AABC28"/>
<stop offset="0.87" stop-color="#BCCA2C"/>
</linearGradient>
<linearGradient id="paint99_linear_332_63" x1="1423.33" y1="545.313" x2="1391.46" y2="211.936" gradientUnits="userSpaceOnUse">
<stop offset="0.04" stop-color="#89A222"/>
<stop offset="0.53" stop-color="#AABC28"/>
<stop offset="0.87" stop-color="#BCCA2C"/>
</linearGradient>
<linearGradient id="paint100_linear_332_63" x1="1380.87" y1="1248.83" x2="1288.89" y2="471.213" gradientUnits="userSpaceOnUse">
<stop offset="0.04" stop-color="#89A222"/>
<stop offset="0.53" stop-color="#AABC28"/>
<stop offset="0.87" stop-color="#BCCA2C"/>
</linearGradient>
<linearGradient id="paint101_linear_332_63" x1="1117.33" y1="1277.48" x2="1025.58" y2="501.777" gradientUnits="userSpaceOnUse">
<stop offset="0.04" stop-color="#89A222"/>
<stop offset="0.53" stop-color="#AABC28"/>
<stop offset="0.87" stop-color="#BCCA2C"/>
</linearGradient>
<linearGradient id="paint102_linear_332_63" x1="1116.51" y1="539.089" x2="1089.4" y2="255.452" gradientUnits="userSpaceOnUse">
<stop offset="0.04" stop-color="#89A222"/>
<stop offset="0.53" stop-color="#AABC28"/>
<stop offset="0.87" stop-color="#BCCA2C"/>
</linearGradient>
<linearGradient id="paint103_linear_332_63" x1="950.684" y1="554.69" x2="923.578" y2="271.153" gradientUnits="userSpaceOnUse">
<stop offset="0.04" stop-color="#89A222"/>
<stop offset="0.53" stop-color="#AABC28"/>
<stop offset="0.87" stop-color="#BCCA2C"/>
</linearGradient>
<linearGradient id="paint104_linear_332_63" x1="1250.15" y1="371.961" x2="1544.96" y2="875.597" gradientUnits="userSpaceOnUse">
<stop offset="0.03" stop-color="#FAE1B5"/>
<stop offset="0.32" stop-color="#EDD493"/>
<stop offset="0.77" stop-color="#DCC365"/>
<stop offset="1" stop-color="#D5BC53"/>
</linearGradient>
<linearGradient id="paint105_linear_332_63" x1="1288.6" y1="503.093" x2="1235.22" y2="279.536" gradientUnits="userSpaceOnUse">
<stop offset="0.44" stop-color="#89A222"/>
<stop offset="0.7" stop-color="#AABC28"/>
<stop offset="0.87" stop-color="#BCCA2C"/>
</linearGradient>
<linearGradient id="paint106_linear_332_63" x1="66.9314" y1="241.595" x2="69.4714" y2="450.449" gradientUnits="userSpaceOnUse">
<stop offset="0.04" stop-color="#1D3600"/>
<stop offset="0.16" stop-color="#25491B"/>
<stop offset="0.5" stop-color="#3B7E65"/>
<stop offset="0.75" stop-color="#499F94"/>
<stop offset="0.87" stop-color="#4EACA6"/>
</linearGradient>
<linearGradient id="paint107_linear_332_63" x1="52.5129" y1="273.366" x2="55.0487" y2="424.026" gradientUnits="userSpaceOnUse">
<stop offset="0.04" stop-color="#1D3600"/>
<stop offset="0.16" stop-color="#25491B"/>
<stop offset="0.5" stop-color="#3B7E65"/>
<stop offset="0.75" stop-color="#499F94"/>
<stop offset="0.87" stop-color="#4EACA6"/>
</linearGradient>
<linearGradient id="paint108_linear_332_63" x1="280.534" y1="212.163" x2="281.381" y2="307.807" gradientUnits="userSpaceOnUse">
<stop offset="0.04" stop-color="#1D3600"/>
<stop offset="0.16" stop-color="#25491B"/>
<stop offset="0.5" stop-color="#3B7E65"/>
<stop offset="0.75" stop-color="#499F94"/>
<stop offset="0.87" stop-color="#4EACA6"/>
</linearGradient>
<linearGradient id="paint109_linear_332_63" x1="305.272" y1="260.02" x2="297.774" y2="440.981" gradientUnits="userSpaceOnUse">
<stop offset="0.24" stop-color="#1D3600"/>
<stop offset="0.32" stop-color="#213F0D"/>
<stop offset="0.47" stop-color="#2B5830"/>
<stop offset="0.67" stop-color="#3C8068"/>
<stop offset="0.87" stop-color="#4EACA6"/>
</linearGradient>
<linearGradient id="paint110_linear_332_63" x1="265.902" y1="416.888" x2="324.008" y2="299.415" gradientUnits="userSpaceOnUse">
<stop offset="0.03" stop-color="#89A222"/>
<stop offset="0.99" stop-color="#1D3600"/>
</linearGradient>
</defs>
</svg>
