<svg width="526" height="384" viewBox="0 0 526 384" fill="none" xmlns="http://www.w3.org/2000/svg">
<path d="M69.9991 325.486C70.0907 334.165 62.9961 341.289 55.2869 342.621C47.0529 344.339 37.5339 340.143 34.1507 331.627C31.5894 325.356 33.452 317.661 38.268 313.248C45.9472 305.751 59.2582 306.309 66.118 314.776C68.5301 317.663 69.9911 321.454 69.9991 325.342" fill="#2D1A16" fill-opacity="0.31"/>
<path d="M73.9991 317.486C74.0932 326.165 66.8069 333.289 58.8893 334.621C50.4328 336.339 40.6564 332.143 37.1818 323.627C34.5513 317.357 36.4642 309.661 41.4103 305.248C49.2971 297.751 62.9679 298.309 70.0131 306.776C72.4903 309.663 73.9908 313.454 73.9991 317.342" fill="white"/>
<path d="M73.9991 317.486C74.0932 326.165 66.8069 333.289 58.8893 334.621C50.4328 336.339 40.6564 332.143 37.1818 323.627C34.5513 317.357 36.4642 309.661 41.4103 305.248C49.2971 297.751 62.9679 298.309 70.0131 306.776C72.4903 309.663 73.9908 313.454 73.9991 317.342" stroke="black" stroke-width="2" stroke-linecap="round" stroke-linejoin="round"/>
<path d="M27.9982 359.988C28.1124 366.321 22.6819 371.97 16.3204 372.813C9.94122 373.88 2.917 370.306 0.771681 364.244C-1.32536 358.88 1.00065 352.426 5.94336 349.364C11.375 345.721 19.3598 346.324 24.0146 350.925C26.4902 353.248 28.0124 356.518 27.998 359.881" fill="#2D1A16" fill-opacity="0.3"/>
<path d="M29.9983 354.487C30.1084 361.064 24.8718 366.931 18.7376 367.805C12.5862 368.913 5.81282 365.202 3.74412 358.907C1.72198 353.337 3.96492 346.635 8.7311 343.455C13.9688 339.672 21.6684 340.298 26.1569 345.076C28.5442 347.489 30.0119 350.884 29.9981 354.377" fill="white"/>
<path d="M29.9983 354.487C30.1084 361.064 24.8718 366.931 18.7376 367.805C12.5862 368.913 5.81282 365.202 3.74412 358.907C1.72198 353.337 3.96492 346.635 8.7311 343.455C13.9688 339.672 21.6684 340.298 26.1569 345.076C28.5442 347.489 30.0119 350.884 29.9981 354.377" stroke="black" stroke-width="2" stroke-linecap="round" stroke-linejoin="round"/>
<path d="M316.979 15C278.49 15 244.32 31.9993 222.589 58.3036C208.258 44.6139 189.185 36.2742 168.311 36.2742C135.14 36.2742 106.754 57.2662 94.3591 87.3533C45.6179 90.2817 7 127.964 7 174.067C7 208.05 27.9298 237.412 58.4666 251.713C58.1477 254.775 57.926 257.853 57.926 261C57.926 310.187 97.8798 350.092 147.123 350.092C163.265 350.092 178.391 345.705 191.452 338.213C211.291 365.851 244.923 384 283.03 384C330.793 384 371.444 355.38 386.823 315.428C396.919 318.675 407.676 320.395 418.826 320.395C477.452 320.395 525 271.918 525 212.189V211.326C524.564 157.14 485.057 112.556 433.856 105.174C423.663 53.8329 375.197 15.0052 316.981 15.0052L316.979 15Z" fill="#2D1A16" fill-opacity="0.31"/>
<path d="M316.979 1C278.49 1 244.32 17.9993 222.589 44.3036C208.258 30.6139 189.185 22.2742 168.311 22.2742C135.14 22.2742 106.754 43.2662 94.3592 73.3533C45.6179 76.2817 7 113.964 7 160.067C7 194.05 27.9298 223.412 58.4666 237.713C58.1477 240.775 57.926 243.853 57.926 247C57.926 296.187 97.8797 336.092 147.123 336.092C163.265 336.092 178.391 331.705 191.452 324.213C211.291 351.85 244.923 370 283.03 370C330.793 370 371.444 341.38 386.823 301.428C396.919 304.675 407.676 306.395 418.826 306.395C477.452 306.395 525 257.918 525 198.19V197.326C524.564 143.14 485.057 98.5556 433.856 91.1741C423.663 39.8329 375.197 1.00524 316.981 1.00524L316.979 1Z" fill="white" stroke="black" stroke-width="2" stroke-linecap="round" stroke-linejoin="round"/>
</svg>
