<svg width="31" height="37" viewBox="0 0 31 37" fill="none" xmlns="http://www.w3.org/2000/svg">
<path d="M6.46875 0C4.97691 0 3.54617 0.64531 2.49127 1.79397C1.43638 2.94263 0.84375 4.50055 0.84375 6.125C0.84375 7.74945 1.43638 9.30737 2.49127 10.456C3.54617 11.6047 4.97691 12.25 6.46875 12.25C7.55289 12.2484 8.6135 11.9057 9.52295 11.2631L19.2115 17.3163C19.1008 18.0146 19.1022 18.7285 19.2156 19.4262L10.5914 26.4649C10.0654 25.846 9.42778 25.3521 8.71838 25.014C8.00899 24.6759 7.24312 24.5009 6.46875 24.5C4.97691 24.5 3.54617 25.1453 2.49127 26.294C1.43638 27.4426 0.84375 29.0005 0.84375 30.625C0.84375 32.2495 1.43638 33.8074 2.49127 34.956C3.54617 36.1047 4.97691 36.75 6.46875 36.75C7.30947 36.7496 8.13941 36.5439 8.89753 36.1482C9.65565 35.7524 10.3227 35.1767 10.8495 34.4633C11.3764 33.7499 11.7496 32.917 11.9419 32.0258C12.1342 31.1346 12.1405 30.2078 11.9605 29.3136L21.3717 23.2708C22.3458 24.0682 23.5314 24.4996 24.75 24.5C26.2418 24.5 27.6726 23.8547 28.7275 22.706C29.7824 21.5574 30.375 19.9995 30.375 18.375C30.375 16.7505 29.7824 15.1926 28.7275 14.044C27.6726 12.8953 26.2418 12.25 24.75 12.25C23.9448 12.2514 23.1493 12.4411 22.4172 12.8061C21.6851 13.1712 21.0336 13.7031 20.5065 14.3659L11.9111 7.65924C12.1261 6.7543 12.1481 5.80778 11.9753 4.89217C11.8025 3.97656 11.4396 3.11616 10.9143 2.37687C10.389 1.63758 9.71522 1.03902 8.94467 0.627027C8.17411 0.215037 7.32718 0.000551818 6.46875 0Z" fill="black"/>
</svg>
